0
SECTION
2
HEADER
9
$INSUNITS
70
4
9
$ACADVER
1
AC1014
9
$HANDSEED
5
FFFF
0
ENDSEC
0
SECTION
2
TABLES
0
TABLE
2
VPORT
5
8
100
AcDbSymbolTable
0
ENDTAB
0
TABLE
2
LTYPE
5
5
100
AcDbSymbolTable
0
LTYPE
5
14
100
AcDbSymbolTableRecord
100
AcDbLinetypeTableRecord
2
BYBLOCK
70
0
0
LTYPE
5
15
100
AcDbSymbolTableRecord
100
AcDbLinetypeTableRecord
2
BYLAYER
70
0
0
ENDTAB
0
TABLE
2
LAYER
5
2
100
AcDbSymbolTable
70
2
0
LAYER
5
50
100
AcDbSymbolTableRecord
100
AcDbLayerTableRecord
2
0
70
0
6
CONTINUOUS
0
ENDTAB
0
TABLE
2
STYLE
5
3
100
AcDbSymbolTable
70
1
0
STYLE
5
11
100
AcDbSymbolTableRecord
100
AcDbTextStyleTableRecord
2
STANDARD
70
0
0
ENDTAB
0
TABLE
2
VIEW
5
6
100
AcDbSymbolTable
70
0
0
ENDTAB
0
TABLE
2
UCS
5
7
100
AcDbSymbolTable
70
0
0
ENDTAB
0
TABLE
2
APPID
5
9
100
AcDbSymbolTable
70
2
0
APPID
5
12
100
AcDbSymbolTableRecord
100
AcDbRegAppTableRecord
2
ACAD
70
0
0
ENDTAB
0
TABLE
2
DIMSTYLE
5
A
100
AcDbSymbolTable
70
1
0
ENDTAB
0
TABLE
2
BLOCK_RECORD
5
1
100
AcDbSymbolTable
70
1
0
BLOCK_RECORD
5
1F
100
AcDbSymbolTableRecord
100
AcDbBlockTableRecord
2
*MODEL_SPACE
0
BLOCK_RECORD
5
1B
100
AcDbSymbolTableRecord
100
AcDbBlockTableRecord
2
*PAPER_SPACE
0
ENDTAB
0
ENDSEC
0
SECTION
2
BLOCKS
0
BLOCK
5
20
100
AcDbEntity
100
AcDbBlockBegin
2
*MODEL_SPACE
0
ENDBLK
5
21
100
AcDbEntity
100
AcDbBlockEnd
0
BLOCK
5
1C
100
AcDbEntity
100
AcDbBlockBegin
2
*PAPER_SPACE
0
ENDBLK
5
1D
100
AcDbEntity
100
AcDbBlockEnd
0
ENDSEC
0
SECTION
2
ENTITIES
0
LWPOLYLINE
5
100
100
AcDbEntity
8
0
100
AcDbPolyline
90
26
70
1
43
0.0
10
1.5000000000000004
20
-95.249999999999986
42
-0.41421356237308932
10
0
20
-93.75
10
3.0531133177191805e-15
20
-20.550000000000001
42
-0.41421356237309465
10
1.5000000000000002
20
-19.050000000000004
10
8.2021243444677054
20
-19.050000000000001
42
-0.18267581368160235
10
9.1942810861169271
20
-19.425000000000001
42
0.18267581368159819
10
9.5250000000000021
20
-19.550000000000001
10
16.050000000000022
20
-19.550000000000001
42
0.99999999999999989
10
16.050000000000022
20
-18.550000000000001
10
11.025
20
-18.549999999999997
42
-0.41421356237309453
10
9.5250000000000021
20
-17.050000000000001
10
9.5250000000000021
20
-1.4999999999999991
42
-0.4142135623730927
10
11.024999999999991
20
8.8949551768702154e-16
10
124.85000000000002
20
-8.3266726846886741e-15
42
-0.41421356237308904
10
126.35000000000002
20
-1.4999999999999991
10
126.35000000000004
20
-17.050000000000001
42
-0.41421356237309853
10
124.85000000000001
20
-18.550000000000001
10
117.30000000000001
20
-18.550000000000001
42
0.99999999999999989
10
117.30000000000001
20
-19.550000000000004
10
126.35000000000002
20
-19.550000000000004
42
0.18267581368157032
10
126.68071891388308
20
-19.425000000000018
42
-0.18267581368160304
10
127.67287565553232
20
-19.050000000000004
10
203.28750000000002
20
-19.050000000000018
42
-0.41421356237312101
10
204.78750000000002
20
-20.549999999999997
10
204.78750000000002
20
-93.75
42
-0.41421356237311241
10
203.28750000000002
20
-95.25
0
LWPOLYLINE
5
101
100
AcDbEntity
8
0
100
AcDbPolyline
90
8
70
1
43
0.0
10
35.075000000000003
20
-21.575000000000003
42
-0.41421356237309509
10
35.575000000000003
20
-22.074999999999999
10
35.575000000000003
20
-35.075000000000003
42
-0.41421356237309509
10
35.075000000000003
20
-35.575000000000003
10
22.074999999999999
20
-35.575000000000003
42
-0.41421356237309509
10
21.575000000000003
20
-35.075000000000003
10
21.575000000000003
20
-22.074999999999999
42
-0.41421356237309509
10
22.074999999999999
20
-21.575000000000003
0
LWPOLYLINE
5
102
100
AcDbEntity
8
0
100
AcDbPolyline
90
8
70
1
43
0.0
10
78.724999999999994
20
-22.074999999999999
10
78.724999999999994
20
-35.075000000000003
42
0.4142135623730977
10
79.224999999999994
20
-35.575000000000003
10
92.224999999999994
20
-35.575000000000003
42
0.41421356237310542
10
92.725000000000009
20
-35.075000000000003
10
92.725000000000009
20
-22.074999999999999
42
0.41421356237309509
10
92.224999999999994
20
-21.575000000000003
10
79.224999999999994
20
-21.575000000000003
42
0.4142135623730977
0
LWPOLYLINE
5
103
100
AcDbEntity
8
0
100
AcDbPolyline
90
8
70
1
43
0.0
10
188.26250000000002
20
-60.174999999999997
42
-0.4142135623730222
10
188.76249999999999
20
-59.675000000000004
10
201.76249999999999
20
-59.674999999999997
42
-0.41421356237313667
10
202.26249999999999
20
-60.174999999999997
10
202.26250000000005
20
-73.175000000000011
42
-0.414213562373069
10
201.76249999999999
20
-73.674999999999997
10
188.76249999999999
20
-73.674999999999983
42
-0.41421356237312101
10
188.26249999999999
20
-73.174999999999997
0
LWPOLYLINE
5
104
100
AcDbEntity
8
0
100
AcDbPolyline
90
8
70
1
43
0.0
10
140.63749999999999
20
-41.125
42
-0.41421356237308982
10
141.13749999999999
20
-40.625
10
154.13749999999999
20
-40.624999999999993
42
-0.41421356237309509
10
154.63750000000002
20
-41.125
10
154.63750000000002
20
-54.125000000000007
42
-0.41421356237308982
10
154.13749999999999
20
-54.625
10
141.13749999999999
20
-54.625000000000014
42
-0.41421356237309509
10
140.63749999999999
20
-54.125000000000007
0
LWPOLYLINE
5
105
100
AcDbEntity
8
0
100
AcDbPolyline
90
8
70
1
43
0.0
10
83.487499999999983
20
-41.125
10
83.487499999999983
20
-54.125000000000007
42
0.41421356237309509
10
83.987499999999997
20
-54.625
10
96.987500000000011
20
-54.625
42
0.41421356237308982
10
97.487500000000011
20
-54.125000000000007
10
97.487500000000011
20
-41.125
42
0.41421356237309509
10
96.987500000000011
20
-40.625
10
83.987499999999997
20
-40.625
42
0.41421356237308982
0
LWPOLYLINE
5
106
100
AcDbEntity
8
0
100
AcDbPolyline
90
8
70
1
43
0.0
10
181.11875000000001
20
-22.074999999999999
42
-0.41421356237305079
10
181.61875000000003
20
-21.575000000000003
10
194.61875000000003
20
-21.574999999999996
42
-0.414213562373134
10
195.11875000000003
20
-22.074999999999999
10
195.11875000000006
20
-35.075000000000003
42
-0.41421356237307683
10
194.61875000000003
20
-35.575000000000003
10
181.61875000000003
20
-35.575000000000017
42
-0.4142135623731002
10
181.11875000000001
20
-35.075000000000003
0
LWPOLYLINE
5
107
100
AcDbEntity
8
0
100
AcDbPolyline
90
8
70
1
43
0.0
10
31.100000000000001
20
-3.0249999999999999
42
-0.41421356237309537
10
31.600000000000001
20
-2.5249999999999999
10
44.600000000000001
20
-2.525000000000003
42
-0.41421356237309437
10
45.099999999999994
20
-3.0249999999999999
10
45.099999999999994
20
-16.024999999999999
42
-0.4142135623730937
10
44.600000000000001
20
-16.525000000000002
10
31.600000000000001
20
-16.525000000000002
42
-0.41421356237309637
10
31.100000000000001
20
-16.024999999999999
0
LWPOLYLINE
5
108
100
AcDbEntity
8
0
100
AcDbPolyline
90
8
70
1
43
0.0
10
69.200000000000003
20
-3.0249999999999999
10
69.200000000000003
20
-16.024999999999999
42
0.4142135623730977
10
69.700000000000003
20
-16.525000000000002
10
82.700000000000017
20
-16.525000000000002
42
0.41421356237307549
10
83.200000000000017
20
-16.024999999999999
10
83.200000000000017
20
-3.0249999999999999
42
0.41421356237307361
10
82.700000000000017
20
-2.5249999999999995
10
69.700000000000003
20
-2.5249999999999999
42
0.4142135623730967
0
LWPOLYLINE
5
109
100
AcDbEntity
8
0
100
AcDbPolyline
90
8
70
1
43
0.0
10
40.625
20
-22.074999999999999
42
-0.41421356237309509
10
41.125
20
-21.575000000000003
10
54.125000000000007
20
-21.575000000000003
42
-0.41421356237309509
10
54.625
20
-22.074999999999999
10
54.625
20
-35.075000000000003
42
-0.41421356237309509
10
54.125000000000007
20
-35.575000000000003
10
41.125
20
-35.575000000000003
42
-0.41421356237309509
10
40.625
20
-35.075000000000003
0
LWPOLYLINE
5
110
100
AcDbEntity
8
0
100
AcDbPolyline
90
8
70
1
43
0.0
10
2.5250000000000004
20
-22.074999999999999
42
-0.4142135623730957
10
3.0249999999999999
20
-21.575000000000003
10
16.024999999999999
20
-21.574999999999996
42
-0.41421356237309243
10
16.525000000000002
20
-22.074999999999999
10
16.525000000000002
20
-35.075000000000003
42
-0.41421356237309637
10
16.024999999999999
20
-35.575000000000003
10
3.0250000000000021
20
-35.575000000000003
42
-0.4142135623730967
10
2.5249999999999999
20
-35.075000000000003
0
LWPOLYLINE
5
111
100
AcDbEntity
8
0
100
AcDbPolyline
90
8
70
1
43
0.0
10
102.53749999999999
20
-41.125
42
-0.41421356237308982
10
103.03750000000001
20
-40.625
10
116.03749999999999
20
-40.624999999999993
42
-0.41421356237307422
10
116.53750000000001
20
-41.125
10
116.53749999999999
20
-54.125000000000007
42
-0.4142135623731002
10
116.03749999999999
20
-54.625
10
103.03750000000001
20
-54.625000000000014
42
-0.41421356237309509
10
102.53749999999999
20
-54.125000000000007
0
LWPOLYLINE
5
112
100
AcDbEntity
8
0
100
AcDbPolyline
90
8
70
1
43
0.0
10
26.337499999999995
20
-79.224999999999994
42
-0.4142135623730977
10
26.837499999999999
20
-78.724999999999994
10
39.837499999999999
20
-78.724999999999994
42
-0.41421356237309243
10
40.337500000000006
20
-79.224999999999994
10
40.337500000000006
20
-92.224999999999994
42
-0.41421356237309243
10
39.837499999999999
20
-92.725000000000009
10
26.837499999999999
20
-92.725000000000009
42
-0.41421356237310542
10
26.337499999999999
20
-92.224999999999994
0
LWPOLYLINE
5
113
100
AcDbEntity
8
0
100
AcDbPolyline
90
8
70
1
43
0.0
10
35.862499999999997
20
-60.174999999999997
42
-0.4142135623730977
10
36.362499999999997
20
-59.675000000000004
10
49.362500000000004
20
-59.675000000000004
42
-0.41421356237309509
10
49.862499999999997
20
-60.174999999999997
10
49.862499999999997
20
-73.175000000000011
42
-0.41421356237308982
10
49.362500000000004
20
-73.674999999999997
10
36.362499999999997
20
-73.674999999999997
42
-0.41421356237309509
10
35.862500000000004
20
-73.174999999999997
0
LWPOLYLINE
5
114
100
AcDbEntity
8
0
100
AcDbPolyline
90
8
70
1
43
0.0
10
159.6875
20
-41.125
10
159.6875
20
-54.125000000000007
42
0.41421356237309509
10
160.1875
20
-54.625
10
173.1875
20
-54.625
42
0.4142135623730222
10
173.68750000000003
20
-54.125000000000007
10
173.68750000000003
20
-41.125
42
0.41421356237312101
10
173.1875
20
-40.625
10
160.1875
20
-40.625
42
0.41421356237308982
0
LWPOLYLINE
5
115
100
AcDbEntity
8
0
100
AcDbPolyline
90
8
70
1
43
0.0
10
45.387500000000003
20
-79.224999999999994
42
-0.41421356237309509
10
45.887500000000003
20
-78.724999999999994
10
58.88750000000001
20
-78.724999999999994
42
-0.41421356237309509
10
59.387500000000003
20
-79.224999999999994
10
59.387500000000017
20
-92.224999999999994
42
-0.41421356237309509
10
58.88750000000001
20
-92.725000000000009
10
45.887500000000003
20
-92.725000000000009
42
-0.41421356237308982
10
45.387500000000003
20
-92.224999999999994
0
LWPOLYLINE
5
116
100
AcDbEntity
8
0
100
AcDbPolyline
90
8
70
1
43
0.0
10
12.050000000000001
20
-3.0249999999999999
42
-0.41421356237309409
10
12.550000000000001
20
-2.5249999999999999
10
25.550000000000001
20
-2.5250000000000004
42
-0.4142135623730957
10
26.050000000000001
20
-3.0249999999999999
10
26.050000000000004
20
-16.024999999999999
42
-0.41421356237309243
10
25.550000000000001
20
-16.525000000000002
10
12.549999999999999
20
-16.524999999999999
42
-0.41421356237308982
10
12.050000000000001
20
-16.024999999999999
0
LWPOLYLINE
5
117
100
AcDbEntity
8
0
100
AcDbPolyline
90
8
70
1
43
0.0
10
183.49999999999997
20
-41.125
42
-0.41421356237307422
10
184.00000000000003
20
-40.625
10
197.00000000000003
20
-40.625000000000014
42
-0.41421356237312101
10
197.50000000000003
20
-41.125
10
197.5
20
-54.125000000000007
42
-0.4142135623730222
10
197.00000000000003
20
-54.625
10
184.00000000000003
20
-54.625
42
-0.41421356237313145
10
183.5
20
-54.125000000000007
0
LWPOLYLINE
5
118
100
AcDbEntity
8
0
100
AcDbPolyline
90
8
70
1
43
0.0
10
59.675000000000011
20
-22.074999999999999
42
-0.4142135623730977
10
60.174999999999997
20
-21.575000000000003
10
73.174999999999997
20
-21.575000000000003
42
-0.41421356237309509
10
73.674999999999997
20
-22.074999999999999
10
73.674999999999997
20
-35.075000000000003
42
-0.41421356237309509
10
73.174999999999997
20
-35.575000000000003
10
60.174999999999997
20
-35.575000000000003
42
-0.4142135623730977
10
59.675000000000004
20
-35.075000000000003
0
LWPOLYLINE
5
119
100
AcDbEntity
8
0
100
AcDbPolyline
90
8
70
1
43
0.0
10
135.87500000000003
20
-22.074999999999999
42
-0.41421356237308465
10
136.375
20
-21.575000000000003
10
149.375
20
-21.574999999999992
42
-0.41421356237309509
10
149.875
20
-22.074999999999999
10
149.875
20
-35.075000000000003
42
-0.41421356237310542
10
149.375
20
-35.575000000000003
10
136.375
20
-35.575000000000003
42
-0.41421356237307161
10
135.875
20
-35.075000000000003
0
LWPOLYLINE
5
120
100
AcDbEntity
8
0
100
AcDbPolyline
90
8
70
1
43
0.0
10
4.9062500000000009
20
-41.125
10
4.9062500000000009
20
-54.125000000000007
42
0.4142135623730937
10
5.4062499999999991
20
-54.625
10
18.40625
20
-54.625
42
0.41421356237309509
10
18.90625
20
-54.125000000000007
10
18.906250000000004
20
-41.125
42
0.4142135623730937
10
18.40625
20
-40.625
10
5.40625
20
-40.625
42
0.41421356237309309
0
LWPOLYLINE
5
121
100
AcDbEntity
8
0
100
AcDbPolyline
90
8
70
1
43
0.0
10
87.462500000000034
20
-59.674999999999983
42
-0.414213562373069
10
87.96250000000002
20
-60.174999999999997
10
87.962500000000006
20
-73.175000000000011
42
-0.41421356237309509
10
87.46250000000002
20
-73.674999999999997
10
74.462500000000006
20
-73.674999999999997
42
-0.41421356237309509
10
73.962500000000006
20
-73.174999999999997
10
73.962500000000006
20
-60.174999999999997
42
-0.41421356237310542
10
74.462500000000006
20
-59.675000000000004
0
LWPOLYLINE
5
122
100
AcDbEntity
8
0
100
AcDbPolyline
90
8
70
1
43
0.0
10
45.387500000000003
20
-41.125
42
-0.41421356237309509
10
45.887500000000003
20
-40.625
10
58.88750000000001
20
-40.625
42
-0.41421356237309509
10
59.387500000000003
20
-41.125
10
59.387500000000003
20
-54.125000000000007
42
-0.41421356237309509
10
58.88750000000001
20
-54.625
10
45.887500000000003
20
-54.625
42
-0.41421356237309509
10
45.387500000000003
20
-54.125000000000007
0
LWPOLYLINE
5
123
100
AcDbEntity
8
0
100
AcDbPolyline
90
14
70
1
43
0.0
10
174.44375000000002
20
-76.725000000000009
42
-0.41421356237312629
10
174.94375000000002
20
-77.224999999999994
10
174.94375000000002
20
-78.725000000000009
10
177.94999999999999
20
-78.724999999999994
42
-0.41421356237313667
10
178.44999999999999
20
-79.224999999999994
10
178.44999999999999
20
-92.224999999999994
42
-0.41421356237313667
10
177.94999999999999
20
-92.725000000000009
10
164.95000000000002
20
-92.725000000000009
42
-0.41421356237313667
10
164.44999999999999
20
-92.224999999999994
10
164.44999999999996
20
-79.224999999999994
42
-0.41421356237307422
10
164.95000000000002
20
-78.724999999999994
10
167.94374999999999
20
-78.725000000000009
10
167.94375000000002
20
-77.224999999999994
42
-0.4142135623730222
10
168.44374999999999
20
-76.725000000000009
0
LWPOLYLINE
5
124
100
AcDbEntity
8
0
100
AcDbPolyline
90
8
70
1
43
0.0
10
97.775000000000006
20
-22.074999999999999
42
-0.41421356237310802
10
98.275000000000006
20
-21.575000000000003
10
111.27500000000001
20
-21.574999999999992
42
-0.41421356237309509
10
111.77500000000002
20
-22.074999999999999
10
111.77500000000002
20
-35.075000000000003
42
-0.41421356237310542
10
111.27500000000001
20
-35.575000000000003
10
98.275000000000006
20
-35.575000000000003
42
-0.41421356237309243
10
97.775000000000006
20
-35.075000000000003
0
LWPOLYLINE
5
125
100
AcDbEntity
8
0
100
AcDbPolyline
90
8
70
1
43
0.0
10
93.012499999999989
20
-60.174999999999997
42
-0.41421356237310542
10
93.512500000000003
20
-59.675000000000004
10
106.51250000000002
20
-59.674999999999983
42
-0.4142135623731002
10
107.01250000000002
20
-60.174999999999997
10
107.01250000000002
20
-73.175000000000011
42
-0.41421356237308465
10
106.51250000000002
20
-73.674999999999997
10
93.512500000000003
20
-73.675000000000011
42
-0.41421356237309509
10
93.012499999999989
20
-73.174999999999997
0
LWPOLYLINE
5
126
100
AcDbEntity
8
0
100
AcDbPolyline
90
8
70
1
43
0.0
10
54.912500000000009
20
-60.174999999999997
42
-0.41421356237309509
10
55.412500000000009
20
-59.675000000000004
10
68.412499999999994
20
-59.675000000000004
42
-0.41421356237309509
10
68.912499999999994
20
-60.174999999999997
10
68.912499999999994
20
-73.175000000000011
42
-0.41421356237308982
10
68.412499999999994
20
-73.674999999999997
10
55.412500000000009
20
-73.674999999999997
42
-0.41421356237309509
10
54.912500000000009
20
-73.174999999999997
0
LWPOLYLINE
5
127
100
AcDbEntity
8
0
100
AcDbPolyline
90
8
70
1
43
0.0
10
107.29999999999998
20
-3.0249999999999999
42
-0.41421356237310542
10
107.80000000000001
20
-2.5249999999999999
10
120.8
20
-2.5249999999999941
42
-0.41421356237307361
10
121.30000000000001
20
-3.0249999999999999
10
121.29999999999998
20
-16.024999999999999
42
-0.41421356237307549
10
120.8
20
-16.525000000000002
10
107.80000000000001
20
-16.525000000000009
42
-0.41421356237309637
10
107.30000000000001
20
-16.024999999999999
0
LWPOLYLINE
5
128
100
AcDbEntity
8
0
100
AcDbPolyline
90
8
70
1
43
0.0
10
4.9062500000000009
20
-79.224999999999994
42
-0.4142135623730957
10
5.4062499999999991
20
-78.724999999999994
10
18.40625
20
-78.724999999999994
42
-0.41421356237309637
10
18.906250000000004
20
-79.224999999999994
10
18.906250000000011
20
-92.224999999999994
42
-0.41421356237309637
10
18.40625
20
-92.725000000000009
10
5.4062499999999991
20
-92.725000000000023
42
-0.4142135623731048
10
4.90625
20
-92.224999999999994
0
LWPOLYLINE
5
129
100
AcDbEntity
8
0
100
AcDbPolyline
90
8
70
1
43
0.0
10
121.58750000000001
20
-41.125
42
-0.41421356237308982
10
122.08750000000002
20
-40.625
10
135.08750000000001
20
-40.624999999999993
42
-0.41421356237307422
10
135.58750000000001
20
-41.125
10
135.58750000000001
20
-54.125000000000007
42
-0.4142135623731002
10
135.08750000000001
20
-54.625
10
122.08750000000002
20
-54.625000000000014
42
-0.41421356237309509
10
121.58750000000001
20
-54.125000000000007
0
LWPOLYLINE
5
130
100
AcDbEntity
8
0
100
AcDbPolyline
90
8
70
1
43
0.0
10
9.6687499999999975
20
-60.174999999999997
42
-0.4142135623730977
10
10.168749999999999
20
-59.675000000000004
10
23.168749999999999
20
-59.675000000000011
42
-0.4142135623730977
10
23.668749999999999
20
-60.174999999999997
10
23.668749999999999
20
-73.175000000000011
42
-0.41421356237308982
10
23.168749999999999
20
-73.674999999999997
10
10.168749999999998
20
-73.674999999999997
42
-0.41421356237309243
10
9.6687499999999993
20
-73.174999999999997
0
LWPOLYLINE
5
131
100
AcDbEntity
8
0
100
AcDbPolyline
90
8
70
1
43
0.0
10
88.249999999999972
20
-3.0249999999999999
42
-0.41421356237310542
10
88.75
20
-2.5249999999999999
10
101.75
20
-2.5249999999999941
42
-0.41421356237309437
10
102.25000000000001
20
-3.0249999999999999
10
102.25000000000001
20
-16.024999999999999
42
-0.41421356237310675
10
101.75
20
-16.525000000000002
10
88.75
20
-16.525000000000009
42
-0.41421356237309637
10
88.25
20
-16.024999999999999
0
LWPOLYLINE
5
132
100
AcDbEntity
8
0
100
AcDbPolyline
90
8
70
1
43
0.0
10
112.0625
20
-60.174999999999997
42
-0.41421356237310542
10
112.56250000000001
20
-59.675000000000004
10
125.56249999999999
20
-59.674999999999983
42
-0.41421356237307944
10
126.06250000000001
20
-60.174999999999997
10
126.0625
20
-73.175000000000011
42
-0.41421356237309509
10
125.5625
20
-73.674999999999997
10
112.56250000000001
20
-73.675000000000011
42
-0.41421356237309509
10
112.0625
20
-73.174999999999997
0
LWPOLYLINE
5
133
100
AcDbEntity
8
0
100
AcDbPolyline
90
8
70
1
43
0.0
10
26.337499999999999
20
-41.125
42
-0.41421356237309509
10
26.837499999999999
20
-40.625
10
39.837499999999999
20
-40.625
42
-0.41421356237310542
10
40.337500000000006
20
-41.125
10
40.337499999999991
20
-54.125
42
-0.41421356237311319
10
39.837499999999999
20
-54.625
10
26.837499999999999
20
-54.625
42
-0.41421356237309509
10
26.337499999999999
20
-54.125000000000007
0
LWPOLYLINE
5
134
100
AcDbEntity
8
0
100
AcDbPolyline
90
8
70
1
43
0.0
10
154.92500000000004
20
-22.074999999999999
42
-0.41421356237308465
10
155.42500000000001
20
-21.575000000000003
10
168.42500000000001
20
-21.574999999999982
42
-0.41421356237310281
10
168.92500000000001
20
-22.074999999999999
10
168.92500000000001
20
-35.075000000000003
42
-0.41421356237304557
10
168.42500000000001
20
-35.575000000000003
10
155.42500000000001
20
-35.575000000000003
42
-0.41421356237307161
10
154.92500000000001
20
-35.075000000000003
0
LWPOLYLINE
5
135
100
AcDbEntity
8
0
100
AcDbPolyline
90
8
70
1
43
0.0
10
182.71250000000003
20
-59.675000000000011
42
-0.41421356237312629
10
183.21250000000003
20
-60.174999999999997
10
183.21249999999998
20
-73.175000000000011
42
-0.41421356237301699
10
182.71250000000003
20
-73.674999999999997
10
169.71250000000001
20
-73.674999999999997
42
-0.41421356237313145
10
169.21250000000001
20
-73.174999999999997
10
169.21249999999998
20
-60.174999999999997
42
-0.41421356237307422
10
169.71250000000001
20
-59.675000000000004
0
LWPOLYLINE
5
136
100
AcDbEntity
8
0
100
AcDbPolyline
90
8
70
1
43
0.0
10
116.82500000000002
20
-22.074999999999999
10
116.82500000000002
20
-35.075000000000003
42
0.41421356237309243
10
117.32500000000002
20
-35.57500000000001
10
130.32499999999999
20
-35.575000000000003
42
0.41421356237310542
10
130.82499999999999
20
-35.075000000000003
10
130.82499999999999
20
-22.074999999999999
42
0.41421356237309509
10
130.32499999999999
20
-21.575000000000003
10
117.32500000000002
20
-21.575000000000003
42
0.41421356237310802
0
LWPOLYLINE
5
137
100
AcDbEntity
8
0
100
AcDbPolyline
90
8
70
1
43
0.0
10
64.4375
20
-41.125
42
-0.41421356237309509
10
64.9375
20
-40.625
10
77.9375
20
-40.625
42
-0.41421356237309509
10
78.4375
20
-41.125
10
78.4375
20
-54.125000000000007
42
-0.41421356237309509
10
77.9375
20
-54.625
10
64.9375
20
-54.625
42
-0.41421356237309509
10
64.4375
20
-54.125000000000007
0
LWPOLYLINE
5
138
100
AcDbEntity
8
0
100
AcDbPolyline
90
4
70
1
43
0.0
10
79.200000000000017
20
-19.550000000000004
42
-0.99999999999999989
10
79.200000000000017
20
-18.550000000000001
10
92.250000000000014
20
-18.550000000000001
42
-0.99999999999999989
10
92.250000000000014
20
-19.550000000000004
0
LWPOLYLINE
5
139
100
AcDbEntity
8
0
100
AcDbPolyline
90
8
70
1
43
0.0
10
150.16249999999999
20
-60.174999999999997
42
-0.41421356237310542
10
150.66249999999999
20
-59.675000000000004
10
163.66250000000002
20
-59.675000000000011
42
-0.41421356237312629
10
164.16250000000002
20
-60.174999999999997
10
164.16249999999997
20
-73.175000000000011
42
-0.41421356237301699
10
163.66250000000002
20
-73.674999999999997
10
150.66249999999999
20
-73.675000000000011
42
-0.41421356237309509
10
150.16249999999999
20
-73.174999999999997
0
LWPOLYLINE
5
140
100
AcDbEntity
8
0
100
AcDbPolyline
90
14
70
1
43
0.0
10
77.9375
20
-78.724999999999994
42
-0.41421356237309509
10
78.4375
20
-79.224999999999994
10
78.437500000000014
20
-92.224999999999994
42
-0.41421356237309509
10
77.9375
20
-92.725000000000009
10
64.9375
20
-92.725000000000009
42
-0.41421356237310542
10
64.4375
20
-92.224999999999994
10
64.4375
20
-79.224999999999994
42
-0.41421356237310542
10
64.9375
20
-78.724999999999994
10
67.943749999999994
20
-78.725000000000009
10
67.943749999999994
20
-77.224999999999994
42
-0.41421356237310542
10
68.443749999999994
20
-76.725000000000009
10
74.443749999999994
20
-76.725000000000009
42
-0.41421356237309509
10
74.943749999999994
20
-77.224999999999994
10
74.943749999999994
20
-78.725000000000009
0
LWPOLYLINE
5
141
100
AcDbEntity
8
0
100
AcDbPolyline
90
46
70
1
43
0.0
10
158.31300000000002
20
-91.225000000000009
10
158.31300000000002
20
-77.224999999999994
42
0.41421356237307944
10
157.81299999999999
20
-76.724999999999994
10
151.81299999999999
20
-76.725000000000009
42
0.41421356237310542
10
151.31299999999999
20
-77.224999999999994
10
151.31299999999999
20
-78.725000000000009
10
134.43700000000004
20
-78.725000000000009
10
134.43700000000004
20
-77.224999999999994
42
0.4142135623731002
10
133.93700000000001
20
-76.725000000000009
10
127.93700000000001
20
-76.725000000000009
42
0.41421356237310542
10
127.43700000000001
20
-77.224999999999994
10
127.43700000000001
20
-78.725000000000009
10
117.83175
20
-78.725000000000009
10
117.83175000000001
20
-77.224999999999994
42
0.41421356237307944
10
117.33175000000001
20
-76.724999999999994
10
111.33175000000001
20
-76.725000000000009
42
0.41421356237310542
10
110.83175
20
-77.224999999999994
10
110.83175
20
-78.725000000000009
10
93.955750000000009
20
-78.725000000000009
10
93.955750000000009
20
-77.224999999999994
42
0.4142135623731002
10
93.455749999999995
20
-76.724999999999994
10
87.455750000000009
20
-76.725000000000009
42
0.41421356237310542
10
86.955749999999995
20
-77.224999999999994
10
86.955749999999995
20
-91.225000000000009
42
0.4142135623730534
10
87.455750000000009
20
-91.724999999999994
10
95.393749999999997
20
-91.724999999999994
10
95.393749999999997
20
-92.224999999999994
42
0.41421356237309509
10
95.893750000000011
20
-92.725000000000009
10
108.89375000000001
20
-92.725000000000009
42
0.41421356237309509
10
109.39375
20
-92.224999999999994
10
109.39375
20
-91.225000000000009
10
110.83175
20
-91.225000000000009
42
0.41421356237307422
10
111.33175000000001
20
-91.724999999999994
10
114.44375000000001
20
-91.724999999999994
10
114.44374999999999
20
-92.224999999999994
42
0.41421356237307422
10
114.94374999999999
20
-92.725000000000009
10
127.94375000000001
20
-92.725000000000009
42
0.41421356237307422
10
128.44375000000002
20
-92.224999999999994
10
128.44375000000002
20
-91.724999999999994
10
135.875
20
-91.724999999999994
10
135.875
20
-92.224999999999994
42
0.41421356237307422
10
136.375
20
-92.725000000000009
10
149.375
20
-92.725000000000009
42
0.41421356237309509
10
149.875
20
-92.224999999999994
10
149.875
20
-91.724999999999994
10
157.81299999999999
20
-91.725000000000009
42
0.4142135623730534
0
LWPOLYLINE
5
142
100
AcDbEntity
8
0
100
AcDbPolyline
90
4
70
1
43
0.0
10
22.050000000000026
20
-19.550000000000001
42
-0.99999999999999989
10
22.050000000000018
20
-18.550000000000001
10
35.100000000000009
20
-18.550000000000001
42
-0.99999999999999989
10
35.100000000000016
20
-19.550000000000001
0
LWPOLYLINE
5
143
100
AcDbEntity
8
0
100
AcDbPolyline
90
4
70
1
43
0.0
10
60.150000000000006
20
-19.550000000000001
42
-0.99999999999999989
10
60.150000000000006
20
-18.550000000000001
10
73.200000000000017
20
-18.550000000000001
42
-0.99999999999999989
10
73.200000000000017
20
-19.550000000000004
0
LWPOLYLINE
5
144
100
AcDbEntity
8
0
100
AcDbPolyline
90
4
70
1
43
0.0
10
41.100000000000009
20
-19.550000000000001
42
-0.99999999999999989
10
41.100000000000009
20
-18.550000000000001
10
54.150000000000006
20
-18.550000000000001
42
-0.99999999999999989
10
54.150000000000006
20
-19.550000000000001
0
LWPOLYLINE
5
145
100
AcDbEntity
8
0
100
AcDbPolyline
90
8
70
1
43
0.0
10
185.88124999999994
20
-79.224999999999994
42
-0.41421356237307422
10
186.38124999999999
20
-78.724999999999994
10
199.38124999999999
20
-78.725000000000009
42
-0.41421356237312629
10
199.88124999999999
20
-79.224999999999994
10
199.88124999999997
20
-92.224999999999994
42
-0.41421356237310542
10
199.38124999999999
20
-92.725000000000009
10
186.38124999999999
20
-92.725000000000009
42
-0.41421356237313667
10
185.88124999999997
20
-92.224999999999994
0
LWPOLYLINE
5
146
100
AcDbEntity
8
0
100
AcDbPolyline
90
8
70
1
43
0.0
10
131.11250000000001
20
-60.174999999999997
42
-0.41421356237310542
10
131.61250000000001
20
-59.675000000000004
10
144.61250000000001
20
-59.674999999999983
42
-0.41421356237307944
10
145.11250000000001
20
-60.174999999999997
10
145.11250000000001
20
-73.175000000000011
42
-0.41421356237309509
10
144.61250000000001
20
-73.674999999999997
10
131.61250000000001
20
-73.675000000000011
42
-0.41421356237309509
10
131.11250000000001
20
-73.174999999999997
0
LWPOLYLINE
5
147
100
AcDbEntity
8
0
100
AcDbPolyline
90
8
70
1
43
0.0
10
50.150000000000006
20
-3.0249999999999999
42
-0.41421356237309409
10
50.650000000000006
20
-2.5249999999999999
10
63.650000000000006
20
-2.5249999999999986
42
-0.41421356237309698
10
64.150000000000006
20
-3.0249999999999999
10
64.150000000000006
20
-16.024999999999999
42
-0.41421356237309637
10
63.650000000000006
20
-16.525000000000002
10
50.650000000000006
20
-16.524999999999999
42
-0.41421356237309509
10
50.150000000000006
20
-16.024999999999999
0
LWPOLYLINE
5
148
100
AcDbEntity
8
0
100
AcDbPolyline
90
4
70
1
43
0.0
10
98.250000000000014
20
-19.550000000000004
42
-0.99999999999999989
10
98.250000000000014
20
-18.550000000000001
10
111.30000000000001
20
-18.550000000000001
42
-0.99999999999999989
10
111.30000000000001
20
-19.550000000000004
0
ENDSEC
0
SECTION
2
OBJECTS
0
DICTIONARY
5
C
100
AcDbDictionary
3
ACAD_GROUP
350
D
3
ACAD_MLINESTYLE
350
17
0
DICTIONARY
5
D
100
AcDbDictionary
0
DICTIONARY
5
1A
330
C
100
AcDbDictionary
0
DICTIONARY
5
17
100
AcDbDictionary
0
ENDSEC
0
EOF
