0
SECTION
2
HEADER
9
$INSUNITS
70
4
9
$ACADVER
1
AC1014
9
$HANDSEED
5
FFFF
0
ENDSEC
0
SECTION
2
TABLES
0
TABLE
2
VPORT
5
8
100
AcDbSymbolTable
0
ENDTAB
0
TABLE
2
LTYPE
5
5
100
AcDbSymbolTable
0
LTYPE
5
14
100
AcDbSymbolTableRecord
100
AcDbLinetypeTableRecord
2
BYBLOCK
70
0
0
LTYPE
5
15
100
AcDbSymbolTableRecord
100
AcDbLinetypeTableRecord
2
BYLAYER
70
0
0
ENDTAB
0
TABLE
2
LAYER
5
2
100
AcDbSymbolTable
70
2
0
LAYER
5
50
100
AcDbSymbolTableRecord
100
AcDbLayerTableRecord
2
0
70
0
6
CONTINUOUS
0
ENDTAB
0
TABLE
2
STYLE
5
3
100
AcDbSymbolTable
70
1
0
STYLE
5
11
100
AcDbSymbolTableRecord
100
AcDbTextStyleTableRecord
2
STANDARD
70
0
0
ENDTAB
0
TABLE
2
VIEW
5
6
100
AcDbSymbolTable
70
0
0
ENDTAB
0
TABLE
2
UCS
5
7
100
AcDbSymbolTable
70
0
0
ENDTAB
0
TABLE
2
APPID
5
9
100
AcDbSymbolTable
70
2
0
APPID
5
12
100
AcDbSymbolTableRecord
100
AcDbRegAppTableRecord
2
ACAD
70
0
0
ENDTAB
0
TABLE
2
DIMSTYLE
5
A
100
AcDbSymbolTable
70
1
0
ENDTAB
0
TABLE
2
BLOCK_RECORD
5
1
100
AcDbSymbolTable
70
1
0
BLOCK_RECORD
5
1F
100
AcDbSymbolTableRecord
100
AcDbBlockTableRecord
2
*MODEL_SPACE
0
BLOCK_RECORD
5
1B
100
AcDbSymbolTableRecord
100
AcDbBlockTableRecord
2
*PAPER_SPACE
0
ENDTAB
0
ENDSEC
0
SECTION
2
BLOCKS
0
BLOCK
5
20
100
AcDbEntity
100
AcDbBlockBegin
2
*MODEL_SPACE
0
ENDBLK
5
21
100
AcDbEntity
100
AcDbBlockEnd
0
BLOCK
5
1C
100
AcDbEntity
100
AcDbBlockBegin
2
*PAPER_SPACE
0
ENDBLK
5
1D
100
AcDbEntity
100
AcDbBlockEnd
0
ENDSEC
0
SECTION
2
ENTITIES
0
LWPOLYLINE
5
100
100
AcDbEntity
8
0
100
AcDbPolyline
90
4
70
1
43
0.0
10
-7.0545759999999902
20
71.937210765229935
10
-4.5145759999999902
20
71.937210765229935
42
0.99999999999999989
10
-4.5145759999999902
20
75.894393234770106
10
-7.0545759999999902
20
75.894393234770106
42
0.99999999999999989
0
LWPOLYLINE
5
101
100
AcDbEntity
8
0
100
AcDbPolyline
90
8
70
1
43
0.0
10
-102.25000000000001
20
16.024999999999999
42
-0.41421356237312884
10
-101.75
20
16.525000000000002
10
-88.75
20
16.525000000000006
42
-0.41421356237309509
10
-88.25
20
16.024999999999999
10
-88.249999999999972
20
3.0249999999999999
42
-0.41421356237310353
10
-88.75
20
2.5249999999999999
10
-101.75
20
2.5249999999999946
42
-0.41421356237309409
10
-102.25000000000001
20
3.0249999999999999
0
LWPOLYLINE
5
102
100
AcDbEntity
8
0
100
AcDbPolyline
90
8
70
1
43
0.0
10
-26.337499999999995
20
79.224999999999994
42
-0.4142135623730977
10
-26.837499999999999
20
78.724999999999994
10
-39.837499999999999
20
78.724999999999994
42
-0.41421356237309243
10
-40.337500000000006
20
79.224999999999994
10
-40.337499999999991
20
92.224999999999994
42
-0.41421356237310802
10
-39.837499999999999
20
92.725000000000009
10
-26.837499999999999
20
92.725000000000009
42
-0.41421356237312884
10
-26.337499999999999
20
92.224999999999994
0
LWPOLYLINE
5
103
100
AcDbEntity
8
0
100
AcDbPolyline
90
14
70
1
43
0.0
10
-178.44999999999999
20
92.224999999999994
42
-0.4142135623731471
10
-177.94999999999999
20
92.725000000000009
10
-164.95000000000005
20
92.725000000000023
42
-0.4142135623731471
10
-164.44999999999999
20
92.224999999999994
10
-164.44999999999993
20
79.224999999999994
42
-0.4142135623731002
10
-164.95000000000002
20
78.724999999999994
10
-167.94374999999999
20
78.725000000000009
10
-167.94375000000002
20
77.224999999999994
42
-0.41421356237303786
10
-168.44374999999999
20
76.725000000000009
10
-174.44375000000002
20
76.725000000000023
42
-0.41421356237315754
10
-174.94375000000002
20
77.224999999999994
10
-174.94375000000002
20
78.725000000000009
10
-177.94999999999993
20
78.724999999999966
42
-0.4142135623731471
10
-178.44999999999999
20
79.224999999999994
0
LWPOLYLINE
5
104
100
AcDbEntity
8
0
100
AcDbPolyline
90
8
70
1
43
0.0
10
-25.550000000000001
20
2.5250000000000004
42
-0.4142135623730957
10
-26.050000000000001
20
3.0249999999999999
10
-26.050000000000004
20
16.024999999999999
42
-0.41421356237309892
10
-25.550000000000001
20
16.525000000000002
10
-12.549999999999999
20
16.524999999999999
42
-0.41421356237308982
10
-12.050000000000001
20
16.024999999999999
10
-12.049999999999999
20
3.0249999999999999
42
-0.41421356237309859
10
-12.550000000000001
20
2.5249999999999999
0
LWPOLYLINE
5
105
100
AcDbEntity
8
0
100
AcDbPolyline
90
8
70
1
43
0.0
10
-182.71250000000003
20
59.675000000000026
42
-0.41421356237315754
10
-183.21250000000003
20
60.174999999999997
10
-183.21249999999998
20
73.175000000000011
42
-0.41421356237303264
10
-182.71250000000003
20
73.674999999999997
10
-169.71250000000001
20
73.675000000000011
42
-0.41421356237313667
10
-169.21250000000001
20
73.174999999999997
10
-169.21249999999992
20
60.174999999999997
42
-0.4142135623731002
10
-169.71250000000001
20
59.675000000000004
0
LWPOLYLINE
5
106
100
AcDbEntity
8
0
100
AcDbPolyline
90
8
70
1
43
0.0
10
-44.600000000000001
20
2.525000000000003
42
-0.41421356237309437
10
-45.099999999999994
20
3.0249999999999999
10
-45.099999999999994
20
16.024999999999999
42
-0.4142135623730937
10
-44.600000000000001
20
16.525000000000002
10
-31.600000000000001
20
16.524999999999999
42
-0.41421356237309509
10
-31.100000000000001
20
16.024999999999999
10
-31.100000000000001
20
3.0249999999999999
42
-0.41421356237309537
10
-31.600000000000001
20
2.5249999999999999
0
LWPOLYLINE
5
107
100
AcDbEntity
8
0
100
AcDbPolyline
90
8
70
1
43
0.0
10
-63.650000000000006
20
2.5249999999999968
42
-0.41421356237309792
10
-64.150000000000006
20
3.0249999999999999
10
-64.150000000000006
20
16.024999999999999
42
-0.41421356237309637
10
-63.650000000000006
20
16.525000000000002
10
-50.650000000000006
20
16.524999999999999
42
-0.41421356237309509
10
-50.150000000000006
20
16.024999999999999
10
-50.150000000000006
20
3.0249999999999999
42
-0.4142135623730937
10
-50.650000000000006
20
2.5249999999999999
0
LWPOLYLINE
5
108
100
AcDbEntity
8
0
100
AcDbPolyline
90
8
70
1
43
0.0
10
-197.00000000000003
20
40.625000000000043
42
-0.4142135623731471
10
-197.50000000000003
20
41.125
10
-197.5
20
54.125000000000007
42
-0.41421356237303264
10
-197.00000000000003
20
54.625
10
-184.00000000000003
20
54.625000000000014
42
-0.41421356237313667
10
-183.5
20
54.125000000000007
10
-183.49999999999997
20
41.125
42
-0.41421356237307422
10
-184.00000000000003
20
40.625
0
LWPOLYLINE
5
109
100
AcDbEntity
8
0
100
AcDbPolyline
90
8
70
1
43
0.0
10
-144.61250000000004
20
59.674999999999983
42
-0.41421356237308982
10
-145.11250000000001
20
60.174999999999997
10
-145.11250000000001
20
73.175000000000011
42
-0.41421356237309509
10
-144.61250000000001
20
73.674999999999997
10
-131.61250000000001
20
73.675000000000011
42
-0.41421356237309509
10
-131.11250000000001
20
73.174999999999997
10
-131.11250000000001
20
60.174999999999997
42
-0.41421356237312629
10
-131.61250000000001
20
59.675000000000004
0
LWPOLYLINE
5
110
100
AcDbEntity
8
0
100
AcDbPolyline
90
8
70
1
43
0.0
10
-125.56250000000003
20
59.674999999999983
42
-0.41421356237308982
10
-126.06250000000001
20
60.174999999999997
10
-126.0625
20
73.175000000000011
42
-0.41421356237309509
10
-125.5625
20
73.674999999999997
10
-112.56250000000001
20
73.675000000000011
42
-0.41421356237309509
10
-112.0625
20
73.174999999999997
10
-112.0625
20
60.174999999999997
42
-0.41421356237312629
10
-112.56250000000001
20
59.675000000000004
0
LWPOLYLINE
5
111
100
AcDbEntity
8
0
100
AcDbPolyline
90
8
70
1
43
0.0
10
-163.66250000000002
20
59.675000000000026
42
-0.41421356237315754
10
-164.16250000000002
20
60.174999999999997
10
-164.16249999999997
20
73.175000000000011
42
-0.41421356237303264
10
-163.66250000000002
20
73.674999999999997
10
-150.66249999999999
20
73.675000000000011
42
-0.41421356237309509
10
-150.16249999999999
20
73.174999999999997
10
-150.16249999999999
20
60.174999999999997
42
-0.41421356237312629
10
-150.66249999999999
20
59.675000000000004
0
LWPOLYLINE
5
112
100
AcDbEntity
8
0
100
AcDbPolyline
90
8
70
1
43
0.0
10
-199.88124999999997
20
92.224999999999994
42
-0.41421356237316787
10
-199.38124999999999
20
92.725000000000009
10
-186.38125000000002
20
92.725000000000023
42
-0.4142135623731471
10
-185.88124999999997
20
92.224999999999994
10
-185.88124999999991
20
79.224999999999994
42
-0.4142135623731002
10
-186.38124999999999
20
78.724999999999994
10
-199.38124999999999
20
78.725000000000023
42
-0.41421356237315754
10
-199.88124999999999
20
79.224999999999994
0
LWPOLYLINE
5
113
100
AcDbEntity
8
0
100
AcDbPolyline
90
8
70
1
43
0.0
10
-201.76250000000005
20
59.674999999999976
42
-0.41421356237312629
10
-202.26249999999999
20
60.174999999999997
10
-202.26249999999999
20
73.175000000000011
42
-0.41421356237307422
10
-201.76249999999999
20
73.674999999999997
10
-188.76249999999999
20
73.674999999999955
42
-0.4142135623731471
10
-188.26249999999999
20
73.174999999999997
10
-188.26250000000002
20
60.174999999999997
42
-0.41421356237303786
10
-188.76249999999999
20
59.675000000000004
0
LWPOLYLINE
5
114
100
AcDbEntity
8
0
100
AcDbPolyline
90
8
70
1
43
0.0
10
-4.9062499999999982
20
79.224999999999994
42
-0.41421356237309698
10
-5.4062499999999991
20
78.724999999999994
10
-18.40625
20
78.724999999999994
42
-0.41421356237309637
10
-18.906250000000004
20
79.224999999999994
10
-18.906250000000007
20
92.224999999999994
42
-0.41421356237309509
10
-18.40625
20
92.725000000000009
10
-5.4062499999999991
20
92.725000000000023
42
-0.41421356237310353
10
-4.90625
20
92.224999999999994
0
LWPOLYLINE
5
115
100
AcDbEntity
8
0
100
AcDbPolyline
90
8
70
1
43
0.0
10
-121.29999999999998
20
16.024999999999999
42
-0.41421356237308327
10
-120.8
20
16.525000000000002
10
-107.80000000000001
20
16.525000000000006
42
-0.41421356237309509
10
-107.30000000000001
20
16.024999999999999
10
-107.29999999999998
20
3.0249999999999999
42
-0.41421356237310353
10
-107.80000000000001
20
2.5249999999999999
10
-120.8
20
2.5249999999999853
42
-0.41421356237305795
10
-121.30000000000001
20
3.0249999999999999
0
LWPOLYLINE
5
116
100
AcDbEntity
8
0
100
AcDbPolyline
90
8
70
1
43
0.0
10
-45.387500000000003
20
79.224999999999994
42
-0.41421356237309509
10
-45.887500000000003
20
78.724999999999994
10
-58.88750000000001
20
78.724999999999994
42
-0.41421356237309509
10
-59.387500000000003
20
79.224999999999994
10
-59.387500000000017
20
92.224999999999994
42
-0.41421356237309509
10
-58.88750000000001
20
92.725000000000009
10
-45.887500000000003
20
92.725000000000009
42
-0.41421356237308982
10
-45.387500000000003
20
92.224999999999994
0
LWPOLYLINE
5
117
100
AcDbEntity
8
0
100
AcDbPolyline
90
8
70
1
43
0.0
10
-83.200000000000003
20
16.024999999999999
42
-0.41421356237308327
10
-82.700000000000017
20
16.525000000000002
10
-69.700000000000003
20
16.525000000000002
42
-0.41421356237309637
10
-69.200000000000003
20
16.024999999999999
10
-69.200000000000003
20
3.0249999999999999
42
-0.41421356237309792
10
-69.700000000000003
20
2.5249999999999999
10
-82.700000000000017
20
2.5249999999999853
42
-0.41421356237305795
10
-83.200000000000017
20
3.0249999999999999
0
LWPOLYLINE
5
118
100
AcDbEntity
8
0
100
AcDbPolyline
90
8
70
1
43
0.0
10
-173.1875
20
40.625000000000043
42
-0.4142135623731471
10
-173.68750000000003
20
41.125
10
-173.6875
20
54.125000000000007
42
-0.41421356237303264
10
-173.1875
20
54.625
10
-160.1875
20
54.625000000000014
42
-0.41421356237309509
10
-159.6875
20
54.125000000000007
10
-159.6875
20
41.125
42
-0.41421356237308982
10
-160.1875
20
40.625
0
LWPOLYLINE
5
119
100
AcDbEntity
8
0
100
AcDbPolyline
90
8
70
1
43
0.0
10
-36.362499999999997
20
73.674999999999997
42
-0.41421356237309509
10
-35.862500000000004
20
73.174999999999997
10
-35.86249999999999
20
60.174999999999997
42
-0.41421356237310281
10
-36.362499999999997
20
59.675000000000004
10
-49.362500000000004
20
59.675000000000004
42
-0.41421356237309509
10
-49.862499999999997
20
60.174999999999997
10
-49.862500000000011
20
73.175000000000011
42
-0.41421356237308465
10
-49.362500000000004
20
73.674999999999997
0
LWPOLYLINE
5
120
100
AcDbEntity
8
0
100
AcDbPolyline
90
8
70
1
43
0.0
10
-55.412500000000009
20
73.674999999999997
42
-0.41421356237309509
10
-54.912500000000009
20
73.174999999999997
10
-54.912500000000009
20
60.174999999999997
42
-0.41421356237309509
10
-55.412500000000009
20
59.675000000000004
10
-68.412499999999994
20
59.675000000000004
42
-0.41421356237309509
10
-68.912499999999994
20
60.174999999999997
10
-68.912500000000009
20
73.175000000000011
42
-0.41421356237308465
10
-68.412499999999994
20
73.674999999999997
0
LWPOLYLINE
5
121
100
AcDbEntity
8
0
100
AcDbPolyline
90
8
70
1
43
0.0
10
-74.462500000000006
20
73.674999999999997
42
-0.41421356237309509
10
-73.962500000000006
20
73.174999999999997
10
-73.962500000000006
20
60.174999999999997
42
-0.41421356237310542
10
-74.462500000000006
20
59.675000000000004
10
-87.462500000000048
20
59.674999999999976
42
-0.41421356237304296
10
-87.96250000000002
20
60.174999999999997
10
-87.962500000000006
20
73.175000000000011
42
-0.41421356237309509
10
-87.46250000000002
20
73.674999999999997
0
LWPOLYLINE
5
122
100
AcDbEntity
8
0
100
AcDbPolyline
90
8
70
1
43
0.0
10
-93.512500000000003
20
73.675000000000011
42
-0.41421356237309509
10
-93.012499999999989
20
73.174999999999997
10
-93.012499999999989
20
60.174999999999997
42
-0.41421356237312629
10
-93.512500000000003
20
59.675000000000004
10
-106.51249999999999
20
59.674999999999997
42
-0.41421356237310542
10
-107.01250000000002
20
60.174999999999997
10
-107.01250000000002
20
73.175000000000011
42
-0.41421356237308465
10
-106.51250000000002
20
73.674999999999997
0
LWPOLYLINE
5
123
100
AcDbEntity
8
0
100
AcDbPolyline
90
8
70
1
43
0.0
10
-64.9375
20
54.625
42
-0.41421356237309509
10
-64.4375
20
54.125000000000007
10
-64.4375
20
41.125
42
-0.41421356237309509
10
-64.9375
20
40.625
10
-77.9375
20
40.625
42
-0.41421356237309509
10
-78.4375
20
41.125
10
-78.4375
20
54.125000000000007
42
-0.41421356237309509
10
-77.9375
20
54.625
0
LWPOLYLINE
5
124
100
AcDbEntity
8
0
100
AcDbPolyline
90
8
70
1
43
0.0
10
-73.174999999999997
20
21.575000000000003
42
-0.41421356237309509
10
-73.674999999999997
20
22.074999999999999
10
-73.674999999999997
20
35.075000000000003
42
-0.41421356237309509
10
-73.174999999999997
20
35.575000000000003
10
-60.174999999999997
20
35.575000000000003
42
-0.4142135623730977
10
-59.675000000000004
20
35.075000000000003
10
-59.675000000000011
20
22.074999999999999
42
-0.4142135623730977
10
-60.174999999999997
20
21.575000000000003
0
LWPOLYLINE
5
125
100
AcDbEntity
8
0
100
AcDbPolyline
90
8
70
1
43
0.0
10
-83.987499999999997
20
54.625000000000014
42
-0.41421356237309509
10
-83.487499999999983
20
54.125000000000007
10
-83.487499999999983
20
41.125
42
-0.41421356237308982
10
-83.987499999999997
20
40.625
10
-96.987500000000011
20
40.624999999999993
42
-0.41421356237309509
10
-97.487500000000011
20
41.125
10
-97.487500000000011
20
54.125000000000007
42
-0.41421356237308982
10
-96.987500000000011
20
54.625
0
LWPOLYLINE
5
126
100
AcDbEntity
8
0
100
AcDbPolyline
90
8
70
1
43
0.0
10
-92.224999999999994
20
21.574999999999992
42
-0.41421356237309509
10
-92.725000000000009
20
22.074999999999999
10
-92.725000000000009
20
35.075000000000003
42
-0.41421356237312884
10
-92.224999999999994
20
35.575000000000003
10
-79.224999999999994
20
35.575000000000003
42
-0.4142135623730977
10
-78.724999999999994
20
35.075000000000003
10
-78.725000000000009
20
22.074999999999999
42
-0.4142135623730977
10
-79.224999999999994
20
21.575000000000003
0
LWPOLYLINE
5
127
100
AcDbEntity
8
0
100
AcDbPolyline
90
8
70
1
43
0.0
10
-103.03750000000001
20
54.625000000000014
42
-0.41421356237309509
10
-102.53749999999999
20
54.125000000000007
10
-102.53749999999999
20
41.125
42
-0.41421356237308982
10
-103.03750000000001
20
40.625
10
-116.03749999999998
20
40.624999999999986
42
-0.41421356237305862
10
-116.53750000000001
20
41.125
10
-116.53749999999999
20
54.125000000000007
42
-0.4142135623731002
10
-116.03749999999999
20
54.625
0
LWPOLYLINE
5
128
100
AcDbEntity
8
0
100
AcDbPolyline
90
8
70
1
43
0.0
10
-111.27500000000001
20
21.574999999999992
42
-0.41421356237309509
10
-111.77500000000002
20
22.074999999999999
10
-111.77500000000002
20
35.075000000000003
42
-0.41421356237312884
10
-111.27500000000001
20
35.575000000000003
10
-98.275000000000006
20
35.575000000000003
42
-0.41421356237309243
10
-97.775000000000006
20
35.075000000000003
10
-97.775000000000006
20
22.074999999999999
42
-0.41421356237313145
10
-98.275000000000006
20
21.575000000000003
0
LWPOLYLINE
5
129
100
AcDbEntity
8
0
100
AcDbPolyline
90
8
70
1
43
0.0
10
-122.08750000000002
20
54.625000000000014
42
-0.41421356237309509
10
-121.58750000000001
20
54.125000000000007
10
-121.58750000000001
20
41.125
42
-0.41421356237308982
10
-122.08750000000002
20
40.625
10
-135.08749999999998
20
40.624999999999986
42
-0.41421356237305862
10
-135.58750000000001
20
41.125
10
-135.58750000000001
20
54.125000000000007
42
-0.4142135623731002
10
-135.08750000000001
20
54.625
0
LWPOLYLINE
5
130
100
AcDbEntity
8
0
100
AcDbPolyline
90
8
70
1
43
0.0
10
-130.32499999999999
20
21.574999999999992
42
-0.41421356237309509
10
-130.82499999999999
20
22.074999999999999
10
-130.82499999999999
20
35.075000000000003
42
-0.41421356237312884
10
-130.32499999999999
20
35.575000000000003
10
-117.32500000000002
20
35.575000000000003
42
-0.41421356237309243
10
-116.82500000000002
20
35.075000000000003
10
-116.82500000000002
20
22.074999999999999
42
-0.41421356237313145
10
-117.32500000000002
20
21.575000000000003
0
LWPOLYLINE
5
131
100
AcDbEntity
8
0
100
AcDbPolyline
90
8
70
1
43
0.0
10
-149.375
20
21.574999999999992
42
-0.41421356237309509
10
-149.875
20
22.074999999999999
10
-149.875
20
35.075000000000003
42
-0.41421356237312884
10
-149.375
20
35.575000000000003
10
-136.375
20
35.575000000000017
42
-0.41421356237305601
10
-135.875
20
35.075000000000003
10
-135.87500000000003
20
22.074999999999999
42
-0.41421356237306384
10
-136.375
20
21.575000000000003
0
LWPOLYLINE
5
132
100
AcDbEntity
8
0
100
AcDbPolyline
90
8
70
1
43
0.0
10
-194.61875000000003
20
21.574999999999985
42
-0.41421356237314189
10
-195.11875000000003
20
22.074999999999999
10
-195.11875000000006
20
35.075000000000003
42
-0.41421356237307161
10
-194.61875000000003
20
35.575000000000003
10
-181.61875000000003
20
35.575000000000031
42
-0.41421356237310802
10
-181.11875000000001
20
35.075000000000003
10
-181.11875000000001
20
22.074999999999999
42
-0.41421356237301438
10
-181.61875000000003
20
21.575000000000003
0
LWPOLYLINE
5
133
100
AcDbEntity
8
0
100
AcDbPolyline
90
8
70
1
43
0.0
10
-168.42500000000001
20
21.574999999999982
42
-0.41421356237310281
10
-168.92500000000001
20
22.074999999999999
10
-168.92500000000001
20
35.075000000000003
42
-0.41421356237300661
10
-168.42500000000001
20
35.575000000000003
10
-155.42500000000001
20
35.575000000000017
42
-0.41421356237305601
10
-154.92500000000001
20
35.075000000000003
10
-154.92500000000004
20
22.074999999999999
42
-0.41421356237306384
10
-155.42500000000001
20
21.575000000000003
0
LWPOLYLINE
5
134
100
AcDbEntity
8
0
100
AcDbPolyline
90
8
70
1
43
0.0
10
-141.13749999999999
20
54.625000000000014
42
-0.41421356237309509
10
-140.63749999999999
20
54.125000000000007
10
-140.63749999999999
20
41.125
42
-0.41421356237308982
10
-141.13749999999999
20
40.625
10
-154.13749999999999
20
40.624999999999993
42
-0.41421356237309509
10
-154.63750000000002
20
41.125
10
-154.63750000000002
20
54.125000000000007
42
-0.41421356237308982
10
-154.13749999999999
20
54.625
0
LWPOLYLINE
5
135
100
AcDbEntity
8
0
100
AcDbPolyline
90
14
70
1
43
0.0
10
-74.943749999999994
20
78.724999999999994
10
-74.943749999999994
20
77.224999999999994
42
0.41421356237309509
10
-74.443749999999994
20
76.725000000000009
10
-68.443749999999994
20
76.724999999999994
42
0.41421356237311585
10
-67.943749999999994
20
77.224999999999994
10
-67.943749999999994
20
92.22499999999998
42
0.41421356237312629
10
-68.443749999999994
20
92.724999999999994
10
-98.281750000000017
20
92.724999999999994
42
0.4142135623731471
10
-98.781750000000002
20
92.22499999999998
10
-98.781750000000017
20
77.224999999999994
42
0.4142135623731002
10
-98.281750000000017
20
76.724999999999994
10
-92.281750000000002
20
76.724999999999994
42
0.4142135623731002
10
-91.781749999999988
20
77.224999999999994
10
-91.781749999999988
20
78.724999999999994
0
LWPOLYLINE
5
136
100
AcDbEntity
8
0
100
AcDbPolyline
90
14
70
1
43
0.0
10
-138.76300000000001
20
76.72499999999998
42
-0.4142135623731002
10
-139.26300000000001
20
77.224999999999994
10
-139.26300000000001
20
92.224999999999994
42
-0.41421356237313667
10
-138.76300000000001
20
92.725000000000009
10
-108.887
20
92.725000000000009
42
-0.41421356237313667
10
-108.387
20
92.224999999999994
10
-108.387
20
77.224999999999994
42
-0.41421356237310542
10
-108.887
20
76.725000000000009
10
-114.88700000000001
20
76.72499999999998
42
-0.4142135623731002
10
-115.38700000000003
20
77.224999999999994
10
-115.387
20
78.724999999999994
10
-132.26300000000003
20
78.724999999999994
10
-132.26300000000003
20
77.224999999999994
42
-0.41421356237310542
10
-132.76300000000001
20
76.725000000000009
0
LWPOLYLINE
5
137
100
AcDbEntity
8
0
100
AcDbPolyline
90
8
70
1
43
0.0
10
-10.168749999999998
20
73.674999999999997
42
-0.41421356237309243
10
-9.6687499999999993
20
73.174999999999997
10
-9.6687499999999975
20
60.174999999999997
42
-0.4142135623730977
10
-10.168749999999999
20
59.675000000000004
10
-23.168749999999999
20
59.675000000000011
42
-0.4142135623730977
10
-23.668749999999999
20
60.174999999999997
10
-23.668750000000003
20
73.175000000000011
42
-0.41421356237307161
10
-23.168749999999999
20
73.674999999999997
0
LWPOLYLINE
5
138
100
AcDbEntity
8
0
100
AcDbPolyline
90
8
70
1
43
0.0
10
-145.40000000000003
20
79.224999999999994
10
-145.40000000000001
20
92.224999999999994
42
0.41421356237307422
10
-145.90000000000001
20
92.725000000000009
10
-158.90000000000001
20
92.725000000000009
42
0.41421356237309509
10
-159.40000000000001
20
92.224999999999994
10
-159.40000000000001
20
79.224999999999994
42
0.4142135623731002
10
-158.90000000000001
20
78.724999999999994
10
-145.90000000000001
20
78.724999999999994
42
0.41421356237310542
0
LWPOLYLINE
5
139
100
AcDbEntity
8
0
100
AcDbPolyline
90
8
70
1
43
0.0
10
-16.024999999999999
20
21.574999999999996
42
-0.41421356237309892
10
-16.525000000000002
20
22.074999999999999
10
-16.524999999999999
20
35.075000000000003
42
-0.41421356237309509
10
-16.024999999999999
20
35.575000000000003
10
-3.0250000000000021
20
35.575000000000003
42
-0.41421356237309637
10
-2.5249999999999999
20
35.075000000000003
10
-2.5250000000000004
20
22.074999999999999
42
-0.4142135623730957
10
-3.0249999999999999
20
21.575000000000003
0
LWPOLYLINE
5
140
100
AcDbEntity
8
0
100
AcDbPolyline
90
8
70
1
43
0.0
10
-5.4062499999999991
20
54.625
42
-0.41421356237309437
10
-4.9062500000000009
20
54.125000000000007
10
-4.9062500000000053
20
41.125
42
-0.41421356237309309
10
-5.4062499999999991
20
40.625
10
-18.40625
20
40.625
42
-0.4142135623730937
10
-18.906250000000004
20
41.125
10
-18.90625
20
54.125000000000007
42
-0.41421356237309509
10
-18.40625
20
54.625
0
LWPOLYLINE
5
141
100
AcDbEntity
8
0
100
AcDbPolyline
90
8
70
1
43
0.0
10
-54.125000000000007
20
21.575000000000003
42
-0.41421356237309509
10
-54.625
20
22.074999999999999
10
-54.625
20
35.075000000000003
42
-0.41421356237309509
10
-54.125000000000007
20
35.575000000000003
10
-41.125
20
35.575000000000003
42
-0.41421356237309509
10
-40.625
20
35.075000000000003
10
-40.625
20
22.074999999999999
42
-0.41421356237309509
10
-41.125
20
21.575000000000003
0
LWPOLYLINE
5
142
100
AcDbEntity
8
0
100
AcDbPolyline
90
8
70
1
43
0.0
10
-35.075000000000003
20
21.575000000000003
42
-0.41421356237309509
10
-35.575000000000003
20
22.074999999999999
10
-35.575000000000003
20
35.075000000000003
42
-0.41421356237309509
10
-35.075000000000003
20
35.575000000000003
10
-22.074999999999999
20
35.575000000000003
42
-0.41421356237309509
10
-21.575000000000003
20
35.075000000000003
10
-21.575000000000003
20
22.074999999999999
42
-0.41421356237309509
10
-22.074999999999999
20
21.575000000000003
0
LWPOLYLINE
5
143
100
AcDbEntity
8
0
100
AcDbPolyline
90
8
70
1
43
0.0
10
-39.837499999999999
20
40.625
42
-0.41421356237311846
10
-40.337500000000006
20
41.125
10
-40.337499999999991
20
54.125000000000014
42
-0.41421356237310542
10
-39.837499999999999
20
54.625
10
-26.837499999999999
20
54.625
42
-0.41421356237309509
10
-26.337499999999999
20
54.125000000000007
10
-26.337499999999999
20
41.125
42
-0.41421356237309509
10
-26.837499999999999
20
40.625
0
LWPOLYLINE
5
144
100
AcDbEntity
8
0
100
AcDbPolyline
90
8
70
1
43
0.0
10
-59.387500000000003
20
54.125000000000007
42
-0.41421356237309509
10
-58.88750000000001
20
54.625
10
-45.887500000000003
20
54.625
42
-0.41421356237309509
10
-45.387500000000003
20
54.125000000000007
10
-45.387500000000003
20
41.125
42
-0.41421356237309509
10
-45.887500000000003
20
40.625
10
-58.88750000000001
20
40.625
42
-0.41421356237309509
10
-59.387500000000003
20
41.125
0
LWPOLYLINE
5
145
100
AcDbEntity
8
0
100
AcDbPolyline
90
40
70
1
43
0.0
10
4.6249999999999858
20
89.900000000000006
10
0.99999999999999534
20
89.899999999999963
42
0.41421356237310492
10
6.9388939039072284e-16
20
88.899999999999977
10
-4.3021142204224816e-15
20
25.40000000000002
42
0.41421356237309725
10
0.9999999999999909
20
24.40000000000002
10
4.6249999999999964
20
24.399999999999995
42
-0.87719298245614652
10
4.6249999999999973
20
22.975000000000001
10
3.9999999999999973
20
22.975000000000001
42
0.99999999999999989
10
3.9999999999999987
20
20.475000000000001
10
4.6249999999999982
20
20.475000000000001
42
-0.87719298245614052
10
4.6249999999999991
20
19.050000000000004
10
-8.2021243444677072
20
19.050000000000001
42
0.30079604231302215
10
-9.5250000000000004
20
17.050000000000001
10
-9.5250000000000021
20
1.4999999999999989
42
-0.41421356237309259
10
-11.024999999999991
20
-8.3266726846886741e-16
10
-124.85000000000002
20
8.3266726846886741e-15
42
-0.41421356237308904
10
-126.35000000000002
20
1.4999999999999991
10
-126.35000000000004
20
17.050000000000001
42
0.30079604231301954
10
-127.67287565553232
20
19.050000000000008
10
-209.41250000000011
20
19.050000000000047
42
-0.87719298245611799
10
-209.41250000000011
20
20.47500000000003
10
-208.78750000000011
20
20.47500000000003
42
0.99999999999999989
10
-208.78750000000011
20
22.97500000000003
10
-209.41250000000011
20
22.975000000000048
42
-0.87719298245611799
10
-209.41250000000011
20
24.400000000000031
10
-205.78750000000011
20
24.400000000000063
42
0.414213562373069
10
-204.78750000000008
20
25.400000000000063
10
-204.78750000000014
20
88.899999999999935
42
0.41421356237307422
10
-205.78750000000011
20
89.89999999999992
10
-209.41250000000011
20
89.899999999999949
42
-0.87719298245612087
10
-209.41250000000011
20
91.32499999999996
10
-208.78750000000011
20
91.32499999999996
42
0.99999999999999989
10
-208.78750000000011
20
93.82499999999996
10
-209.41250000000011
20
93.82499999999996
42
-0.87719298245611799
10
-209.41250000000011
20
95.249999999999943
10
4.6249999999999858
20
95.249999999999986
42
-0.87719298245616151
10
4.6249999999999858
20
93.825000000000003
10
3.9999999999999858
20
93.825000000000003
42
0.99999999999999989
10
3.9999999999999858
20
91.325000000000003
10
4.624999999999984
20
91.324999999999989
42
-0.87719298245616251
0
ENDSEC
0
SECTION
2
OBJECTS
0
DICTIONARY
5
C
100
AcDbDictionary
3
ACAD_GROUP
350
D
3
ACAD_MLINESTYLE
350
17
0
DICTIONARY
5
D
100
AcDbDictionary
0
DICTIONARY
5
1A
330
C
100
AcDbDictionary
0
DICTIONARY
5
17
100
AcDbDictionary
0
ENDSEC
0
EOF
