0
SECTION
2
HEADER
9
$INSUNITS
70
4
9
$ACADVER
1
AC1014
9
$HANDSEED
5
FFFF
0
ENDSEC
0
SECTION
2
TABLES
0
TABLE
2
VPORT
5
8
100
AcDbSymbolTable
0
ENDTAB
0
TABLE
2
LTYPE
5
5
100
AcDbSymbolTable
0
LTYPE
5
14
100
AcDbSymbolTableRecord
100
AcDbLinetypeTableRecord
2
BYBLOCK
70
0
0
LTYPE
5
15
100
AcDbSymbolTableRecord
100
AcDbLinetypeTableRecord
2
BYLAYER
70
0
0
ENDTAB
0
TABLE
2
LAYER
5
2
100
AcDbSymbolTable
70
2
0
LAYER
5
50
100
AcDbSymbolTableRecord
100
AcDbLayerTableRecord
2
0
70
0
6
CONTINUOUS
0
ENDTAB
0
TABLE
2
STYLE
5
3
100
AcDbSymbolTable
70
1
0
STYLE
5
11
100
AcDbSymbolTableRecord
100
AcDbTextStyleTableRecord
2
STANDARD
70
0
0
ENDTAB
0
TABLE
2
VIEW
5
6
100
AcDbSymbolTable
70
0
0
ENDTAB
0
TABLE
2
UCS
5
7
100
AcDbSymbolTable
70
0
0
ENDTAB
0
TABLE
2
APPID
5
9
100
AcDbSymbolTable
70
2
0
APPID
5
12
100
AcDbSymbolTableRecord
100
AcDbRegAppTableRecord
2
ACAD
70
0
0
ENDTAB
0
TABLE
2
DIMSTYLE
5
A
100
AcDbSymbolTable
70
1
0
ENDTAB
0
TABLE
2
BLOCK_RECORD
5
1
100
AcDbSymbolTable
70
1
0
BLOCK_RECORD
5
1F
100
AcDbSymbolTableRecord
100
AcDbBlockTableRecord
2
*MODEL_SPACE
0
BLOCK_RECORD
5
1B
100
AcDbSymbolTableRecord
100
AcDbBlockTableRecord
2
*PAPER_SPACE
0
ENDTAB
0
ENDSEC
0
SECTION
2
BLOCKS
0
BLOCK
5
20
100
AcDbEntity
100
AcDbBlockBegin
2
*MODEL_SPACE
0
ENDBLK
5
21
100
AcDbEntity
100
AcDbBlockEnd
0
BLOCK
5
1C
100
AcDbEntity
100
AcDbBlockBegin
2
*PAPER_SPACE
0
ENDBLK
5
1D
100
AcDbEntity
100
AcDbBlockEnd
0
ENDSEC
0
SECTION
2
ENTITIES
0
LWPOLYLINE
5
100
100
AcDbEntity
8
0
100
AcDbPolyline
90
8
70
1
43
0.0
10
36.362499999999997
20
-54.625000000000014
42
-0.41421356237309509
10
35.862500000000004
20
-54.125000000000014
10
35.862500000000011
20
-41.125000000000007
42
-0.41421356237309509
10
36.362499999999997
20
-40.625000000000014
10
49.362500000000004
20
-40.625000000000007
42
-0.41421356237309509
10
49.862499999999997
20
-41.125000000000007
10
49.862500000000011
20
-54.125000000000014
42
-0.41421356237309509
10
49.362500000000004
20
-54.625000000000021
0
LWPOLYLINE
5
101
100
AcDbEntity
8
0
100
AcDbPolyline
90
8
70
1
43
0.0
10
68.412499999999994
20
-40.625000000000014
10
55.412500000000009
20
-40.625000000000014
42
0.41421356237309509
10
54.912500000000009
20
-41.125000000000007
10
54.912500000000009
20
-54.125000000000014
42
0.41421356237309509
10
55.412500000000009
20
-54.625000000000021
10
68.412499999999994
20
-54.625000000000021
42
0.41421356237309509
10
68.912499999999994
20
-54.125000000000014
10
68.912499999999994
20
-41.125000000000007
42
0.41421356237309509
0
LWPOLYLINE
5
102
100
AcDbEntity
8
0
100
AcDbPolyline
90
44
70
1
43
0.0
10
110.12450000000001
20
-57.675000000000018
42
-0.41421356237309509
10
110.6245
20
-58.175000000000011
10
110.6245
20
-59.675000000000011
10
127.50050000000002
20
-59.675000000000011
10
127.5005
20
-58.175000000000011
42
-0.41421356237309509
10
128.00049999999999
20
-57.675000000000018
10
134.00049999999999
20
-57.675000000000018
42
-0.41421356237309509
10
134.50049999999999
20
-58.175000000000011
10
134.50050000000002
20
-72.174999999999997
42
-0.41421356237309509
10
134.00049999999999
20
-72.674999999999997
10
126.06250000000001
20
-72.674999999999997
10
126.06250000000001
20
-73.174999999999983
42
-0.41421356237309509
10
125.5625
20
-73.674999999999997
10
110.18125000000001
20
-73.674999999999997
42
-0.41421356237309509
10
109.68125000000001
20
-73.174999999999983
10
109.68125000000001
20
-72.674999999999997
10
104.63125000000002
20
-72.674999999999997
10
104.63125000000002
20
-73.174999999999983
42
-0.41421356237309509
10
104.13125000000001
20
-73.674999999999997
10
91.131249999999994
20
-73.674999999999997
42
-0.41421356237309509
10
90.631249999999994
20
-73.174999999999983
10
90.631249999999994
20
-72.674999999999997
10
85.581250000000011
20
-72.674999999999997
10
85.581250000000011
20
-73.174999999999983
42
-0.41421356237309509
10
85.081249999999997
20
-73.674999999999997
10
72.081249999999997
20
-73.674999999999983
42
-0.41421356237309509
10
71.581249999999997
20
-73.174999999999983
10
71.581249999999997
20
-72.674999999999997
10
63.643250000000009
20
-72.674999999999997
42
-0.41421356237309509
10
63.143250000000009
20
-72.174999999999997
10
63.143250000000002
20
-58.175000000000011
42
-0.41421356237309509
10
63.643250000000009
20
-57.674999999999997
10
69.643249999999995
20
-57.675000000000011
42
-0.41421356237309509
10
70.143249999999995
20
-58.175000000000011
10
70.143249999999995
20
-59.675000000000011
10
87.019250000000014
20
-59.675000000000011
10
87.01925
20
-58.175000000000011
42
-0.41421356237309509
10
87.51925
20
-57.674999999999997
10
93.51925
20
-57.674999999999997
42
-0.41421356237309509
10
94.01925
20
-58.175000000000011
10
94.01925
20
-59.675000000000011
10
103.62450000000001
20
-59.675000000000011
10
103.62449999999998
20
-58.175000000000011
42
-0.41421356237309509
10
104.1245
20
-57.674999999999997
0
LWPOLYLINE
5
103
100
AcDbEntity
8
0
100
AcDbPolyline
90
14
70
1
43
0.0
10
163.68125000000003
20
-57.675000000000018
10
169.68125000000001
20
-57.674999999999997
42
-0.41421356237309509
10
170.18125000000001
20
-58.175000000000011
10
170.18125000000001
20
-59.675000000000011
10
173.1875
20
-59.675000000000011
42
-0.41421356237309509
10
173.68750000000003
20
-60.175000000000018
10
173.68750000000003
20
-73.174999999999983
42
-0.41421356237309509
10
173.1875
20
-73.674999999999997
10
160.1875
20
-73.674999999999997
42
-0.41421356237309509
10
159.6875
20
-73.174999999999983
10
159.6875
20
-60.175000000000018
42
-0.41421356237309509
10
160.1875
20
-59.675000000000011
10
163.18125000000003
20
-59.675000000000011
10
163.18125000000003
20
-58.175000000000011
42
-0.41421356237309509
0
LWPOLYLINE
5
104
100
AcDbEntity
8
0
100
AcDbPolyline
90
14
70
1
43
0.0
10
40.625
20
-73.174999999999983
10
40.624999999999993
20
-60.175000000000018
42
-0.41421356237309509
10
41.125
20
-59.675000000000011
10
44.131250000000009
20
-59.675000000000011
10
44.131250000000001
20
-58.175000000000011
42
-0.41421356237309509
10
44.631250000000009
20
-57.674999999999997
10
50.631250000000001
20
-57.675000000000011
42
-0.41421356237309509
10
51.131250000000001
20
-58.175000000000011
10
51.131250000000001
20
-59.675000000000011
10
54.125000000000007
20
-59.675000000000018
42
-0.41421356237309509
10
54.625
20
-60.175000000000018
10
54.625000000000014
20
-73.174999999999983
42
-0.41421356237309509
10
54.125000000000007
20
-73.674999999999997
10
41.125
20
-73.674999999999983
42
-0.41421356237309509
0
LWPOLYLINE
5
105
100
AcDbEntity
8
0
100
AcDbPolyline
90
14
70
1
43
0.0
10
144.63124999999999
20
-57.675000000000018
10
150.63124999999999
20
-57.674999999999997
42
-0.41421356237309509
10
151.13124999999999
20
-58.175000000000011
10
151.13124999999999
20
-59.675000000000011
10
154.13749999999999
20
-59.675000000000011
42
-0.41421356237309509
10
154.63750000000002
20
-60.175000000000018
10
154.63750000000002
20
-73.174999999999983
42
-0.41421356237309509
10
154.13749999999999
20
-73.674999999999997
10
141.13749999999999
20
-73.674999999999997
42
-0.41421356237309509
10
140.63749999999999
20
-73.174999999999983
10
140.63749999999999
20
-60.175000000000018
42
-0.41421356237309509
10
141.13749999999999
20
-59.675000000000011
10
144.13125000000002
20
-59.675000000000011
10
144.13125000000002
20
-58.175000000000011
42
-0.41421356237309509
0
LWPOLYLINE
5
106
100
AcDbEntity
8
0
100
AcDbPolyline
90
8
70
1
43
0.0
10
21.574999999999992
20
-60.175000000000018
42
-0.41421356237309509
10
22.074999999999999
20
-59.675000000000011
10
35.075000000000003
20
-59.675000000000011
42
-0.41421356237309509
10
35.575000000000003
20
-60.175000000000018
10
35.57500000000001
20
-73.174999999999983
42
-0.41421356237309509
10
35.075000000000003
20
-73.674999999999997
10
22.074999999999999
20
-73.674999999999983
42
-0.41421356237309509
10
21.575000000000003
20
-73.174999999999983
0
LWPOLYLINE
5
107
100
AcDbEntity
8
0
100
AcDbPolyline
90
8
70
1
43
0.0
10
16.024999999999999
20
-59.675000000000011
10
3.0249999999999999
20
-59.675000000000011
42
0.41421356237309509
10
2.5249999999999999
20
-60.175000000000018
10
2.5249999999999999
20
-73.174999999999983
42
0.41421356237309509
10
3.0249999999999999
20
-73.674999999999997
10
16.024999999999999
20
-73.674999999999997
42
0.41421356237309509
10
16.524999999999999
20
-73.174999999999983
10
16.524999999999999
20
-60.175000000000018
42
0.41421356237309509
0
LWPOLYLINE
5
108
100
AcDbEntity
8
0
100
AcDbPolyline
90
8
70
1
43
0.0
10
187.47499999999999
20
-40.625
42
-0.41421356237309509
10
187.97499999999999
20
-41.125000000000007
10
187.97499999999999
20
-54.125000000000014
42
-0.41421356237309509
10
187.47499999999999
20
-54.625000000000021
10
174.47500000000002
20
-54.625000000000021
42
-0.41421356237309509
10
173.97500000000002
20
-54.125000000000014
10
173.97500000000002
20
-41.125000000000007
42
-0.41421356237309509
10
174.47500000000002
20
-40.625000000000014
0
LWPOLYLINE
5
109
100
AcDbEntity
8
0
100
AcDbPolyline
90
8
70
1
43
0.0
10
145.11250000000001
20
-54.125000000000014
42
-0.41421356237309509
10
144.61250000000001
20
-54.625000000000021
10
131.61250000000001
20
-54.625000000000021
42
-0.41421356237309509
10
131.11250000000001
20
-54.125000000000014
10
131.11250000000004
20
-41.125000000000007
42
-0.41421356237309509
10
131.61250000000001
20
-40.625000000000014
10
144.61250000000001
20
-40.625
42
-0.41421356237309509
10
145.11250000000001
20
-41.125000000000007
0
LWPOLYLINE
5
110
100
AcDbEntity
8
0
100
AcDbPolyline
90
8
70
1
43
0.0
10
163.66250000000002
20
-40.625000000000014
10
150.66249999999999
20
-40.625000000000014
42
0.41421356237309509
10
150.16249999999999
20
-41.125000000000007
10
150.16249999999999
20
-54.125000000000014
42
0.41421356237309509
10
150.66249999999999
20
-54.625000000000021
10
163.66250000000002
20
-54.625000000000021
42
0.41421356237309509
10
164.16250000000002
20
-54.125000000000014
10
164.16250000000002
20
-41.125000000000007
42
0.41421356237309509
0
LWPOLYLINE
5
111
100
AcDbEntity
8
0
100
AcDbPolyline
90
8
70
1
43
0.0
10
107.01250000000002
20
-54.125000000000014
42
-0.41421356237309509
10
106.51250000000002
20
-54.625000000000021
10
93.512500000000003
20
-54.625
42
-0.41421356237309509
10
93.012500000000017
20
-54.125000000000014
10
93.012499999999989
20
-41.125000000000007
42
-0.41421356237309509
10
93.512500000000003
20
-40.625
10
106.51250000000002
20
-40.625
42
-0.41421356237309509
10
107.01250000000002
20
-41.125000000000007
0
LWPOLYLINE
5
112
100
AcDbEntity
8
0
100
AcDbPolyline
90
8
70
1
43
0.0
10
125.5625
20
-40.625000000000014
10
112.56250000000001
20
-40.625000000000014
42
0.41421356237309509
10
112.0625
20
-41.125000000000007
10
112.0625
20
-54.125000000000014
42
0.41421356237309509
10
112.56250000000001
20
-54.625000000000021
10
125.5625
20
-54.625000000000021
42
0.41421356237309509
10
126.06250000000001
20
-54.125000000000014
10
126.06250000000001
20
-41.125000000000007
42
0.41421356237309509
0
LWPOLYLINE
5
113
100
AcDbEntity
8
0
100
AcDbPolyline
90
8
70
1
43
0.0
10
73.962500000000006
20
-41.125000000000007
42
-0.41421356237309509
10
74.462500000000006
20
-40.625
10
87.46250000000002
20
-40.625
42
-0.41421356237309509
10
87.96250000000002
20
-41.125000000000007
10
87.96250000000002
20
-54.125000000000014
42
-0.41421356237309509
10
87.46250000000002
20
-54.625000000000021
10
74.462500000000006
20
-54.625000000000014
42
-0.41421356237309509
10
73.962500000000006
20
-54.125000000000014
0
LWPOLYLINE
5
114
100
AcDbEntity
8
0
100
AcDbPolyline
90
8
70
1
43
0.0
10
178.73750000000001
20
-35.074999999999996
10
178.73750000000001
20
-22.074999999999992
42
-0.41421356237309509
10
179.23750000000001
20
-21.574999999999992
10
192.23750000000001
20
-21.574999999999985
42
-0.41421356237309509
10
192.73750000000004
20
-22.074999999999992
10
192.73750000000004
20
-35.074999999999996
42
-0.41421356237309509
10
192.23750000000001
20
-35.575000000000003
10
179.23750000000001
20
-35.575000000000003
42
-0.41421356237309509
0
LWPOLYLINE
5
115
100
AcDbEntity
8
0
100
AcDbPolyline
90
8
70
1
43
0.0
10
9.6687499999999922
20
-41.125000000000007
42
-0.41421356237309509
10
10.168749999999999
20
-40.625
10
23.168749999999999
20
-40.625000000000007
42
-0.41421356237309509
10
23.668749999999999
20
-41.125000000000007
10
23.668750000000006
20
-54.125000000000014
42
-0.41421356237309509
10
23.168749999999999
20
-54.625000000000021
10
10.168749999999999
20
-54.625000000000014
42
-0.41421356237309509
10
9.6687499999999993
20
-54.125000000000014
0
LWPOLYLINE
5
116
100
AcDbEntity
8
0
100
AcDbPolyline
90
8
70
1
43
0.0
10
159.6875
20
-35.074999999999996
10
159.6875
20
-22.074999999999992
42
-0.41421356237309509
10
160.1875
20
-21.574999999999992
10
173.1875
20
-21.574999999999985
42
-0.41421356237309509
10
173.68750000000003
20
-22.074999999999992
10
173.68750000000003
20
-35.074999999999996
42
-0.41421356237309509
10
173.1875
20
-35.575000000000003
10
160.1875
20
-35.575000000000003
42
-0.41421356237309509
0
LWPOLYLINE
5
117
100
AcDbEntity
8
0
100
AcDbPolyline
90
8
70
1
43
0.0
10
121.58750000000001
20
-35.074999999999996
10
121.58750000000001
20
-22.074999999999992
42
-0.41421356237309509
10
122.08750000000002
20
-21.574999999999992
10
135.08750000000001
20
-21.574999999999985
42
-0.41421356237309509
10
135.58750000000001
20
-22.074999999999992
10
135.58750000000001
20
-35.074999999999996
42
-0.41421356237309509
10
135.08750000000001
20
-35.575000000000003
10
122.08750000000002
20
-35.575000000000003
42
-0.41421356237309509
0
LWPOLYLINE
5
118
100
AcDbEntity
8
0
100
AcDbPolyline
90
8
70
1
43
0.0
10
154.63749999999999
20
-35.074999999999996
10
154.63749999999999
20
-22.074999999999992
42
0.41421356237309509
10
154.13749999999999
20
-21.574999999999992
10
141.13749999999999
20
-21.574999999999992
42
0.41421356237309509
10
140.63749999999999
20
-22.074999999999992
10
140.63749999999999
20
-35.074999999999996
42
0.41421356237309509
10
141.13749999999999
20
-35.574999999999989
10
154.13749999999999
20
-35.575000000000003
42
0.41421356237309509
0
LWPOLYLINE
5
119
100
AcDbEntity
8
0
100
AcDbPolyline
90
8
70
1
43
0.0
10
116.53750000000001
20
-35.074999999999996
10
116.53750000000001
20
-22.074999999999992
42
0.41421356237309509
10
116.03749999999999
20
-21.574999999999992
10
103.03750000000001
20
-21.574999999999992
42
0.41421356237309509
10
102.53749999999999
20
-22.074999999999992
10
102.53749999999999
20
-35.074999999999996
42
0.41421356237309509
10
103.03750000000001
20
-35.575000000000003
10
116.03749999999999
20
-35.575000000000003
42
0.41421356237309509
0
LWPOLYLINE
5
120
100
AcDbEntity
8
0
100
AcDbPolyline
90
8
70
1
43
0.0
10
96.987500000000011
20
-21.574999999999992
10
83.987499999999997
20
-21.574999999999992
42
0.41421356237309509
10
83.487500000000011
20
-22.074999999999992
10
83.487500000000011
20
-35.074999999999996
42
0.41421356237309509
10
83.987499999999997
20
-35.575000000000003
10
96.987500000000011
20
-35.575000000000003
42
0.41421356237309509
10
97.487500000000011
20
-35.074999999999996
10
97.487500000000011
20
-22.074999999999992
42
0.41421356237309509
0
LWPOLYLINE
5
121
100
AcDbEntity
8
0
100
AcDbPolyline
90
8
70
1
43
0.0
10
78.437500000000014
20
-35.074999999999996
42
-0.41421356237309509
10
77.9375
20
-35.575000000000003
10
64.9375
20
-35.574999999999996
42
-0.41421356237309509
10
64.4375
20
-35.074999999999996
10
64.4375
20
-22.074999999999992
42
-0.41421356237309509
10
64.9375
20
-21.574999999999992
10
77.9375
20
-21.574999999999992
42
-0.41421356237309509
10
78.4375
20
-22.074999999999992
0
LWPOLYLINE
5
122
100
AcDbEntity
8
0
100
AcDbPolyline
90
8
70
1
43
0.0
10
58.88750000000001
20
-21.574999999999992
42
-0.41421356237309509
10
59.387500000000003
20
-22.074999999999992
10
59.387500000000017
20
-35.074999999999996
42
-0.41421356237309509
10
58.88750000000001
20
-35.575000000000003
10
45.887500000000003
20
-35.574999999999996
42
-0.41421356237309509
10
45.387500000000003
20
-35.074999999999996
10
45.387500000000003
20
-22.074999999999992
42
-0.41421356237309509
10
45.887500000000003
20
-21.574999999999992
0
LWPOLYLINE
5
123
100
AcDbEntity
8
0
100
AcDbPolyline
90
8
70
1
43
0.0
10
18.90625
20
-35.074999999999996
10
18.90625
20
-22.074999999999992
42
0.41421356237309509
10
18.40625
20
-21.574999999999992
10
5.40625
20
-21.574999999999992
42
0.41421356237309509
10
4.90625
20
-22.074999999999992
10
4.90625
20
-35.074999999999996
42
0.41421356237309509
10
5.4062499999999991
20
-35.574999999999989
10
18.40625
20
-35.574999999999989
42
0.41421356237309509
0
LWPOLYLINE
5
124
100
AcDbEntity
8
0
100
AcDbPolyline
90
8
70
1
43
0.0
10
26.837499999999999
20
-35.574999999999996
42
-0.41421356237309509
10
26.337499999999999
20
-35.074999999999996
10
26.337499999999999
20
-22.074999999999992
42
-0.41421356237309509
10
26.837499999999999
20
-21.574999999999992
10
39.837499999999999
20
-21.574999999999989
42
-0.41421356237309509
10
40.337500000000006
20
-22.074999999999992
10
40.337500000000013
20
-35.074999999999996
42
-0.41421356237309509
10
39.837499999999999
20
-35.575000000000003
0
LWPOLYLINE
5
125
100
AcDbEntity
8
0
100
AcDbPolyline
90
8
70
1
43
0.0
10
154.92500000000004
20
-3.0249999999999981
42
-0.41421356237309509
10
155.42500000000001
20
-2.5249999999999999
10
168.42500000000001
20
-2.524999999999991
42
-0.41421356237309509
10
168.92500000000001
20
-3.0249999999999977
10
168.92500000000001
20
-16.024999999999995
42
-0.41421356237309509
10
168.42500000000001
20
-16.524999999999995
10
155.42500000000001
20
-16.525000000000002
42
-0.41421356237309509
10
154.92500000000001
20
-16.024999999999995
0
LWPOLYLINE
5
126
100
AcDbEntity
8
0
100
AcDbPolyline
90
8
70
1
43
0.0
10
176.35625000000002
20
-16.024999999999995
10
176.35624999999999
20
-3.0249999999999981
42
-0.41421356237309509
10
176.85624999999999
20
-2.5249999999999999
10
189.85624999999999
20
-2.524999999999991
42
-0.41421356237309509
10
190.35624999999999
20
-3.0249999999999977
10
190.35624999999999
20
-16.024999999999995
42
-0.41421356237309509
10
189.85624999999999
20
-16.524999999999995
10
176.85624999999999
20
-16.524999999999967
42
-0.41421356237309509
0
LWPOLYLINE
5
127
100
AcDbEntity
8
0
100
AcDbPolyline
90
8
70
1
43
0.0
10
116.82500000000002
20
-3.0249999999999981
42
-0.41421356237309509
10
117.32500000000002
20
-2.5249999999999999
10
130.32499999999999
20
-2.524999999999991
42
-0.41421356237309509
10
130.82499999999999
20
-3.0249999999999977
10
130.82499999999999
20
-16.024999999999995
42
-0.41421356237309509
10
130.32499999999999
20
-16.524999999999995
10
117.32500000000002
20
-16.525000000000002
42
-0.41421356237309509
10
116.82500000000002
20
-16.024999999999995
0
LWPOLYLINE
5
128
100
AcDbEntity
8
0
100
AcDbPolyline
90
8
70
1
43
0.0
10
135.87500000000003
20
-3.0249999999999981
42
-0.41421356237309509
10
136.375
20
-2.5249999999999999
10
149.375
20
-2.524999999999991
42
-0.41421356237309509
10
149.875
20
-3.0249999999999977
10
149.875
20
-16.024999999999995
42
-0.41421356237309509
10
149.375
20
-16.524999999999995
10
136.375
20
-16.525000000000002
42
-0.41421356237309509
10
135.875
20
-16.024999999999995
0
LWPOLYLINE
5
129
100
AcDbEntity
8
0
100
AcDbPolyline
90
8
70
1
43
0.0
10
16.524999999999999
20
-16.024999999999995
10
16.524999999999999
20
-3.0249999999999981
42
0.41421356237309509
10
16.024999999999999
20
-2.5249999999999999
10
3.0249999999999999
20
-2.5249999999999999
42
0.41421356237309509
10
2.5249999999999999
20
-3.0249999999999977
10
2.5249999999999999
20
-16.024999999999995
42
0.41421356237309509
10
3.0249999999999999
20
-16.524999999999995
10
16.024999999999999
20
-16.524999999999995
42
0.41421356237309509
0
LWPOLYLINE
5
130
100
AcDbEntity
8
0
100
AcDbPolyline
90
8
70
1
43
0.0
10
41.125
20
-16.524999999999995
42
-0.41421356237309509
10
40.625
20
-16.024999999999995
10
40.625
20
-3.0249999999999981
42
-0.41421356237309509
10
41.125
20
-2.5249999999999999
10
54.125000000000007
20
-2.5249999999999999
42
-0.41421356237309509
10
54.625
20
-3.0249999999999977
10
54.625
20
-16.024999999999995
42
-0.41421356237309509
10
54.125000000000007
20
-16.524999999999995
0
LWPOLYLINE
5
131
100
AcDbEntity
8
0
100
AcDbPolyline
90
8
70
1
43
0.0
10
97.775000000000006
20
-3.0249999999999981
42
-0.41421356237309509
10
98.275000000000006
20
-2.5249999999999999
10
111.27500000000001
20
-2.524999999999991
42
-0.41421356237309509
10
111.77500000000002
20
-3.0249999999999977
10
111.77500000000002
20
-16.024999999999995
42
-0.41421356237309509
10
111.27500000000001
20
-16.524999999999995
10
98.275000000000006
20
-16.525000000000002
42
-0.41421356237309509
10
97.775000000000006
20
-16.024999999999995
0
LWPOLYLINE
5
132
100
AcDbEntity
8
0
100
AcDbPolyline
90
8
70
1
43
0.0
10
21.575000000000003
20
-16.024999999999995
10
21.575000000000003
20
-3.0249999999999981
42
-0.41421356237309509
10
22.074999999999999
20
-2.5249999999999999
10
35.075000000000003
20
-2.5249999999999999
42
-0.41421356237309509
10
35.575000000000003
20
-3.0249999999999977
10
35.575000000000003
20
-16.024999999999995
42
-0.41421356237309509
10
35.075000000000003
20
-16.524999999999995
10
22.074999999999999
20
-16.524999999999995
42
-0.41421356237309509
0
LWPOLYLINE
5
133
100
AcDbEntity
8
0
100
AcDbPolyline
90
8
70
1
43
0.0
10
59.675000000000004
20
-3.0249999999999981
42
-0.41421356237309509
10
60.174999999999997
20
-2.5249999999999999
10
73.174999999999997
20
-2.5249999999999999
42
-0.41421356237309509
10
73.674999999999997
20
-3.0249999999999977
10
73.674999999999997
20
-16.024999999999995
42
-0.41421356237309509
10
73.174999999999997
20
-16.524999999999995
10
60.174999999999997
20
-16.524999999999995
42
-0.41421356237309509
10
59.675000000000004
20
-16.024999999999995
0
LWPOLYLINE
5
134
100
AcDbEntity
8
0
100
AcDbPolyline
90
8
70
1
43
0.0
10
79.224999999999994
20
-16.524999999999995
42
-0.41421356237309509
10
78.724999999999994
20
-16.024999999999995
10
78.724999999999994
20
-3.0249999999999981
42
-0.41421356237309509
10
79.224999999999994
20
-2.5249999999999999
10
92.224999999999994
20
-2.524999999999991
42
-0.41421356237309509
10
92.725000000000009
20
-3.0249999999999977
10
92.725000000000009
20
-16.024999999999995
42
-0.41421356237309509
10
92.224999999999994
20
-16.524999999999995
0
LWPOLYLINE
5
135
100
AcDbEntity
8
0
100
AcDbPolyline
90
8
70
1
43
0.0
10
178.73750000000001
20
-60.175000000000018
42
-0.41421356237309509
10
179.23750000000001
20
-59.675000000000011
10
192.23750000000001
20
-59.675000000000011
42
-0.41421356237309509
10
192.73750000000004
20
-60.175000000000018
10
192.73750000000004
20
-73.174999999999983
42
-0.41421356237309509
10
192.23750000000001
20
-73.674999999999997
10
179.23750000000001
20
-73.674999999999997
42
-0.41421356237309509
10
178.73750000000001
20
-73.174999999999983
0
LWPOLYLINE
5
136
100
AcDbEntity
8
0
100
AcDbPolyline
90
4
70
1
43
0.0
10
195.26250000000002
20
-76.200000000000017
10
0
20
-76.200000000000017
10
0
20
0
10
195.26250000000002
20
0
0
ENDSEC
0
SECTION
2
OBJECTS
0
DICTIONARY
5
C
100
AcDbDictionary
3
ACAD_GROUP
350
D
3
ACAD_MLINESTYLE
350
17
0
DICTIONARY
5
D
100
AcDbDictionary
0
DICTIONARY
5
1A
330
C
100
AcDbDictionary
0
DICTIONARY
5
17
100
AcDbDictionary
0
ENDSEC
0
EOF
