0
SECTION
2
HEADER
9
$INSUNITS
70
4
0
ENDSEC
0
SECTION
2
TABLES
0
TABLE
2
LTYPE
0
LTYPE
72
65
70
64
2
CONTINUOUS
3
______
73
0
40
0
0
ENDTAB
0
TABLE
2
LAYER
0
ENDTAB
0
ENDSEC
0
SECTION
2
ENTITIES
0
LINE
8
0
10
12.55
20
-2.525
11
25.55
21
-2.525
0
LINE
8
0
10
12.55
20
-16.525
11
25.55
21
-16.525
0
LINE
8
0
10
12.05
20
-3.025
11
12.05
21
-16.025
0
LINE
8
0
10
26.05
20
-3.025
11
26.05
21
-16.025
0
ARC
8
0
10
12.55
20
-3.025
40
0.5
50
90
51
180
0
ARC
8
0
10
25.55
20
-3.025
40
0.5
50
0
51
90
0
ARC
8
0
10
12.55
20
-16.025
40
0.5
50
180
51
270
0
ARC
8
0
10
25.55
20
-16.025
40
0.5
50
270
51
0
0
LINE
8
0
10
31.6
20
-2.525
11
44.6
21
-2.525
0
LINE
8
0
10
31.6
20
-16.525
11
44.6
21
-16.525
0
LINE
8
0
10
31.1
20
-3.025
11
31.1
21
-16.025
0
LINE
8
0
10
45.1
20
-3.025
11
45.1
21
-16.025
0
ARC
8
0
10
31.6
20
-3.025
40
0.5
50
90
51
180
0
ARC
8
0
10
44.6
20
-3.025
40
0.5
50
0
51
90
0
ARC
8
0
10
31.6
20
-16.025
40
0.5
50
180
51
270
0
ARC
8
0
10
44.6
20
-16.025
40
0.5
50
270
51
0
0
LINE
8
0
10
50.65
20
-2.525
11
63.65
21
-2.525
0
LINE
8
0
10
50.65
20
-16.525
11
63.65
21
-16.525
0
LINE
8
0
10
50.15
20
-3.025
11
50.15
21
-16.025
0
LINE
8
0
10
64.15
20
-3.025
11
64.15
21
-16.025
0
ARC
8
0
10
50.65
20
-3.025
40
0.5
50
90
51
180
0
ARC
8
0
10
63.65
20
-3.025
40
0.5
50
0
51
90
0
ARC
8
0
10
50.65
20
-16.025
40
0.5
50
180
51
270
0
ARC
8
0
10
63.65
20
-16.025
40
0.5
50
270
51
0
0
LINE
8
0
10
69.7
20
-2.525
11
82.7
21
-2.525
0
LINE
8
0
10
69.7
20
-16.525
11
82.7
21
-16.525
0
LINE
8
0
10
69.2
20
-3.025
11
69.2
21
-16.025
0
LINE
8
0
10
83.2
20
-3.025
11
83.2
21
-16.025
0
ARC
8
0
10
69.7
20
-3.025
40
0.5
50
90
51
180
0
ARC
8
0
10
82.7
20
-3.025
40
0.5
50
0
51
90
0
ARC
8
0
10
69.7
20
-16.025
40
0.5
50
180
51
270
0
ARC
8
0
10
82.7
20
-16.025
40
0.5
50
270
51
0
0
LINE
8
0
10
88.75
20
-2.525
11
101.75
21
-2.525
0
LINE
8
0
10
88.75
20
-16.525
11
101.75
21
-16.525
0
LINE
8
0
10
88.25
20
-3.025
11
88.25
21
-16.025
0
LINE
8
0
10
102.25
20
-3.025
11
102.25
21
-16.025
0
ARC
8
0
10
88.75
20
-3.025
40
0.5
50
90
51
180
0
ARC
8
0
10
101.75
20
-3.025
40
0.5
50
0
51
90
0
ARC
8
0
10
88.75
20
-16.025
40
0.5
50
180
51
270
0
ARC
8
0
10
101.75
20
-16.025
40
0.5
50
270
51
0
0
LINE
8
0
10
107.8
20
-2.525
11
120.8
21
-2.525
0
LINE
8
0
10
107.8
20
-16.525
11
120.8
21
-16.525
0
LINE
8
0
10
107.3
20
-3.025
11
107.3
21
-16.025
0
LINE
8
0
10
121.3
20
-3.025
11
121.3
21
-16.025
0
ARC
8
0
10
107.8
20
-3.025
40
0.5
50
90
51
180
0
ARC
8
0
10
120.8
20
-3.025
40
0.5
50
0
51
90
0
ARC
8
0
10
107.8
20
-16.025
40
0.5
50
180
51
270
0
ARC
8
0
10
120.8
20
-16.025
40
0.5
50
270
51
0
0
LINE
8
0
10
3.025
20
-21.575
11
16.025
21
-21.575
0
LINE
8
0
10
3.025
20
-35.575
11
16.025
21
-35.575
0
LINE
8
0
10
2.525
20
-22.075
11
2.525
21
-35.075
0
LINE
8
0
10
16.525
20
-22.075
11
16.525
21
-35.075
0
ARC
8
0
10
3.025
20
-22.075
40
0.5
50
90
51
180
0
ARC
8
0
10
16.025
20
-22.075
40
0.5
50
0
51
90
0
ARC
8
0
10
3.025
20
-35.075
40
0.5
50
180
51
270
0
ARC
8
0
10
16.025
20
-35.075
40
0.5
50
270
51
0
0
LINE
8
0
10
22.075
20
-21.575
11
35.075
21
-21.575
0
LINE
8
0
10
22.075
20
-35.575
11
35.075
21
-35.575
0
LINE
8
0
10
21.575
20
-22.075
11
21.575
21
-35.075
0
LINE
8
0
10
35.575
20
-22.075
11
35.575
21
-35.075
0
ARC
8
0
10
22.075
20
-22.075
40
0.5
50
90
51
180
0
ARC
8
0
10
35.075
20
-22.075
40
0.5
50
0
51
90
0
ARC
8
0
10
22.075
20
-35.075
40
0.5
50
180
51
270
0
ARC
8
0
10
35.075
20
-35.075
40
0.5
50
270
51
0
0
LINE
8
0
10
41.125
20
-21.575
11
54.125
21
-21.575
0
LINE
8
0
10
41.125
20
-35.575
11
54.125
21
-35.575
0
LINE
8
0
10
40.625
20
-22.075
11
40.625
21
-35.075
0
LINE
8
0
10
54.625
20
-22.075
11
54.625
21
-35.075
0
ARC
8
0
10
41.125
20
-22.075
40
0.5
50
90
51
180
0
ARC
8
0
10
54.125
20
-22.075
40
0.5
50
0
51
90
0
ARC
8
0
10
41.125
20
-35.075
40
0.5
50
180
51
270
0
ARC
8
0
10
54.125
20
-35.075
40
0.5
50
270
51
0
0
LINE
8
0
10
60.175
20
-21.575
11
73.175
21
-21.575
0
LINE
8
0
10
60.175
20
-35.575
11
73.175
21
-35.575
0
LINE
8
0
10
59.675
20
-22.075
11
59.675
21
-35.075
0
LINE
8
0
10
73.675
20
-22.075
11
73.675
21
-35.075
0
ARC
8
0
10
60.175
20
-22.075
40
0.5
50
90
51
180
0
ARC
8
0
10
73.175
20
-22.075
40
0.5
50
0
51
90
0
ARC
8
0
10
60.175
20
-35.075
40
0.5
50
180
51
270
0
ARC
8
0
10
73.175
20
-35.075
40
0.5
50
270
51
0
0
LINE
8
0
10
79.225
20
-21.575
11
92.225
21
-21.575
0
LINE
8
0
10
79.225
20
-35.575
11
92.225
21
-35.575
0
LINE
8
0
10
78.725
20
-22.075
11
78.725
21
-35.075
0
LINE
8
0
10
92.725
20
-22.075
11
92.725
21
-35.075
0
ARC
8
0
10
79.225
20
-22.075
40
0.5
50
90
51
180
0
ARC
8
0
10
92.225
20
-22.075
40
0.5
50
0
51
90
0
ARC
8
0
10
79.225
20
-35.075
40
0.5
50
180
51
270
0
ARC
8
0
10
92.225
20
-35.075
40
0.5
50
270
51
0
0
LINE
8
0
10
98.275
20
-21.575
11
111.275
21
-21.575
0
LINE
8
0
10
98.275
20
-35.575
11
111.275
21
-35.575
0
LINE
8
0
10
97.775
20
-22.075
11
97.775
21
-35.075
0
LINE
8
0
10
111.775
20
-22.075
11
111.775
21
-35.075
0
ARC
8
0
10
98.275
20
-22.075
40
0.5
50
90
51
180
0
ARC
8
0
10
111.275
20
-22.075
40
0.5
50
0
51
90
0
ARC
8
0
10
98.275
20
-35.075
40
0.5
50
180
51
270
0
ARC
8
0
10
111.275
20
-35.075
40
0.5
50
270
51
0
0
LINE
8
0
10
117.325
20
-21.575
11
130.325
21
-21.575
0
LINE
8
0
10
117.325
20
-35.575
11
130.325
21
-35.575
0
LINE
8
0
10
116.825
20
-22.075
11
116.825
21
-35.075
0
LINE
8
0
10
130.825
20
-22.075
11
130.825
21
-35.075
0
ARC
8
0
10
117.325
20
-22.075
40
0.5
50
90
51
180
0
ARC
8
0
10
130.325
20
-22.075
40
0.5
50
0
51
90
0
ARC
8
0
10
117.325
20
-35.075
40
0.5
50
180
51
270
0
ARC
8
0
10
130.325
20
-35.075
40
0.5
50
270
51
0
0
LINE
8
0
10
136.375
20
-21.575
11
149.375
21
-21.575
0
LINE
8
0
10
136.375
20
-35.575
11
149.375
21
-35.575
0
LINE
8
0
10
135.875
20
-22.075
11
135.875
21
-35.075
0
LINE
8
0
10
149.875
20
-22.075
11
149.875
21
-35.075
0
ARC
8
0
10
136.375
20
-22.075
40
0.5
50
90
51
180
0
ARC
8
0
10
149.375
20
-22.075
40
0.5
50
0
51
90
0
ARC
8
0
10
136.375
20
-35.075
40
0.5
50
180
51
270
0
ARC
8
0
10
149.375
20
-35.075
40
0.5
50
270
51
0
0
LINE
8
0
10
155.425
20
-21.575
11
168.425
21
-21.575
0
LINE
8
0
10
155.425
20
-35.575
11
168.425
21
-35.575
0
LINE
8
0
10
154.925
20
-22.075
11
154.925
21
-35.075
0
LINE
8
0
10
168.925
20
-22.075
11
168.925
21
-35.075
0
ARC
8
0
10
155.425
20
-22.075
40
0.5
50
90
51
180
0
ARC
8
0
10
168.425
20
-22.075
40
0.5
50
0
51
90
0
ARC
8
0
10
155.425
20
-35.075
40
0.5
50
180
51
270
0
ARC
8
0
10
168.425
20
-35.075
40
0.5
50
270
51
0
0
LINE
8
0
10
181.61875
20
-21.575
11
194.61875
21
-21.575
0
LINE
8
0
10
181.61875
20
-35.575
11
194.61875
21
-35.575
0
LINE
8
0
10
181.11875
20
-22.075
11
181.11875
21
-35.075
0
LINE
8
0
10
195.11875
20
-22.075
11
195.11875
21
-35.075
0
ARC
8
0
10
181.61875
20
-22.075
40
0.5
50
90
51
180
0
ARC
8
0
10
194.61875
20
-22.075
40
0.5
50
0
51
90
0
ARC
8
0
10
181.61875
20
-35.075
40
0.5
50
180
51
270
0
ARC
8
0
10
194.61875
20
-35.075
40
0.5
50
270
51
0
0
LINE
8
0
10
5.40625
20
-40.625
11
18.40625
21
-40.625
0
LINE
8
0
10
5.40625
20
-54.625
11
18.40625
21
-54.625
0
LINE
8
0
10
4.90625
20
-41.125
11
4.90625
21
-54.125
0
LINE
8
0
10
18.90625
20
-41.125
11
18.90625
21
-54.125
0
ARC
8
0
10
5.40625
20
-41.125
40
0.5
50
90
51
180
0
ARC
8
0
10
18.40625
20
-41.125
40
0.5
50
0
51
90
0
ARC
8
0
10
5.40625
20
-54.125
40
0.5
50
180
51
270
0
ARC
8
0
10
18.40625
20
-54.125
40
0.5
50
270
51
0
0
LINE
8
0
10
26.8375
20
-40.625
11
39.8375
21
-40.625
0
LINE
8
0
10
26.8375
20
-54.625
11
39.8375
21
-54.625
0
LINE
8
0
10
26.3375
20
-41.125
11
26.3375
21
-54.125
0
LINE
8
0
10
40.3375
20
-41.125
11
40.3375
21
-54.125
0
ARC
8
0
10
26.8375
20
-41.125
40
0.5
50
90
51
180
0
ARC
8
0
10
39.8375
20
-41.125
40
0.5
50
0
51
90
0
ARC
8
0
10
26.8375
20
-54.125
40
0.5
50
180
51
270
0
ARC
8
0
10
39.8375
20
-54.125
40
0.5
50
270
51
0
0
LINE
8
0
10
45.8875
20
-40.625
11
58.8875
21
-40.625
0
LINE
8
0
10
45.8875
20
-54.625
11
58.8875
21
-54.625
0
LINE
8
0
10
45.3875
20
-41.125
11
45.3875
21
-54.125
0
LINE
8
0
10
59.3875
20
-41.125
11
59.3875
21
-54.125
0
ARC
8
0
10
45.8875
20
-41.125
40
0.5
50
90
51
180
0
ARC
8
0
10
58.8875
20
-41.125
40
0.5
50
0
51
90
0
ARC
8
0
10
45.8875
20
-54.125
40
0.5
50
180
51
270
0
ARC
8
0
10
58.8875
20
-54.125
40
0.5
50
270
51
0
0
LINE
8
0
10
64.9375
20
-40.625
11
77.9375
21
-40.625
0
LINE
8
0
10
64.9375
20
-54.625
11
77.9375
21
-54.625
0
LINE
8
0
10
64.4375
20
-41.125
11
64.4375
21
-54.125
0
LINE
8
0
10
78.4375
20
-41.125
11
78.4375
21
-54.125
0
ARC
8
0
10
64.9375
20
-41.125
40
0.5
50
90
51
180
0
ARC
8
0
10
77.9375
20
-41.125
40
0.5
50
0
51
90
0
ARC
8
0
10
64.9375
20
-54.125
40
0.5
50
180
51
270
0
ARC
8
0
10
77.9375
20
-54.125
40
0.5
50
270
51
0
0
LINE
8
0
10
83.9875
20
-40.625
11
96.9875
21
-40.625
0
LINE
8
0
10
83.9875
20
-54.625
11
96.9875
21
-54.625
0
LINE
8
0
10
83.4875
20
-41.125
11
83.4875
21
-54.125
0
LINE
8
0
10
97.4875
20
-41.125
11
97.4875
21
-54.125
0
ARC
8
0
10
83.9875
20
-41.125
40
0.5
50
90
51
180
0
ARC
8
0
10
96.9875
20
-41.125
40
0.5
50
0
51
90
0
ARC
8
0
10
83.9875
20
-54.125
40
0.5
50
180
51
270
0
ARC
8
0
10
96.9875
20
-54.125
40
0.5
50
270
51
0
0
LINE
8
0
10
103.0375
20
-40.625
11
116.0375
21
-40.625
0
LINE
8
0
10
103.0375
20
-54.625
11
116.0375
21
-54.625
0
LINE
8
0
10
102.5375
20
-41.125
11
102.5375
21
-54.125
0
LINE
8
0
10
116.5375
20
-41.125
11
116.5375
21
-54.125
0
ARC
8
0
10
103.0375
20
-41.125
40
0.5
50
90
51
180
0
ARC
8
0
10
116.0375
20
-41.125
40
0.5
50
0
51
90
0
ARC
8
0
10
103.0375
20
-54.125
40
0.5
50
180
51
270
0
ARC
8
0
10
116.0375
20
-54.125
40
0.5
50
270
51
0
0
LINE
8
0
10
122.0875
20
-40.625
11
135.0875
21
-40.625
0
LINE
8
0
10
122.0875
20
-54.625
11
135.0875
21
-54.625
0
LINE
8
0
10
121.5875
20
-41.125
11
121.5875
21
-54.125
0
LINE
8
0
10
135.5875
20
-41.125
11
135.5875
21
-54.125
0
ARC
8
0
10
122.0875
20
-41.125
40
0.5
50
90
51
180
0
ARC
8
0
10
135.0875
20
-41.125
40
0.5
50
0
51
90
0
ARC
8
0
10
122.0875
20
-54.125
40
0.5
50
180
51
270
0
ARC
8
0
10
135.0875
20
-54.125
40
0.5
50
270
51
0
0
LINE
8
0
10
141.1375
20
-40.625
11
154.1375
21
-40.625
0
LINE
8
0
10
141.1375
20
-54.625
11
154.1375
21
-54.625
0
LINE
8
0
10
140.6375
20
-41.125
11
140.6375
21
-54.125
0
LINE
8
0
10
154.6375
20
-41.125
11
154.6375
21
-54.125
0
ARC
8
0
10
141.1375
20
-41.125
40
0.5
50
90
51
180
0
ARC
8
0
10
154.1375
20
-41.125
40
0.5
50
0
51
90
0
ARC
8
0
10
141.1375
20
-54.125
40
0.5
50
180
51
270
0
ARC
8
0
10
154.1375
20
-54.125
40
0.5
50
270
51
0
0
LINE
8
0
10
160.1875
20
-40.625
11
173.1875
21
-40.625
0
LINE
8
0
10
160.1875
20
-54.625
11
173.1875
21
-54.625
0
LINE
8
0
10
159.6875
20
-41.125
11
159.6875
21
-54.125
0
LINE
8
0
10
173.6875
20
-41.125
11
173.6875
21
-54.125
0
ARC
8
0
10
160.1875
20
-41.125
40
0.5
50
90
51
180
0
ARC
8
0
10
173.1875
20
-41.125
40
0.5
50
0
51
90
0
ARC
8
0
10
160.1875
20
-54.125
40
0.5
50
180
51
270
0
ARC
8
0
10
173.1875
20
-54.125
40
0.5
50
270
51
0
0
LINE
8
0
10
184
20
-40.625
11
197
21
-40.625
0
LINE
8
0
10
184
20
-54.625
11
197
21
-54.625
0
LINE
8
0
10
183.5
20
-41.125
11
183.5
21
-54.125
0
LINE
8
0
10
197.5
20
-41.125
11
197.5
21
-54.125
0
ARC
8
0
10
184
20
-41.125
40
0.5
50
90
51
180
0
ARC
8
0
10
197
20
-41.125
40
0.5
50
0
51
90
0
ARC
8
0
10
184
20
-54.125
40
0.5
50
180
51
270
0
ARC
8
0
10
197
20
-54.125
40
0.5
50
270
51
0
0
LINE
8
0
10
10.16875
20
-59.675
11
23.16875
21
-59.675
0
LINE
8
0
10
10.16875
20
-73.675
11
23.16875
21
-73.675
0
LINE
8
0
10
9.66875
20
-60.175
11
9.66875
21
-73.175
0
LINE
8
0
10
23.66875
20
-60.175
11
23.66875
21
-73.175
0
ARC
8
0
10
10.16875
20
-60.175
40
0.5
50
90
51
180
0
ARC
8
0
10
23.16875
20
-60.175
40
0.5
50
0
51
90
0
ARC
8
0
10
10.16875
20
-73.175
40
0.5
50
180
51
270
0
ARC
8
0
10
23.16875
20
-73.175
40
0.5
50
270
51
0
0
LINE
8
0
10
36.3625
20
-59.675
11
49.3625
21
-59.675
0
LINE
8
0
10
36.3625
20
-73.675
11
49.3625
21
-73.675
0
LINE
8
0
10
35.8625
20
-60.175
11
35.8625
21
-73.175
0
LINE
8
0
10
49.8625
20
-60.175
11
49.8625
21
-73.175
0
ARC
8
0
10
36.3625
20
-60.175
40
0.5
50
90
51
180
0
ARC
8
0
10
49.3625
20
-60.175
40
0.5
50
0
51
90
0
ARC
8
0
10
36.3625
20
-73.175
40
0.5
50
180
51
270
0
ARC
8
0
10
49.3625
20
-73.175
40
0.5
50
270
51
0
0
LINE
8
0
10
55.4125
20
-59.675
11
68.4125
21
-59.675
0
LINE
8
0
10
55.4125
20
-73.675
11
68.4125
21
-73.675
0
LINE
8
0
10
54.9125
20
-60.175
11
54.9125
21
-73.175
0
LINE
8
0
10
68.9125
20
-60.175
11
68.9125
21
-73.175
0
ARC
8
0
10
55.4125
20
-60.175
40
0.5
50
90
51
180
0
ARC
8
0
10
68.4125
20
-60.175
40
0.5
50
0
51
90
0
ARC
8
0
10
55.4125
20
-73.175
40
0.5
50
180
51
270
0
ARC
8
0
10
68.4125
20
-73.175
40
0.5
50
270
51
0
0
LINE
8
0
10
74.4625
20
-59.675
11
87.4625
21
-59.675
0
LINE
8
0
10
74.4625
20
-73.675
11
87.4625
21
-73.675
0
LINE
8
0
10
73.9625
20
-60.175
11
73.9625
21
-73.175
0
LINE
8
0
10
87.9625
20
-60.175
11
87.9625
21
-73.175
0
ARC
8
0
10
74.4625
20
-60.175
40
0.5
50
90
51
180
0
ARC
8
0
10
87.4625
20
-60.175
40
0.5
50
0
51
90
0
ARC
8
0
10
74.4625
20
-73.175
40
0.5
50
180
51
270
0
ARC
8
0
10
87.4625
20
-73.175
40
0.5
50
270
51
0
0
LINE
8
0
10
93.5125
20
-59.675
11
106.5125
21
-59.675
0
LINE
8
0
10
93.5125
20
-73.675
11
106.5125
21
-73.675
0
LINE
8
0
10
93.0125
20
-60.175
11
93.0125
21
-73.175
0
LINE
8
0
10
107.0125
20
-60.175
11
107.0125
21
-73.175
0
ARC
8
0
10
93.5125
20
-60.175
40
0.5
50
90
51
180
0
ARC
8
0
10
106.5125
20
-60.175
40
0.5
50
0
51
90
0
ARC
8
0
10
93.5125
20
-73.175
40
0.5
50
180
51
270
0
ARC
8
0
10
106.5125
20
-73.175
40
0.5
50
270
51
0
0
LINE
8
0
10
112.5625
20
-59.675
11
125.5625
21
-59.675
0
LINE
8
0
10
112.5625
20
-73.675
11
125.5625
21
-73.675
0
LINE
8
0
10
112.0625
20
-60.175
11
112.0625
21
-73.175
0
LINE
8
0
10
126.0625
20
-60.175
11
126.0625
21
-73.175
0
ARC
8
0
10
112.5625
20
-60.175
40
0.5
50
90
51
180
0
ARC
8
0
10
125.5625
20
-60.175
40
0.5
50
0
51
90
0
ARC
8
0
10
112.5625
20
-73.175
40
0.5
50
180
51
270
0
ARC
8
0
10
125.5625
20
-73.175
40
0.5
50
270
51
0
0
LINE
8
0
10
131.6125
20
-59.675
11
144.6125
21
-59.675
0
LINE
8
0
10
131.6125
20
-73.675
11
144.6125
21
-73.675
0
LINE
8
0
10
131.1125
20
-60.175
11
131.1125
21
-73.175
0
LINE
8
0
10
145.1125
20
-60.175
11
145.1125
21
-73.175
0
ARC
8
0
10
131.6125
20
-60.175
40
0.5
50
90
51
180
0
ARC
8
0
10
144.6125
20
-60.175
40
0.5
50
0
51
90
0
ARC
8
0
10
131.6125
20
-73.175
40
0.5
50
180
51
270
0
ARC
8
0
10
144.6125
20
-73.175
40
0.5
50
270
51
0
0
LINE
8
0
10
150.6625
20
-59.675
11
163.6625
21
-59.675
0
LINE
8
0
10
150.6625
20
-73.675
11
163.6625
21
-73.675
0
LINE
8
0
10
150.1625
20
-60.175
11
150.1625
21
-73.175
0
LINE
8
0
10
164.1625
20
-60.175
11
164.1625
21
-73.175
0
ARC
8
0
10
150.6625
20
-60.175
40
0.5
50
90
51
180
0
ARC
8
0
10
163.6625
20
-60.175
40
0.5
50
0
51
90
0
ARC
8
0
10
150.6625
20
-73.175
40
0.5
50
180
51
270
0
ARC
8
0
10
163.6625
20
-73.175
40
0.5
50
270
51
0
0
LINE
8
0
10
169.7125
20
-59.675
11
182.7125
21
-59.675
0
LINE
8
0
10
169.7125
20
-73.675
11
182.7125
21
-73.675
0
LINE
8
0
10
169.2125
20
-60.175
11
169.2125
21
-73.175
0
LINE
8
0
10
183.2125
20
-60.175
11
183.2125
21
-73.175
0
ARC
8
0
10
169.7125
20
-60.175
40
0.5
50
90
51
180
0
ARC
8
0
10
182.7125
20
-60.175
40
0.5
50
0
51
90
0
ARC
8
0
10
169.7125
20
-73.175
40
0.5
50
180
51
270
0
ARC
8
0
10
182.7125
20
-73.175
40
0.5
50
270
51
0
0
LINE
8
0
10
188.7625
20
-59.675
11
201.7625
21
-59.675
0
LINE
8
0
10
188.7625
20
-73.675
11
201.7625
21
-73.675
0
LINE
8
0
10
188.2625
20
-60.175
11
188.2625
21
-73.175
0
LINE
8
0
10
202.2625
20
-60.175
11
202.2625
21
-73.175
0
ARC
8
0
10
188.7625
20
-60.175
40
0.5
50
90
51
180
0
ARC
8
0
10
201.7625
20
-60.175
40
0.5
50
0
51
90
0
ARC
8
0
10
188.7625
20
-73.175
40
0.5
50
180
51
270
0
ARC
8
0
10
201.7625
20
-73.175
40
0.5
50
270
51
0
0
LINE
8
0
10
5.40625
20
-78.725
11
18.40625
21
-78.725
0
LINE
8
0
10
5.40625
20
-92.725
11
18.40625
21
-92.725
0
LINE
8
0
10
4.90625
20
-79.225
11
4.90625
21
-92.225
0
LINE
8
0
10
18.90625
20
-79.225
11
18.90625
21
-92.225
0
ARC
8
0
10
5.40625
20
-79.225
40
0.5
50
90
51
180
0
ARC
8
0
10
18.40625
20
-79.225
40
0.5
50
0
51
90
0
ARC
8
0
10
5.40625
20
-92.225
40
0.5
50
180
51
270
0
ARC
8
0
10
18.40625
20
-92.225
40
0.5
50
270
51
0
0
LINE
8
0
10
26.8375
20
-78.725
11
39.8375
21
-78.725
0
LINE
8
0
10
26.8375
20
-92.725
11
39.8375
21
-92.725
0
LINE
8
0
10
26.3375
20
-79.225
11
26.3375
21
-92.225
0
LINE
8
0
10
40.3375
20
-79.225
11
40.3375
21
-92.225
0
ARC
8
0
10
26.8375
20
-79.225
40
0.5
50
90
51
180
0
ARC
8
0
10
39.8375
20
-79.225
40
0.5
50
0
51
90
0
ARC
8
0
10
26.8375
20
-92.225
40
0.5
50
180
51
270
0
ARC
8
0
10
39.8375
20
-92.225
40
0.5
50
270
51
0
0
LINE
8
0
10
45.8875
20
-78.725
11
58.8875
21
-78.725
0
LINE
8
0
10
45.8875
20
-92.725
11
58.8875
21
-92.725
0
LINE
8
0
10
45.3875
20
-79.225
11
45.3875
21
-92.225
0
LINE
8
0
10
59.3875
20
-79.225
11
59.3875
21
-92.225
0
ARC
8
0
10
45.8875
20
-79.225
40
0.5
50
90
51
180
0
ARC
8
0
10
58.8875
20
-79.225
40
0.5
50
0
51
90
0
ARC
8
0
10
45.8875
20
-92.225
40
0.5
50
180
51
270
0
ARC
8
0
10
58.8875
20
-92.225
40
0.5
50
270
51
0
0
LINE
8
0
10
114.94375
20
-78.725
11
127.94375
21
-78.725
0
LINE
8
0
10
114.94375
20
-92.725
11
127.94375
21
-92.725
0
LINE
8
0
10
114.44375
20
-79.225
11
114.44375
21
-92.225
0
LINE
8
0
10
128.44375
20
-79.225
11
128.44375
21
-92.225
0
ARC
8
0
10
114.94375
20
-79.225
40
0.5
50
90
51
180
0
ARC
8
0
10
127.94375
20
-79.225
40
0.5
50
0
51
90
0
ARC
8
0
10
114.94375
20
-92.225
40
0.5
50
180
51
270
0
ARC
8
0
10
127.94375
20
-92.225
40
0.5
50
270
51
0
0
LINE
8
0
10
174.44375
20
-91.725
11
168.44375
21
-91.725
0
LINE
8
0
10
174.44375
20
-76.725
11
168.44375
21
-76.725
0
LINE
8
0
10
174.94375
20
-91.225
11
174.94375
21
-77.225
0
LINE
8
0
10
167.94375
20
-91.225
11
167.94375
21
-77.225
0
ARC
8
0
10
174.44375
20
-91.225
40
0.5
50
270
51
0
0
ARC
8
0
10
168.44375
20
-91.225
40
0.5
50
180
51
270
0
ARC
8
0
10
174.44375
20
-77.225
40
0.5
50
0
51
90
0
ARC
8
0
10
168.44375
20
-77.225
40
0.5
50
90
51
180
0
LINE
8
0
10
74.44375
20
-91.725
11
68.44375
21
-91.725
0
LINE
8
0
10
74.44375
20
-76.725
11
68.44375
21
-76.725
0
LINE
8
0
10
74.94375
20
-91.225
11
74.94375
21
-77.225
0
LINE
8
0
10
67.94375
20
-91.225
11
67.94375
21
-77.225
0
ARC
8
0
10
74.44375
20
-91.225
40
0.5
50
270
51
0
0
ARC
8
0
10
68.44375
20
-91.225
40
0.5
50
180
51
270
0
ARC
8
0
10
74.44375
20
-77.225
40
0.5
50
0
51
90
0
ARC
8
0
10
68.44375
20
-77.225
40
0.5
50
90
51
180
0
LINE
8
0
10
64.9375
20
-78.725
11
77.9375
21
-78.725
0
LINE
8
0
10
64.9375
20
-92.725
11
77.9375
21
-92.725
0
LINE
8
0
10
64.4375
20
-79.225
11
64.4375
21
-92.225
0
LINE
8
0
10
78.4375
20
-79.225
11
78.4375
21
-92.225
0
ARC
8
0
10
64.9375
20
-79.225
40
0.5
50
90
51
180
0
ARC
8
0
10
77.9375
20
-79.225
40
0.5
50
0
51
90
0
ARC
8
0
10
64.9375
20
-92.225
40
0.5
50
180
51
270
0
ARC
8
0
10
77.9375
20
-92.225
40
0.5
50
270
51
0
0
LINE
8
0
10
95.89375
20
-78.725
11
108.89375
21
-78.725
0
LINE
8
0
10
95.89375
20
-92.725
11
108.89375
21
-92.725
0
LINE
8
0
10
95.39375
20
-79.225
11
95.39375
21
-92.225
0
LINE
8
0
10
109.39375
20
-79.225
11
109.39375
21
-92.225
0
ARC
8
0
10
95.89375
20
-79.225
40
0.5
50
90
51
180
0
ARC
8
0
10
108.89375
20
-79.225
40
0.5
50
0
51
90
0
ARC
8
0
10
95.89375
20
-92.225
40
0.5
50
180
51
270
0
ARC
8
0
10
108.89375
20
-92.225
40
0.5
50
270
51
0
0
LINE
8
0
10
117.33175
20
-91.725
11
111.33175
21
-91.725
0
LINE
8
0
10
117.33175
20
-76.725
11
111.33175
21
-76.725
0
LINE
8
0
10
117.83175
20
-91.225
11
117.83175
21
-77.225
0
LINE
8
0
10
110.83175
20
-91.225
11
110.83175
21
-77.225
0
ARC
8
0
10
117.33175
20
-91.225
40
0.5
50
270
51
0
0
ARC
8
0
10
111.33175
20
-91.225
40
0.5
50
180
51
270
0
ARC
8
0
10
117.33175
20
-77.225
40
0.5
50
0
51
90
0
ARC
8
0
10
111.33175
20
-77.225
40
0.5
50
90
51
180
0
LINE
8
0
10
93.45575
20
-91.725
11
87.45575
21
-91.725
0
LINE
8
0
10
93.45575
20
-76.725
11
87.45575
21
-76.725
0
LINE
8
0
10
93.95575
20
-91.225
11
93.95575
21
-77.225
0
LINE
8
0
10
86.95575
20
-91.225
11
86.95575
21
-77.225
0
ARC
8
0
10
93.45575
20
-91.225
40
0.5
50
270
51
0
0
ARC
8
0
10
87.45575
20
-91.225
40
0.5
50
180
51
270
0
ARC
8
0
10
93.45575
20
-77.225
40
0.5
50
0
51
90
0
ARC
8
0
10
87.45575
20
-77.225
40
0.5
50
90
51
180
0
LINE
8
0
10
136.375
20
-78.725
11
149.375
21
-78.725
0
LINE
8
0
10
136.375
20
-92.725
11
149.375
21
-92.725
0
LINE
8
0
10
135.875
20
-79.225
11
135.875
21
-92.225
0
LINE
8
0
10
149.875
20
-79.225
11
149.875
21
-92.225
0
ARC
8
0
10
136.375
20
-79.225
40
0.5
50
90
51
180
0
ARC
8
0
10
149.375
20
-79.225
40
0.5
50
0
51
90
0
ARC
8
0
10
136.375
20
-92.225
40
0.5
50
180
51
270
0
ARC
8
0
10
149.375
20
-92.225
40
0.5
50
270
51
0
0
LINE
8
0
10
157.813
20
-91.725
11
151.813
21
-91.725
0
LINE
8
0
10
157.813
20
-76.725
11
151.813
21
-76.725
0
LINE
8
0
10
158.313
20
-91.225
11
158.313
21
-77.225
0
LINE
8
0
10
151.313
20
-91.225
11
151.313
21
-77.225
0
ARC
8
0
10
157.813
20
-91.225
40
0.5
50
270
51
0
0
ARC
8
0
10
151.813
20
-91.225
40
0.5
50
180
51
270
0
ARC
8
0
10
157.813
20
-77.225
40
0.5
50
0
51
90
0
ARC
8
0
10
151.813
20
-77.225
40
0.5
50
90
51
180
0
LINE
8
0
10
133.937
20
-91.725
11
127.937
21
-91.725
0
LINE
8
0
10
133.937
20
-76.725
11
127.937
21
-76.725
0
LINE
8
0
10
134.437
20
-91.225
11
134.437
21
-77.225
0
LINE
8
0
10
127.437
20
-91.225
11
127.437
21
-77.225
0
ARC
8
0
10
133.937
20
-91.225
40
0.5
50
270
51
0
0
ARC
8
0
10
127.937
20
-91.225
40
0.5
50
180
51
270
0
ARC
8
0
10
133.937
20
-77.225
40
0.5
50
0
51
90
0
ARC
8
0
10
127.937
20
-77.225
40
0.5
50
90
51
180
0
LINE
8
0
10
164.95
20
-78.725
11
177.95
21
-78.725
0
LINE
8
0
10
164.95
20
-92.725
11
177.95
21
-92.725
0
LINE
8
0
10
164.45
20
-79.225
11
164.45
21
-92.225
0
LINE
8
0
10
178.45
20
-79.225
11
178.45
21
-92.225
0
ARC
8
0
10
164.95
20
-79.225
40
0.5
50
90
51
180
0
ARC
8
0
10
177.95
20
-79.225
40
0.5
50
0
51
90
0
ARC
8
0
10
164.95
20
-92.225
40
0.5
50
180
51
270
0
ARC
8
0
10
177.95
20
-92.225
40
0.5
50
270
51
0
0
LINE
8
0
10
186.38125
20
-78.725
11
199.38125
21
-78.725
0
LINE
8
0
10
186.38125
20
-92.725
11
199.38125
21
-92.725
0
LINE
8
0
10
185.88125
20
-79.225
11
185.88125
21
-92.225
0
LINE
8
0
10
199.88125
20
-79.225
11
199.88125
21
-92.225
0
ARC
8
0
10
186.38125
20
-79.225
40
0.5
50
90
51
180
0
ARC
8
0
10
199.38125
20
-79.225
40
0.5
50
0
51
90
0
ARC
8
0
10
186.38125
20
-92.225
40
0.5
50
180
51
270
0
ARC
8
0
10
199.38125
20
-92.225
40
0.5
50
270
51
0
0
LINE
8
0
10
0
20
-95.25
11
204.7875
21
-95.25
0
LINE
8
0
10
0
20
0
11
204.7875
21
0
0
LINE
8
0
10
0
20
-95.25
11
0
21
0
0
LINE
8
0
10
204.7875
20
-95.25
11
204.7875
21
0
0
ENDSEC
0
EOF