G04 #@! TF.GenerationSoftware,KiCad,Pcbnew,(6.0.1-0)*
G04 #@! TF.CreationDate,2022-03-05T23:32:24-07:00*
G04 #@! TF.ProjectId,qazivan_m,71617a69-7661-46e5-9f6d-2e6b69636164,rev?*
G04 #@! TF.SameCoordinates,Original*
G04 #@! TF.FileFunction,Soldermask,Bot*
G04 #@! TF.FilePolarity,Negative*
%FSLAX46Y46*%
G04 Gerber Fmt 4.6, Leading zero omitted, Abs format (unit mm)*
G04 Created by KiCad (PCBNEW (6.0.1-0)) date 2022-03-05 23:32:24*
%MOMM*%
%LPD*%
G01*
G04 APERTURE LIST*
G04 Aperture macros list*
%AMRoundRect*
0 Rectangle with rounded corners*
0 $1 Rounding radius*
0 $2 $3 $4 $5 $6 $7 $8 $9 X,Y pos of 4 corners*
0 Add a 4 corners polygon primitive as box body*
4,1,4,$2,$3,$4,$5,$6,$7,$8,$9,$2,$3,0*
0 Add four circle primitives for the rounded corners*
1,1,$1+$1,$2,$3*
1,1,$1+$1,$4,$5*
1,1,$1+$1,$6,$7*
1,1,$1+$1,$8,$9*
0 Add four rect primitives between the rounded corners*
20,1,$1+$1,$2,$3,$4,$5,0*
20,1,$1+$1,$4,$5,$6,$7,0*
20,1,$1+$1,$6,$7,$8,$9,0*
20,1,$1+$1,$8,$9,$2,$3,0*%
%AMFreePoly0*
4,1,44,0.059950,0.925020,0.155621,0.905990,0.174005,0.898375,0.255111,0.844182,0.262839,0.837839,0.662836,0.437841,0.662141,0.437146,0.669182,0.430111,0.723375,0.349005,0.730990,0.330621,0.750020,0.234950,0.751000,0.225000,0.751000,-0.625000,0.750020,-0.634950,0.730990,-0.730621,0.723375,-0.749005,0.669182,-0.830111,0.655111,-0.844182,0.574005,-0.898375,0.555621,-0.905990,
0.459950,-0.925020,0.450000,-0.926000,-0.450000,-0.926000,-0.459950,-0.925020,-0.555621,-0.905990,-0.574005,-0.898375,-0.655111,-0.844182,-0.669182,-0.830111,-0.723375,-0.749005,-0.730990,-0.730621,-0.750020,-0.634950,-0.751000,-0.625000,-0.751000,0.625000,-0.750020,0.634950,-0.730990,0.730621,-0.723375,0.749005,-0.669182,0.830111,-0.655111,0.844182,-0.574005,0.898375,-0.555621,0.905990,
-0.459950,0.925020,-0.450000,0.926000,0.050000,0.926000,0.059950,0.925020,0.059950,0.925020,$1*%
G04 Aperture macros list end*
%ADD10C,3.102000*%
%ADD11C,4.089800*%
%ADD12C,1.852000*%
%ADD13RoundRect,0.051000X-1.275000X-1.250000X1.275000X-1.250000X1.275000X1.250000X-1.275000X1.250000X0*%
%ADD14RoundRect,0.051000X1.275000X1.250000X-1.275000X1.250000X-1.275000X-1.250000X1.275000X-1.250000X0*%
%ADD15C,3.150000*%
%ADD16FreePoly0,90.000000*%
%ADD17O,1.852000X1.502000*%
%ADD18C,0.889400*%
%ADD19RoundRect,0.051000X0.600000X-0.450000X0.600000X0.450000X-0.600000X0.450000X-0.600000X-0.450000X0*%
%ADD20RoundRect,0.051000X-0.600000X0.450000X-0.600000X-0.450000X0.600000X-0.450000X0.600000X0.450000X0*%
%ADD21RoundRect,0.051000X0.450000X0.600000X-0.450000X0.600000X-0.450000X-0.600000X0.450000X-0.600000X0*%
%ADD22RoundRect,0.294750X0.243750X0.456250X-0.243750X0.456250X-0.243750X-0.456250X0.243750X-0.456250X0*%
%ADD23C,1.802000*%
%ADD24RoundRect,0.051000X0.850000X0.850000X-0.850000X0.850000X-0.850000X-0.850000X0.850000X-0.850000X0*%
%ADD25RoundRect,0.051000X-0.919239X0.070711X0.070711X-0.919239X0.919239X-0.070711X-0.070711X0.919239X0*%
%ADD26RoundRect,0.294750X-0.494975X-0.150260X-0.150260X-0.494975X0.494975X0.150260X0.150260X0.494975X0*%
%ADD27RoundRect,0.294750X0.494975X0.150260X0.150260X0.494975X-0.494975X-0.150260X-0.150260X-0.494975X0*%
%ADD28RoundRect,0.294750X-0.456250X0.243750X-0.456250X-0.243750X0.456250X-0.243750X0.456250X0.243750X0*%
%ADD29RoundRect,0.051000X0.724784X-0.335876X-0.335876X0.724784X-0.724784X0.335876X0.335876X-0.724784X0*%
%ADD30RoundRect,0.051000X-0.335876X-0.724784X0.724784X0.335876X0.335876X0.724784X-0.724784X-0.335876X0*%
%ADD31RoundRect,0.294750X-0.150260X0.494975X-0.494975X0.150260X0.150260X-0.494975X0.494975X-0.150260X0*%
%ADD32RoundRect,0.294750X0.456250X-0.243750X0.456250X0.243750X-0.456250X0.243750X-0.456250X-0.243750X0*%
%ADD33C,0.752000*%
%ADD34RoundRect,0.051000X-0.300000X-1.225000X0.300000X-1.225000X0.300000X1.225000X-0.300000X1.225000X0*%
%ADD35RoundRect,0.051000X-0.150000X-1.225000X0.150000X-1.225000X0.150000X1.225000X-0.150000X1.225000X0*%
%ADD36RoundRect,0.051000X0.350000X-0.500000X0.350000X0.500000X-0.350000X0.500000X-0.350000X-0.500000X0*%
%ADD37RoundRect,0.051000X0.350000X-0.300000X0.350000X0.300000X-0.350000X0.300000X-0.350000X-0.300000X0*%
%ADD38RoundRect,0.301000X0.625000X-0.375000X0.625000X0.375000X-0.625000X0.375000X-0.625000X-0.375000X0*%
%ADD39RoundRect,0.301000X0.512652X0.159099X0.159099X0.512652X-0.512652X-0.159099X-0.159099X-0.512652X0*%
%ADD40RoundRect,0.301000X-0.450000X0.262500X-0.450000X-0.262500X0.450000X-0.262500X0.450000X0.262500X0*%
G04 APERTURE END LIST*
D10*
X47415000Y-56445000D03*
X41065000Y-58985000D03*
D11*
X44875000Y-61525000D03*
D12*
X39795000Y-61525000D03*
X49955000Y-61525000D03*
D13*
X37790000Y-58985000D03*
X50717000Y-56445000D03*
D11*
X63921640Y-61525000D03*
D10*
X60111640Y-58985000D03*
D12*
X58841640Y-61525000D03*
X69001640Y-61525000D03*
D10*
X66461640Y-56445000D03*
D13*
X56836640Y-58985000D03*
X69763640Y-56445000D03*
D10*
X79165000Y-58985000D03*
X85515000Y-56445000D03*
D11*
X82975000Y-61525000D03*
D12*
X77895000Y-61525000D03*
X88055000Y-61525000D03*
D13*
X75890000Y-58985000D03*
X88817000Y-56445000D03*
D10*
X104565000Y-56445000D03*
D12*
X96945000Y-61525000D03*
D10*
X98215000Y-58985000D03*
D12*
X107105000Y-61525000D03*
D11*
X102025000Y-61525000D03*
D13*
X94940000Y-58985000D03*
X107867000Y-56445000D03*
D11*
X121050000Y-61525000D03*
D10*
X123590000Y-56445000D03*
D12*
X126130000Y-61525000D03*
X115970000Y-61525000D03*
D10*
X117240000Y-58985000D03*
D13*
X113965000Y-58985000D03*
X126892000Y-56445000D03*
D12*
X145180000Y-61525000D03*
X135020000Y-61525000D03*
D10*
X136290000Y-58985000D03*
X142640000Y-56445000D03*
D11*
X140100000Y-61525000D03*
D13*
X133015000Y-58985000D03*
X145942000Y-56445000D03*
D11*
X159175000Y-61525000D03*
D10*
X161715000Y-56445000D03*
X155365000Y-58985000D03*
D12*
X164255000Y-61525000D03*
X154095000Y-61525000D03*
D13*
X152090000Y-58985000D03*
X165017000Y-56445000D03*
D10*
X180765000Y-56445000D03*
D11*
X178225000Y-61525000D03*
D10*
X174415000Y-58985000D03*
D12*
X173145000Y-61525000D03*
X183305000Y-61525000D03*
D13*
X171140000Y-58985000D03*
X184067000Y-56445000D03*
D10*
X193465000Y-58985000D03*
D11*
X197275000Y-61525000D03*
D12*
X202355000Y-61525000D03*
X192195000Y-61525000D03*
D10*
X199815000Y-56445000D03*
D13*
X190190000Y-58985000D03*
X203117000Y-56445000D03*
D10*
X219725607Y-58985000D03*
D12*
X228615607Y-61525000D03*
D10*
X226075607Y-56445000D03*
D12*
X218455607Y-61525000D03*
D11*
X223535607Y-61525000D03*
D13*
X216450607Y-58985000D03*
X229377607Y-56445000D03*
D12*
X73780000Y-80575000D03*
D10*
X64890000Y-78035000D03*
D11*
X68700000Y-80575000D03*
D12*
X63620000Y-80575000D03*
D10*
X71240000Y-75495000D03*
D13*
X61615000Y-78035000D03*
X74542000Y-75495000D03*
D10*
X90315000Y-75445000D03*
D12*
X92855000Y-80525000D03*
X82695000Y-80525000D03*
D10*
X83965000Y-77985000D03*
D11*
X87775000Y-80525000D03*
D13*
X80690000Y-77985000D03*
X93617000Y-75445000D03*
D11*
X106800000Y-80575000D03*
D12*
X101720000Y-80575000D03*
X111880000Y-80575000D03*
D10*
X109340000Y-75495000D03*
X102990000Y-78035000D03*
D13*
X99715000Y-78035000D03*
X112642000Y-75495000D03*
D12*
X120770000Y-80525000D03*
D10*
X128390000Y-75445000D03*
D11*
X125850000Y-80525000D03*
D12*
X130930000Y-80525000D03*
D10*
X122040000Y-77985000D03*
D13*
X118765000Y-77985000D03*
X131692000Y-75445000D03*
D11*
X182975000Y-80575000D03*
D10*
X179165000Y-78035000D03*
D12*
X188055000Y-80575000D03*
D10*
X185515000Y-75495000D03*
D12*
X177895000Y-80575000D03*
D13*
X175890000Y-78035000D03*
X188817000Y-75495000D03*
D10*
X204590000Y-75520000D03*
D12*
X207130000Y-80600000D03*
D11*
X202050000Y-80600000D03*
D10*
X198240000Y-78060000D03*
D12*
X196970000Y-80600000D03*
D13*
X194965000Y-78060000D03*
X207892000Y-75520000D03*
D12*
X220780000Y-80575000D03*
D10*
X222050000Y-78035000D03*
X228400000Y-75495000D03*
D11*
X225860000Y-80575000D03*
D12*
X230940000Y-80575000D03*
D13*
X218775000Y-78035000D03*
X231702000Y-75495000D03*
D12*
X57130000Y-99600000D03*
D10*
X49510000Y-104680000D03*
X55860000Y-102140000D03*
D11*
X52050000Y-99600000D03*
D12*
X46970000Y-99600000D03*
D14*
X59135000Y-102140000D03*
X46208000Y-104680000D03*
D12*
X73145000Y-99625000D03*
D11*
X78225000Y-99625000D03*
D10*
X80765000Y-94545000D03*
X74415000Y-97085000D03*
D12*
X83305000Y-99625000D03*
D13*
X71140000Y-97085000D03*
X84067000Y-94545000D03*
D11*
X97300000Y-99600000D03*
D10*
X99840000Y-94520000D03*
X93490000Y-97060000D03*
D12*
X92220000Y-99600000D03*
X102380000Y-99600000D03*
D13*
X90215000Y-97060000D03*
X103142000Y-94520000D03*
D12*
X121405000Y-99593400D03*
D11*
X116325000Y-99593400D03*
D10*
X112515000Y-97053400D03*
D12*
X111245000Y-99593400D03*
D10*
X118865000Y-94513400D03*
D13*
X109240000Y-97053400D03*
X122167000Y-94513400D03*
D11*
X135375000Y-99600000D03*
D12*
X130295000Y-99600000D03*
D10*
X131565000Y-97060000D03*
X137915000Y-94520000D03*
D12*
X140455000Y-99600000D03*
D13*
X128290000Y-97060000D03*
X141217000Y-94520000D03*
D11*
X154450000Y-99600000D03*
D10*
X156990000Y-94520000D03*
D12*
X159530000Y-99600000D03*
D10*
X150640000Y-97060000D03*
D12*
X149370000Y-99600000D03*
D13*
X147365000Y-97060000D03*
X160292000Y-94520000D03*
D12*
X178555000Y-99600000D03*
D10*
X176015000Y-94520000D03*
X169665000Y-97060000D03*
D11*
X173475000Y-99600000D03*
D12*
X168395000Y-99600000D03*
D13*
X166390000Y-97060000D03*
X179317000Y-94520000D03*
D12*
X187470000Y-99625000D03*
X197630000Y-99625000D03*
D11*
X192550000Y-99625000D03*
D10*
X195090000Y-94545000D03*
X188740000Y-97085000D03*
D13*
X185465000Y-97085000D03*
X198392000Y-94545000D03*
D12*
X235698796Y-99600000D03*
D10*
X233158796Y-94520000D03*
D11*
X230618796Y-99600000D03*
D12*
X225538796Y-99600000D03*
D10*
X226808796Y-97060000D03*
D13*
X223533796Y-97060000D03*
X236460796Y-94520000D03*
D10*
X43462474Y-116110000D03*
D12*
X52352474Y-118650000D03*
D10*
X49812474Y-113570000D03*
D12*
X42192474Y-118650000D03*
D11*
X47272474Y-118650000D03*
D13*
X40187474Y-116110000D03*
X53114474Y-113570000D03*
D12*
X63590000Y-118650000D03*
D11*
X68670000Y-118650000D03*
D12*
X73750000Y-118650000D03*
D10*
X64860000Y-116110000D03*
X71210000Y-113570000D03*
D13*
X61585000Y-116110000D03*
X74512000Y-113570000D03*
D10*
X230794332Y-113570000D03*
X224444332Y-116110000D03*
D11*
X228254332Y-118650000D03*
D12*
X233334332Y-118650000D03*
X223174332Y-118650000D03*
D13*
X221169332Y-116110000D03*
X234096332Y-113570000D03*
D12*
X149980000Y-80550000D03*
D11*
X144900000Y-80550000D03*
D10*
X147440000Y-75470000D03*
X141090000Y-78010000D03*
D12*
X139820000Y-80550000D03*
D13*
X137815000Y-78010000D03*
X150742000Y-75470000D03*
D10*
X43465000Y-78035000D03*
D11*
X47275000Y-80575000D03*
D12*
X52355000Y-80575000D03*
D10*
X49815000Y-75495000D03*
D12*
X42195000Y-80575000D03*
D13*
X40190000Y-78035000D03*
X53117000Y-75495000D03*
D11*
X163925000Y-80575000D03*
D10*
X166465000Y-75495000D03*
D12*
X169005000Y-80575000D03*
D10*
X160115000Y-78035000D03*
D12*
X158845000Y-80575000D03*
D13*
X156840000Y-78035000D03*
X169767000Y-75495000D03*
D12*
X161828632Y-118649450D03*
D15*
X206748532Y-125634450D03*
D10*
X160558632Y-121189450D03*
D11*
X206748532Y-110394450D03*
D10*
X154208632Y-123729450D03*
D11*
X156748632Y-118649450D03*
D12*
X151668632Y-118649450D03*
D15*
X106748732Y-125634450D03*
D11*
X106748732Y-110394450D03*
D14*
X163833632Y-121189450D03*
X150906632Y-123729450D03*
D10*
X90240000Y-113570000D03*
D12*
X92780000Y-118650000D03*
D10*
X83890000Y-116110000D03*
D11*
X87700000Y-118650000D03*
D12*
X82620000Y-118650000D03*
D13*
X80615000Y-116110000D03*
X93542000Y-113570000D03*
D10*
X121181906Y-113645000D03*
D12*
X113561906Y-118725000D03*
D15*
X106703906Y-125710000D03*
X130579906Y-125710000D03*
D11*
X106703906Y-110470000D03*
D10*
X114831906Y-116185000D03*
D11*
X118641906Y-118725000D03*
X130579906Y-110470000D03*
D12*
X123721906Y-118725000D03*
D13*
X111556906Y-116185000D03*
X124483906Y-113645000D03*
D10*
X209340000Y-113570000D03*
D12*
X201720000Y-118650000D03*
D11*
X206800000Y-118650000D03*
D12*
X211880000Y-118650000D03*
D10*
X202990000Y-116110000D03*
D13*
X199715000Y-116110000D03*
X212642000Y-113570000D03*
D11*
X187654290Y-118675000D03*
D10*
X183844290Y-116135000D03*
X190194290Y-113595000D03*
D12*
X182574290Y-118675000D03*
X192734290Y-118675000D03*
D13*
X180569290Y-116135000D03*
X193496290Y-113595000D03*
D12*
X154016144Y-118700000D03*
D15*
X171034144Y-125685000D03*
D10*
X155286144Y-116160000D03*
D12*
X164176144Y-118700000D03*
D15*
X147158144Y-125685000D03*
D11*
X147158144Y-110445000D03*
X171034144Y-110445000D03*
X159096144Y-118700000D03*
D10*
X161636144Y-113620000D03*
D13*
X152011144Y-116160000D03*
X164938144Y-113620000D03*
D16*
X42125000Y-93470000D03*
D17*
X40125000Y-91970000D03*
X42125000Y-90470000D03*
X40125000Y-88970000D03*
D12*
X144610000Y-42460000D03*
X154770000Y-42460000D03*
D10*
X145880000Y-39920000D03*
D11*
X149690000Y-42460000D03*
D10*
X152230000Y-37380000D03*
D13*
X142605000Y-39920000D03*
X155532000Y-37380000D03*
D18*
X109090000Y-51986000D03*
X112900000Y-51986000D03*
X114170000Y-51986000D03*
X110360000Y-51986000D03*
D12*
X49350000Y-42460000D03*
D10*
X56970000Y-37380000D03*
D11*
X54430000Y-42460000D03*
D10*
X50620000Y-39920000D03*
D12*
X59510000Y-42460000D03*
D13*
X47345000Y-39920000D03*
X60272000Y-37380000D03*
D10*
X76020000Y-37380000D03*
X69670000Y-39920000D03*
D12*
X68400000Y-42460000D03*
X78560000Y-42460000D03*
D11*
X73480000Y-42460000D03*
D13*
X66395000Y-39920000D03*
X79322000Y-37380000D03*
D18*
X148490000Y-51990000D03*
X151030000Y-51990000D03*
X147220000Y-51990000D03*
X152300000Y-51990000D03*
X71050000Y-51986000D03*
X72320000Y-51986000D03*
X76130000Y-51986000D03*
X74860000Y-51986000D03*
D11*
X130640000Y-42460000D03*
D12*
X125560000Y-42460000D03*
D10*
X133180000Y-37380000D03*
X126830000Y-39920000D03*
D12*
X135720000Y-42460000D03*
D13*
X123555000Y-39920000D03*
X136482000Y-37380000D03*
D18*
X90070000Y-51986000D03*
X91340000Y-51986000D03*
X95150000Y-51986000D03*
X93880000Y-51986000D03*
D10*
X114130000Y-37380000D03*
D12*
X106510000Y-42460000D03*
X116670000Y-42460000D03*
D10*
X107780000Y-39920000D03*
D11*
X111590000Y-42460000D03*
D13*
X104505000Y-39920000D03*
X117432000Y-37380000D03*
D12*
X216660000Y-99600000D03*
X206500000Y-99600000D03*
D10*
X207770000Y-97060000D03*
D11*
X211580000Y-99600000D03*
D10*
X214120000Y-94520000D03*
D13*
X204495000Y-97060000D03*
X217422000Y-94520000D03*
D18*
X51970000Y-51986000D03*
X57050000Y-51986000D03*
X55780000Y-51986000D03*
X53240000Y-51986000D03*
X128210000Y-51986000D03*
X129480000Y-51986000D03*
X133290000Y-51986000D03*
X132020000Y-51986000D03*
D10*
X88720000Y-39920000D03*
D12*
X87450000Y-42460000D03*
D11*
X92530000Y-42460000D03*
D12*
X97610000Y-42460000D03*
D10*
X95070000Y-37380000D03*
D13*
X85445000Y-39920000D03*
X98372000Y-37380000D03*
D19*
X52975000Y-67875000D03*
X52975000Y-64575000D03*
X72069960Y-67898280D03*
X72069960Y-64598280D03*
X91094560Y-67898280D03*
X91094560Y-64598280D03*
X110149640Y-67898280D03*
X110149640Y-64598280D03*
X129204720Y-67898280D03*
X129204720Y-64598280D03*
X167294560Y-67908440D03*
X167294560Y-64608440D03*
X186350000Y-67875000D03*
X186350000Y-64575000D03*
X199975000Y-67825000D03*
X199975000Y-64525000D03*
X231680000Y-67820000D03*
X231680000Y-64520000D03*
D20*
X194078521Y-69350000D03*
X194078521Y-72650000D03*
X235210000Y-72190000D03*
X235210000Y-75490000D03*
D19*
X86273640Y-105993200D03*
X86273640Y-102693200D03*
X105404920Y-105993200D03*
X105404920Y-102693200D03*
X124409200Y-105947480D03*
X124409200Y-102647480D03*
X143510000Y-105993200D03*
X143510000Y-102693200D03*
X162544760Y-105967800D03*
X162544760Y-102667800D03*
X200619360Y-106028760D03*
X200619360Y-102728760D03*
X233529879Y-105920000D03*
X233529879Y-102620000D03*
D21*
X59620000Y-112390000D03*
X56320000Y-112390000D03*
D20*
X77600000Y-107350000D03*
X77600000Y-110650000D03*
X140075819Y-107350000D03*
X140075819Y-110650000D03*
X237020000Y-107350000D03*
X237020000Y-110650000D03*
D22*
X41137500Y-97100000D03*
X39262500Y-97100000D03*
D23*
X42404576Y-101785802D03*
X39864576Y-101785802D03*
X42404576Y-104325802D03*
X39864576Y-104325802D03*
X42404576Y-106865802D03*
D24*
X39864576Y-106865802D03*
D25*
X48133223Y-94511142D03*
X49688858Y-96066777D03*
X48486777Y-97268858D03*
X46931142Y-95713223D03*
D19*
X181575000Y-105975000D03*
X181575000Y-102675000D03*
D26*
X65077087Y-95967087D03*
X66402913Y-97292913D03*
D27*
X70492913Y-89342913D03*
X69167087Y-88017087D03*
D28*
X60290000Y-72120747D03*
X60290000Y-73995747D03*
D27*
X45982913Y-97872913D03*
X44657087Y-96547087D03*
D20*
X97210000Y-107350000D03*
X97210000Y-110650000D03*
X216520000Y-107350000D03*
X216520000Y-110650000D03*
X101487115Y-107350000D03*
X101487115Y-110650000D03*
D29*
X64478461Y-89743245D03*
X63912775Y-90308930D03*
X63347090Y-90874615D03*
X62781405Y-91440301D03*
X62215719Y-92005986D03*
X61650034Y-92571672D03*
X61084348Y-93137357D03*
X60518663Y-93703043D03*
X59952977Y-94268728D03*
X59387292Y-94834413D03*
X58821607Y-95400099D03*
D30*
X56417443Y-95400099D03*
X55851758Y-94834413D03*
X55286073Y-94268728D03*
X54720387Y-93703043D03*
X54154702Y-93137357D03*
X53589016Y-92571672D03*
X53023331Y-92005986D03*
X52457645Y-91440301D03*
X51891960Y-90874615D03*
X51326275Y-90308930D03*
X50760589Y-89743245D03*
D29*
X50760589Y-87339081D03*
X51326275Y-86773396D03*
X51891960Y-86207711D03*
X52457645Y-85642025D03*
X53023331Y-85076340D03*
X53589016Y-84510654D03*
X54154702Y-83944969D03*
X54720387Y-83379283D03*
X55286073Y-82813598D03*
X55851758Y-82247913D03*
X56417443Y-81682227D03*
D30*
X58821607Y-81682227D03*
X59387292Y-82247913D03*
X59952977Y-82813598D03*
X60518663Y-83379283D03*
X61084348Y-83944969D03*
X61650034Y-84510654D03*
X62215719Y-85076340D03*
X62781405Y-85642025D03*
X63347090Y-86207711D03*
X63912775Y-86773396D03*
X64478461Y-87339081D03*
D27*
X58802913Y-77282913D03*
X57477087Y-75957087D03*
D31*
X46362913Y-86477087D03*
X45037087Y-87802913D03*
D20*
X178039791Y-107350000D03*
X178039791Y-110650000D03*
D19*
X148260000Y-67870000D03*
X148260000Y-64570000D03*
D32*
X207703412Y-65046820D03*
X207703412Y-63171820D03*
X207479892Y-69456260D03*
X207479892Y-67581260D03*
X212676732Y-69466420D03*
X212676732Y-67591420D03*
X211973652Y-65046820D03*
X211973652Y-63171820D03*
D33*
X206896729Y-57425000D03*
X212676729Y-57425000D03*
D34*
X206561729Y-59370000D03*
X207336729Y-59370000D03*
D35*
X208036729Y-59370000D03*
X208536729Y-59370000D03*
X209036729Y-59370000D03*
X209536729Y-59370000D03*
X210036729Y-59370000D03*
X210536729Y-59370000D03*
X211036729Y-59370000D03*
X211536729Y-59370000D03*
D34*
X212236729Y-59370000D03*
X213011729Y-59370000D03*
D36*
X209126572Y-69278920D03*
D37*
X209126572Y-67578920D03*
X211126572Y-67578920D03*
X211126572Y-69478920D03*
D20*
X55700000Y-69350000D03*
X55700000Y-72650000D03*
X77519327Y-69350000D03*
X77519327Y-72650000D03*
X96593177Y-69350000D03*
X96593177Y-72650000D03*
X115422227Y-69350000D03*
X115422227Y-72650000D03*
X134595938Y-69350000D03*
X134595938Y-72650000D03*
X153539344Y-69350000D03*
X153539344Y-72650000D03*
X172656675Y-69350000D03*
X172656675Y-72650000D03*
X191643562Y-69350000D03*
X191643562Y-72650000D03*
D38*
X205298652Y-69091000D03*
X205298652Y-66291000D03*
D21*
X59640000Y-109880000D03*
X56340000Y-109880000D03*
D31*
X46262913Y-92917087D03*
X44937087Y-94242913D03*
D39*
X54551751Y-97581751D03*
X53208249Y-96238249D03*
D19*
X98480000Y-48770000D03*
X98480000Y-45470000D03*
X219710000Y-105920000D03*
X219710000Y-102620000D03*
X60330000Y-48770000D03*
X60330000Y-45470000D03*
D40*
X160490000Y-42260234D03*
X160490000Y-44085234D03*
D19*
X117550000Y-48770000D03*
X117550000Y-45470000D03*
X79410000Y-48770000D03*
X79410000Y-45470000D03*
X136550000Y-48770000D03*
X136550000Y-45470000D03*
D40*
X160490000Y-37741093D03*
X160490000Y-39566093D03*
X160520000Y-46841999D03*
X160520000Y-48666999D03*
D19*
X141498473Y-48770000D03*
X141498473Y-45470000D03*
G36*
X154786215Y-119210052D02*
G01*
X154786375Y-119210404D01*
X154858398Y-119420765D01*
X154858013Y-119422728D01*
X154856121Y-119423376D01*
X154854873Y-119422568D01*
X154815140Y-119366376D01*
X154750929Y-119340421D01*
X154682682Y-119353340D01*
X154663035Y-119365876D01*
X154647628Y-119377913D01*
X154645648Y-119378191D01*
X154644416Y-119376615D01*
X154644911Y-119374999D01*
X154763666Y-119243108D01*
X154782751Y-119210052D01*
X154784483Y-119209052D01*
X154786215Y-119210052D01*
G37*
G36*
X161078387Y-119188020D02*
G01*
X161078758Y-119188485D01*
X161081110Y-119192558D01*
X161204914Y-119330057D01*
X161205330Y-119332013D01*
X161203844Y-119333351D01*
X161202613Y-119333222D01*
X161150336Y-119309906D01*
X161081874Y-119320370D01*
X161029790Y-119366318D01*
X161020072Y-119385844D01*
X161018405Y-119386949D01*
X161016614Y-119386058D01*
X161016410Y-119384246D01*
X161051847Y-119290463D01*
X161075076Y-119189039D01*
X161076438Y-119187573D01*
X161078387Y-119188020D01*
G37*
G36*
X154828971Y-117961977D02*
G01*
X154829196Y-117963789D01*
X154786852Y-118079499D01*
X154769349Y-118159776D01*
X154768003Y-118161255D01*
X154766049Y-118160829D01*
X154765663Y-118160350D01*
X154763666Y-118156892D01*
X154639813Y-118019339D01*
X154639397Y-118017383D01*
X154640883Y-118016045D01*
X154642088Y-118016163D01*
X154696502Y-118039526D01*
X154764813Y-118028106D01*
X154816251Y-117981435D01*
X154825517Y-117962233D01*
X154827170Y-117961107D01*
X154828971Y-117961977D01*
G37*
G36*
X160989861Y-117930131D02*
G01*
X161030179Y-117985904D01*
X161094658Y-118011185D01*
X161162766Y-117997553D01*
X161182615Y-117984544D01*
X161192811Y-117976346D01*
X161194787Y-117976040D01*
X161196040Y-117977599D01*
X161195550Y-117979243D01*
X161081110Y-118106342D01*
X161062820Y-118138020D01*
X161061088Y-118139020D01*
X161059356Y-118138020D01*
X161059203Y-118137688D01*
X160986355Y-117931971D01*
X160986719Y-117930004D01*
X160988604Y-117929336D01*
X160989861Y-117930131D01*
G37*
G36*
X56627637Y-94503189D02*
G01*
X56628280Y-94504303D01*
X56631516Y-94520571D01*
X56633571Y-94520162D01*
X56635465Y-94520805D01*
X56635953Y-94521945D01*
X56637984Y-94544552D01*
X56680489Y-94599231D01*
X56730247Y-94616765D01*
X56731548Y-94618284D01*
X56731544Y-94619041D01*
X56731285Y-94620341D01*
X56747553Y-94623577D01*
X56749057Y-94624896D01*
X56748667Y-94626858D01*
X56747553Y-94627501D01*
X56734581Y-94630081D01*
X56718530Y-94640806D01*
X55658150Y-95701186D01*
X55647425Y-95717237D01*
X55644845Y-95730209D01*
X55643526Y-95731713D01*
X55641564Y-95731323D01*
X55640921Y-95730209D01*
X55637685Y-95713941D01*
X55635630Y-95714350D01*
X55633736Y-95713707D01*
X55633248Y-95712567D01*
X55631217Y-95689960D01*
X55588712Y-95635281D01*
X55538954Y-95617747D01*
X55537653Y-95616228D01*
X55537657Y-95615471D01*
X55537916Y-95614171D01*
X55521648Y-95610935D01*
X55520144Y-95609616D01*
X55520534Y-95607654D01*
X55521648Y-95607011D01*
X55534620Y-95604431D01*
X55550671Y-95593706D01*
X56611051Y-94533326D01*
X56621776Y-94517275D01*
X56624356Y-94504303D01*
X56625675Y-94502799D01*
X56627637Y-94503189D01*
G37*
G36*
X58614051Y-94503189D02*
G01*
X58614694Y-94504303D01*
X58617274Y-94517275D01*
X58627999Y-94533326D01*
X59688379Y-95593706D01*
X59704430Y-95604431D01*
X59717402Y-95607011D01*
X59718906Y-95608330D01*
X59718516Y-95610292D01*
X59717402Y-95610935D01*
X59701134Y-95614171D01*
X59701543Y-95616223D01*
X59700900Y-95618117D01*
X59699760Y-95618605D01*
X59677177Y-95620630D01*
X59622490Y-95663125D01*
X59604937Y-95712902D01*
X59603418Y-95714203D01*
X59602661Y-95714199D01*
X59601365Y-95713941D01*
X59598129Y-95730209D01*
X59596810Y-95731713D01*
X59594848Y-95731323D01*
X59594205Y-95730209D01*
X59591625Y-95717237D01*
X59580900Y-95701186D01*
X58520520Y-94640806D01*
X58504469Y-94630081D01*
X58491497Y-94627501D01*
X58489993Y-94626182D01*
X58490383Y-94624220D01*
X58491497Y-94623577D01*
X58507765Y-94620341D01*
X58507356Y-94618289D01*
X58507999Y-94616395D01*
X58509139Y-94615907D01*
X58531722Y-94613882D01*
X58586409Y-94571387D01*
X58603962Y-94521610D01*
X58605481Y-94520309D01*
X58606238Y-94520313D01*
X58607534Y-94520571D01*
X58610770Y-94504303D01*
X58612089Y-94502799D01*
X58614051Y-94503189D01*
G37*
G36*
X56061952Y-93937504D02*
G01*
X56062595Y-93938618D01*
X56065831Y-93954886D01*
X56067883Y-93954477D01*
X56069777Y-93955120D01*
X56070265Y-93956260D01*
X56072290Y-93978843D01*
X56114785Y-94033530D01*
X56164561Y-94051083D01*
X56165862Y-94052602D01*
X56165858Y-94053359D01*
X56165600Y-94054655D01*
X56181868Y-94057891D01*
X56183372Y-94059210D01*
X56182982Y-94061172D01*
X56181868Y-94061815D01*
X56168896Y-94064395D01*
X56152845Y-94075120D01*
X55092465Y-95135500D01*
X55081740Y-95151551D01*
X55079160Y-95164523D01*
X55077841Y-95166027D01*
X55075879Y-95165637D01*
X55075236Y-95164523D01*
X55072000Y-95148255D01*
X55069948Y-95148664D01*
X55068054Y-95148021D01*
X55067566Y-95146881D01*
X55065541Y-95124298D01*
X55023046Y-95069611D01*
X54973270Y-95052058D01*
X54971969Y-95050539D01*
X54971973Y-95049782D01*
X54972231Y-95048486D01*
X54955963Y-95045250D01*
X54954459Y-95043931D01*
X54954849Y-95041969D01*
X54955963Y-95041326D01*
X54968935Y-95038746D01*
X54984986Y-95028021D01*
X56045366Y-93967641D01*
X56056091Y-93951590D01*
X56058671Y-93938618D01*
X56059990Y-93937114D01*
X56061952Y-93937504D01*
G37*
G36*
X59179736Y-93937504D02*
G01*
X59180379Y-93938618D01*
X59182959Y-93951590D01*
X59193684Y-93967641D01*
X60254064Y-95028021D01*
X60270115Y-95038746D01*
X60283087Y-95041326D01*
X60284591Y-95042645D01*
X60284201Y-95044607D01*
X60283087Y-95045250D01*
X60266819Y-95048486D01*
X60267228Y-95050538D01*
X60266585Y-95052432D01*
X60265445Y-95052920D01*
X60242862Y-95054945D01*
X60188175Y-95097440D01*
X60170622Y-95147216D01*
X60169103Y-95148517D01*
X60168346Y-95148513D01*
X60167050Y-95148255D01*
X60163814Y-95164523D01*
X60162495Y-95166027D01*
X60160533Y-95165637D01*
X60159890Y-95164523D01*
X60157310Y-95151551D01*
X60146585Y-95135500D01*
X59086205Y-94075120D01*
X59070154Y-94064395D01*
X59057182Y-94061815D01*
X59055678Y-94060496D01*
X59056068Y-94058534D01*
X59057182Y-94057891D01*
X59073450Y-94054655D01*
X59073041Y-94052603D01*
X59073684Y-94050709D01*
X59074824Y-94050221D01*
X59097407Y-94048196D01*
X59152094Y-94005701D01*
X59169647Y-93955925D01*
X59171166Y-93954624D01*
X59171923Y-93954628D01*
X59173219Y-93954886D01*
X59176455Y-93938618D01*
X59177774Y-93937114D01*
X59179736Y-93937504D01*
G37*
G36*
X59745422Y-93371819D02*
G01*
X59746065Y-93372933D01*
X59748645Y-93385905D01*
X59759370Y-93401956D01*
X60819750Y-94462336D01*
X60835801Y-94473061D01*
X60848773Y-94475641D01*
X60850277Y-94476960D01*
X60849887Y-94478922D01*
X60848773Y-94479565D01*
X60832505Y-94482801D01*
X60832914Y-94484856D01*
X60832271Y-94486750D01*
X60831131Y-94487238D01*
X60808524Y-94489269D01*
X60753845Y-94531774D01*
X60736311Y-94581532D01*
X60734792Y-94582833D01*
X60734035Y-94582829D01*
X60732735Y-94582570D01*
X60729499Y-94598838D01*
X60728180Y-94600342D01*
X60726218Y-94599952D01*
X60725575Y-94598838D01*
X60722995Y-94585866D01*
X60712270Y-94569815D01*
X59651890Y-93509435D01*
X59635839Y-93498710D01*
X59622867Y-93496130D01*
X59621363Y-93494811D01*
X59621753Y-93492849D01*
X59622867Y-93492206D01*
X59639135Y-93488970D01*
X59638726Y-93486915D01*
X59639369Y-93485021D01*
X59640509Y-93484533D01*
X59663116Y-93482502D01*
X59717795Y-93439997D01*
X59735329Y-93390239D01*
X59736848Y-93388938D01*
X59737605Y-93388942D01*
X59738905Y-93389201D01*
X59742141Y-93372933D01*
X59743460Y-93371429D01*
X59745422Y-93371819D01*
G37*
G36*
X55496266Y-93371819D02*
G01*
X55496909Y-93372933D01*
X55500145Y-93389201D01*
X55502197Y-93388792D01*
X55504091Y-93389435D01*
X55504579Y-93390575D01*
X55506604Y-93413158D01*
X55549099Y-93467845D01*
X55598876Y-93485398D01*
X55600177Y-93486917D01*
X55600173Y-93487674D01*
X55599915Y-93488970D01*
X55616183Y-93492206D01*
X55617687Y-93493525D01*
X55617297Y-93495487D01*
X55616183Y-93496130D01*
X55603211Y-93498710D01*
X55587160Y-93509435D01*
X54526780Y-94569815D01*
X54516055Y-94585866D01*
X54513475Y-94598838D01*
X54512156Y-94600342D01*
X54510194Y-94599952D01*
X54509551Y-94598838D01*
X54506315Y-94582570D01*
X54504263Y-94582979D01*
X54502369Y-94582336D01*
X54501881Y-94581196D01*
X54499856Y-94558613D01*
X54457361Y-94503926D01*
X54407584Y-94486373D01*
X54406283Y-94484854D01*
X54406287Y-94484097D01*
X54406545Y-94482801D01*
X54390277Y-94479565D01*
X54388773Y-94478246D01*
X54389163Y-94476284D01*
X54390277Y-94475641D01*
X54403249Y-94473061D01*
X54419300Y-94462336D01*
X55479680Y-93401956D01*
X55490405Y-93385905D01*
X55492985Y-93372933D01*
X55494304Y-93371429D01*
X55496266Y-93371819D01*
G37*
G36*
X54930581Y-92806133D02*
G01*
X54931224Y-92807247D01*
X54934460Y-92823515D01*
X54936515Y-92823106D01*
X54938409Y-92823749D01*
X54938897Y-92824889D01*
X54940928Y-92847496D01*
X54983433Y-92902175D01*
X55033191Y-92919709D01*
X55034492Y-92921228D01*
X55034488Y-92921985D01*
X55034229Y-92923285D01*
X55050497Y-92926521D01*
X55052001Y-92927840D01*
X55051611Y-92929802D01*
X55050497Y-92930445D01*
X55037525Y-92933025D01*
X55021474Y-92943750D01*
X53961094Y-94004130D01*
X53950369Y-94020181D01*
X53947789Y-94033153D01*
X53946470Y-94034657D01*
X53944508Y-94034267D01*
X53943865Y-94033153D01*
X53940629Y-94016885D01*
X53938574Y-94017294D01*
X53936680Y-94016651D01*
X53936192Y-94015511D01*
X53934161Y-93992904D01*
X53891656Y-93938225D01*
X53841898Y-93920691D01*
X53840597Y-93919172D01*
X53840601Y-93918415D01*
X53840860Y-93917115D01*
X53824592Y-93913879D01*
X53823088Y-93912560D01*
X53823478Y-93910598D01*
X53824592Y-93909955D01*
X53837564Y-93907375D01*
X53853615Y-93896650D01*
X54913995Y-92836270D01*
X54924720Y-92820219D01*
X54927300Y-92807247D01*
X54928619Y-92805743D01*
X54930581Y-92806133D01*
G37*
G36*
X60311107Y-92806133D02*
G01*
X60311750Y-92807247D01*
X60314330Y-92820219D01*
X60325055Y-92836270D01*
X61385435Y-93896650D01*
X61401486Y-93907375D01*
X61414458Y-93909955D01*
X61415962Y-93911274D01*
X61415572Y-93913236D01*
X61414458Y-93913879D01*
X61398190Y-93917115D01*
X61398599Y-93919167D01*
X61397956Y-93921061D01*
X61396816Y-93921549D01*
X61374233Y-93923574D01*
X61319546Y-93966069D01*
X61301993Y-94015846D01*
X61300474Y-94017147D01*
X61299717Y-94017143D01*
X61298421Y-94016885D01*
X61295185Y-94033153D01*
X61293866Y-94034657D01*
X61291904Y-94034267D01*
X61291261Y-94033153D01*
X61288681Y-94020181D01*
X61277956Y-94004130D01*
X60217576Y-92943750D01*
X60201525Y-92933025D01*
X60188553Y-92930445D01*
X60187049Y-92929126D01*
X60187439Y-92927164D01*
X60188553Y-92926521D01*
X60204821Y-92923285D01*
X60204412Y-92921233D01*
X60205055Y-92919339D01*
X60206195Y-92918851D01*
X60228778Y-92916826D01*
X60283465Y-92874331D01*
X60301018Y-92824554D01*
X60302537Y-92823253D01*
X60303294Y-92823257D01*
X60304590Y-92823515D01*
X60307826Y-92807247D01*
X60309145Y-92805743D01*
X60311107Y-92806133D01*
G37*
G36*
X54364895Y-92240448D02*
G01*
X54365538Y-92241562D01*
X54368774Y-92257830D01*
X54370826Y-92257421D01*
X54372720Y-92258064D01*
X54373208Y-92259204D01*
X54375233Y-92281787D01*
X54417728Y-92336474D01*
X54467505Y-92354027D01*
X54468806Y-92355546D01*
X54468802Y-92356303D01*
X54468544Y-92357599D01*
X54484812Y-92360835D01*
X54486316Y-92362154D01*
X54485926Y-92364116D01*
X54484812Y-92364759D01*
X54471840Y-92367339D01*
X54455789Y-92378064D01*
X53395409Y-93438444D01*
X53384684Y-93454495D01*
X53382104Y-93467467D01*
X53380785Y-93468971D01*
X53378823Y-93468581D01*
X53378180Y-93467467D01*
X53374944Y-93451199D01*
X53372892Y-93451608D01*
X53370998Y-93450965D01*
X53370510Y-93449825D01*
X53368485Y-93427242D01*
X53325990Y-93372555D01*
X53276213Y-93355002D01*
X53274912Y-93353483D01*
X53274916Y-93352726D01*
X53275174Y-93351430D01*
X53258906Y-93348194D01*
X53257402Y-93346875D01*
X53257792Y-93344913D01*
X53258906Y-93344270D01*
X53271878Y-93341690D01*
X53287929Y-93330965D01*
X54348309Y-92270585D01*
X54359034Y-92254534D01*
X54361614Y-92241562D01*
X54362933Y-92240058D01*
X54364895Y-92240448D01*
G37*
G36*
X60876793Y-92240448D02*
G01*
X60877436Y-92241562D01*
X60880016Y-92254534D01*
X60890741Y-92270585D01*
X61951121Y-93330965D01*
X61967172Y-93341690D01*
X61980144Y-93344270D01*
X61981648Y-93345589D01*
X61981258Y-93347551D01*
X61980144Y-93348194D01*
X61963876Y-93351430D01*
X61964285Y-93353485D01*
X61963642Y-93355379D01*
X61962502Y-93355867D01*
X61939895Y-93357898D01*
X61885216Y-93400403D01*
X61867682Y-93450161D01*
X61866163Y-93451462D01*
X61865406Y-93451458D01*
X61864106Y-93451199D01*
X61860870Y-93467467D01*
X61859551Y-93468971D01*
X61857589Y-93468581D01*
X61856946Y-93467467D01*
X61854366Y-93454495D01*
X61843641Y-93438444D01*
X60783261Y-92378064D01*
X60767210Y-92367339D01*
X60754238Y-92364759D01*
X60752734Y-92363440D01*
X60753124Y-92361478D01*
X60754238Y-92360835D01*
X60770506Y-92357599D01*
X60770097Y-92355544D01*
X60770740Y-92353650D01*
X60771880Y-92353162D01*
X60794487Y-92351131D01*
X60849166Y-92308626D01*
X60866700Y-92258868D01*
X60868219Y-92257567D01*
X60868976Y-92257571D01*
X60870276Y-92257830D01*
X60873512Y-92241562D01*
X60874831Y-92240058D01*
X60876793Y-92240448D01*
G37*
G36*
X61442478Y-91674762D02*
G01*
X61443121Y-91675876D01*
X61445701Y-91688848D01*
X61456426Y-91704899D01*
X62516806Y-92765279D01*
X62532857Y-92776004D01*
X62545829Y-92778584D01*
X62547333Y-92779903D01*
X62546943Y-92781865D01*
X62545829Y-92782508D01*
X62529561Y-92785744D01*
X62529970Y-92787796D01*
X62529327Y-92789690D01*
X62528187Y-92790178D01*
X62505604Y-92792203D01*
X62450917Y-92834698D01*
X62433364Y-92884475D01*
X62431845Y-92885776D01*
X62431088Y-92885772D01*
X62429792Y-92885514D01*
X62426556Y-92901782D01*
X62425237Y-92903286D01*
X62423275Y-92902896D01*
X62422632Y-92901782D01*
X62420052Y-92888810D01*
X62409327Y-92872759D01*
X61348947Y-91812379D01*
X61332896Y-91801654D01*
X61319924Y-91799074D01*
X61318420Y-91797755D01*
X61318810Y-91795793D01*
X61319924Y-91795150D01*
X61336192Y-91791914D01*
X61335783Y-91789862D01*
X61336426Y-91787968D01*
X61337566Y-91787480D01*
X61360149Y-91785455D01*
X61414836Y-91742960D01*
X61432389Y-91693183D01*
X61433908Y-91691882D01*
X61434665Y-91691886D01*
X61435961Y-91692144D01*
X61439197Y-91675876D01*
X61440516Y-91674372D01*
X61442478Y-91674762D01*
G37*
G36*
X53799210Y-91674762D02*
G01*
X53799853Y-91675876D01*
X53803089Y-91692144D01*
X53805144Y-91691735D01*
X53807038Y-91692378D01*
X53807526Y-91693518D01*
X53809557Y-91716125D01*
X53852062Y-91770804D01*
X53901820Y-91788338D01*
X53903121Y-91789857D01*
X53903117Y-91790614D01*
X53902858Y-91791914D01*
X53919126Y-91795150D01*
X53920630Y-91796469D01*
X53920240Y-91798431D01*
X53919126Y-91799074D01*
X53906154Y-91801654D01*
X53890103Y-91812379D01*
X52829723Y-92872759D01*
X52818998Y-92888810D01*
X52816418Y-92901782D01*
X52815099Y-92903286D01*
X52813137Y-92902896D01*
X52812494Y-92901782D01*
X52809258Y-92885514D01*
X52807203Y-92885923D01*
X52805309Y-92885280D01*
X52804821Y-92884140D01*
X52802790Y-92861533D01*
X52760285Y-92806854D01*
X52710527Y-92789320D01*
X52709226Y-92787801D01*
X52709230Y-92787044D01*
X52709489Y-92785744D01*
X52693221Y-92782508D01*
X52691717Y-92781189D01*
X52692107Y-92779227D01*
X52693221Y-92778584D01*
X52706193Y-92776004D01*
X52722244Y-92765279D01*
X53782624Y-91704899D01*
X53793349Y-91688848D01*
X53795929Y-91675876D01*
X53797248Y-91674372D01*
X53799210Y-91674762D01*
G37*
G36*
X62008164Y-91109077D02*
G01*
X62008807Y-91110191D01*
X62011387Y-91123163D01*
X62022112Y-91139214D01*
X63082492Y-92199594D01*
X63098543Y-92210319D01*
X63111515Y-92212899D01*
X63113019Y-92214218D01*
X63112629Y-92216180D01*
X63111515Y-92216823D01*
X63095247Y-92220059D01*
X63095656Y-92222114D01*
X63095013Y-92224008D01*
X63093873Y-92224496D01*
X63071266Y-92226527D01*
X63016587Y-92269032D01*
X62999053Y-92318790D01*
X62997534Y-92320091D01*
X62996777Y-92320087D01*
X62995477Y-92319828D01*
X62992241Y-92336096D01*
X62990922Y-92337600D01*
X62988960Y-92337210D01*
X62988317Y-92336096D01*
X62985737Y-92323124D01*
X62975012Y-92307073D01*
X61914632Y-91246693D01*
X61898581Y-91235968D01*
X61885609Y-91233388D01*
X61884105Y-91232069D01*
X61884495Y-91230107D01*
X61885609Y-91229464D01*
X61901877Y-91226228D01*
X61901468Y-91224173D01*
X61902111Y-91222279D01*
X61903251Y-91221791D01*
X61925858Y-91219760D01*
X61980537Y-91177255D01*
X61998071Y-91127497D01*
X61999590Y-91126196D01*
X62000347Y-91126200D01*
X62001647Y-91126459D01*
X62004883Y-91110191D01*
X62006202Y-91108687D01*
X62008164Y-91109077D01*
G37*
G36*
X53233524Y-91109077D02*
G01*
X53234167Y-91110191D01*
X53237403Y-91126459D01*
X53239455Y-91126050D01*
X53241349Y-91126693D01*
X53241837Y-91127833D01*
X53243862Y-91150416D01*
X53286357Y-91205103D01*
X53336134Y-91222656D01*
X53337435Y-91224175D01*
X53337431Y-91224932D01*
X53337173Y-91226228D01*
X53353441Y-91229464D01*
X53354945Y-91230783D01*
X53354555Y-91232745D01*
X53353441Y-91233388D01*
X53340469Y-91235968D01*
X53324418Y-91246693D01*
X52264038Y-92307073D01*
X52253313Y-92323124D01*
X52250733Y-92336096D01*
X52249414Y-92337600D01*
X52247452Y-92337210D01*
X52246809Y-92336096D01*
X52243573Y-92319828D01*
X52241521Y-92320237D01*
X52239627Y-92319594D01*
X52239139Y-92318454D01*
X52237114Y-92295871D01*
X52194619Y-92241184D01*
X52144842Y-92223631D01*
X52143541Y-92222112D01*
X52143545Y-92221355D01*
X52143803Y-92220059D01*
X52127535Y-92216823D01*
X52126031Y-92215504D01*
X52126421Y-92213542D01*
X52127535Y-92212899D01*
X52140507Y-92210319D01*
X52156558Y-92199594D01*
X53216938Y-91139214D01*
X53227663Y-91123163D01*
X53230243Y-91110191D01*
X53231562Y-91108687D01*
X53233524Y-91109077D01*
G37*
G36*
X52667839Y-90543391D02*
G01*
X52668482Y-90544505D01*
X52671718Y-90560773D01*
X52673773Y-90560364D01*
X52675667Y-90561007D01*
X52676155Y-90562147D01*
X52678186Y-90584754D01*
X52720691Y-90639433D01*
X52770449Y-90656967D01*
X52771750Y-90658486D01*
X52771746Y-90659243D01*
X52771487Y-90660543D01*
X52787755Y-90663779D01*
X52789259Y-90665098D01*
X52788869Y-90667060D01*
X52787755Y-90667703D01*
X52774783Y-90670283D01*
X52758732Y-90681008D01*
X51698352Y-91741388D01*
X51687627Y-91757439D01*
X51685047Y-91770411D01*
X51683728Y-91771915D01*
X51681766Y-91771525D01*
X51681123Y-91770411D01*
X51677887Y-91754143D01*
X51675832Y-91754552D01*
X51673938Y-91753909D01*
X51673450Y-91752769D01*
X51671419Y-91730162D01*
X51628914Y-91675483D01*
X51579156Y-91657949D01*
X51577855Y-91656430D01*
X51577859Y-91655673D01*
X51578118Y-91654373D01*
X51561850Y-91651137D01*
X51560346Y-91649818D01*
X51560736Y-91647856D01*
X51561850Y-91647213D01*
X51574822Y-91644633D01*
X51590873Y-91633908D01*
X52651253Y-90573528D01*
X52661978Y-90557477D01*
X52664558Y-90544505D01*
X52665877Y-90543001D01*
X52667839Y-90543391D01*
G37*
G36*
X62573849Y-90543391D02*
G01*
X62574492Y-90544505D01*
X62577072Y-90557477D01*
X62587797Y-90573528D01*
X63648177Y-91633908D01*
X63664228Y-91644633D01*
X63677200Y-91647213D01*
X63678704Y-91648532D01*
X63678314Y-91650494D01*
X63677200Y-91651137D01*
X63660932Y-91654373D01*
X63661341Y-91656425D01*
X63660698Y-91658319D01*
X63659558Y-91658807D01*
X63636975Y-91660832D01*
X63582288Y-91703327D01*
X63564735Y-91753104D01*
X63563216Y-91754405D01*
X63562459Y-91754401D01*
X63561163Y-91754143D01*
X63557927Y-91770411D01*
X63556608Y-91771915D01*
X63554646Y-91771525D01*
X63554003Y-91770411D01*
X63551423Y-91757439D01*
X63540698Y-91741388D01*
X62480318Y-90681008D01*
X62464267Y-90670283D01*
X62451295Y-90667703D01*
X62449791Y-90666384D01*
X62450181Y-90664422D01*
X62451295Y-90663779D01*
X62467563Y-90660543D01*
X62467154Y-90658491D01*
X62467797Y-90656597D01*
X62468937Y-90656109D01*
X62491520Y-90654084D01*
X62546207Y-90611589D01*
X62563760Y-90561812D01*
X62565279Y-90560511D01*
X62566036Y-90560515D01*
X62567332Y-90560773D01*
X62570568Y-90544505D01*
X62571887Y-90543001D01*
X62573849Y-90543391D01*
G37*
G36*
X63139534Y-89977706D02*
G01*
X63140177Y-89978820D01*
X63142757Y-89991792D01*
X63153482Y-90007843D01*
X64213862Y-91068223D01*
X64229913Y-91078948D01*
X64242885Y-91081528D01*
X64244389Y-91082847D01*
X64243999Y-91084809D01*
X64242885Y-91085452D01*
X64226617Y-91088688D01*
X64227026Y-91090740D01*
X64226383Y-91092634D01*
X64225243Y-91093122D01*
X64202660Y-91095147D01*
X64147973Y-91137642D01*
X64130420Y-91187418D01*
X64128901Y-91188719D01*
X64128144Y-91188715D01*
X64126848Y-91188457D01*
X64123612Y-91204725D01*
X64122293Y-91206229D01*
X64120331Y-91205839D01*
X64119688Y-91204725D01*
X64117108Y-91191753D01*
X64106383Y-91175702D01*
X63046003Y-90115322D01*
X63029952Y-90104597D01*
X63016980Y-90102017D01*
X63015476Y-90100698D01*
X63015866Y-90098736D01*
X63016980Y-90098093D01*
X63033248Y-90094857D01*
X63032839Y-90092805D01*
X63033482Y-90090911D01*
X63034622Y-90090423D01*
X63057205Y-90088398D01*
X63111892Y-90045903D01*
X63129445Y-89996127D01*
X63130964Y-89994826D01*
X63131721Y-89994830D01*
X63133017Y-89995088D01*
X63136253Y-89978820D01*
X63137572Y-89977316D01*
X63139534Y-89977706D01*
G37*
G36*
X52102154Y-89977706D02*
G01*
X52102797Y-89978820D01*
X52106033Y-89995088D01*
X52108085Y-89994679D01*
X52109979Y-89995322D01*
X52110467Y-89996462D01*
X52112492Y-90019045D01*
X52154987Y-90073732D01*
X52204763Y-90091285D01*
X52206064Y-90092804D01*
X52206060Y-90093561D01*
X52205802Y-90094857D01*
X52222070Y-90098093D01*
X52223574Y-90099412D01*
X52223184Y-90101374D01*
X52222070Y-90102017D01*
X52209098Y-90104597D01*
X52193047Y-90115322D01*
X51132667Y-91175702D01*
X51121942Y-91191753D01*
X51119362Y-91204725D01*
X51118043Y-91206229D01*
X51116081Y-91205839D01*
X51115438Y-91204725D01*
X51112202Y-91188457D01*
X51110150Y-91188866D01*
X51108256Y-91188223D01*
X51107768Y-91187083D01*
X51105743Y-91164500D01*
X51063248Y-91109813D01*
X51013472Y-91092260D01*
X51012171Y-91090741D01*
X51012175Y-91089984D01*
X51012433Y-91088688D01*
X50996165Y-91085452D01*
X50994661Y-91084133D01*
X50995051Y-91082171D01*
X50996165Y-91081528D01*
X51009137Y-91078948D01*
X51025188Y-91068223D01*
X52085568Y-90007843D01*
X52096293Y-89991792D01*
X52098873Y-89978820D01*
X52100192Y-89977316D01*
X52102154Y-89977706D01*
G37*
G36*
X51536468Y-89412021D02*
G01*
X51537111Y-89413135D01*
X51540347Y-89429403D01*
X51542399Y-89428994D01*
X51544293Y-89429637D01*
X51544781Y-89430777D01*
X51546806Y-89453360D01*
X51589301Y-89508047D01*
X51639078Y-89525600D01*
X51640379Y-89527119D01*
X51640375Y-89527876D01*
X51640117Y-89529172D01*
X51656385Y-89532408D01*
X51657889Y-89533727D01*
X51657499Y-89535689D01*
X51656385Y-89536332D01*
X51643413Y-89538912D01*
X51627362Y-89549637D01*
X50566982Y-90610017D01*
X50556257Y-90626068D01*
X50553677Y-90639040D01*
X50552358Y-90640544D01*
X50550396Y-90640154D01*
X50549753Y-90639040D01*
X50546517Y-90622772D01*
X50544465Y-90623181D01*
X50542571Y-90622538D01*
X50542083Y-90621398D01*
X50540058Y-90598815D01*
X50497563Y-90544128D01*
X50447786Y-90526575D01*
X50446485Y-90525056D01*
X50446489Y-90524299D01*
X50446747Y-90523003D01*
X50430479Y-90519767D01*
X50428975Y-90518448D01*
X50429365Y-90516486D01*
X50430479Y-90515843D01*
X50443451Y-90513263D01*
X50459502Y-90502538D01*
X51519882Y-89442158D01*
X51530607Y-89426107D01*
X51533187Y-89413135D01*
X51534506Y-89411631D01*
X51536468Y-89412021D01*
G37*
G36*
X63705220Y-89412021D02*
G01*
X63705863Y-89413135D01*
X63708443Y-89426107D01*
X63719168Y-89442158D01*
X64779548Y-90502538D01*
X64795599Y-90513263D01*
X64808571Y-90515843D01*
X64810075Y-90517162D01*
X64809685Y-90519124D01*
X64808571Y-90519767D01*
X64792303Y-90523003D01*
X64792712Y-90525058D01*
X64792069Y-90526952D01*
X64790929Y-90527440D01*
X64768322Y-90529471D01*
X64713643Y-90571976D01*
X64696109Y-90621734D01*
X64694590Y-90623035D01*
X64693833Y-90623031D01*
X64692533Y-90622772D01*
X64689297Y-90639040D01*
X64687978Y-90640544D01*
X64686016Y-90640154D01*
X64685373Y-90639040D01*
X64682793Y-90626068D01*
X64672068Y-90610017D01*
X63611688Y-89549637D01*
X63595637Y-89538912D01*
X63582665Y-89536332D01*
X63581161Y-89535013D01*
X63581551Y-89533051D01*
X63582665Y-89532408D01*
X63598933Y-89529172D01*
X63598524Y-89527117D01*
X63599167Y-89525223D01*
X63600307Y-89524735D01*
X63622914Y-89522704D01*
X63677593Y-89480199D01*
X63695127Y-89430441D01*
X63696646Y-89429140D01*
X63697403Y-89429144D01*
X63698703Y-89429403D01*
X63701939Y-89413135D01*
X63703258Y-89411631D01*
X63705220Y-89412021D01*
G37*
G36*
X50553034Y-86442172D02*
G01*
X50553677Y-86443286D01*
X50556257Y-86456258D01*
X50566982Y-86472309D01*
X51627362Y-87532689D01*
X51643413Y-87543414D01*
X51656385Y-87545994D01*
X51657889Y-87547313D01*
X51657499Y-87549275D01*
X51656385Y-87549918D01*
X51640117Y-87553154D01*
X51640526Y-87555209D01*
X51639883Y-87557103D01*
X51638743Y-87557591D01*
X51616136Y-87559622D01*
X51561457Y-87602127D01*
X51543923Y-87651885D01*
X51542404Y-87653186D01*
X51541647Y-87653182D01*
X51540347Y-87652923D01*
X51537111Y-87669191D01*
X51535792Y-87670695D01*
X51533830Y-87670305D01*
X51533187Y-87669191D01*
X51530607Y-87656219D01*
X51519882Y-87640168D01*
X50459502Y-86579788D01*
X50443451Y-86569063D01*
X50430479Y-86566483D01*
X50428975Y-86565164D01*
X50429365Y-86563202D01*
X50430479Y-86562559D01*
X50446747Y-86559323D01*
X50446338Y-86557268D01*
X50446981Y-86555374D01*
X50448121Y-86554886D01*
X50470728Y-86552855D01*
X50525407Y-86510350D01*
X50542941Y-86460592D01*
X50544460Y-86459291D01*
X50545217Y-86459295D01*
X50546517Y-86459554D01*
X50549753Y-86443286D01*
X50551072Y-86441782D01*
X50553034Y-86442172D01*
G37*
G36*
X64688654Y-86442172D02*
G01*
X64689297Y-86443286D01*
X64692533Y-86459554D01*
X64694585Y-86459145D01*
X64696479Y-86459788D01*
X64696967Y-86460928D01*
X64698992Y-86483511D01*
X64741487Y-86538198D01*
X64791264Y-86555751D01*
X64792565Y-86557270D01*
X64792561Y-86558027D01*
X64792303Y-86559323D01*
X64808571Y-86562559D01*
X64810075Y-86563878D01*
X64809685Y-86565840D01*
X64808571Y-86566483D01*
X64795599Y-86569063D01*
X64779548Y-86579788D01*
X63719168Y-87640168D01*
X63708443Y-87656219D01*
X63705863Y-87669191D01*
X63704544Y-87670695D01*
X63702582Y-87670305D01*
X63701939Y-87669191D01*
X63698703Y-87652923D01*
X63696651Y-87653332D01*
X63694757Y-87652689D01*
X63694269Y-87651549D01*
X63692244Y-87628966D01*
X63649749Y-87574279D01*
X63599972Y-87556726D01*
X63598671Y-87555207D01*
X63598675Y-87554450D01*
X63598933Y-87553154D01*
X63582665Y-87549918D01*
X63581161Y-87548599D01*
X63581551Y-87546637D01*
X63582665Y-87545994D01*
X63595637Y-87543414D01*
X63611688Y-87532689D01*
X64672068Y-86472309D01*
X64682793Y-86456258D01*
X64685373Y-86443286D01*
X64686692Y-86441782D01*
X64688654Y-86442172D01*
G37*
G36*
X51118719Y-85876487D02*
G01*
X51119362Y-85877601D01*
X51121942Y-85890573D01*
X51132667Y-85906624D01*
X52193047Y-86967004D01*
X52209098Y-86977729D01*
X52222070Y-86980309D01*
X52223574Y-86981628D01*
X52223184Y-86983590D01*
X52222070Y-86984233D01*
X52205802Y-86987469D01*
X52206211Y-86989521D01*
X52205568Y-86991415D01*
X52204428Y-86991903D01*
X52181845Y-86993928D01*
X52127158Y-87036423D01*
X52109605Y-87086199D01*
X52108086Y-87087500D01*
X52107329Y-87087496D01*
X52106033Y-87087238D01*
X52102797Y-87103506D01*
X52101478Y-87105010D01*
X52099516Y-87104620D01*
X52098873Y-87103506D01*
X52096293Y-87090534D01*
X52085568Y-87074483D01*
X51025188Y-86014103D01*
X51009137Y-86003378D01*
X50996165Y-86000798D01*
X50994661Y-85999479D01*
X50995051Y-85997517D01*
X50996165Y-85996874D01*
X51012433Y-85993638D01*
X51012024Y-85991586D01*
X51012667Y-85989692D01*
X51013807Y-85989204D01*
X51036390Y-85987179D01*
X51091077Y-85944684D01*
X51108630Y-85894908D01*
X51110149Y-85893607D01*
X51110906Y-85893611D01*
X51112202Y-85893869D01*
X51115438Y-85877601D01*
X51116757Y-85876097D01*
X51118719Y-85876487D01*
G37*
G36*
X64122969Y-85876487D02*
G01*
X64123612Y-85877601D01*
X64126848Y-85893869D01*
X64128900Y-85893460D01*
X64130794Y-85894103D01*
X64131282Y-85895243D01*
X64133307Y-85917826D01*
X64175802Y-85972513D01*
X64225578Y-85990066D01*
X64226879Y-85991585D01*
X64226875Y-85992342D01*
X64226617Y-85993638D01*
X64242885Y-85996874D01*
X64244389Y-85998193D01*
X64243999Y-86000155D01*
X64242885Y-86000798D01*
X64229913Y-86003378D01*
X64213862Y-86014103D01*
X63153482Y-87074483D01*
X63142757Y-87090534D01*
X63140177Y-87103506D01*
X63138858Y-87105010D01*
X63136896Y-87104620D01*
X63136253Y-87103506D01*
X63133017Y-87087238D01*
X63130965Y-87087647D01*
X63129071Y-87087004D01*
X63128583Y-87085864D01*
X63126558Y-87063281D01*
X63084063Y-87008594D01*
X63034287Y-86991041D01*
X63032986Y-86989522D01*
X63032990Y-86988765D01*
X63033248Y-86987469D01*
X63016980Y-86984233D01*
X63015476Y-86982914D01*
X63015866Y-86980952D01*
X63016980Y-86980309D01*
X63029952Y-86977729D01*
X63046003Y-86967004D01*
X64106383Y-85906624D01*
X64117108Y-85890573D01*
X64119688Y-85877601D01*
X64121007Y-85876097D01*
X64122969Y-85876487D01*
G37*
G36*
X63557284Y-85310801D02*
G01*
X63557927Y-85311915D01*
X63561163Y-85328183D01*
X63563218Y-85327774D01*
X63565112Y-85328417D01*
X63565600Y-85329557D01*
X63567631Y-85352164D01*
X63610136Y-85406843D01*
X63659894Y-85424377D01*
X63661195Y-85425896D01*
X63661191Y-85426653D01*
X63660932Y-85427953D01*
X63677200Y-85431189D01*
X63678704Y-85432508D01*
X63678314Y-85434470D01*
X63677200Y-85435113D01*
X63664228Y-85437693D01*
X63648177Y-85448418D01*
X62587797Y-86508798D01*
X62577072Y-86524849D01*
X62574492Y-86537821D01*
X62573173Y-86539325D01*
X62571211Y-86538935D01*
X62570568Y-86537821D01*
X62567332Y-86521553D01*
X62565277Y-86521962D01*
X62563383Y-86521319D01*
X62562895Y-86520179D01*
X62560864Y-86497572D01*
X62518359Y-86442893D01*
X62468601Y-86425359D01*
X62467300Y-86423840D01*
X62467304Y-86423083D01*
X62467563Y-86421783D01*
X62451295Y-86418547D01*
X62449791Y-86417228D01*
X62450181Y-86415266D01*
X62451295Y-86414623D01*
X62464267Y-86412043D01*
X62480318Y-86401318D01*
X63540698Y-85340938D01*
X63551423Y-85324887D01*
X63554003Y-85311915D01*
X63555322Y-85310411D01*
X63557284Y-85310801D01*
G37*
G36*
X51684404Y-85310801D02*
G01*
X51685047Y-85311915D01*
X51687627Y-85324887D01*
X51698352Y-85340938D01*
X52758732Y-86401318D01*
X52774783Y-86412043D01*
X52787755Y-86414623D01*
X52789259Y-86415942D01*
X52788869Y-86417904D01*
X52787755Y-86418547D01*
X52771487Y-86421783D01*
X52771896Y-86423835D01*
X52771253Y-86425729D01*
X52770113Y-86426217D01*
X52747530Y-86428242D01*
X52692843Y-86470737D01*
X52675290Y-86520514D01*
X52673771Y-86521815D01*
X52673014Y-86521811D01*
X52671718Y-86521553D01*
X52668482Y-86537821D01*
X52667163Y-86539325D01*
X52665201Y-86538935D01*
X52664558Y-86537821D01*
X52661978Y-86524849D01*
X52651253Y-86508798D01*
X51590873Y-85448418D01*
X51574822Y-85437693D01*
X51561850Y-85435113D01*
X51560346Y-85433794D01*
X51560736Y-85431832D01*
X51561850Y-85431189D01*
X51578118Y-85427953D01*
X51577709Y-85425901D01*
X51578352Y-85424007D01*
X51579492Y-85423519D01*
X51602075Y-85421494D01*
X51656762Y-85378999D01*
X51674315Y-85329222D01*
X51675834Y-85327921D01*
X51676591Y-85327925D01*
X51677887Y-85328183D01*
X51681123Y-85311915D01*
X51682442Y-85310411D01*
X51684404Y-85310801D01*
G37*
G36*
X52250090Y-84745116D02*
G01*
X52250733Y-84746230D01*
X52253313Y-84759202D01*
X52264038Y-84775253D01*
X53324418Y-85835633D01*
X53340469Y-85846358D01*
X53353441Y-85848938D01*
X53354945Y-85850257D01*
X53354555Y-85852219D01*
X53353441Y-85852862D01*
X53337173Y-85856098D01*
X53337582Y-85858153D01*
X53336939Y-85860047D01*
X53335799Y-85860535D01*
X53313192Y-85862566D01*
X53258513Y-85905071D01*
X53240979Y-85954829D01*
X53239460Y-85956130D01*
X53238703Y-85956126D01*
X53237403Y-85955867D01*
X53234167Y-85972135D01*
X53232848Y-85973639D01*
X53230886Y-85973249D01*
X53230243Y-85972135D01*
X53227663Y-85959163D01*
X53216938Y-85943112D01*
X52156558Y-84882732D01*
X52140507Y-84872007D01*
X52127535Y-84869427D01*
X52126031Y-84868108D01*
X52126421Y-84866146D01*
X52127535Y-84865503D01*
X52143803Y-84862267D01*
X52143394Y-84860212D01*
X52144037Y-84858318D01*
X52145177Y-84857830D01*
X52167784Y-84855799D01*
X52222463Y-84813294D01*
X52239997Y-84763536D01*
X52241516Y-84762235D01*
X52242273Y-84762239D01*
X52243573Y-84762498D01*
X52246809Y-84746230D01*
X52248128Y-84744726D01*
X52250090Y-84745116D01*
G37*
G36*
X62991598Y-84745116D02*
G01*
X62992241Y-84746230D01*
X62995477Y-84762498D01*
X62997529Y-84762089D01*
X62999423Y-84762732D01*
X62999911Y-84763872D01*
X63001936Y-84786455D01*
X63044431Y-84841142D01*
X63094208Y-84858695D01*
X63095509Y-84860214D01*
X63095505Y-84860971D01*
X63095247Y-84862267D01*
X63111515Y-84865503D01*
X63113019Y-84866822D01*
X63112629Y-84868784D01*
X63111515Y-84869427D01*
X63098543Y-84872007D01*
X63082492Y-84882732D01*
X62022112Y-85943112D01*
X62011387Y-85959163D01*
X62008807Y-85972135D01*
X62007488Y-85973639D01*
X62005526Y-85973249D01*
X62004883Y-85972135D01*
X62001647Y-85955867D01*
X61999595Y-85956276D01*
X61997701Y-85955633D01*
X61997213Y-85954493D01*
X61995188Y-85931910D01*
X61952693Y-85877223D01*
X61902916Y-85859670D01*
X61901615Y-85858151D01*
X61901619Y-85857394D01*
X61901877Y-85856098D01*
X61885609Y-85852862D01*
X61884105Y-85851543D01*
X61884495Y-85849581D01*
X61885609Y-85848938D01*
X61898581Y-85846358D01*
X61914632Y-85835633D01*
X62975012Y-84775253D01*
X62985737Y-84759202D01*
X62988317Y-84746230D01*
X62989636Y-84744726D01*
X62991598Y-84745116D01*
G37*
G36*
X62425913Y-84179430D02*
G01*
X62426556Y-84180544D01*
X62429792Y-84196812D01*
X62431847Y-84196403D01*
X62433741Y-84197046D01*
X62434229Y-84198186D01*
X62436260Y-84220793D01*
X62478765Y-84275472D01*
X62528523Y-84293006D01*
X62529824Y-84294525D01*
X62529820Y-84295282D01*
X62529561Y-84296582D01*
X62545829Y-84299818D01*
X62547333Y-84301137D01*
X62546943Y-84303099D01*
X62545829Y-84303742D01*
X62532857Y-84306322D01*
X62516806Y-84317047D01*
X61456426Y-85377427D01*
X61445701Y-85393478D01*
X61443121Y-85406450D01*
X61441802Y-85407954D01*
X61439840Y-85407564D01*
X61439197Y-85406450D01*
X61435961Y-85390182D01*
X61433906Y-85390591D01*
X61432012Y-85389948D01*
X61431524Y-85388808D01*
X61429493Y-85366201D01*
X61386988Y-85311522D01*
X61337230Y-85293988D01*
X61335929Y-85292469D01*
X61335933Y-85291712D01*
X61336192Y-85290412D01*
X61319924Y-85287176D01*
X61318420Y-85285857D01*
X61318810Y-85283895D01*
X61319924Y-85283252D01*
X61332896Y-85280672D01*
X61348947Y-85269947D01*
X62409327Y-84209567D01*
X62420052Y-84193516D01*
X62422632Y-84180544D01*
X62423951Y-84179040D01*
X62425913Y-84179430D01*
G37*
G36*
X52815775Y-84179430D02*
G01*
X52816418Y-84180544D01*
X52818998Y-84193516D01*
X52829723Y-84209567D01*
X53890103Y-85269947D01*
X53906154Y-85280672D01*
X53919126Y-85283252D01*
X53920630Y-85284571D01*
X53920240Y-85286533D01*
X53919126Y-85287176D01*
X53902858Y-85290412D01*
X53903267Y-85292464D01*
X53902624Y-85294358D01*
X53901484Y-85294846D01*
X53878901Y-85296871D01*
X53824214Y-85339366D01*
X53806661Y-85389143D01*
X53805142Y-85390444D01*
X53804385Y-85390440D01*
X53803089Y-85390182D01*
X53799853Y-85406450D01*
X53798534Y-85407954D01*
X53796572Y-85407564D01*
X53795929Y-85406450D01*
X53793349Y-85393478D01*
X53782624Y-85377427D01*
X52722244Y-84317047D01*
X52706193Y-84306322D01*
X52693221Y-84303742D01*
X52691717Y-84302423D01*
X52692107Y-84300461D01*
X52693221Y-84299818D01*
X52709489Y-84296582D01*
X52709080Y-84294530D01*
X52709723Y-84292636D01*
X52710863Y-84292148D01*
X52733446Y-84290123D01*
X52788133Y-84247628D01*
X52805686Y-84197851D01*
X52807205Y-84196550D01*
X52807962Y-84196554D01*
X52809258Y-84196812D01*
X52812494Y-84180544D01*
X52813813Y-84179040D01*
X52815775Y-84179430D01*
G37*
G36*
X61860227Y-83613745D02*
G01*
X61860870Y-83614859D01*
X61864106Y-83631127D01*
X61866158Y-83630718D01*
X61868052Y-83631361D01*
X61868540Y-83632501D01*
X61870565Y-83655084D01*
X61913060Y-83709771D01*
X61962837Y-83727324D01*
X61964138Y-83728843D01*
X61964134Y-83729600D01*
X61963876Y-83730896D01*
X61980144Y-83734132D01*
X61981648Y-83735451D01*
X61981258Y-83737413D01*
X61980144Y-83738056D01*
X61967172Y-83740636D01*
X61951121Y-83751361D01*
X60890741Y-84811741D01*
X60880016Y-84827792D01*
X60877436Y-84840764D01*
X60876117Y-84842268D01*
X60874155Y-84841878D01*
X60873512Y-84840764D01*
X60870276Y-84824496D01*
X60868224Y-84824905D01*
X60866330Y-84824262D01*
X60865842Y-84823122D01*
X60863817Y-84800539D01*
X60821322Y-84745852D01*
X60771545Y-84728299D01*
X60770244Y-84726780D01*
X60770248Y-84726023D01*
X60770506Y-84724727D01*
X60754238Y-84721491D01*
X60752734Y-84720172D01*
X60753124Y-84718210D01*
X60754238Y-84717567D01*
X60767210Y-84714987D01*
X60783261Y-84704262D01*
X61843641Y-83643882D01*
X61854366Y-83627831D01*
X61856946Y-83614859D01*
X61858265Y-83613355D01*
X61860227Y-83613745D01*
G37*
G36*
X53381461Y-83613745D02*
G01*
X53382104Y-83614859D01*
X53384684Y-83627831D01*
X53395409Y-83643882D01*
X54455789Y-84704262D01*
X54471840Y-84714987D01*
X54484812Y-84717567D01*
X54486316Y-84718886D01*
X54485926Y-84720848D01*
X54484812Y-84721491D01*
X54468544Y-84724727D01*
X54468953Y-84726782D01*
X54468310Y-84728676D01*
X54467170Y-84729164D01*
X54444563Y-84731195D01*
X54389884Y-84773700D01*
X54372350Y-84823458D01*
X54370831Y-84824759D01*
X54370074Y-84824755D01*
X54368774Y-84824496D01*
X54365538Y-84840764D01*
X54364219Y-84842268D01*
X54362257Y-84841878D01*
X54361614Y-84840764D01*
X54359034Y-84827792D01*
X54348309Y-84811741D01*
X53287929Y-83751361D01*
X53271878Y-83740636D01*
X53258906Y-83738056D01*
X53257402Y-83736737D01*
X53257792Y-83734775D01*
X53258906Y-83734132D01*
X53275174Y-83730896D01*
X53274765Y-83728841D01*
X53275408Y-83726947D01*
X53276548Y-83726459D01*
X53299155Y-83724428D01*
X53353834Y-83681923D01*
X53371368Y-83632165D01*
X53372887Y-83630864D01*
X53373644Y-83630868D01*
X53374944Y-83631127D01*
X53378180Y-83614859D01*
X53379499Y-83613355D01*
X53381461Y-83613745D01*
G37*
G36*
X53947146Y-83048059D02*
G01*
X53947789Y-83049173D01*
X53950369Y-83062145D01*
X53961094Y-83078196D01*
X55021474Y-84138576D01*
X55037525Y-84149301D01*
X55050497Y-84151881D01*
X55052001Y-84153200D01*
X55051611Y-84155162D01*
X55050497Y-84155805D01*
X55034229Y-84159041D01*
X55034638Y-84161093D01*
X55033995Y-84162987D01*
X55032855Y-84163475D01*
X55010272Y-84165500D01*
X54955585Y-84207995D01*
X54938032Y-84257772D01*
X54936513Y-84259073D01*
X54935756Y-84259069D01*
X54934460Y-84258811D01*
X54931224Y-84275079D01*
X54929905Y-84276583D01*
X54927943Y-84276193D01*
X54927300Y-84275079D01*
X54924720Y-84262107D01*
X54913995Y-84246056D01*
X53853615Y-83185676D01*
X53837564Y-83174951D01*
X53824592Y-83172371D01*
X53823088Y-83171052D01*
X53823478Y-83169090D01*
X53824592Y-83168447D01*
X53840860Y-83165211D01*
X53840451Y-83163159D01*
X53841094Y-83161265D01*
X53842234Y-83160777D01*
X53864817Y-83158752D01*
X53919504Y-83116257D01*
X53937057Y-83066480D01*
X53938576Y-83065179D01*
X53939333Y-83065183D01*
X53940629Y-83065441D01*
X53943865Y-83049173D01*
X53945184Y-83047669D01*
X53947146Y-83048059D01*
G37*
G36*
X61294542Y-83048059D02*
G01*
X61295185Y-83049173D01*
X61298421Y-83065441D01*
X61300476Y-83065032D01*
X61302370Y-83065675D01*
X61302858Y-83066815D01*
X61304889Y-83089422D01*
X61347394Y-83144101D01*
X61397152Y-83161635D01*
X61398453Y-83163154D01*
X61398449Y-83163911D01*
X61398190Y-83165211D01*
X61414458Y-83168447D01*
X61415962Y-83169766D01*
X61415572Y-83171728D01*
X61414458Y-83172371D01*
X61401486Y-83174951D01*
X61385435Y-83185676D01*
X60325055Y-84246056D01*
X60314330Y-84262107D01*
X60311750Y-84275079D01*
X60310431Y-84276583D01*
X60308469Y-84276193D01*
X60307826Y-84275079D01*
X60304590Y-84258811D01*
X60302535Y-84259220D01*
X60300641Y-84258577D01*
X60300153Y-84257437D01*
X60298122Y-84234830D01*
X60255617Y-84180151D01*
X60205859Y-84162617D01*
X60204558Y-84161098D01*
X60204562Y-84160341D01*
X60204821Y-84159041D01*
X60188553Y-84155805D01*
X60187049Y-84154486D01*
X60187439Y-84152524D01*
X60188553Y-84151881D01*
X60201525Y-84149301D01*
X60217576Y-84138576D01*
X61277956Y-83078196D01*
X61288681Y-83062145D01*
X61291261Y-83049173D01*
X61292580Y-83047669D01*
X61294542Y-83048059D01*
G37*
G36*
X60728856Y-82482374D02*
G01*
X60729499Y-82483488D01*
X60732735Y-82499756D01*
X60734787Y-82499347D01*
X60736681Y-82499990D01*
X60737169Y-82501130D01*
X60739194Y-82523713D01*
X60781689Y-82578400D01*
X60831466Y-82595953D01*
X60832767Y-82597472D01*
X60832763Y-82598229D01*
X60832505Y-82599525D01*
X60848773Y-82602761D01*
X60850277Y-82604080D01*
X60849887Y-82606042D01*
X60848773Y-82606685D01*
X60835801Y-82609265D01*
X60819750Y-82619990D01*
X59759370Y-83680370D01*
X59748645Y-83696421D01*
X59746065Y-83709393D01*
X59744746Y-83710897D01*
X59742784Y-83710507D01*
X59742141Y-83709393D01*
X59738905Y-83693125D01*
X59736853Y-83693534D01*
X59734959Y-83692891D01*
X59734471Y-83691751D01*
X59732446Y-83669168D01*
X59689951Y-83614481D01*
X59640174Y-83596928D01*
X59638873Y-83595409D01*
X59638877Y-83594652D01*
X59639135Y-83593356D01*
X59622867Y-83590120D01*
X59621363Y-83588801D01*
X59621753Y-83586839D01*
X59622867Y-83586196D01*
X59635839Y-83583616D01*
X59651890Y-83572891D01*
X60712270Y-82512511D01*
X60722995Y-82496460D01*
X60725575Y-82483488D01*
X60726894Y-82481984D01*
X60728856Y-82482374D01*
G37*
G36*
X54512832Y-82482374D02*
G01*
X54513475Y-82483488D01*
X54516055Y-82496460D01*
X54526780Y-82512511D01*
X55587160Y-83572891D01*
X55603211Y-83583616D01*
X55616183Y-83586196D01*
X55617687Y-83587515D01*
X55617297Y-83589477D01*
X55616183Y-83590120D01*
X55599915Y-83593356D01*
X55600324Y-83595411D01*
X55599681Y-83597305D01*
X55598541Y-83597793D01*
X55575934Y-83599824D01*
X55521255Y-83642329D01*
X55503721Y-83692087D01*
X55502202Y-83693388D01*
X55501445Y-83693384D01*
X55500145Y-83693125D01*
X55496909Y-83709393D01*
X55495590Y-83710897D01*
X55493628Y-83710507D01*
X55492985Y-83709393D01*
X55490405Y-83696421D01*
X55479680Y-83680370D01*
X54419300Y-82619990D01*
X54403249Y-82609265D01*
X54390277Y-82606685D01*
X54388773Y-82605366D01*
X54389163Y-82603404D01*
X54390277Y-82602761D01*
X54406545Y-82599525D01*
X54406136Y-82597470D01*
X54406779Y-82595576D01*
X54407919Y-82595088D01*
X54430526Y-82593057D01*
X54485205Y-82550552D01*
X54502739Y-82500794D01*
X54504258Y-82499493D01*
X54505015Y-82499497D01*
X54506315Y-82499756D01*
X54509551Y-82483488D01*
X54510870Y-82481984D01*
X54512832Y-82482374D01*
G37*
G36*
X55078517Y-81916689D02*
G01*
X55079160Y-81917803D01*
X55081740Y-81930775D01*
X55092465Y-81946826D01*
X56152845Y-83007206D01*
X56168896Y-83017931D01*
X56181868Y-83020511D01*
X56183372Y-83021830D01*
X56182982Y-83023792D01*
X56181868Y-83024435D01*
X56165600Y-83027671D01*
X56166009Y-83029723D01*
X56165366Y-83031617D01*
X56164226Y-83032105D01*
X56141643Y-83034130D01*
X56086956Y-83076625D01*
X56069403Y-83126401D01*
X56067884Y-83127702D01*
X56067127Y-83127698D01*
X56065831Y-83127440D01*
X56062595Y-83143708D01*
X56061276Y-83145212D01*
X56059314Y-83144822D01*
X56058671Y-83143708D01*
X56056091Y-83130736D01*
X56045366Y-83114685D01*
X54984986Y-82054305D01*
X54968935Y-82043580D01*
X54955963Y-82041000D01*
X54954459Y-82039681D01*
X54954849Y-82037719D01*
X54955963Y-82037076D01*
X54972231Y-82033840D01*
X54971822Y-82031788D01*
X54972465Y-82029894D01*
X54973605Y-82029406D01*
X54996188Y-82027381D01*
X55050875Y-81984886D01*
X55068428Y-81935110D01*
X55069947Y-81933809D01*
X55070704Y-81933813D01*
X55072000Y-81934071D01*
X55075236Y-81917803D01*
X55076555Y-81916299D01*
X55078517Y-81916689D01*
G37*
G36*
X60163171Y-81916689D02*
G01*
X60163814Y-81917803D01*
X60167050Y-81934071D01*
X60169102Y-81933662D01*
X60170996Y-81934305D01*
X60171484Y-81935445D01*
X60173509Y-81958028D01*
X60216004Y-82012715D01*
X60265780Y-82030268D01*
X60267081Y-82031787D01*
X60267077Y-82032544D01*
X60266819Y-82033840D01*
X60283087Y-82037076D01*
X60284591Y-82038395D01*
X60284201Y-82040357D01*
X60283087Y-82041000D01*
X60270115Y-82043580D01*
X60254064Y-82054305D01*
X59193684Y-83114685D01*
X59182959Y-83130736D01*
X59180379Y-83143708D01*
X59179060Y-83145212D01*
X59177098Y-83144822D01*
X59176455Y-83143708D01*
X59173219Y-83127440D01*
X59171167Y-83127849D01*
X59169273Y-83127206D01*
X59168785Y-83126066D01*
X59166760Y-83103483D01*
X59124265Y-83048796D01*
X59074489Y-83031243D01*
X59073188Y-83029724D01*
X59073192Y-83028967D01*
X59073450Y-83027671D01*
X59057182Y-83024435D01*
X59055678Y-83023116D01*
X59056068Y-83021154D01*
X59057182Y-83020511D01*
X59070154Y-83017931D01*
X59086205Y-83007206D01*
X60146585Y-81946826D01*
X60157310Y-81930775D01*
X60159890Y-81917803D01*
X60161209Y-81916299D01*
X60163171Y-81916689D01*
G37*
G36*
X59597486Y-81351003D02*
G01*
X59598129Y-81352117D01*
X59601365Y-81368385D01*
X59603420Y-81367976D01*
X59605314Y-81368619D01*
X59605802Y-81369759D01*
X59607833Y-81392366D01*
X59650338Y-81447045D01*
X59700096Y-81464579D01*
X59701397Y-81466098D01*
X59701393Y-81466855D01*
X59701134Y-81468155D01*
X59717402Y-81471391D01*
X59718906Y-81472710D01*
X59718516Y-81474672D01*
X59717402Y-81475315D01*
X59704430Y-81477895D01*
X59688379Y-81488620D01*
X58627999Y-82549000D01*
X58617274Y-82565051D01*
X58614694Y-82578023D01*
X58613375Y-82579527D01*
X58611413Y-82579137D01*
X58610770Y-82578023D01*
X58607534Y-82561755D01*
X58605479Y-82562164D01*
X58603585Y-82561521D01*
X58603097Y-82560381D01*
X58601066Y-82537774D01*
X58558561Y-82483095D01*
X58508803Y-82465561D01*
X58507502Y-82464042D01*
X58507506Y-82463285D01*
X58507765Y-82461985D01*
X58491497Y-82458749D01*
X58489993Y-82457430D01*
X58490383Y-82455468D01*
X58491497Y-82454825D01*
X58504469Y-82452245D01*
X58520520Y-82441520D01*
X59580900Y-81381140D01*
X59591625Y-81365089D01*
X59594205Y-81352117D01*
X59595524Y-81350613D01*
X59597486Y-81351003D01*
G37*
G36*
X55644202Y-81351003D02*
G01*
X55644845Y-81352117D01*
X55647425Y-81365089D01*
X55658150Y-81381140D01*
X56718530Y-82441520D01*
X56734581Y-82452245D01*
X56747553Y-82454825D01*
X56749057Y-82456144D01*
X56748667Y-82458106D01*
X56747553Y-82458749D01*
X56731285Y-82461985D01*
X56731694Y-82464037D01*
X56731051Y-82465931D01*
X56729911Y-82466419D01*
X56707328Y-82468444D01*
X56652641Y-82510939D01*
X56635088Y-82560716D01*
X56633569Y-82562017D01*
X56632812Y-82562013D01*
X56631516Y-82561755D01*
X56628280Y-82578023D01*
X56626961Y-82579527D01*
X56624999Y-82579137D01*
X56624356Y-82578023D01*
X56621776Y-82565051D01*
X56611051Y-82549000D01*
X55550671Y-81488620D01*
X55534620Y-81477895D01*
X55521648Y-81475315D01*
X55520144Y-81473996D01*
X55520534Y-81472034D01*
X55521648Y-81471391D01*
X55537916Y-81468155D01*
X55537507Y-81466103D01*
X55538150Y-81464209D01*
X55539290Y-81463721D01*
X55561873Y-81461696D01*
X55616560Y-81419201D01*
X55634113Y-81369424D01*
X55635632Y-81368123D01*
X55636389Y-81368127D01*
X55637685Y-81368385D01*
X55640921Y-81352117D01*
X55642240Y-81350613D01*
X55644202Y-81351003D01*
G37*
G36*
X212687342Y-58100611D02*
G01*
X212687906Y-58102530D01*
X212687073Y-58103721D01*
X212677109Y-58110380D01*
X212666496Y-58126262D01*
X212662729Y-58145199D01*
X212662729Y-60594801D01*
X212666496Y-60613738D01*
X212677109Y-60629620D01*
X212686651Y-60635996D01*
X212687536Y-60637790D01*
X212686425Y-60639453D01*
X212684942Y-60639568D01*
X212626442Y-60621250D01*
X212563059Y-60639861D01*
X212561116Y-60639389D01*
X212560552Y-60637470D01*
X212561385Y-60636279D01*
X212571349Y-60629620D01*
X212581962Y-60613738D01*
X212585729Y-60594801D01*
X212585729Y-58145199D01*
X212581962Y-58126262D01*
X212571349Y-58110380D01*
X212561807Y-58104004D01*
X212560922Y-58102210D01*
X212562033Y-58100547D01*
X212563516Y-58100432D01*
X212622016Y-58118750D01*
X212685399Y-58100139D01*
X212687342Y-58100611D01*
G37*
G36*
X207012342Y-58100611D02*
G01*
X207012906Y-58102530D01*
X207012073Y-58103721D01*
X207002109Y-58110380D01*
X206991496Y-58126262D01*
X206987729Y-58145199D01*
X206987729Y-60594801D01*
X206991496Y-60613738D01*
X207002109Y-60629620D01*
X207011651Y-60635996D01*
X207012536Y-60637790D01*
X207011425Y-60639453D01*
X207009942Y-60639568D01*
X206951442Y-60621250D01*
X206888059Y-60639861D01*
X206886116Y-60639389D01*
X206885552Y-60637470D01*
X206886385Y-60636279D01*
X206896349Y-60629620D01*
X206906962Y-60613738D01*
X206910729Y-60594801D01*
X206910729Y-58145199D01*
X206906962Y-58126262D01*
X206896349Y-58110380D01*
X206886807Y-58104004D01*
X206885922Y-58102210D01*
X206887033Y-58100547D01*
X206888516Y-58100432D01*
X206947016Y-58118750D01*
X207010399Y-58100139D01*
X207012342Y-58100611D01*
G37*
G36*
X208351362Y-58108517D02*
G01*
X208351926Y-58110436D01*
X208351645Y-58111075D01*
X208341496Y-58126263D01*
X208337729Y-58145199D01*
X208337729Y-60594801D01*
X208341496Y-60613738D01*
X208351543Y-60628773D01*
X208351674Y-60630768D01*
X208350011Y-60631880D01*
X208349282Y-60631793D01*
X208288941Y-60612898D01*
X208224039Y-60631955D01*
X208222096Y-60631483D01*
X208221532Y-60629564D01*
X208221813Y-60628925D01*
X208231962Y-60613737D01*
X208235729Y-60594801D01*
X208235729Y-58145199D01*
X208231962Y-58126262D01*
X208221915Y-58111227D01*
X208221784Y-58109232D01*
X208223447Y-58108120D01*
X208224176Y-58108207D01*
X208284517Y-58127102D01*
X208349419Y-58108045D01*
X208351362Y-58108517D01*
G37*
G36*
X208851362Y-58108517D02*
G01*
X208851926Y-58110436D01*
X208851645Y-58111075D01*
X208841496Y-58126263D01*
X208837729Y-58145199D01*
X208837729Y-60594801D01*
X208841496Y-60613738D01*
X208851543Y-60628773D01*
X208851674Y-60630768D01*
X208850011Y-60631880D01*
X208849282Y-60631793D01*
X208788941Y-60612898D01*
X208724039Y-60631955D01*
X208722096Y-60631483D01*
X208721532Y-60629564D01*
X208721813Y-60628925D01*
X208731962Y-60613737D01*
X208735729Y-60594801D01*
X208735729Y-58145199D01*
X208731962Y-58126262D01*
X208721915Y-58111227D01*
X208721784Y-58109232D01*
X208723447Y-58108120D01*
X208724176Y-58108207D01*
X208784517Y-58127102D01*
X208849419Y-58108045D01*
X208851362Y-58108517D01*
G37*
G36*
X209351362Y-58108517D02*
G01*
X209351926Y-58110436D01*
X209351645Y-58111075D01*
X209341496Y-58126263D01*
X209337729Y-58145199D01*
X209337729Y-60594801D01*
X209341496Y-60613738D01*
X209351543Y-60628773D01*
X209351674Y-60630768D01*
X209350011Y-60631880D01*
X209349282Y-60631793D01*
X209288941Y-60612898D01*
X209224039Y-60631955D01*
X209222096Y-60631483D01*
X209221532Y-60629564D01*
X209221813Y-60628925D01*
X209231962Y-60613737D01*
X209235729Y-60594801D01*
X209235729Y-58145199D01*
X209231962Y-58126262D01*
X209221915Y-58111227D01*
X209221784Y-58109232D01*
X209223447Y-58108120D01*
X209224176Y-58108207D01*
X209284517Y-58127102D01*
X209349419Y-58108045D01*
X209351362Y-58108517D01*
G37*
G36*
X211351362Y-58108517D02*
G01*
X211351926Y-58110436D01*
X211351645Y-58111075D01*
X211341496Y-58126263D01*
X211337729Y-58145199D01*
X211337729Y-60594801D01*
X211341496Y-60613738D01*
X211351543Y-60628773D01*
X211351674Y-60630768D01*
X211350011Y-60631880D01*
X211349282Y-60631793D01*
X211288941Y-60612898D01*
X211224039Y-60631955D01*
X211222096Y-60631483D01*
X211221532Y-60629564D01*
X211221813Y-60628925D01*
X211231962Y-60613737D01*
X211235729Y-60594801D01*
X211235729Y-58145199D01*
X211231962Y-58126262D01*
X211221915Y-58111227D01*
X211221784Y-58109232D01*
X211223447Y-58108120D01*
X211224176Y-58108207D01*
X211284517Y-58127102D01*
X211349419Y-58108045D01*
X211351362Y-58108517D01*
G37*
G36*
X210851362Y-58108517D02*
G01*
X210851926Y-58110436D01*
X210851645Y-58111075D01*
X210841496Y-58126263D01*
X210837729Y-58145199D01*
X210837729Y-60594801D01*
X210841496Y-60613738D01*
X210851543Y-60628773D01*
X210851674Y-60630768D01*
X210850011Y-60631880D01*
X210849282Y-60631793D01*
X210788941Y-60612898D01*
X210724039Y-60631955D01*
X210722096Y-60631483D01*
X210721532Y-60629564D01*
X210721813Y-60628925D01*
X210731962Y-60613737D01*
X210735729Y-60594801D01*
X210735729Y-58145199D01*
X210731962Y-58126262D01*
X210721915Y-58111227D01*
X210721784Y-58109232D01*
X210723447Y-58108120D01*
X210724176Y-58108207D01*
X210784517Y-58127102D01*
X210849419Y-58108045D01*
X210851362Y-58108517D01*
G37*
G36*
X209851362Y-58108517D02*
G01*
X209851926Y-58110436D01*
X209851645Y-58111075D01*
X209841496Y-58126263D01*
X209837729Y-58145199D01*
X209837729Y-60594801D01*
X209841496Y-60613738D01*
X209851543Y-60628773D01*
X209851674Y-60630768D01*
X209850011Y-60631880D01*
X209849282Y-60631793D01*
X209788941Y-60612898D01*
X209724039Y-60631955D01*
X209722096Y-60631483D01*
X209721532Y-60629564D01*
X209721813Y-60628925D01*
X209731962Y-60613737D01*
X209735729Y-60594801D01*
X209735729Y-58145199D01*
X209731962Y-58126262D01*
X209721915Y-58111227D01*
X209721784Y-58109232D01*
X209723447Y-58108120D01*
X209724176Y-58108207D01*
X209784517Y-58127102D01*
X209849419Y-58108045D01*
X209851362Y-58108517D01*
G37*
G36*
X210351362Y-58108517D02*
G01*
X210351926Y-58110436D01*
X210351645Y-58111075D01*
X210341496Y-58126263D01*
X210337729Y-58145199D01*
X210337729Y-60594801D01*
X210341496Y-60613738D01*
X210351543Y-60628773D01*
X210351674Y-60630768D01*
X210350011Y-60631880D01*
X210349282Y-60631793D01*
X210288941Y-60612898D01*
X210224039Y-60631955D01*
X210222096Y-60631483D01*
X210221532Y-60629564D01*
X210221813Y-60628925D01*
X210231962Y-60613737D01*
X210235729Y-60594801D01*
X210235729Y-58145199D01*
X210231962Y-58126262D01*
X210221915Y-58111227D01*
X210221784Y-58109232D01*
X210223447Y-58108120D01*
X210224176Y-58108207D01*
X210284517Y-58127102D01*
X210349419Y-58108045D01*
X210351362Y-58108517D01*
G37*
G36*
X211727389Y-58112493D02*
G01*
X211741181Y-58121709D01*
X211742344Y-58119969D01*
X211744138Y-58119084D01*
X211745289Y-58119545D01*
X211762681Y-58134078D01*
X211831399Y-58142704D01*
X211879017Y-58119918D01*
X211881011Y-58120072D01*
X211881543Y-58120611D01*
X211882277Y-58121709D01*
X211896069Y-58112493D01*
X211898065Y-58112362D01*
X211899176Y-58114025D01*
X211898843Y-58115267D01*
X211891496Y-58126262D01*
X211887729Y-58145199D01*
X211887729Y-60594801D01*
X211891496Y-60613738D01*
X211898843Y-60624733D01*
X211898974Y-60626729D01*
X211897311Y-60627840D01*
X211896069Y-60627507D01*
X211882277Y-60618291D01*
X211881114Y-60620031D01*
X211879320Y-60620916D01*
X211878169Y-60620455D01*
X211860777Y-60605922D01*
X211792059Y-60597296D01*
X211744441Y-60620082D01*
X211742447Y-60619928D01*
X211741915Y-60619389D01*
X211741181Y-60618291D01*
X211727389Y-60627507D01*
X211725393Y-60627638D01*
X211724282Y-60625975D01*
X211724615Y-60624733D01*
X211731962Y-60613738D01*
X211735729Y-60594801D01*
X211735729Y-58145199D01*
X211731962Y-58126262D01*
X211724615Y-58115267D01*
X211724484Y-58113271D01*
X211726147Y-58112160D01*
X211727389Y-58112493D01*
G37*
G36*
X207677389Y-58112493D02*
G01*
X207691181Y-58121709D01*
X207692344Y-58119969D01*
X207694138Y-58119084D01*
X207695289Y-58119545D01*
X207712681Y-58134078D01*
X207781399Y-58142704D01*
X207829017Y-58119918D01*
X207831011Y-58120072D01*
X207831543Y-58120611D01*
X207832277Y-58121709D01*
X207846069Y-58112493D01*
X207848065Y-58112362D01*
X207849176Y-58114025D01*
X207848843Y-58115267D01*
X207841496Y-58126262D01*
X207837729Y-58145199D01*
X207837729Y-60594801D01*
X207841496Y-60613738D01*
X207848843Y-60624733D01*
X207848974Y-60626729D01*
X207847311Y-60627840D01*
X207846069Y-60627507D01*
X207832277Y-60618291D01*
X207831114Y-60620031D01*
X207829320Y-60620916D01*
X207828169Y-60620455D01*
X207810777Y-60605922D01*
X207742059Y-60597296D01*
X207694441Y-60620082D01*
X207692447Y-60619928D01*
X207691915Y-60619389D01*
X207691181Y-60618291D01*
X207677389Y-60627507D01*
X207675393Y-60627638D01*
X207674282Y-60625975D01*
X207674615Y-60624733D01*
X207681962Y-60613738D01*
X207685729Y-60594801D01*
X207685729Y-58145199D01*
X207681962Y-58126262D01*
X207674615Y-58115267D01*
X207674484Y-58113271D01*
X207676147Y-58112160D01*
X207677389Y-58112493D01*
G37*
M02*
