M48
; DRILL file {KiCad (6.0.1-0)} date Friday, March 04, 2022 at 04:09:10 AM
; FORMAT={-:-/ absolute / inch / decimal}
; #@! TF.CreationDate,2022-03-04T04:09:10-07:00
; #@! TF.GenerationSoftware,Kicad,Pcbnew,(6.0.1-0)
; #@! TF.FileFunction,Plated,1,2,PTH
FMAT,2
INCH
; #@! TA.AperFunction,Plated,PTH,ViaDrill
T1C0.0157
; #@! TA.AperFunction,Plated,PTH,ComponentDrill
T2C0.0236
; #@! TA.AperFunction,Plated,PTH,ComponentDrill
T3C0.0295
; #@! TA.AperFunction,Plated,PTH,ComponentDrill
T4C0.0394
%
G90
G05
T1
X1.47Y-2.4145
X1.5197Y-4.3701
X1.526Y-2.1283
X1.5823Y-2.9433
X1.5823Y-4.4933
X1.6598Y-4.3323
X1.6673Y-2.8343
X1.6937Y-3.8984
X1.7346Y-3.2193
X1.7441Y-3.3736
X1.8642Y-1.6543
X1.9295Y-3.9634
X2.0335Y-3.0713
X2.0547Y-4.7732
X2.0736Y-4.0307
X2.0756Y-4.205
X2.0756Y-4.324
X2.0901Y-3.7881
X2.1091Y-2.161
X2.1406Y-2.1933
X2.1661Y-3.8949
X2.1823Y-2.2264
X2.2197Y-1.8063
X2.2374Y-2.2437
X2.2378Y-2.4181
X2.2547Y-3.7902
X2.265Y-3.1031
X2.2681Y-3.165
X2.3067Y-2.9394
X2.3087Y-2.839
X2.328Y-4.1059
X2.3343Y-3.6406
X2.339Y-3.5043
X2.4106Y-3.1728
X2.4248Y-4.4882
X2.4382Y-2.9878
X2.4539Y-3.7354
X2.5113Y-4.1084
X2.5823Y-3.1906
X2.6004Y-3.4957
X2.6138Y-1.6528
X2.639Y-3.5772
X2.7224Y-3.8224
X2.726Y-3.5669
X2.9878Y-2.2461
X2.9878Y-2.4035
X3.0945Y-3.0701
X3.1693Y-4.4941
X3.185Y-3.4957
X3.3083Y-1.974
X3.3335Y-2.9575
X3.3642Y-1.6563
X3.4736Y-3.8213
X3.7378Y-2.4039
X3.7382Y-2.2437
X3.7661Y-3.1846
X3.8472Y-3.072
X3.9242Y-4.4961
X3.9831Y-1.9941
X4.1142Y-1.6547
X4.2228Y-3.8189
X4.487Y-2.4035
X4.4874Y-2.2441
X4.552Y-3.2378
X4.5972Y-3.0701
X4.8646Y-1.6551
X4.9724Y-3.8213
X5.1447Y-4.4892
X5.237Y-2.2406
X5.237Y-2.3984
X5.3425Y-3.0713
X5.6142Y-1.6547
X5.7236Y-3.8224
X5.814Y-4.5709
X5.8209Y-1.4579
X5.9878Y-2.4039
X5.9882Y-2.2445
X6.0618Y-1.9665
X6.0898Y-3.0724
X6.163Y-1.8138
X6.1787Y-1.65
X6.248Y-1.5579
X6.2531Y-1.9177
X6.2535Y-1.6626
X6.2535Y-1.7366
X6.2551Y-1.4846
X6.2606Y-1.8437
X6.3614Y-4.361
X6.4717Y-3.8213
X6.7378Y-2.4039
X6.8417Y-3.072
X7.2181Y-3.822
X7.4878Y-2.4055
X7.5921Y-3.0732
X7.8622Y-4.4921
X7.935Y-2.6703
X7.9734Y-3.8222
X8.003Y-2.8435
X8.1161Y-2.5232
X8.173Y-3.425
X8.2795Y-2.7858
X8.41Y-2.8435
X8.4847Y-2.67
X8.5217Y-2.4051
X8.5276Y-3.072
X8.7177Y-3.8213
X8.7177Y-4.4945
T3
X1.5797Y-3.5028
X1.5797Y-3.6209
X1.6585Y-3.5618
X1.6585Y-3.6799
T4
X1.5695Y-4.0073
X1.5695Y-4.1073
X1.5695Y-4.2073
X1.6695Y-4.0073
X1.6695Y-4.1073
X1.6695Y-4.2073
T2
G00X8.0892Y-2.1053
M15
G01X8.0892Y-2.1289
M16
G05
G00X8.0892Y-2.26
M15
G01X8.0892Y-2.3033
M16
G05
G00X8.4294Y-2.1053
M15
G01X8.4294Y-2.1289
M16
G05
G00X8.4294Y-2.26
M15
G01X8.4294Y-2.3033
M16
G05
T0
M30
