M48
; DRILL file {KiCad (6.0.1-0)} date Thursday, March 03, 2022 at 07:40:35 AM
; FORMAT={-:-/ absolute / inch / decimal}
; #@! TF.CreationDate,2022-03-03T07:40:35-07:00
; #@! TF.GenerationSoftware,Kicad,Pcbnew,(6.0.1-0)
; #@! TF.FileFunction,NonPlated,1,2,NPTH
FMAT,2
INCH
; #@! TA.AperFunction,NonPlated,NPTH,ComponentDrill
T1C0.0256
; #@! TA.AperFunction,NonPlated,NPTH,ComponentDrill
T2C0.0310
; #@! TA.AperFunction,NonPlated,NPTH,ComponentDrill
T3C0.0689
; #@! TA.AperFunction,NonPlated,NPTH,ComponentDrill
T4C0.1181
; #@! TA.AperFunction,NonPlated,NPTH,ComponentDrill
T5C0.1200
; #@! TA.AperFunction,NonPlated,NPTH,ComponentDrill
T6C0.1570
%
G90
G05
T1
X8.1455Y-2.2608
X8.3731Y-2.2608
T2
X2.0461Y-2.0467
X2.0961Y-2.0467
X2.1961Y-2.0467
X2.2461Y-2.0467
X2.7972Y-2.0467
X2.8472Y-2.0467
X2.9472Y-2.0467
X2.9972Y-2.0467
X3.5461Y-2.0467
X3.5961Y-2.0467
X3.6961Y-2.0467
X3.7461Y-2.0467
X4.2949Y-2.0467
X4.3449Y-2.0467
X4.4449Y-2.0467
X4.4949Y-2.0467
X5.0476Y-2.0467
X5.0976Y-2.0467
X5.1976Y-2.0467
X5.2476Y-2.0467
X5.7961Y-2.0469
X5.8461Y-2.0469
X5.9461Y-2.0469
X5.9961Y-2.0469
T3
X1.5667Y-2.4222
X1.6611Y-4.6713
X1.6612Y-3.1722
X1.8492Y-3.9213
X1.9429Y-1.6717
X1.9667Y-2.4222
X2.0611Y-4.6713
X2.0612Y-3.1722
X2.2492Y-3.9213
X2.3166Y-2.4222
X2.3429Y-1.6717
X2.5035Y-4.6713
X2.5047Y-3.1722
X2.6929Y-1.6717
X2.7166Y-2.4222
X2.8797Y-3.9222
X2.9035Y-4.6713
X2.9047Y-3.1722
X3.0667Y-2.4222
X3.0929Y-1.6717
X3.2528Y-4.6713
X3.2557Y-3.1703
X3.2797Y-3.9222
X3.4429Y-1.6717
X3.4667Y-2.4222
X3.6307Y-3.9213
X3.6528Y-4.6713
X3.6557Y-3.1703
X3.8167Y-2.4222
X3.8429Y-1.6717
X4.0037Y-4.6742
X4.0047Y-3.1722
X4.0307Y-3.9213
X4.1933Y-1.6717
X4.2167Y-2.4222
X4.3797Y-3.921
X4.4037Y-4.6742
X4.4047Y-3.1722
X4.5657Y-2.4222
X4.5933Y-1.6717
X4.7547Y-3.1703
X4.7797Y-3.921
X4.9433Y-1.6717
X4.9657Y-2.4222
X5.1297Y-3.9213
X5.1547Y-3.1703
X5.2236Y-4.6732
X5.3157Y-2.4222
X5.3433Y-1.6717
X5.5047Y-3.1713
X5.5297Y-3.9213
X5.6236Y-4.6732
X5.6933Y-1.6717
X5.7157Y-2.4222
X5.8807Y-3.9213
X5.9047Y-3.1713
X5.9712Y-4.6712
X6.0667Y-2.4222
X6.0933Y-1.6717
X6.2537Y-3.1722
X6.2807Y-3.9213
X6.3712Y-4.6712
X6.4667Y-2.4222
X6.6297Y-3.9213
X6.6537Y-3.1722
X6.8167Y-2.4222
X6.8187Y-4.6722
X7.0037Y-3.1722
X7.0297Y-3.9213
X7.2167Y-2.4222
X7.2187Y-4.6722
X7.3807Y-3.9222
X7.4037Y-3.1722
X7.5667Y-2.4222
X7.7547Y-3.1732
X7.7807Y-3.9222
X7.9417Y-4.6713
X7.9667Y-2.4222
X8.1299Y-3.9213
X8.1547Y-3.1732
X8.3417Y-4.6713
X8.5299Y-3.9213
X8.6006Y-2.4222
X8.6921Y-3.1722
X8.7864Y-4.6713
X8.8795Y-3.9213
X9.0006Y-2.4222
X9.0921Y-3.1722
X9.1864Y-4.6713
X9.2795Y-3.9213
T4
X1.6167Y-2.3222
X1.7111Y-4.5713
X1.7112Y-3.0722
X1.8667Y-2.2222
X1.9492Y-4.1213
X1.9611Y-4.4713
X1.9612Y-2.9722
X1.9929Y-1.5717
X2.1992Y-4.0213
X2.2429Y-1.4717
X2.3666Y-2.3222
X2.5535Y-4.5713
X2.5547Y-3.0722
X2.6166Y-2.2222
X2.7429Y-1.5717
X2.8035Y-4.4713
X2.8047Y-2.9722
X2.9297Y-3.8222
X2.9929Y-1.4717
X3.1167Y-2.3222
X3.1797Y-3.7222
X3.3028Y-4.5713
X3.3057Y-3.0703
X3.3667Y-2.2222
X3.4929Y-1.5717
X3.5528Y-4.4713
X3.5557Y-2.9703
X3.6807Y-3.8213
X3.7429Y-1.4717
X3.8667Y-2.3222
X3.9307Y-3.7213
X4.0537Y-4.5742
X4.0547Y-3.0722
X4.1167Y-2.2222
X4.2433Y-1.5717
X4.3037Y-4.4742
X4.3047Y-2.9722
X4.4297Y-3.821
X4.4933Y-1.4717
X4.6157Y-2.3222
X4.6797Y-3.721
X4.8047Y-3.0703
X4.8657Y-2.2222
X4.9933Y-1.5717
X5.0547Y-2.9703
X5.1797Y-3.8213
X5.2433Y-1.4717
X5.2736Y-4.5732
X5.3657Y-2.3222
X5.4297Y-3.7213
X5.5236Y-4.4732
X5.5547Y-3.0713
X5.6157Y-2.2222
X5.7433Y-1.5717
X5.8047Y-2.9713
X5.9307Y-3.8213
X5.9933Y-1.4717
X6.0212Y-4.5712
X6.1167Y-2.3222
X6.1807Y-3.7213
X6.2712Y-4.4712
X6.3037Y-3.0722
X6.3667Y-2.2222
X6.5537Y-2.9722
X6.6797Y-3.8213
X6.8667Y-2.3222
X6.8687Y-4.5722
X6.9297Y-3.7213
X7.0537Y-3.0722
X7.1167Y-2.2222
X7.1187Y-4.4722
X7.3037Y-2.9722
X7.4307Y-3.8222
X7.6167Y-2.3222
X7.6807Y-3.7222
X7.8047Y-3.0732
X7.8667Y-2.2222
X7.9917Y-4.5713
X8.0547Y-2.9732
X8.1799Y-3.8213
X8.2417Y-4.4713
X8.4299Y-3.7213
X8.6506Y-2.3222
X8.7421Y-3.0722
X8.8364Y-4.5713
X8.9006Y-2.2222
X8.9295Y-3.8213
X8.9921Y-2.9722
X9.0864Y-4.4713
X9.1795Y-3.7213
T5
X4.2027Y-4.9462
X4.9536Y-4.9482
X5.8936Y-4.9482
X6.5487Y-4.9472
X7.4887Y-4.9472
X8.1397Y-4.9462
T6
X1.7667Y-2.4222
X1.8611Y-4.6713
X1.8612Y-3.1722
X2.0492Y-3.9213
X2.1429Y-1.6717
X2.5166Y-2.4222
X2.7035Y-4.6713
X2.7047Y-3.1722
X2.8929Y-1.6717
X3.0797Y-3.9222
X3.2667Y-2.4222
X3.4528Y-4.6713
X3.4557Y-3.1703
X3.6429Y-1.6717
X3.8307Y-3.9213
X4.0167Y-2.4222
X4.2027Y-4.3462
X4.2037Y-4.6742
X4.2047Y-3.1722
X4.3933Y-1.6717
X4.5797Y-3.921
X4.7657Y-2.4222
X4.9536Y-4.3482
X4.9547Y-3.1703
X5.1433Y-1.6717
X5.3297Y-3.9213
X5.4236Y-4.6732
X5.5157Y-2.4222
X5.7047Y-3.1713
X5.8933Y-1.6717
X5.8936Y-4.3482
X6.0807Y-3.9213
X6.1712Y-4.6712
X6.2667Y-2.4222
X6.4537Y-3.1722
X6.5487Y-4.3472
X6.8297Y-3.9213
X7.0167Y-2.4222
X7.0187Y-4.6722
X7.2037Y-3.1722
X7.4887Y-4.3472
X7.5807Y-3.9222
X7.7667Y-2.4222
X7.9547Y-3.1732
X8.1397Y-4.3462
X8.1417Y-4.6713
X8.3299Y-3.9213
X8.8006Y-2.4222
X8.8921Y-3.1722
X8.9864Y-4.6713
X9.0795Y-3.9213
T0
M30
