G04 #@! TF.GenerationSoftware,KiCad,Pcbnew,(6.0.1-0)*
G04 #@! TF.CreationDate,2022-03-04T22:26:12-07:00*
G04 #@! TF.ProjectId,qazivan_m,71617a69-7661-46e5-9f6d-2e6b69636164,rev?*
G04 #@! TF.SameCoordinates,Original*
G04 #@! TF.FileFunction,Profile,NP*
%FSLAX46Y46*%
G04 Gerber Fmt 4.6, Leading zero omitted, Abs format (unit mm)*
G04 Created by KiCad (PCBNEW (6.0.1-0)) date 2022-03-04 22:26:12*
%MOMM*%
%LPD*%
G01*
G04 APERTURE LIST*
G04 #@! TA.AperFunction,Profile*
%ADD10C,0.200000*%
G04 #@! TD*
G04 APERTURE END LIST*
D10*
X44560531Y-52340000D02*
G75*
G03*
X44891250Y-52465000I330719J375001D01*
G01*
X133616250Y-51465000D02*
G75*
G03*
X133616250Y-52465000I0J-500000D01*
G01*
X160216250Y-51465000D02*
G75*
G03*
X161716250Y-49965000I-1J1500001D01*
G01*
X240153750Y-53465000D02*
X240153750Y-126665000D01*
X238653750Y-128165000D02*
G75*
G03*
X240153750Y-126665000I-1J1500001D01*
G01*
X44560531Y-52340000D02*
G75*
G03*
X43568374Y-51965000I-992155J-1124995D01*
G01*
X35366250Y-126665000D02*
G75*
G03*
X36866250Y-128165000I1500001J1D01*
G01*
X70466250Y-52465000D02*
G75*
G03*
X70466250Y-51465000I0J500000D01*
G01*
X163039126Y-51965000D02*
X238653750Y-51965000D01*
X146666250Y-52465000D02*
X133616250Y-52465000D01*
X163039126Y-51965000D02*
G75*
G03*
X162046969Y-52340000I-2J-1499995D01*
G01*
X44891250Y-49965000D02*
X44891250Y-34415000D01*
X89516250Y-52465000D02*
G75*
G03*
X89516250Y-51465000I0J500000D01*
G01*
X161716250Y-52465000D02*
G75*
G03*
X162046969Y-52340000I0J500001D01*
G01*
X146666250Y-52465000D02*
G75*
G03*
X146666250Y-51465000I0J500000D01*
G01*
X95516250Y-51465000D02*
G75*
G03*
X95516250Y-52465000I0J-500000D01*
G01*
X76466250Y-51465000D02*
X89516250Y-51465000D01*
X35366250Y-126665000D02*
X35366250Y-53465000D01*
X51416250Y-51465000D02*
X46391250Y-51465000D01*
X44891250Y-49965000D02*
G75*
G03*
X46391250Y-51465000I1500001J1D01*
G01*
X238653750Y-128165000D02*
X36866250Y-128165000D01*
X161716250Y-34415000D02*
X161716250Y-49965000D01*
X36866250Y-51965000D02*
X43568374Y-51965000D01*
X95516250Y-51465000D02*
X108566250Y-51465000D01*
X114566250Y-51465000D02*
X127616250Y-51465000D01*
X240153750Y-53465000D02*
G75*
G03*
X238653750Y-51965000I-1500001J-1D01*
G01*
X46391250Y-32915000D02*
G75*
G03*
X44891250Y-34415000I1J-1500001D01*
G01*
X70466250Y-52465000D02*
X57416250Y-52465000D01*
X152666250Y-51465000D02*
G75*
G03*
X152666250Y-52465000I0J-500000D01*
G01*
X76466250Y-51465000D02*
G75*
G03*
X76466250Y-52465000I0J-500000D01*
G01*
X108566250Y-52465000D02*
X95516250Y-52465000D01*
X36866250Y-51965000D02*
G75*
G03*
X35366250Y-53465000I1J-1500001D01*
G01*
X89516250Y-52465000D02*
X76466250Y-52465000D01*
X46391250Y-32915000D02*
X160216250Y-32915000D01*
X57416250Y-51465000D02*
G75*
G03*
X57416250Y-52465000I0J-500000D01*
G01*
X152666250Y-52465000D02*
X161716250Y-52465000D01*
X127616250Y-52465000D02*
X114566250Y-52465000D01*
X51416250Y-52465000D02*
G75*
G03*
X51416250Y-51465000I0J500000D01*
G01*
X160216250Y-51465000D02*
X152666250Y-51465000D01*
X44891250Y-52465000D02*
X51416250Y-52465000D01*
X161716250Y-34415000D02*
G75*
G03*
X160216250Y-32915000I-1500001J-1D01*
G01*
X133616250Y-51465000D02*
X146666250Y-51465000D01*
X127616250Y-52465000D02*
G75*
G03*
X127616250Y-51465000I0J500000D01*
G01*
X57416250Y-51465000D02*
X70466250Y-51465000D01*
X108566250Y-52465000D02*
G75*
G03*
X108566250Y-51465000I0J500000D01*
G01*
X114566250Y-51465000D02*
G75*
G03*
X114566250Y-52465000I0J-500000D01*
G01*
M02*
