G04 #@! TF.GenerationSoftware,KiCad,Pcbnew,(6.0.1-0)*
G04 #@! TF.CreationDate,2022-03-05T23:32:24-07:00*
G04 #@! TF.ProjectId,qazivan_m,71617a69-7661-46e5-9f6d-2e6b69636164,rev?*
G04 #@! TF.SameCoordinates,Original*
G04 #@! TF.FileFunction,Legend,Bot*
G04 #@! TF.FilePolarity,Positive*
%FSLAX46Y46*%
G04 Gerber Fmt 4.6, Leading zero omitted, Abs format (unit mm)*
G04 Created by KiCad (PCBNEW (6.0.1-0)) date 2022-03-05 23:32:24*
%MOMM*%
%LPD*%
G01*
G04 APERTURE LIST*
%ADD10C,0.120000*%
%ADD11C,0.150000*%
%ADD12C,0.250000*%
G04 APERTURE END LIST*
D10*
X208994000Y-70380000D02*
G75*
G03*
X208994000Y-70380000I-254000J0D01*
G01*
X48864000Y-93240000D02*
G75*
G03*
X48864000Y-93240000I-254000J0D01*
G01*
D11*
X55427380Y-65486904D02*
X54427380Y-65486904D01*
X54427380Y-65725000D01*
X54475000Y-65867857D01*
X54570238Y-65963095D01*
X54665476Y-66010714D01*
X54855952Y-66058333D01*
X54998809Y-66058333D01*
X55189285Y-66010714D01*
X55284523Y-65963095D01*
X55379761Y-65867857D01*
X55427380Y-65725000D01*
X55427380Y-65486904D01*
X55427380Y-67010714D02*
X55427380Y-66439285D01*
X55427380Y-66725000D02*
X54427380Y-66725000D01*
X54570238Y-66629761D01*
X54665476Y-66534523D01*
X54713095Y-66439285D01*
X74522340Y-65510184D02*
X73522340Y-65510184D01*
X73522340Y-65748280D01*
X73569960Y-65891137D01*
X73665198Y-65986375D01*
X73760436Y-66033994D01*
X73950912Y-66081613D01*
X74093769Y-66081613D01*
X74284245Y-66033994D01*
X74379483Y-65986375D01*
X74474721Y-65891137D01*
X74522340Y-65748280D01*
X74522340Y-65510184D01*
X73617579Y-66462565D02*
X73569960Y-66510184D01*
X73522340Y-66605422D01*
X73522340Y-66843518D01*
X73569960Y-66938756D01*
X73617579Y-66986375D01*
X73712817Y-67033994D01*
X73808055Y-67033994D01*
X73950912Y-66986375D01*
X74522340Y-66414946D01*
X74522340Y-67033994D01*
X93546940Y-65510184D02*
X92546940Y-65510184D01*
X92546940Y-65748280D01*
X92594560Y-65891137D01*
X92689798Y-65986375D01*
X92785036Y-66033994D01*
X92975512Y-66081613D01*
X93118369Y-66081613D01*
X93308845Y-66033994D01*
X93404083Y-65986375D01*
X93499321Y-65891137D01*
X93546940Y-65748280D01*
X93546940Y-65510184D01*
X92546940Y-66414946D02*
X92546940Y-67033994D01*
X92927893Y-66700660D01*
X92927893Y-66843518D01*
X92975512Y-66938756D01*
X93023131Y-66986375D01*
X93118369Y-67033994D01*
X93356464Y-67033994D01*
X93451702Y-66986375D01*
X93499321Y-66938756D01*
X93546940Y-66843518D01*
X93546940Y-66557803D01*
X93499321Y-66462565D01*
X93451702Y-66414946D01*
X112602020Y-65510184D02*
X111602020Y-65510184D01*
X111602020Y-65748280D01*
X111649640Y-65891137D01*
X111744878Y-65986375D01*
X111840116Y-66033994D01*
X112030592Y-66081613D01*
X112173449Y-66081613D01*
X112363925Y-66033994D01*
X112459163Y-65986375D01*
X112554401Y-65891137D01*
X112602020Y-65748280D01*
X112602020Y-65510184D01*
X111935354Y-66938756D02*
X112602020Y-66938756D01*
X111554401Y-66700660D02*
X112268687Y-66462565D01*
X112268687Y-67081613D01*
X131657100Y-65510184D02*
X130657100Y-65510184D01*
X130657100Y-65748280D01*
X130704720Y-65891137D01*
X130799958Y-65986375D01*
X130895196Y-66033994D01*
X131085672Y-66081613D01*
X131228529Y-66081613D01*
X131419005Y-66033994D01*
X131514243Y-65986375D01*
X131609481Y-65891137D01*
X131657100Y-65748280D01*
X131657100Y-65510184D01*
X130657100Y-66986375D02*
X130657100Y-66510184D01*
X131133291Y-66462565D01*
X131085672Y-66510184D01*
X131038053Y-66605422D01*
X131038053Y-66843518D01*
X131085672Y-66938756D01*
X131133291Y-66986375D01*
X131228529Y-67033994D01*
X131466624Y-67033994D01*
X131561862Y-66986375D01*
X131609481Y-66938756D01*
X131657100Y-66843518D01*
X131657100Y-66605422D01*
X131609481Y-66510184D01*
X131561862Y-66462565D01*
X169746940Y-65520344D02*
X168746940Y-65520344D01*
X168746940Y-65758440D01*
X168794560Y-65901297D01*
X168889798Y-65996535D01*
X168985036Y-66044154D01*
X169175512Y-66091773D01*
X169318369Y-66091773D01*
X169508845Y-66044154D01*
X169604083Y-65996535D01*
X169699321Y-65901297D01*
X169746940Y-65758440D01*
X169746940Y-65520344D01*
X168746940Y-66425106D02*
X168746940Y-67091773D01*
X169746940Y-66663201D01*
X188802380Y-65486904D02*
X187802380Y-65486904D01*
X187802380Y-65725000D01*
X187850000Y-65867857D01*
X187945238Y-65963095D01*
X188040476Y-66010714D01*
X188230952Y-66058333D01*
X188373809Y-66058333D01*
X188564285Y-66010714D01*
X188659523Y-65963095D01*
X188754761Y-65867857D01*
X188802380Y-65725000D01*
X188802380Y-65486904D01*
X188230952Y-66629761D02*
X188183333Y-66534523D01*
X188135714Y-66486904D01*
X188040476Y-66439285D01*
X187992857Y-66439285D01*
X187897619Y-66486904D01*
X187850000Y-66534523D01*
X187802380Y-66629761D01*
X187802380Y-66820238D01*
X187850000Y-66915476D01*
X187897619Y-66963095D01*
X187992857Y-67010714D01*
X188040476Y-67010714D01*
X188135714Y-66963095D01*
X188183333Y-66915476D01*
X188230952Y-66820238D01*
X188230952Y-66629761D01*
X188278571Y-66534523D01*
X188326190Y-66486904D01*
X188421428Y-66439285D01*
X188611904Y-66439285D01*
X188707142Y-66486904D01*
X188754761Y-66534523D01*
X188802380Y-66629761D01*
X188802380Y-66820238D01*
X188754761Y-66915476D01*
X188707142Y-66963095D01*
X188611904Y-67010714D01*
X188421428Y-67010714D01*
X188326190Y-66963095D01*
X188278571Y-66915476D01*
X188230952Y-66820238D01*
X198699380Y-65428904D02*
X197699380Y-65428904D01*
X197699380Y-65667000D01*
X197747000Y-65809857D01*
X197842238Y-65905095D01*
X197937476Y-65952714D01*
X198127952Y-66000333D01*
X198270809Y-66000333D01*
X198461285Y-65952714D01*
X198556523Y-65905095D01*
X198651761Y-65809857D01*
X198699380Y-65667000D01*
X198699380Y-65428904D01*
X198699380Y-66476523D02*
X198699380Y-66667000D01*
X198651761Y-66762238D01*
X198604142Y-66809857D01*
X198461285Y-66905095D01*
X198270809Y-66952714D01*
X197889857Y-66952714D01*
X197794619Y-66905095D01*
X197747000Y-66857476D01*
X197699380Y-66762238D01*
X197699380Y-66571761D01*
X197747000Y-66476523D01*
X197794619Y-66428904D01*
X197889857Y-66381285D01*
X198127952Y-66381285D01*
X198223190Y-66428904D01*
X198270809Y-66476523D01*
X198318428Y-66571761D01*
X198318428Y-66762238D01*
X198270809Y-66857476D01*
X198223190Y-66905095D01*
X198127952Y-66952714D01*
X234132380Y-64955714D02*
X233132380Y-64955714D01*
X233132380Y-65193809D01*
X233180000Y-65336666D01*
X233275238Y-65431904D01*
X233370476Y-65479523D01*
X233560952Y-65527142D01*
X233703809Y-65527142D01*
X233894285Y-65479523D01*
X233989523Y-65431904D01*
X234084761Y-65336666D01*
X234132380Y-65193809D01*
X234132380Y-64955714D01*
X234132380Y-66479523D02*
X234132380Y-65908095D01*
X234132380Y-66193809D02*
X233132380Y-66193809D01*
X233275238Y-66098571D01*
X233370476Y-66003333D01*
X233418095Y-65908095D01*
X233132380Y-67098571D02*
X233132380Y-67193809D01*
X233180000Y-67289047D01*
X233227619Y-67336666D01*
X233322857Y-67384285D01*
X233513333Y-67431904D01*
X233751428Y-67431904D01*
X233941904Y-67384285D01*
X234037142Y-67336666D01*
X234084761Y-67289047D01*
X234132380Y-67193809D01*
X234132380Y-67098571D01*
X234084761Y-67003333D01*
X234037142Y-66955714D01*
X233941904Y-66908095D01*
X233751428Y-66860476D01*
X233513333Y-66860476D01*
X233322857Y-66908095D01*
X233227619Y-66955714D01*
X233180000Y-67003333D01*
X233132380Y-67098571D01*
X196422380Y-69765714D02*
X195422380Y-69765714D01*
X195422380Y-70003809D01*
X195470000Y-70146666D01*
X195565238Y-70241904D01*
X195660476Y-70289523D01*
X195850952Y-70337142D01*
X195993809Y-70337142D01*
X196184285Y-70289523D01*
X196279523Y-70241904D01*
X196374761Y-70146666D01*
X196422380Y-70003809D01*
X196422380Y-69765714D01*
X196422380Y-71289523D02*
X196422380Y-70718095D01*
X196422380Y-71003809D02*
X195422380Y-71003809D01*
X195565238Y-70908571D01*
X195660476Y-70813333D01*
X195708095Y-70718095D01*
X196422380Y-71765714D02*
X196422380Y-71956190D01*
X196374761Y-72051428D01*
X196327142Y-72099047D01*
X196184285Y-72194285D01*
X195993809Y-72241904D01*
X195612857Y-72241904D01*
X195517619Y-72194285D01*
X195470000Y-72146666D01*
X195422380Y-72051428D01*
X195422380Y-71860952D01*
X195470000Y-71765714D01*
X195517619Y-71718095D01*
X195612857Y-71670476D01*
X195850952Y-71670476D01*
X195946190Y-71718095D01*
X195993809Y-71765714D01*
X196041428Y-71860952D01*
X196041428Y-72051428D01*
X195993809Y-72146666D01*
X195946190Y-72194285D01*
X195850952Y-72241904D01*
X237522380Y-72545714D02*
X236522380Y-72545714D01*
X236522380Y-72783809D01*
X236570000Y-72926666D01*
X236665238Y-73021904D01*
X236760476Y-73069523D01*
X236950952Y-73117142D01*
X237093809Y-73117142D01*
X237284285Y-73069523D01*
X237379523Y-73021904D01*
X237474761Y-72926666D01*
X237522380Y-72783809D01*
X237522380Y-72545714D01*
X236617619Y-73498095D02*
X236570000Y-73545714D01*
X236522380Y-73640952D01*
X236522380Y-73879047D01*
X236570000Y-73974285D01*
X236617619Y-74021904D01*
X236712857Y-74069523D01*
X236808095Y-74069523D01*
X236950952Y-74021904D01*
X237522380Y-73450476D01*
X237522380Y-74069523D01*
X236522380Y-74688571D02*
X236522380Y-74783809D01*
X236570000Y-74879047D01*
X236617619Y-74926666D01*
X236712857Y-74974285D01*
X236903333Y-75021904D01*
X237141428Y-75021904D01*
X237331904Y-74974285D01*
X237427142Y-74926666D01*
X237474761Y-74879047D01*
X237522380Y-74783809D01*
X237522380Y-74688571D01*
X237474761Y-74593333D01*
X237427142Y-74545714D01*
X237331904Y-74498095D01*
X237141428Y-74450476D01*
X236903333Y-74450476D01*
X236712857Y-74498095D01*
X236617619Y-74545714D01*
X236570000Y-74593333D01*
X236522380Y-74688571D01*
X88726020Y-103128914D02*
X87726020Y-103128914D01*
X87726020Y-103367009D01*
X87773640Y-103509866D01*
X87868878Y-103605104D01*
X87964116Y-103652723D01*
X88154592Y-103700342D01*
X88297449Y-103700342D01*
X88487925Y-103652723D01*
X88583163Y-103605104D01*
X88678401Y-103509866D01*
X88726020Y-103367009D01*
X88726020Y-103128914D01*
X87821259Y-104081295D02*
X87773640Y-104128914D01*
X87726020Y-104224152D01*
X87726020Y-104462247D01*
X87773640Y-104557485D01*
X87821259Y-104605104D01*
X87916497Y-104652723D01*
X88011735Y-104652723D01*
X88154592Y-104605104D01*
X88726020Y-104033676D01*
X88726020Y-104652723D01*
X87821259Y-105033676D02*
X87773640Y-105081295D01*
X87726020Y-105176533D01*
X87726020Y-105414628D01*
X87773640Y-105509866D01*
X87821259Y-105557485D01*
X87916497Y-105605104D01*
X88011735Y-105605104D01*
X88154592Y-105557485D01*
X88726020Y-104986057D01*
X88726020Y-105605104D01*
X107857300Y-103128914D02*
X106857300Y-103128914D01*
X106857300Y-103367009D01*
X106904920Y-103509866D01*
X107000158Y-103605104D01*
X107095396Y-103652723D01*
X107285872Y-103700342D01*
X107428729Y-103700342D01*
X107619205Y-103652723D01*
X107714443Y-103605104D01*
X107809681Y-103509866D01*
X107857300Y-103367009D01*
X107857300Y-103128914D01*
X106952539Y-104081295D02*
X106904920Y-104128914D01*
X106857300Y-104224152D01*
X106857300Y-104462247D01*
X106904920Y-104557485D01*
X106952539Y-104605104D01*
X107047777Y-104652723D01*
X107143015Y-104652723D01*
X107285872Y-104605104D01*
X107857300Y-104033676D01*
X107857300Y-104652723D01*
X106857300Y-104986057D02*
X106857300Y-105605104D01*
X107238253Y-105271771D01*
X107238253Y-105414628D01*
X107285872Y-105509866D01*
X107333491Y-105557485D01*
X107428729Y-105605104D01*
X107666824Y-105605104D01*
X107762062Y-105557485D01*
X107809681Y-105509866D01*
X107857300Y-105414628D01*
X107857300Y-105128914D01*
X107809681Y-105033676D01*
X107762062Y-104986057D01*
X126861580Y-103083194D02*
X125861580Y-103083194D01*
X125861580Y-103321289D01*
X125909200Y-103464146D01*
X126004438Y-103559384D01*
X126099676Y-103607003D01*
X126290152Y-103654622D01*
X126433009Y-103654622D01*
X126623485Y-103607003D01*
X126718723Y-103559384D01*
X126813961Y-103464146D01*
X126861580Y-103321289D01*
X126861580Y-103083194D01*
X125956819Y-104035575D02*
X125909200Y-104083194D01*
X125861580Y-104178432D01*
X125861580Y-104416527D01*
X125909200Y-104511765D01*
X125956819Y-104559384D01*
X126052057Y-104607003D01*
X126147295Y-104607003D01*
X126290152Y-104559384D01*
X126861580Y-103987956D01*
X126861580Y-104607003D01*
X126194914Y-105464146D02*
X126861580Y-105464146D01*
X125813961Y-105226051D02*
X126528247Y-104987956D01*
X126528247Y-105607003D01*
X145962380Y-103128914D02*
X144962380Y-103128914D01*
X144962380Y-103367009D01*
X145010000Y-103509866D01*
X145105238Y-103605104D01*
X145200476Y-103652723D01*
X145390952Y-103700342D01*
X145533809Y-103700342D01*
X145724285Y-103652723D01*
X145819523Y-103605104D01*
X145914761Y-103509866D01*
X145962380Y-103367009D01*
X145962380Y-103128914D01*
X145057619Y-104081295D02*
X145010000Y-104128914D01*
X144962380Y-104224152D01*
X144962380Y-104462247D01*
X145010000Y-104557485D01*
X145057619Y-104605104D01*
X145152857Y-104652723D01*
X145248095Y-104652723D01*
X145390952Y-104605104D01*
X145962380Y-104033676D01*
X145962380Y-104652723D01*
X144962380Y-105557485D02*
X144962380Y-105081295D01*
X145438571Y-105033676D01*
X145390952Y-105081295D01*
X145343333Y-105176533D01*
X145343333Y-105414628D01*
X145390952Y-105509866D01*
X145438571Y-105557485D01*
X145533809Y-105605104D01*
X145771904Y-105605104D01*
X145867142Y-105557485D01*
X145914761Y-105509866D01*
X145962380Y-105414628D01*
X145962380Y-105176533D01*
X145914761Y-105081295D01*
X145867142Y-105033676D01*
X164997140Y-103103514D02*
X163997140Y-103103514D01*
X163997140Y-103341609D01*
X164044760Y-103484466D01*
X164139998Y-103579704D01*
X164235236Y-103627323D01*
X164425712Y-103674942D01*
X164568569Y-103674942D01*
X164759045Y-103627323D01*
X164854283Y-103579704D01*
X164949521Y-103484466D01*
X164997140Y-103341609D01*
X164997140Y-103103514D01*
X164092379Y-104055895D02*
X164044760Y-104103514D01*
X163997140Y-104198752D01*
X163997140Y-104436847D01*
X164044760Y-104532085D01*
X164092379Y-104579704D01*
X164187617Y-104627323D01*
X164282855Y-104627323D01*
X164425712Y-104579704D01*
X164997140Y-104008276D01*
X164997140Y-104627323D01*
X163997140Y-105484466D02*
X163997140Y-105293990D01*
X164044760Y-105198752D01*
X164092379Y-105151133D01*
X164235236Y-105055895D01*
X164425712Y-105008276D01*
X164806664Y-105008276D01*
X164901902Y-105055895D01*
X164949521Y-105103514D01*
X164997140Y-105198752D01*
X164997140Y-105389228D01*
X164949521Y-105484466D01*
X164901902Y-105532085D01*
X164806664Y-105579704D01*
X164568569Y-105579704D01*
X164473331Y-105532085D01*
X164425712Y-105484466D01*
X164378093Y-105389228D01*
X164378093Y-105198752D01*
X164425712Y-105103514D01*
X164473331Y-105055895D01*
X164568569Y-105008276D01*
X203071740Y-103164474D02*
X202071740Y-103164474D01*
X202071740Y-103402569D01*
X202119360Y-103545426D01*
X202214598Y-103640664D01*
X202309836Y-103688283D01*
X202500312Y-103735902D01*
X202643169Y-103735902D01*
X202833645Y-103688283D01*
X202928883Y-103640664D01*
X203024121Y-103545426D01*
X203071740Y-103402569D01*
X203071740Y-103164474D01*
X202166979Y-104116855D02*
X202119360Y-104164474D01*
X202071740Y-104259712D01*
X202071740Y-104497807D01*
X202119360Y-104593045D01*
X202166979Y-104640664D01*
X202262217Y-104688283D01*
X202357455Y-104688283D01*
X202500312Y-104640664D01*
X203071740Y-104069236D01*
X203071740Y-104688283D01*
X202500312Y-105259712D02*
X202452693Y-105164474D01*
X202405074Y-105116855D01*
X202309836Y-105069236D01*
X202262217Y-105069236D01*
X202166979Y-105116855D01*
X202119360Y-105164474D01*
X202071740Y-105259712D01*
X202071740Y-105450188D01*
X202119360Y-105545426D01*
X202166979Y-105593045D01*
X202262217Y-105640664D01*
X202309836Y-105640664D01*
X202405074Y-105593045D01*
X202452693Y-105545426D01*
X202500312Y-105450188D01*
X202500312Y-105259712D01*
X202547931Y-105164474D01*
X202595550Y-105116855D01*
X202690788Y-105069236D01*
X202881264Y-105069236D01*
X202976502Y-105116855D01*
X203024121Y-105164474D01*
X203071740Y-105259712D01*
X203071740Y-105450188D01*
X203024121Y-105545426D01*
X202976502Y-105593045D01*
X202881264Y-105640664D01*
X202690788Y-105640664D01*
X202595550Y-105593045D01*
X202547931Y-105545426D01*
X202500312Y-105450188D01*
X235982259Y-103055714D02*
X234982259Y-103055714D01*
X234982259Y-103293809D01*
X235029879Y-103436666D01*
X235125117Y-103531904D01*
X235220355Y-103579523D01*
X235410831Y-103627142D01*
X235553688Y-103627142D01*
X235744164Y-103579523D01*
X235839402Y-103531904D01*
X235934640Y-103436666D01*
X235982259Y-103293809D01*
X235982259Y-103055714D01*
X235077498Y-104008095D02*
X235029879Y-104055714D01*
X234982259Y-104150952D01*
X234982259Y-104389047D01*
X235029879Y-104484285D01*
X235077498Y-104531904D01*
X235172736Y-104579523D01*
X235267974Y-104579523D01*
X235410831Y-104531904D01*
X235982259Y-103960476D01*
X235982259Y-104579523D01*
X235982259Y-105055714D02*
X235982259Y-105246190D01*
X235934640Y-105341428D01*
X235887021Y-105389047D01*
X235744164Y-105484285D01*
X235553688Y-105531904D01*
X235172736Y-105531904D01*
X235077498Y-105484285D01*
X235029879Y-105436666D01*
X234982259Y-105341428D01*
X234982259Y-105150952D01*
X235029879Y-105055714D01*
X235077498Y-105008095D01*
X235172736Y-104960476D01*
X235410831Y-104960476D01*
X235506069Y-105008095D01*
X235553688Y-105055714D01*
X235601307Y-105150952D01*
X235601307Y-105341428D01*
X235553688Y-105436666D01*
X235506069Y-105484285D01*
X235410831Y-105531904D01*
X59204285Y-114632380D02*
X59204285Y-113632380D01*
X58966190Y-113632380D01*
X58823333Y-113680000D01*
X58728095Y-113775238D01*
X58680476Y-113870476D01*
X58632857Y-114060952D01*
X58632857Y-114203809D01*
X58680476Y-114394285D01*
X58728095Y-114489523D01*
X58823333Y-114584761D01*
X58966190Y-114632380D01*
X59204285Y-114632380D01*
X58299523Y-113632380D02*
X57680476Y-113632380D01*
X58013809Y-114013333D01*
X57870952Y-114013333D01*
X57775714Y-114060952D01*
X57728095Y-114108571D01*
X57680476Y-114203809D01*
X57680476Y-114441904D01*
X57728095Y-114537142D01*
X57775714Y-114584761D01*
X57870952Y-114632380D01*
X58156666Y-114632380D01*
X58251904Y-114584761D01*
X58299523Y-114537142D01*
X57061428Y-113632380D02*
X56966190Y-113632380D01*
X56870952Y-113680000D01*
X56823333Y-113727619D01*
X56775714Y-113822857D01*
X56728095Y-114013333D01*
X56728095Y-114251428D01*
X56775714Y-114441904D01*
X56823333Y-114537142D01*
X56870952Y-114584761D01*
X56966190Y-114632380D01*
X57061428Y-114632380D01*
X57156666Y-114584761D01*
X57204285Y-114537142D01*
X57251904Y-114441904D01*
X57299523Y-114251428D01*
X57299523Y-114013333D01*
X57251904Y-113822857D01*
X57204285Y-113727619D01*
X57156666Y-113680000D01*
X57061428Y-113632380D01*
X76052380Y-107785714D02*
X75052380Y-107785714D01*
X75052380Y-108023809D01*
X75100000Y-108166666D01*
X75195238Y-108261904D01*
X75290476Y-108309523D01*
X75480952Y-108357142D01*
X75623809Y-108357142D01*
X75814285Y-108309523D01*
X75909523Y-108261904D01*
X76004761Y-108166666D01*
X76052380Y-108023809D01*
X76052380Y-107785714D01*
X75052380Y-108690476D02*
X75052380Y-109309523D01*
X75433333Y-108976190D01*
X75433333Y-109119047D01*
X75480952Y-109214285D01*
X75528571Y-109261904D01*
X75623809Y-109309523D01*
X75861904Y-109309523D01*
X75957142Y-109261904D01*
X76004761Y-109214285D01*
X76052380Y-109119047D01*
X76052380Y-108833333D01*
X76004761Y-108738095D01*
X75957142Y-108690476D01*
X76052380Y-110261904D02*
X76052380Y-109690476D01*
X76052380Y-109976190D02*
X75052380Y-109976190D01*
X75195238Y-109880952D01*
X75290476Y-109785714D01*
X75338095Y-109690476D01*
X138520664Y-107785714D02*
X137520664Y-107785714D01*
X137520664Y-108023809D01*
X137568284Y-108166666D01*
X137663522Y-108261904D01*
X137758760Y-108309523D01*
X137949236Y-108357142D01*
X138092093Y-108357142D01*
X138282569Y-108309523D01*
X138377807Y-108261904D01*
X138473045Y-108166666D01*
X138520664Y-108023809D01*
X138520664Y-107785714D01*
X137520664Y-108690476D02*
X137520664Y-109309523D01*
X137901617Y-108976190D01*
X137901617Y-109119047D01*
X137949236Y-109214285D01*
X137996855Y-109261904D01*
X138092093Y-109309523D01*
X138330188Y-109309523D01*
X138425426Y-109261904D01*
X138473045Y-109214285D01*
X138520664Y-109119047D01*
X138520664Y-108833333D01*
X138473045Y-108738095D01*
X138425426Y-108690476D01*
X137853998Y-110166666D02*
X138520664Y-110166666D01*
X137473045Y-109928571D02*
X138187331Y-109690476D01*
X138187331Y-110309523D01*
X239422380Y-107560714D02*
X238422380Y-107560714D01*
X238422380Y-107798809D01*
X238470000Y-107941666D01*
X238565238Y-108036904D01*
X238660476Y-108084523D01*
X238850952Y-108132142D01*
X238993809Y-108132142D01*
X239184285Y-108084523D01*
X239279523Y-108036904D01*
X239374761Y-107941666D01*
X239422380Y-107798809D01*
X239422380Y-107560714D01*
X238422380Y-108465476D02*
X238422380Y-109084523D01*
X238803333Y-108751190D01*
X238803333Y-108894047D01*
X238850952Y-108989285D01*
X238898571Y-109036904D01*
X238993809Y-109084523D01*
X239231904Y-109084523D01*
X239327142Y-109036904D01*
X239374761Y-108989285D01*
X239422380Y-108894047D01*
X239422380Y-108608333D01*
X239374761Y-108513095D01*
X239327142Y-108465476D01*
X238422380Y-109417857D02*
X238422380Y-110084523D01*
X239422380Y-109655952D01*
X40196666Y-99252380D02*
X40530000Y-98776190D01*
X40768095Y-99252380D02*
X40768095Y-98252380D01*
X40387142Y-98252380D01*
X40291904Y-98300000D01*
X40244285Y-98347619D01*
X40196666Y-98442857D01*
X40196666Y-98585714D01*
X40244285Y-98680952D01*
X40291904Y-98728571D01*
X40387142Y-98776190D01*
X40768095Y-98776190D01*
X39244285Y-99252380D02*
X39815714Y-99252380D01*
X39530000Y-99252380D02*
X39530000Y-98252380D01*
X39625238Y-98395238D01*
X39720476Y-98490476D01*
X39815714Y-98538095D01*
X50263553Y-94469881D02*
X49926835Y-94806599D01*
X50869644Y-94335194D02*
X50263553Y-94469881D01*
X50398240Y-93863790D01*
X49085042Y-93964805D02*
X49489103Y-94368866D01*
X49287072Y-94166835D02*
X49994179Y-93459729D01*
X49960507Y-93628087D01*
X49960507Y-93762774D01*
X49994179Y-93863790D01*
X184027380Y-103110714D02*
X183027380Y-103110714D01*
X183027380Y-103348809D01*
X183075000Y-103491666D01*
X183170238Y-103586904D01*
X183265476Y-103634523D01*
X183455952Y-103682142D01*
X183598809Y-103682142D01*
X183789285Y-103634523D01*
X183884523Y-103586904D01*
X183979761Y-103491666D01*
X184027380Y-103348809D01*
X184027380Y-103110714D01*
X183122619Y-104063095D02*
X183075000Y-104110714D01*
X183027380Y-104205952D01*
X183027380Y-104444047D01*
X183075000Y-104539285D01*
X183122619Y-104586904D01*
X183217857Y-104634523D01*
X183313095Y-104634523D01*
X183455952Y-104586904D01*
X184027380Y-104015476D01*
X184027380Y-104634523D01*
X183027380Y-104967857D02*
X183027380Y-105634523D01*
X184027380Y-105205952D01*
X66840312Y-95745389D02*
X66840312Y-95812732D01*
X66907656Y-95947419D01*
X66975000Y-96014763D01*
X67109687Y-96082106D01*
X67244374Y-96082106D01*
X67345389Y-96048435D01*
X67513748Y-95947419D01*
X67614763Y-95846404D01*
X67715778Y-95678045D01*
X67749450Y-95577030D01*
X67749450Y-95442343D01*
X67682106Y-95307656D01*
X67614763Y-95240312D01*
X67480076Y-95172969D01*
X67412732Y-95172969D01*
X67244374Y-94869923D02*
X66806641Y-94432190D01*
X66772969Y-94937267D01*
X66671954Y-94836251D01*
X66570938Y-94802580D01*
X66503595Y-94802580D01*
X66402580Y-94836251D01*
X66234221Y-95004610D01*
X66200549Y-95105625D01*
X66200549Y-95172969D01*
X66234221Y-95273984D01*
X66436251Y-95476015D01*
X66537267Y-95509687D01*
X66604610Y-95509687D01*
X68215312Y-90070389D02*
X68215312Y-90137732D01*
X68282656Y-90272419D01*
X68350000Y-90339763D01*
X68484687Y-90407106D01*
X68619374Y-90407106D01*
X68720389Y-90373435D01*
X68888748Y-90272419D01*
X68989763Y-90171404D01*
X69090778Y-90003045D01*
X69124450Y-89902030D01*
X69124450Y-89767343D01*
X69057106Y-89632656D01*
X68989763Y-89565312D01*
X68855076Y-89497969D01*
X68787732Y-89497969D01*
X68013282Y-89060236D02*
X67541877Y-89531641D01*
X68451015Y-88959221D02*
X68114297Y-89632656D01*
X67676564Y-89194923D01*
X58556666Y-73485627D02*
X58890000Y-73009437D01*
X59128095Y-73485627D02*
X59128095Y-72485627D01*
X58747142Y-72485627D01*
X58651904Y-72533247D01*
X58604285Y-72580866D01*
X58556666Y-72676104D01*
X58556666Y-72818961D01*
X58604285Y-72914199D01*
X58651904Y-72961818D01*
X58747142Y-73009437D01*
X59128095Y-73009437D01*
X57699523Y-72485627D02*
X57890000Y-72485627D01*
X57985238Y-72533247D01*
X58032857Y-72580866D01*
X58128095Y-72723723D01*
X58175714Y-72914199D01*
X58175714Y-73295151D01*
X58128095Y-73390389D01*
X58080476Y-73438008D01*
X57985238Y-73485627D01*
X57794761Y-73485627D01*
X57699523Y-73438008D01*
X57651904Y-73390389D01*
X57604285Y-73295151D01*
X57604285Y-73057056D01*
X57651904Y-72961818D01*
X57699523Y-72914199D01*
X57794761Y-72866580D01*
X57985238Y-72866580D01*
X58080476Y-72914199D01*
X58128095Y-72961818D01*
X58175714Y-73057056D01*
X44025312Y-98640389D02*
X44025312Y-98707732D01*
X44092656Y-98842419D01*
X44159999Y-98909763D01*
X44294687Y-98977106D01*
X44429374Y-98977106D01*
X44530389Y-98943435D01*
X44698748Y-98842419D01*
X44799763Y-98741404D01*
X44900778Y-98573045D01*
X44934450Y-98472030D01*
X44934450Y-98337343D01*
X44867106Y-98202656D01*
X44799763Y-98135312D01*
X44665076Y-98067969D01*
X44597732Y-98067969D01*
X44328358Y-97798595D02*
X44328358Y-97731251D01*
X44294687Y-97630236D01*
X44126328Y-97461877D01*
X44025312Y-97428206D01*
X43957969Y-97428206D01*
X43856954Y-97461877D01*
X43789610Y-97529221D01*
X43722267Y-97663908D01*
X43722267Y-98472030D01*
X43284534Y-98034297D01*
X95662380Y-107785714D02*
X94662380Y-107785714D01*
X94662380Y-108023809D01*
X94710000Y-108166666D01*
X94805238Y-108261904D01*
X94900476Y-108309523D01*
X95090952Y-108357142D01*
X95233809Y-108357142D01*
X95424285Y-108309523D01*
X95519523Y-108261904D01*
X95614761Y-108166666D01*
X95662380Y-108023809D01*
X95662380Y-107785714D01*
X94662380Y-108690476D02*
X94662380Y-109309523D01*
X95043333Y-108976190D01*
X95043333Y-109119047D01*
X95090952Y-109214285D01*
X95138571Y-109261904D01*
X95233809Y-109309523D01*
X95471904Y-109309523D01*
X95567142Y-109261904D01*
X95614761Y-109214285D01*
X95662380Y-109119047D01*
X95662380Y-108833333D01*
X95614761Y-108738095D01*
X95567142Y-108690476D01*
X94757619Y-109690476D02*
X94710000Y-109738095D01*
X94662380Y-109833333D01*
X94662380Y-110071428D01*
X94710000Y-110166666D01*
X94757619Y-110214285D01*
X94852857Y-110261904D01*
X94948095Y-110261904D01*
X95090952Y-110214285D01*
X95662380Y-109642857D01*
X95662380Y-110261904D01*
X214972380Y-107785714D02*
X213972380Y-107785714D01*
X213972380Y-108023809D01*
X214020000Y-108166666D01*
X214115238Y-108261904D01*
X214210476Y-108309523D01*
X214400952Y-108357142D01*
X214543809Y-108357142D01*
X214734285Y-108309523D01*
X214829523Y-108261904D01*
X214924761Y-108166666D01*
X214972380Y-108023809D01*
X214972380Y-107785714D01*
X213972380Y-108690476D02*
X213972380Y-109309523D01*
X214353333Y-108976190D01*
X214353333Y-109119047D01*
X214400952Y-109214285D01*
X214448571Y-109261904D01*
X214543809Y-109309523D01*
X214781904Y-109309523D01*
X214877142Y-109261904D01*
X214924761Y-109214285D01*
X214972380Y-109119047D01*
X214972380Y-108833333D01*
X214924761Y-108738095D01*
X214877142Y-108690476D01*
X213972380Y-110166666D02*
X213972380Y-109976190D01*
X214020000Y-109880952D01*
X214067619Y-109833333D01*
X214210476Y-109738095D01*
X214400952Y-109690476D01*
X214781904Y-109690476D01*
X214877142Y-109738095D01*
X214924761Y-109785714D01*
X214972380Y-109880952D01*
X214972380Y-110071428D01*
X214924761Y-110166666D01*
X214877142Y-110214285D01*
X214781904Y-110261904D01*
X214543809Y-110261904D01*
X214448571Y-110214285D01*
X214400952Y-110166666D01*
X214353333Y-110071428D01*
X214353333Y-109880952D01*
X214400952Y-109785714D01*
X214448571Y-109738095D01*
X214543809Y-109690476D01*
X103859495Y-107775714D02*
X102859495Y-107775714D01*
X102859495Y-108013809D01*
X102907115Y-108156666D01*
X103002353Y-108251904D01*
X103097591Y-108299523D01*
X103288067Y-108347142D01*
X103430924Y-108347142D01*
X103621400Y-108299523D01*
X103716638Y-108251904D01*
X103811876Y-108156666D01*
X103859495Y-108013809D01*
X103859495Y-107775714D01*
X102859495Y-108680476D02*
X102859495Y-109299523D01*
X103240448Y-108966190D01*
X103240448Y-109109047D01*
X103288067Y-109204285D01*
X103335686Y-109251904D01*
X103430924Y-109299523D01*
X103669019Y-109299523D01*
X103764257Y-109251904D01*
X103811876Y-109204285D01*
X103859495Y-109109047D01*
X103859495Y-108823333D01*
X103811876Y-108728095D01*
X103764257Y-108680476D01*
X102859495Y-109632857D02*
X102859495Y-110251904D01*
X103240448Y-109918571D01*
X103240448Y-110061428D01*
X103288067Y-110156666D01*
X103335686Y-110204285D01*
X103430924Y-110251904D01*
X103669019Y-110251904D01*
X103764257Y-110204285D01*
X103811876Y-110156666D01*
X103859495Y-110061428D01*
X103859495Y-109775714D01*
X103811876Y-109680476D01*
X103764257Y-109632857D01*
X66863498Y-89338685D02*
X66291078Y-89911105D01*
X66190063Y-89944777D01*
X66122719Y-89944777D01*
X66021704Y-89911105D01*
X65887017Y-89776418D01*
X65853345Y-89675403D01*
X65853345Y-89608059D01*
X65887017Y-89507044D01*
X66459437Y-88934624D01*
X65045223Y-88934624D02*
X65449284Y-89338685D01*
X65247254Y-89136655D02*
X65954360Y-88429548D01*
X65920689Y-88597907D01*
X65920689Y-88732594D01*
X65954360Y-88833609D01*
X56615312Y-78345389D02*
X56615312Y-78412732D01*
X56682656Y-78547419D01*
X56749999Y-78614763D01*
X56884687Y-78682106D01*
X57019374Y-78682106D01*
X57120389Y-78648435D01*
X57288748Y-78547419D01*
X57389763Y-78446404D01*
X57490778Y-78278045D01*
X57524450Y-78177030D01*
X57524450Y-78042343D01*
X57457106Y-77907656D01*
X57389763Y-77840312D01*
X57255076Y-77772969D01*
X57187732Y-77772969D01*
X57019374Y-77469923D02*
X56547969Y-76998519D01*
X56143908Y-78008671D01*
X44691531Y-85895829D02*
X44758874Y-85895829D01*
X44893561Y-85828485D01*
X44960905Y-85761142D01*
X45028248Y-85626454D01*
X45028248Y-85491767D01*
X44994577Y-85390752D01*
X44893561Y-85222393D01*
X44792546Y-85121378D01*
X44624187Y-85020363D01*
X44523172Y-84986691D01*
X44388485Y-84986691D01*
X44253798Y-85054035D01*
X44186454Y-85121378D01*
X44119111Y-85256065D01*
X44119111Y-85323409D01*
X43412004Y-85895829D02*
X43748722Y-85559111D01*
X44119111Y-85862157D01*
X44051767Y-85862157D01*
X43950752Y-85895829D01*
X43782393Y-86064187D01*
X43748722Y-86165203D01*
X43748722Y-86232546D01*
X43782393Y-86333561D01*
X43950752Y-86501920D01*
X44051767Y-86535592D01*
X44119111Y-86535592D01*
X44220126Y-86501920D01*
X44388485Y-86333561D01*
X44422157Y-86232546D01*
X44422157Y-86165203D01*
X180578939Y-107685714D02*
X179578939Y-107685714D01*
X179578939Y-107923809D01*
X179626559Y-108066666D01*
X179721797Y-108161904D01*
X179817035Y-108209523D01*
X180007511Y-108257142D01*
X180150368Y-108257142D01*
X180340844Y-108209523D01*
X180436082Y-108161904D01*
X180531320Y-108066666D01*
X180578939Y-107923809D01*
X180578939Y-107685714D01*
X179578939Y-108590476D02*
X179578939Y-109209523D01*
X179959892Y-108876190D01*
X179959892Y-109019047D01*
X180007511Y-109114285D01*
X180055130Y-109161904D01*
X180150368Y-109209523D01*
X180388463Y-109209523D01*
X180483701Y-109161904D01*
X180531320Y-109114285D01*
X180578939Y-109019047D01*
X180578939Y-108733333D01*
X180531320Y-108638095D01*
X180483701Y-108590476D01*
X179578939Y-110114285D02*
X179578939Y-109638095D01*
X180055130Y-109590476D01*
X180007511Y-109638095D01*
X179959892Y-109733333D01*
X179959892Y-109971428D01*
X180007511Y-110066666D01*
X180055130Y-110114285D01*
X180150368Y-110161904D01*
X180388463Y-110161904D01*
X180483701Y-110114285D01*
X180531320Y-110066666D01*
X180578939Y-109971428D01*
X180578939Y-109733333D01*
X180531320Y-109638095D01*
X180483701Y-109590476D01*
X150597060Y-64897704D02*
X149597060Y-64897704D01*
X149597060Y-65135800D01*
X149644680Y-65278657D01*
X149739918Y-65373895D01*
X149835156Y-65421514D01*
X150025632Y-65469133D01*
X150168489Y-65469133D01*
X150358965Y-65421514D01*
X150454203Y-65373895D01*
X150549441Y-65278657D01*
X150597060Y-65135800D01*
X150597060Y-64897704D01*
X149597060Y-66326276D02*
X149597060Y-66135800D01*
X149644680Y-66040561D01*
X149692299Y-65992942D01*
X149835156Y-65897704D01*
X150025632Y-65850085D01*
X150406584Y-65850085D01*
X150501822Y-65897704D01*
X150549441Y-65945323D01*
X150597060Y-66040561D01*
X150597060Y-66231038D01*
X150549441Y-66326276D01*
X150501822Y-66373895D01*
X150406584Y-66421514D01*
X150168489Y-66421514D01*
X150073251Y-66373895D01*
X150025632Y-66326276D01*
X149978013Y-66231038D01*
X149978013Y-66040561D01*
X150025632Y-65945323D01*
X150073251Y-65897704D01*
X150168489Y-65850085D01*
X207844678Y-62229980D02*
X208178012Y-61753790D01*
X208416107Y-62229980D02*
X208416107Y-61229980D01*
X208035154Y-61229980D01*
X207939916Y-61277600D01*
X207892297Y-61325219D01*
X207844678Y-61420457D01*
X207844678Y-61563314D01*
X207892297Y-61658552D01*
X207939916Y-61706171D01*
X208035154Y-61753790D01*
X208416107Y-61753790D01*
X207463726Y-61325219D02*
X207416107Y-61277600D01*
X207320869Y-61229980D01*
X207082773Y-61229980D01*
X206987535Y-61277600D01*
X206939916Y-61325219D01*
X206892297Y-61420457D01*
X206892297Y-61515695D01*
X206939916Y-61658552D01*
X207511345Y-62229980D01*
X206892297Y-62229980D01*
X207616666Y-71382380D02*
X207950000Y-70906190D01*
X208188095Y-71382380D02*
X208188095Y-70382380D01*
X207807142Y-70382380D01*
X207711904Y-70430000D01*
X207664285Y-70477619D01*
X207616666Y-70572857D01*
X207616666Y-70715714D01*
X207664285Y-70810952D01*
X207711904Y-70858571D01*
X207807142Y-70906190D01*
X208188095Y-70906190D01*
X207283333Y-70382380D02*
X206664285Y-70382380D01*
X206997619Y-70763333D01*
X206854761Y-70763333D01*
X206759523Y-70810952D01*
X206711904Y-70858571D01*
X206664285Y-70953809D01*
X206664285Y-71191904D01*
X206711904Y-71287142D01*
X206759523Y-71334761D01*
X206854761Y-71382380D01*
X207140476Y-71382380D01*
X207235714Y-71334761D01*
X207283333Y-71287142D01*
X212843398Y-71379060D02*
X213176732Y-70902870D01*
X213414827Y-71379060D02*
X213414827Y-70379060D01*
X213033874Y-70379060D01*
X212938636Y-70426680D01*
X212891017Y-70474299D01*
X212843398Y-70569537D01*
X212843398Y-70712394D01*
X212891017Y-70807632D01*
X212938636Y-70855251D01*
X213033874Y-70902870D01*
X213414827Y-70902870D01*
X211986255Y-70712394D02*
X211986255Y-71379060D01*
X212224351Y-70331441D02*
X212462446Y-71045727D01*
X211843398Y-71045727D01*
X212145398Y-62184260D02*
X212478732Y-61708070D01*
X212716827Y-62184260D02*
X212716827Y-61184260D01*
X212335874Y-61184260D01*
X212240636Y-61231880D01*
X212193017Y-61279499D01*
X212145398Y-61374737D01*
X212145398Y-61517594D01*
X212193017Y-61612832D01*
X212240636Y-61660451D01*
X212335874Y-61708070D01*
X212716827Y-61708070D01*
X211240636Y-61184260D02*
X211716827Y-61184260D01*
X211764446Y-61660451D01*
X211716827Y-61612832D01*
X211621589Y-61565213D01*
X211383493Y-61565213D01*
X211288255Y-61612832D01*
X211240636Y-61660451D01*
X211193017Y-61755689D01*
X211193017Y-61993784D01*
X211240636Y-62089022D01*
X211288255Y-62136641D01*
X211383493Y-62184260D01*
X211621589Y-62184260D01*
X211716827Y-62136641D01*
X211764446Y-62089022D01*
X211523824Y-53300380D02*
X211523824Y-54109904D01*
X211476205Y-54205142D01*
X211428586Y-54252761D01*
X211333348Y-54300380D01*
X211142871Y-54300380D01*
X211047633Y-54252761D01*
X211000014Y-54205142D01*
X210952395Y-54109904D01*
X210952395Y-53300380D01*
X210523824Y-54252761D02*
X210380967Y-54300380D01*
X210142871Y-54300380D01*
X210047633Y-54252761D01*
X210000014Y-54205142D01*
X209952395Y-54109904D01*
X209952395Y-54014666D01*
X210000014Y-53919428D01*
X210047633Y-53871809D01*
X210142871Y-53824190D01*
X210333348Y-53776571D01*
X210428586Y-53728952D01*
X210476205Y-53681333D01*
X210523824Y-53586095D01*
X210523824Y-53490857D01*
X210476205Y-53395619D01*
X210428586Y-53348000D01*
X210333348Y-53300380D01*
X210095252Y-53300380D01*
X209952395Y-53348000D01*
X209190490Y-53776571D02*
X209047633Y-53824190D01*
X209000014Y-53871809D01*
X208952395Y-53967047D01*
X208952395Y-54109904D01*
X209000014Y-54205142D01*
X209047633Y-54252761D01*
X209142871Y-54300380D01*
X209523824Y-54300380D01*
X209523824Y-53300380D01*
X209190490Y-53300380D01*
X209095252Y-53348000D01*
X209047633Y-53395619D01*
X209000014Y-53490857D01*
X209000014Y-53586095D01*
X209047633Y-53681333D01*
X209095252Y-53728952D01*
X209190490Y-53776571D01*
X209523824Y-53776571D01*
X208000014Y-54300380D02*
X208571443Y-54300380D01*
X208285729Y-54300380D02*
X208285729Y-53300380D01*
X208380967Y-53443238D01*
X208476205Y-53538476D01*
X208571443Y-53586095D01*
X211024285Y-66922380D02*
X211024285Y-65922380D01*
X210786190Y-65922380D01*
X210643333Y-65970000D01*
X210548095Y-66065238D01*
X210500476Y-66160476D01*
X210452857Y-66350952D01*
X210452857Y-66493809D01*
X210500476Y-66684285D01*
X210548095Y-66779523D01*
X210643333Y-66874761D01*
X210786190Y-66922380D01*
X211024285Y-66922380D01*
X210119523Y-65922380D02*
X209500476Y-65922380D01*
X209833809Y-66303333D01*
X209690952Y-66303333D01*
X209595714Y-66350952D01*
X209548095Y-66398571D01*
X209500476Y-66493809D01*
X209500476Y-66731904D01*
X209548095Y-66827142D01*
X209595714Y-66874761D01*
X209690952Y-66922380D01*
X209976666Y-66922380D01*
X210071904Y-66874761D01*
X210119523Y-66827142D01*
X208929047Y-66350952D02*
X209024285Y-66303333D01*
X209071904Y-66255714D01*
X209119523Y-66160476D01*
X209119523Y-66112857D01*
X209071904Y-66017619D01*
X209024285Y-65970000D01*
X208929047Y-65922380D01*
X208738571Y-65922380D01*
X208643333Y-65970000D01*
X208595714Y-66017619D01*
X208548095Y-66112857D01*
X208548095Y-66160476D01*
X208595714Y-66255714D01*
X208643333Y-66303333D01*
X208738571Y-66350952D01*
X208929047Y-66350952D01*
X209024285Y-66398571D01*
X209071904Y-66446190D01*
X209119523Y-66541428D01*
X209119523Y-66731904D01*
X209071904Y-66827142D01*
X209024285Y-66874761D01*
X208929047Y-66922380D01*
X208738571Y-66922380D01*
X208643333Y-66874761D01*
X208595714Y-66827142D01*
X208548095Y-66731904D01*
X208548095Y-66541428D01*
X208595714Y-66446190D01*
X208643333Y-66398571D01*
X208738571Y-66350952D01*
X54152380Y-69785714D02*
X53152380Y-69785714D01*
X53152380Y-70023809D01*
X53200000Y-70166666D01*
X53295238Y-70261904D01*
X53390476Y-70309523D01*
X53580952Y-70357142D01*
X53723809Y-70357142D01*
X53914285Y-70309523D01*
X54009523Y-70261904D01*
X54104761Y-70166666D01*
X54152380Y-70023809D01*
X54152380Y-69785714D01*
X54152380Y-71309523D02*
X54152380Y-70738095D01*
X54152380Y-71023809D02*
X53152380Y-71023809D01*
X53295238Y-70928571D01*
X53390476Y-70833333D01*
X53438095Y-70738095D01*
X54152380Y-72261904D02*
X54152380Y-71690476D01*
X54152380Y-71976190D02*
X53152380Y-71976190D01*
X53295238Y-71880952D01*
X53390476Y-71785714D01*
X53438095Y-71690476D01*
X75971707Y-69785714D02*
X74971707Y-69785714D01*
X74971707Y-70023809D01*
X75019327Y-70166666D01*
X75114565Y-70261904D01*
X75209803Y-70309523D01*
X75400279Y-70357142D01*
X75543136Y-70357142D01*
X75733612Y-70309523D01*
X75828850Y-70261904D01*
X75924088Y-70166666D01*
X75971707Y-70023809D01*
X75971707Y-69785714D01*
X75971707Y-71309523D02*
X75971707Y-70738095D01*
X75971707Y-71023809D02*
X74971707Y-71023809D01*
X75114565Y-70928571D01*
X75209803Y-70833333D01*
X75257422Y-70738095D01*
X75066946Y-71690476D02*
X75019327Y-71738095D01*
X74971707Y-71833333D01*
X74971707Y-72071428D01*
X75019327Y-72166666D01*
X75066946Y-72214285D01*
X75162184Y-72261904D01*
X75257422Y-72261904D01*
X75400279Y-72214285D01*
X75971707Y-71642857D01*
X75971707Y-72261904D01*
X95045557Y-69785714D02*
X94045557Y-69785714D01*
X94045557Y-70023809D01*
X94093177Y-70166666D01*
X94188415Y-70261904D01*
X94283653Y-70309523D01*
X94474129Y-70357142D01*
X94616986Y-70357142D01*
X94807462Y-70309523D01*
X94902700Y-70261904D01*
X94997938Y-70166666D01*
X95045557Y-70023809D01*
X95045557Y-69785714D01*
X95045557Y-71309523D02*
X95045557Y-70738095D01*
X95045557Y-71023809D02*
X94045557Y-71023809D01*
X94188415Y-70928571D01*
X94283653Y-70833333D01*
X94331272Y-70738095D01*
X94045557Y-71642857D02*
X94045557Y-72261904D01*
X94426510Y-71928571D01*
X94426510Y-72071428D01*
X94474129Y-72166666D01*
X94521748Y-72214285D01*
X94616986Y-72261904D01*
X94855081Y-72261904D01*
X94950319Y-72214285D01*
X94997938Y-72166666D01*
X95045557Y-72071428D01*
X95045557Y-71785714D01*
X94997938Y-71690476D01*
X94950319Y-71642857D01*
X113874607Y-69785714D02*
X112874607Y-69785714D01*
X112874607Y-70023809D01*
X112922227Y-70166666D01*
X113017465Y-70261904D01*
X113112703Y-70309523D01*
X113303179Y-70357142D01*
X113446036Y-70357142D01*
X113636512Y-70309523D01*
X113731750Y-70261904D01*
X113826988Y-70166666D01*
X113874607Y-70023809D01*
X113874607Y-69785714D01*
X113874607Y-71309523D02*
X113874607Y-70738095D01*
X113874607Y-71023809D02*
X112874607Y-71023809D01*
X113017465Y-70928571D01*
X113112703Y-70833333D01*
X113160322Y-70738095D01*
X113207941Y-72166666D02*
X113874607Y-72166666D01*
X112826988Y-71928571D02*
X113541274Y-71690476D01*
X113541274Y-72309523D01*
X133048318Y-69785714D02*
X132048318Y-69785714D01*
X132048318Y-70023809D01*
X132095938Y-70166666D01*
X132191176Y-70261904D01*
X132286414Y-70309523D01*
X132476890Y-70357142D01*
X132619747Y-70357142D01*
X132810223Y-70309523D01*
X132905461Y-70261904D01*
X133000699Y-70166666D01*
X133048318Y-70023809D01*
X133048318Y-69785714D01*
X133048318Y-71309523D02*
X133048318Y-70738095D01*
X133048318Y-71023809D02*
X132048318Y-71023809D01*
X132191176Y-70928571D01*
X132286414Y-70833333D01*
X132334033Y-70738095D01*
X132048318Y-72214285D02*
X132048318Y-71738095D01*
X132524509Y-71690476D01*
X132476890Y-71738095D01*
X132429271Y-71833333D01*
X132429271Y-72071428D01*
X132476890Y-72166666D01*
X132524509Y-72214285D01*
X132619747Y-72261904D01*
X132857842Y-72261904D01*
X132953080Y-72214285D01*
X133000699Y-72166666D01*
X133048318Y-72071428D01*
X133048318Y-71833333D01*
X133000699Y-71738095D01*
X132953080Y-71690476D01*
X151991724Y-69785714D02*
X150991724Y-69785714D01*
X150991724Y-70023809D01*
X151039344Y-70166666D01*
X151134582Y-70261904D01*
X151229820Y-70309523D01*
X151420296Y-70357142D01*
X151563153Y-70357142D01*
X151753629Y-70309523D01*
X151848867Y-70261904D01*
X151944105Y-70166666D01*
X151991724Y-70023809D01*
X151991724Y-69785714D01*
X151991724Y-71309523D02*
X151991724Y-70738095D01*
X151991724Y-71023809D02*
X150991724Y-71023809D01*
X151134582Y-70928571D01*
X151229820Y-70833333D01*
X151277439Y-70738095D01*
X150991724Y-72166666D02*
X150991724Y-71976190D01*
X151039344Y-71880952D01*
X151086963Y-71833333D01*
X151229820Y-71738095D01*
X151420296Y-71690476D01*
X151801248Y-71690476D01*
X151896486Y-71738095D01*
X151944105Y-71785714D01*
X151991724Y-71880952D01*
X151991724Y-72071428D01*
X151944105Y-72166666D01*
X151896486Y-72214285D01*
X151801248Y-72261904D01*
X151563153Y-72261904D01*
X151467915Y-72214285D01*
X151420296Y-72166666D01*
X151372677Y-72071428D01*
X151372677Y-71880952D01*
X151420296Y-71785714D01*
X151467915Y-71738095D01*
X151563153Y-71690476D01*
X171109055Y-69785714D02*
X170109055Y-69785714D01*
X170109055Y-70023809D01*
X170156675Y-70166666D01*
X170251913Y-70261904D01*
X170347151Y-70309523D01*
X170537627Y-70357142D01*
X170680484Y-70357142D01*
X170870960Y-70309523D01*
X170966198Y-70261904D01*
X171061436Y-70166666D01*
X171109055Y-70023809D01*
X171109055Y-69785714D01*
X171109055Y-71309523D02*
X171109055Y-70738095D01*
X171109055Y-71023809D02*
X170109055Y-71023809D01*
X170251913Y-70928571D01*
X170347151Y-70833333D01*
X170394770Y-70738095D01*
X170109055Y-71642857D02*
X170109055Y-72309523D01*
X171109055Y-71880952D01*
X190095942Y-69785714D02*
X189095942Y-69785714D01*
X189095942Y-70023809D01*
X189143562Y-70166666D01*
X189238800Y-70261904D01*
X189334038Y-70309523D01*
X189524514Y-70357142D01*
X189667371Y-70357142D01*
X189857847Y-70309523D01*
X189953085Y-70261904D01*
X190048323Y-70166666D01*
X190095942Y-70023809D01*
X190095942Y-69785714D01*
X190095942Y-71309523D02*
X190095942Y-70738095D01*
X190095942Y-71023809D02*
X189095942Y-71023809D01*
X189238800Y-70928571D01*
X189334038Y-70833333D01*
X189381657Y-70738095D01*
X189524514Y-71880952D02*
X189476895Y-71785714D01*
X189429276Y-71738095D01*
X189334038Y-71690476D01*
X189286419Y-71690476D01*
X189191181Y-71738095D01*
X189143562Y-71785714D01*
X189095942Y-71880952D01*
X189095942Y-72071428D01*
X189143562Y-72166666D01*
X189191181Y-72214285D01*
X189286419Y-72261904D01*
X189334038Y-72261904D01*
X189429276Y-72214285D01*
X189476895Y-72166666D01*
X189524514Y-72071428D01*
X189524514Y-71880952D01*
X189572133Y-71785714D01*
X189619752Y-71738095D01*
X189714990Y-71690476D01*
X189905466Y-71690476D01*
X190000704Y-71738095D01*
X190048323Y-71785714D01*
X190095942Y-71880952D01*
X190095942Y-72071428D01*
X190048323Y-72166666D01*
X190000704Y-72214285D01*
X189905466Y-72261904D01*
X189714990Y-72261904D01*
X189619752Y-72214285D01*
X189572133Y-72166666D01*
X189524514Y-72071428D01*
X205626905Y-70581211D02*
X205960238Y-70581211D01*
X205960238Y-71105020D02*
X205960238Y-70105020D01*
X205484048Y-70105020D01*
X204579286Y-71105020D02*
X205150714Y-71105020D01*
X204865000Y-71105020D02*
X204865000Y-70105020D01*
X204960238Y-70247878D01*
X205055476Y-70343116D01*
X205150714Y-70390735D01*
X59204285Y-108332380D02*
X59204285Y-107332380D01*
X58966190Y-107332380D01*
X58823333Y-107380000D01*
X58728095Y-107475238D01*
X58680476Y-107570476D01*
X58632857Y-107760952D01*
X58632857Y-107903809D01*
X58680476Y-108094285D01*
X58728095Y-108189523D01*
X58823333Y-108284761D01*
X58966190Y-108332380D01*
X59204285Y-108332380D01*
X58251904Y-107427619D02*
X58204285Y-107380000D01*
X58109047Y-107332380D01*
X57870952Y-107332380D01*
X57775714Y-107380000D01*
X57728095Y-107427619D01*
X57680476Y-107522857D01*
X57680476Y-107618095D01*
X57728095Y-107760952D01*
X58299523Y-108332380D01*
X57680476Y-108332380D01*
X56728095Y-108332380D02*
X57299523Y-108332380D01*
X57013809Y-108332380D02*
X57013809Y-107332380D01*
X57109047Y-107475238D01*
X57204285Y-107570476D01*
X57299523Y-107618095D01*
X43615312Y-95470389D02*
X43615312Y-95537732D01*
X43682656Y-95672419D01*
X43749999Y-95739763D01*
X43884687Y-95807106D01*
X44019374Y-95807106D01*
X44120389Y-95773435D01*
X44288748Y-95672419D01*
X44389763Y-95571404D01*
X44490778Y-95403045D01*
X44524450Y-95302030D01*
X44524450Y-95167343D01*
X44457106Y-95032656D01*
X44389763Y-94965312D01*
X44255076Y-94897969D01*
X44187732Y-94897969D01*
X42874534Y-94864297D02*
X43278595Y-95268358D01*
X43076564Y-95066328D02*
X43783671Y-94359221D01*
X43750000Y-94527580D01*
X43749999Y-94662267D01*
X43783671Y-94763282D01*
X56375312Y-98350389D02*
X56375312Y-98417732D01*
X56442656Y-98552419D01*
X56509999Y-98619763D01*
X56644687Y-98687106D01*
X56779374Y-98687106D01*
X56880389Y-98653435D01*
X57048748Y-98552419D01*
X57149763Y-98451404D01*
X57250778Y-98283045D01*
X57284450Y-98182030D01*
X57284450Y-98047343D01*
X57217106Y-97912656D01*
X57149763Y-97845312D01*
X57015076Y-97777969D01*
X56947732Y-97777969D01*
X56408984Y-97104534D02*
X56543671Y-97239221D01*
X56577343Y-97340236D01*
X56577343Y-97407580D01*
X56543671Y-97575938D01*
X56442656Y-97744297D01*
X56173282Y-98013671D01*
X56072267Y-98047343D01*
X56004923Y-98047343D01*
X55903908Y-98013671D01*
X55769221Y-97878984D01*
X55735549Y-97777969D01*
X55735549Y-97710625D01*
X55769221Y-97609610D01*
X55937580Y-97441251D01*
X56038595Y-97407580D01*
X56105938Y-97407580D01*
X56206954Y-97441251D01*
X56341641Y-97575938D01*
X56375312Y-97676954D01*
X56375312Y-97744297D01*
X56341641Y-97845312D01*
X100932380Y-45905714D02*
X99932380Y-45905714D01*
X99932380Y-46143809D01*
X99980000Y-46286666D01*
X100075238Y-46381904D01*
X100170476Y-46429523D01*
X100360952Y-46477142D01*
X100503809Y-46477142D01*
X100694285Y-46429523D01*
X100789523Y-46381904D01*
X100884761Y-46286666D01*
X100932380Y-46143809D01*
X100932380Y-45905714D01*
X100265714Y-47334285D02*
X100932380Y-47334285D01*
X99884761Y-47096190D02*
X100599047Y-46858095D01*
X100599047Y-47477142D01*
X100027619Y-47810476D02*
X99980000Y-47858095D01*
X99932380Y-47953333D01*
X99932380Y-48191428D01*
X99980000Y-48286666D01*
X100027619Y-48334285D01*
X100122857Y-48381904D01*
X100218095Y-48381904D01*
X100360952Y-48334285D01*
X100932380Y-47762857D01*
X100932380Y-48381904D01*
X222162380Y-103055714D02*
X221162380Y-103055714D01*
X221162380Y-103293809D01*
X221210000Y-103436666D01*
X221305238Y-103531904D01*
X221400476Y-103579523D01*
X221590952Y-103627142D01*
X221733809Y-103627142D01*
X221924285Y-103579523D01*
X222019523Y-103531904D01*
X222114761Y-103436666D01*
X222162380Y-103293809D01*
X222162380Y-103055714D01*
X221162380Y-103960476D02*
X221162380Y-104579523D01*
X221543333Y-104246190D01*
X221543333Y-104389047D01*
X221590952Y-104484285D01*
X221638571Y-104531904D01*
X221733809Y-104579523D01*
X221971904Y-104579523D01*
X222067142Y-104531904D01*
X222114761Y-104484285D01*
X222162380Y-104389047D01*
X222162380Y-104103333D01*
X222114761Y-104008095D01*
X222067142Y-103960476D01*
X222162380Y-105055714D02*
X222162380Y-105246190D01*
X222114761Y-105341428D01*
X222067142Y-105389047D01*
X221924285Y-105484285D01*
X221733809Y-105531904D01*
X221352857Y-105531904D01*
X221257619Y-105484285D01*
X221210000Y-105436666D01*
X221162380Y-105341428D01*
X221162380Y-105150952D01*
X221210000Y-105055714D01*
X221257619Y-105008095D01*
X221352857Y-104960476D01*
X221590952Y-104960476D01*
X221686190Y-105008095D01*
X221733809Y-105055714D01*
X221781428Y-105150952D01*
X221781428Y-105341428D01*
X221733809Y-105436666D01*
X221686190Y-105484285D01*
X221590952Y-105531904D01*
X62782380Y-45905714D02*
X61782380Y-45905714D01*
X61782380Y-46143809D01*
X61830000Y-46286666D01*
X61925238Y-46381904D01*
X62020476Y-46429523D01*
X62210952Y-46477142D01*
X62353809Y-46477142D01*
X62544285Y-46429523D01*
X62639523Y-46381904D01*
X62734761Y-46286666D01*
X62782380Y-46143809D01*
X62782380Y-45905714D01*
X62115714Y-47334285D02*
X62782380Y-47334285D01*
X61734761Y-47096190D02*
X62449047Y-46858095D01*
X62449047Y-47477142D01*
X61782380Y-48048571D02*
X61782380Y-48143809D01*
X61830000Y-48239047D01*
X61877619Y-48286666D01*
X61972857Y-48334285D01*
X62163333Y-48381904D01*
X62401428Y-48381904D01*
X62591904Y-48334285D01*
X62687142Y-48286666D01*
X62734761Y-48239047D01*
X62782380Y-48143809D01*
X62782380Y-48048571D01*
X62734761Y-47953333D01*
X62687142Y-47905714D01*
X62591904Y-47858095D01*
X62401428Y-47810476D01*
X62163333Y-47810476D01*
X61972857Y-47858095D01*
X61877619Y-47905714D01*
X61830000Y-47953333D01*
X61782380Y-48048571D01*
X158362380Y-43133333D02*
X157886190Y-42800000D01*
X158362380Y-42561904D02*
X157362380Y-42561904D01*
X157362380Y-42942857D01*
X157410000Y-43038095D01*
X157457619Y-43085714D01*
X157552857Y-43133333D01*
X157695714Y-43133333D01*
X157790952Y-43085714D01*
X157838571Y-43038095D01*
X157886190Y-42942857D01*
X157886190Y-42561904D01*
X158362380Y-43609523D02*
X158362380Y-43800000D01*
X158314761Y-43895238D01*
X158267142Y-43942857D01*
X158124285Y-44038095D01*
X157933809Y-44085714D01*
X157552857Y-44085714D01*
X157457619Y-44038095D01*
X157410000Y-43990476D01*
X157362380Y-43895238D01*
X157362380Y-43704761D01*
X157410000Y-43609523D01*
X157457619Y-43561904D01*
X157552857Y-43514285D01*
X157790952Y-43514285D01*
X157886190Y-43561904D01*
X157933809Y-43609523D01*
X157981428Y-43704761D01*
X157981428Y-43895238D01*
X157933809Y-43990476D01*
X157886190Y-44038095D01*
X157790952Y-44085714D01*
X120002380Y-45905714D02*
X119002380Y-45905714D01*
X119002380Y-46143809D01*
X119050000Y-46286666D01*
X119145238Y-46381904D01*
X119240476Y-46429523D01*
X119430952Y-46477142D01*
X119573809Y-46477142D01*
X119764285Y-46429523D01*
X119859523Y-46381904D01*
X119954761Y-46286666D01*
X120002380Y-46143809D01*
X120002380Y-45905714D01*
X119335714Y-47334285D02*
X120002380Y-47334285D01*
X118954761Y-47096190D02*
X119669047Y-46858095D01*
X119669047Y-47477142D01*
X119002380Y-47762857D02*
X119002380Y-48381904D01*
X119383333Y-48048571D01*
X119383333Y-48191428D01*
X119430952Y-48286666D01*
X119478571Y-48334285D01*
X119573809Y-48381904D01*
X119811904Y-48381904D01*
X119907142Y-48334285D01*
X119954761Y-48286666D01*
X120002380Y-48191428D01*
X120002380Y-47905714D01*
X119954761Y-47810476D01*
X119907142Y-47762857D01*
X81862380Y-45905714D02*
X80862380Y-45905714D01*
X80862380Y-46143809D01*
X80910000Y-46286666D01*
X81005238Y-46381904D01*
X81100476Y-46429523D01*
X81290952Y-46477142D01*
X81433809Y-46477142D01*
X81624285Y-46429523D01*
X81719523Y-46381904D01*
X81814761Y-46286666D01*
X81862380Y-46143809D01*
X81862380Y-45905714D01*
X81195714Y-47334285D02*
X81862380Y-47334285D01*
X80814761Y-47096190D02*
X81529047Y-46858095D01*
X81529047Y-47477142D01*
X81862380Y-48381904D02*
X81862380Y-47810476D01*
X81862380Y-48096190D02*
X80862380Y-48096190D01*
X81005238Y-48000952D01*
X81100476Y-47905714D01*
X81148095Y-47810476D01*
X139002380Y-45905714D02*
X138002380Y-45905714D01*
X138002380Y-46143809D01*
X138050000Y-46286666D01*
X138145238Y-46381904D01*
X138240476Y-46429523D01*
X138430952Y-46477142D01*
X138573809Y-46477142D01*
X138764285Y-46429523D01*
X138859523Y-46381904D01*
X138954761Y-46286666D01*
X139002380Y-46143809D01*
X139002380Y-45905714D01*
X138335714Y-47334285D02*
X139002380Y-47334285D01*
X137954761Y-47096190D02*
X138669047Y-46858095D01*
X138669047Y-47477142D01*
X138335714Y-48286666D02*
X139002380Y-48286666D01*
X137954761Y-48048571D02*
X138669047Y-47810476D01*
X138669047Y-48429523D01*
X158362380Y-38543333D02*
X157886190Y-38210000D01*
X158362380Y-37971904D02*
X157362380Y-37971904D01*
X157362380Y-38352857D01*
X157410000Y-38448095D01*
X157457619Y-38495714D01*
X157552857Y-38543333D01*
X157695714Y-38543333D01*
X157790952Y-38495714D01*
X157838571Y-38448095D01*
X157886190Y-38352857D01*
X157886190Y-37971904D01*
X157362380Y-38876666D02*
X157362380Y-39543333D01*
X158362380Y-39114761D01*
X158322380Y-47603333D02*
X157846190Y-47270000D01*
X158322380Y-47031904D02*
X157322380Y-47031904D01*
X157322380Y-47412857D01*
X157370000Y-47508095D01*
X157417619Y-47555714D01*
X157512857Y-47603333D01*
X157655714Y-47603333D01*
X157750952Y-47555714D01*
X157798571Y-47508095D01*
X157846190Y-47412857D01*
X157846190Y-47031904D01*
X157750952Y-48174761D02*
X157703333Y-48079523D01*
X157655714Y-48031904D01*
X157560476Y-47984285D01*
X157512857Y-47984285D01*
X157417619Y-48031904D01*
X157370000Y-48079523D01*
X157322380Y-48174761D01*
X157322380Y-48365238D01*
X157370000Y-48460476D01*
X157417619Y-48508095D01*
X157512857Y-48555714D01*
X157560476Y-48555714D01*
X157655714Y-48508095D01*
X157703333Y-48460476D01*
X157750952Y-48365238D01*
X157750952Y-48174761D01*
X157798571Y-48079523D01*
X157846190Y-48031904D01*
X157941428Y-47984285D01*
X158131904Y-47984285D01*
X158227142Y-48031904D01*
X158274761Y-48079523D01*
X158322380Y-48174761D01*
X158322380Y-48365238D01*
X158274761Y-48460476D01*
X158227142Y-48508095D01*
X158131904Y-48555714D01*
X157941428Y-48555714D01*
X157846190Y-48508095D01*
X157798571Y-48460476D01*
X157750952Y-48365238D01*
X143982380Y-45985714D02*
X142982380Y-45985714D01*
X142982380Y-46223809D01*
X143030000Y-46366666D01*
X143125238Y-46461904D01*
X143220476Y-46509523D01*
X143410952Y-46557142D01*
X143553809Y-46557142D01*
X143744285Y-46509523D01*
X143839523Y-46461904D01*
X143934761Y-46366666D01*
X143982380Y-46223809D01*
X143982380Y-45985714D01*
X143315714Y-47414285D02*
X143982380Y-47414285D01*
X142934761Y-47176190D02*
X143649047Y-46938095D01*
X143649047Y-47557142D01*
X142982380Y-48414285D02*
X142982380Y-47938095D01*
X143458571Y-47890476D01*
X143410952Y-47938095D01*
X143363333Y-48033333D01*
X143363333Y-48271428D01*
X143410952Y-48366666D01*
X143458571Y-48414285D01*
X143553809Y-48461904D01*
X143791904Y-48461904D01*
X143887142Y-48414285D01*
X143934761Y-48366666D01*
X143982380Y-48271428D01*
X143982380Y-48033333D01*
X143934761Y-47938095D01*
X143887142Y-47890476D01*
D10*
X51975000Y-68475000D02*
X51975000Y-64575000D01*
X53975000Y-68475000D02*
X51975000Y-68475000D01*
X53975000Y-68475000D02*
X53975000Y-64575000D01*
X71069960Y-68498280D02*
X71069960Y-64598280D01*
X73069960Y-68498280D02*
X73069960Y-64598280D01*
X73069960Y-68498280D02*
X71069960Y-68498280D01*
X92094560Y-68498280D02*
X92094560Y-64598280D01*
X92094560Y-68498280D02*
X90094560Y-68498280D01*
X90094560Y-68498280D02*
X90094560Y-64598280D01*
X111149640Y-68498280D02*
X111149640Y-64598280D01*
X109149640Y-68498280D02*
X109149640Y-64598280D01*
X111149640Y-68498280D02*
X109149640Y-68498280D01*
X130204720Y-68498280D02*
X128204720Y-68498280D01*
X130204720Y-68498280D02*
X130204720Y-64598280D01*
X128204720Y-68498280D02*
X128204720Y-64598280D01*
X166294560Y-68508440D02*
X166294560Y-64608440D01*
X168294560Y-68508440D02*
X168294560Y-64608440D01*
X168294560Y-68508440D02*
X166294560Y-68508440D01*
X187350000Y-68475000D02*
X185350000Y-68475000D01*
X185350000Y-68475000D02*
X185350000Y-64575000D01*
X187350000Y-68475000D02*
X187350000Y-64575000D01*
X200975000Y-68425000D02*
X200975000Y-64525000D01*
X200975000Y-68425000D02*
X198975000Y-68425000D01*
X198975000Y-68425000D02*
X198975000Y-64525000D01*
X232680000Y-68420000D02*
X230680000Y-68420000D01*
X232680000Y-68420000D02*
X232680000Y-64520000D01*
X230680000Y-68420000D02*
X230680000Y-64520000D01*
X195078521Y-68750000D02*
X195078521Y-72650000D01*
X193078521Y-68750000D02*
X193078521Y-72650000D01*
X193078521Y-68750000D02*
X195078521Y-68750000D01*
X234210000Y-71590000D02*
X236210000Y-71590000D01*
X236210000Y-71590000D02*
X236210000Y-75490000D01*
X234210000Y-71590000D02*
X234210000Y-75490000D01*
X85273640Y-106593200D02*
X85273640Y-102693200D01*
X87273640Y-106593200D02*
X85273640Y-106593200D01*
X87273640Y-106593200D02*
X87273640Y-102693200D01*
X106404920Y-106593200D02*
X104404920Y-106593200D01*
X106404920Y-106593200D02*
X106404920Y-102693200D01*
X104404920Y-106593200D02*
X104404920Y-102693200D01*
X125409200Y-106547480D02*
X125409200Y-102647480D01*
X125409200Y-106547480D02*
X123409200Y-106547480D01*
X123409200Y-106547480D02*
X123409200Y-102647480D01*
X144510000Y-106593200D02*
X144510000Y-102693200D01*
X144510000Y-106593200D02*
X142510000Y-106593200D01*
X142510000Y-106593200D02*
X142510000Y-102693200D01*
X161544760Y-106567800D02*
X161544760Y-102667800D01*
X163544760Y-106567800D02*
X161544760Y-106567800D01*
X163544760Y-106567800D02*
X163544760Y-102667800D01*
X199619360Y-106628760D02*
X199619360Y-102728760D01*
X201619360Y-106628760D02*
X199619360Y-106628760D01*
X201619360Y-106628760D02*
X201619360Y-102728760D01*
X234529879Y-106520000D02*
X232529879Y-106520000D01*
X234529879Y-106520000D02*
X234529879Y-102620000D01*
X232529879Y-106520000D02*
X232529879Y-102620000D01*
X60220000Y-113390000D02*
X56320000Y-113390000D01*
X60220000Y-111390000D02*
X60220000Y-113390000D01*
X60220000Y-111390000D02*
X56320000Y-111390000D01*
X78600000Y-106750000D02*
X78600000Y-110650000D01*
X76600000Y-106750000D02*
X76600000Y-110650000D01*
X76600000Y-106750000D02*
X78600000Y-106750000D01*
X139075819Y-106750000D02*
X141075819Y-106750000D01*
X141075819Y-106750000D02*
X141075819Y-110650000D01*
X139075819Y-106750000D02*
X139075819Y-110650000D01*
X236020000Y-106750000D02*
X238020000Y-106750000D01*
X238020000Y-106750000D02*
X238020000Y-110650000D01*
X236020000Y-106750000D02*
X236020000Y-110650000D01*
X40458578Y-97810000D02*
X39941422Y-97810000D01*
X40458578Y-96390000D02*
X39941422Y-96390000D01*
D12*
X38634576Y-108075802D02*
X43634576Y-108075802D01*
X43634576Y-108075802D02*
X43634576Y-105575802D01*
X38634576Y-105575802D02*
X38634576Y-108075802D01*
X43634576Y-105575802D02*
X38634576Y-105575802D01*
D10*
X48062513Y-93309060D02*
X50890940Y-96137487D01*
X45729060Y-95642513D02*
X48062513Y-93309060D01*
X180575000Y-106575000D02*
X180575000Y-102675000D01*
X182575000Y-106575000D02*
X180575000Y-106575000D01*
X182575000Y-106575000D02*
X182575000Y-102675000D01*
X65055112Y-96949204D02*
X65420796Y-97314888D01*
X66059204Y-95945112D02*
X66424888Y-96310796D01*
X69510796Y-89364888D02*
X69145112Y-88999204D01*
X70514888Y-88360796D02*
X70149204Y-87995112D01*
X61000000Y-72799669D02*
X61000000Y-73316825D01*
X59580000Y-72799669D02*
X59580000Y-73316825D01*
X45000796Y-97894888D02*
X44635112Y-97529204D01*
X46004888Y-96890796D02*
X45639204Y-96525112D01*
X98210000Y-106750000D02*
X98210000Y-110650000D01*
X96210000Y-106750000D02*
X96210000Y-110650000D01*
X96210000Y-106750000D02*
X98210000Y-106750000D01*
X215520000Y-106750000D02*
X215520000Y-110650000D01*
X217520000Y-106750000D02*
X217520000Y-110650000D01*
X215520000Y-106750000D02*
X217520000Y-106750000D01*
X100487115Y-106750000D02*
X100487115Y-110650000D01*
X100487115Y-106750000D02*
X102487115Y-106750000D01*
X102487115Y-106750000D02*
X102487115Y-110650000D01*
D11*
X64938080Y-88541163D02*
X64460783Y-88063866D01*
X57619525Y-81222608D02*
X58096822Y-81699905D01*
X50300970Y-88541163D02*
X50778267Y-89018460D01*
X64938080Y-88541163D02*
X64531494Y-88947749D01*
X57619525Y-95859718D02*
X58096822Y-95382421D01*
X50300970Y-88541163D02*
X50778267Y-88063866D01*
X57619525Y-81222608D02*
X57142228Y-81699905D01*
X64531494Y-88947749D02*
X65433055Y-89849311D01*
X57619525Y-95859718D02*
X57142228Y-95382421D01*
D10*
X58824888Y-76300796D02*
X58459204Y-75935112D01*
X57820796Y-77304888D02*
X57455112Y-76939204D01*
X45380796Y-86455112D02*
X45015112Y-86820796D01*
X46384888Y-87459204D02*
X46019204Y-87824888D01*
X177039791Y-106750000D02*
X179039791Y-106750000D01*
X179039791Y-106750000D02*
X179039791Y-110650000D01*
X177039791Y-106750000D02*
X177039791Y-110650000D01*
X147260000Y-68470000D02*
X147260000Y-64570000D01*
X149260000Y-68470000D02*
X147260000Y-68470000D01*
X149260000Y-68470000D02*
X149260000Y-64570000D01*
X206993412Y-64367898D02*
X206993412Y-63850742D01*
X208413412Y-64367898D02*
X208413412Y-63850742D01*
X208189892Y-68777338D02*
X208189892Y-68260182D01*
X206769892Y-68777338D02*
X206769892Y-68260182D01*
X213386732Y-68787498D02*
X213386732Y-68270342D01*
X211966732Y-68787498D02*
X211966732Y-68270342D01*
X211263652Y-64367898D02*
X211263652Y-63850742D01*
X212683652Y-64367898D02*
X212683652Y-63850742D01*
D11*
X210776572Y-69978920D02*
X209476572Y-69978920D01*
X210776572Y-69978920D02*
X210776572Y-67078920D01*
X209476572Y-69978920D02*
X209476572Y-67078920D01*
X209476572Y-67078920D02*
X210776572Y-67078920D01*
D10*
X54700000Y-68750000D02*
X56700000Y-68750000D01*
X56700000Y-68750000D02*
X56700000Y-72650000D01*
X54700000Y-68750000D02*
X54700000Y-72650000D01*
X76519327Y-68750000D02*
X76519327Y-72650000D01*
X76519327Y-68750000D02*
X78519327Y-68750000D01*
X78519327Y-68750000D02*
X78519327Y-72650000D01*
X97593177Y-68750000D02*
X97593177Y-72650000D01*
X95593177Y-68750000D02*
X97593177Y-68750000D01*
X95593177Y-68750000D02*
X95593177Y-72650000D01*
X114422227Y-68750000D02*
X114422227Y-72650000D01*
X116422227Y-68750000D02*
X116422227Y-72650000D01*
X114422227Y-68750000D02*
X116422227Y-68750000D01*
X133595938Y-68750000D02*
X135595938Y-68750000D01*
X133595938Y-68750000D02*
X133595938Y-72650000D01*
X135595938Y-68750000D02*
X135595938Y-72650000D01*
X152539344Y-68750000D02*
X152539344Y-72650000D01*
X154539344Y-68750000D02*
X154539344Y-72650000D01*
X152539344Y-68750000D02*
X154539344Y-68750000D01*
X171656675Y-68750000D02*
X171656675Y-72650000D01*
X173656675Y-68750000D02*
X173656675Y-72650000D01*
X171656675Y-68750000D02*
X173656675Y-68750000D01*
X190643562Y-68750000D02*
X192643562Y-68750000D01*
X192643562Y-68750000D02*
X192643562Y-72650000D01*
X190643562Y-68750000D02*
X190643562Y-72650000D01*
X204388652Y-68293064D02*
X204388652Y-67088936D01*
X206208652Y-68293064D02*
X206208652Y-67088936D01*
X60240000Y-108880000D02*
X56340000Y-108880000D01*
X60240000Y-108880000D02*
X60240000Y-110880000D01*
X60240000Y-110880000D02*
X56340000Y-110880000D01*
X45280796Y-92895112D02*
X44915112Y-93260796D01*
X46284888Y-93899204D02*
X45919204Y-94264888D01*
X54584457Y-96575010D02*
X54214990Y-96205543D01*
X53545010Y-97614457D02*
X53175543Y-97244990D01*
X99480000Y-49370000D02*
X99480000Y-45470000D01*
X97480000Y-49370000D02*
X97480000Y-45470000D01*
X99480000Y-49370000D02*
X97480000Y-49370000D01*
X220710000Y-106520000D02*
X218710000Y-106520000D01*
X218710000Y-106520000D02*
X218710000Y-102620000D01*
X220710000Y-106520000D02*
X220710000Y-102620000D01*
X61330000Y-49370000D02*
X59330000Y-49370000D01*
X61330000Y-49370000D02*
X61330000Y-45470000D01*
X59330000Y-49370000D02*
X59330000Y-45470000D01*
X159755000Y-42945670D02*
X159755000Y-43399798D01*
X161225000Y-42945670D02*
X161225000Y-43399798D01*
X118550000Y-49370000D02*
X116550000Y-49370000D01*
X118550000Y-49370000D02*
X118550000Y-45470000D01*
X116550000Y-49370000D02*
X116550000Y-45470000D01*
X80410000Y-49370000D02*
X78410000Y-49370000D01*
X78410000Y-49370000D02*
X78410000Y-45470000D01*
X80410000Y-49370000D02*
X80410000Y-45470000D01*
X137550000Y-49370000D02*
X137550000Y-45470000D01*
X135550000Y-49370000D02*
X135550000Y-45470000D01*
X137550000Y-49370000D02*
X135550000Y-49370000D01*
X161225000Y-38426529D02*
X161225000Y-38880657D01*
X159755000Y-38426529D02*
X159755000Y-38880657D01*
X159785000Y-47527435D02*
X159785000Y-47981563D01*
X161255000Y-47527435D02*
X161255000Y-47981563D01*
X142498473Y-49370000D02*
X140498473Y-49370000D01*
X140498473Y-49370000D02*
X140498473Y-45470000D01*
X142498473Y-49370000D02*
X142498473Y-45470000D01*
M02*
