G04 #@! TF.GenerationSoftware,KiCad,Pcbnew,(5.1.4-0-10_14)*
G04 #@! TF.CreationDate,2020-09-21T01:33:54-05:00*
G04 #@! TF.ProjectId,qaz_b,71617a5f-622e-46b6-9963-61645f706362,rev?*
G04 #@! TF.SameCoordinates,Original*
G04 #@! TF.FileFunction,Legend,Bot*
G04 #@! TF.FilePolarity,Positive*
%FSLAX46Y46*%
G04 Gerber Fmt 4.6, Leading zero omitted, Abs format (unit mm)*
G04 Created by KiCad (PCBNEW (5.1.4-0-10_14)) date 2020-09-21 01:33:54*
%MOMM*%
%LPD*%
G04 APERTURE LIST*
%ADD10C,0.150000*%
%ADD11C,0.120000*%
%ADD12C,0.250000*%
G04 APERTURE END LIST*
D10*
X49720476Y-94813380D02*
X50291904Y-94813380D01*
X50006190Y-94813380D02*
X50006190Y-93813380D01*
X50101428Y-93956238D01*
X50196666Y-94051476D01*
X50291904Y-94099095D01*
X49244285Y-94813380D02*
X49053809Y-94813380D01*
X48958571Y-94765761D01*
X48910952Y-94718142D01*
X48815714Y-94575285D01*
X48768095Y-94384809D01*
X48768095Y-94003857D01*
X48815714Y-93908619D01*
X48863333Y-93861000D01*
X48958571Y-93813380D01*
X49149047Y-93813380D01*
X49244285Y-93861000D01*
X49291904Y-93908619D01*
X49339523Y-94003857D01*
X49339523Y-94241952D01*
X49291904Y-94337190D01*
X49244285Y-94384809D01*
X49149047Y-94432428D01*
X48958571Y-94432428D01*
X48863333Y-94384809D01*
X48815714Y-94337190D01*
X48768095Y-94241952D01*
X52196904Y-92130619D02*
X52149285Y-92083000D01*
X52054047Y-92035380D01*
X51815952Y-92035380D01*
X51720714Y-92083000D01*
X51673095Y-92130619D01*
X51625476Y-92225857D01*
X51625476Y-92321095D01*
X51673095Y-92463952D01*
X52244523Y-93035380D01*
X51625476Y-93035380D01*
X51006428Y-92035380D02*
X50911190Y-92035380D01*
X50815952Y-92083000D01*
X50768333Y-92130619D01*
X50720714Y-92225857D01*
X50673095Y-92416333D01*
X50673095Y-92654428D01*
X50720714Y-92844904D01*
X50768333Y-92940142D01*
X50815952Y-92987761D01*
X50911190Y-93035380D01*
X51006428Y-93035380D01*
X51101666Y-92987761D01*
X51149285Y-92940142D01*
X51196904Y-92844904D01*
X51244523Y-92654428D01*
X51244523Y-92416333D01*
X51196904Y-92225857D01*
X51149285Y-92130619D01*
X51101666Y-92083000D01*
X51006428Y-92035380D01*
X54228904Y-90606619D02*
X54181285Y-90559000D01*
X54086047Y-90511380D01*
X53847952Y-90511380D01*
X53752714Y-90559000D01*
X53705095Y-90606619D01*
X53657476Y-90701857D01*
X53657476Y-90797095D01*
X53705095Y-90939952D01*
X54276523Y-91511380D01*
X53657476Y-91511380D01*
X52705095Y-91511380D02*
X53276523Y-91511380D01*
X52990809Y-91511380D02*
X52990809Y-90511380D01*
X53086047Y-90654238D01*
X53181285Y-90749476D01*
X53276523Y-90797095D01*
X52323904Y-89082619D02*
X52276285Y-89035000D01*
X52181047Y-88987380D01*
X51942952Y-88987380D01*
X51847714Y-89035000D01*
X51800095Y-89082619D01*
X51752476Y-89177857D01*
X51752476Y-89273095D01*
X51800095Y-89415952D01*
X52371523Y-89987380D01*
X51752476Y-89987380D01*
X51371523Y-89082619D02*
X51323904Y-89035000D01*
X51228666Y-88987380D01*
X50990571Y-88987380D01*
X50895333Y-89035000D01*
X50847714Y-89082619D01*
X50800095Y-89177857D01*
X50800095Y-89273095D01*
X50847714Y-89415952D01*
X51419142Y-89987380D01*
X50800095Y-89987380D01*
D11*
X60325000Y-95631000D02*
G75*
G03X60325000Y-95631000I-254000J0D01*
G01*
X207137000Y-70358000D02*
G75*
G03X207137000Y-70358000I-254000J0D01*
G01*
X74041000Y-93345000D02*
G75*
G03X74041000Y-93345000I-254000J0D01*
G01*
X45974000Y-87757000D02*
G75*
G03X45974000Y-87757000I-254000J0D01*
G01*
D10*
X208677920Y-69978920D02*
X208677920Y-67078920D01*
X208677920Y-69978920D02*
X207377920Y-69978920D01*
X207377920Y-69978920D02*
X207377920Y-67078920D01*
X207377920Y-67078920D02*
X208677920Y-67078920D01*
D11*
X209165000Y-64367898D02*
X209165000Y-63850742D01*
X210585000Y-64367898D02*
X210585000Y-63850742D01*
X209868080Y-68787498D02*
X209868080Y-68270342D01*
X211288080Y-68787498D02*
X211288080Y-68270342D01*
X204671240Y-68777338D02*
X204671240Y-68260182D01*
X206091240Y-68777338D02*
X206091240Y-68260182D01*
X204894760Y-64367898D02*
X204894760Y-63850742D01*
X206314760Y-64367898D02*
X206314760Y-63850742D01*
X192400000Y-123950000D02*
X192400000Y-120050000D01*
X190400000Y-123950000D02*
X190400000Y-120050000D01*
X192400000Y-123950000D02*
X190400000Y-123950000D01*
X211225000Y-123894000D02*
X211225000Y-119994000D01*
X209225000Y-123894000D02*
X209225000Y-119994000D01*
X211225000Y-123894000D02*
X209225000Y-123894000D01*
X123050000Y-123850000D02*
X123050000Y-119950000D01*
X121050000Y-123850000D02*
X121050000Y-119950000D01*
X123050000Y-123850000D02*
X121050000Y-123850000D01*
X89075000Y-124850000D02*
X89075000Y-120950000D01*
X87075000Y-124850000D02*
X87075000Y-120950000D01*
X89075000Y-124850000D02*
X87075000Y-124850000D01*
D12*
X46061000Y-106787000D02*
X41061000Y-106787000D01*
X41061000Y-106787000D02*
X41061000Y-109287000D01*
X41061000Y-109287000D02*
X46061000Y-109287000D01*
X46061000Y-109287000D02*
X46061000Y-106787000D01*
D11*
X59442513Y-95590060D02*
X62270940Y-98418487D01*
X57109060Y-97923513D02*
X59442513Y-95590060D01*
D10*
X72761969Y-91581586D02*
X73663530Y-92483148D01*
X65850000Y-83856445D02*
X66327297Y-84333742D01*
X58531445Y-91175000D02*
X59008742Y-91652297D01*
X65850000Y-98493555D02*
X65372703Y-98016258D01*
X73168555Y-91175000D02*
X72691258Y-90697703D01*
X65850000Y-98493555D02*
X66327297Y-98016258D01*
X58531445Y-91175000D02*
X59008742Y-90697703D01*
X65850000Y-83856445D02*
X65372703Y-84333742D01*
X73168555Y-91175000D02*
X72761969Y-91581586D01*
X40453000Y-93532000D02*
X45653000Y-93532000D01*
X45653000Y-93532000D02*
X45653000Y-88332000D01*
X45653000Y-88332000D02*
X40453000Y-88332000D01*
X40453000Y-88332000D02*
X40453000Y-93532000D01*
X44053000Y-90932000D02*
G75*
G03X44053000Y-90932000I-1000000J0D01*
G01*
D11*
X59996000Y-77719422D02*
X59996000Y-78236578D01*
X61416000Y-77719422D02*
X61416000Y-78236578D01*
X41152578Y-98246000D02*
X40635422Y-98246000D01*
X41152578Y-96826000D02*
X40635422Y-96826000D01*
X202290000Y-68293064D02*
X202290000Y-67088936D01*
X204110000Y-68293064D02*
X204110000Y-67088936D01*
X229375000Y-123900000D02*
X229375000Y-120000000D01*
X227375000Y-123900000D02*
X227375000Y-120000000D01*
X229375000Y-123900000D02*
X227375000Y-123900000D01*
X163600000Y-123825000D02*
X163600000Y-119925000D01*
X161600000Y-123825000D02*
X161600000Y-119925000D01*
X163600000Y-123825000D02*
X161600000Y-123825000D01*
X72979720Y-123863520D02*
X72979720Y-119963520D01*
X70979720Y-123863520D02*
X70979720Y-119963520D01*
X72979720Y-123863520D02*
X70979720Y-123863520D01*
X53952880Y-123818200D02*
X53952880Y-119918200D01*
X51952880Y-123818200D02*
X51952880Y-119918200D01*
X53952880Y-123818200D02*
X51952880Y-123818200D01*
X225500000Y-106577960D02*
X225500000Y-102677960D01*
X223500000Y-106577960D02*
X223500000Y-102677960D01*
X225500000Y-106577960D02*
X223500000Y-106577960D01*
X201619360Y-106628760D02*
X201619360Y-102728760D01*
X199619360Y-106628760D02*
X199619360Y-102728760D01*
X201619360Y-106628760D02*
X199619360Y-106628760D01*
X182575000Y-106575000D02*
X182575000Y-102675000D01*
X180575000Y-106575000D02*
X180575000Y-102675000D01*
X182575000Y-106575000D02*
X180575000Y-106575000D01*
X163544760Y-106567800D02*
X163544760Y-102667800D01*
X161544760Y-106567800D02*
X161544760Y-102667800D01*
X163544760Y-106567800D02*
X161544760Y-106567800D01*
X144510000Y-106593200D02*
X144510000Y-102693200D01*
X142510000Y-106593200D02*
X142510000Y-102693200D01*
X144510000Y-106593200D02*
X142510000Y-106593200D01*
X125409200Y-106547480D02*
X125409200Y-102647480D01*
X123409200Y-106547480D02*
X123409200Y-102647480D01*
X125409200Y-106547480D02*
X123409200Y-106547480D01*
X106404920Y-106593200D02*
X106404920Y-102693200D01*
X104404920Y-106593200D02*
X104404920Y-102693200D01*
X106404920Y-106593200D02*
X104404920Y-106593200D01*
X87273640Y-106593200D02*
X87273640Y-102693200D01*
X85273640Y-106593200D02*
X85273640Y-102693200D01*
X87273640Y-106593200D02*
X85273640Y-106593200D01*
X58003000Y-109363000D02*
X54103000Y-109363000D01*
X58003000Y-111363000D02*
X54103000Y-111363000D01*
X58003000Y-109363000D02*
X58003000Y-111363000D01*
X226075000Y-71575000D02*
X226075000Y-75475000D01*
X228075000Y-71575000D02*
X228075000Y-75475000D01*
X226075000Y-71575000D02*
X228075000Y-71575000D01*
X200475000Y-71625000D02*
X200475000Y-75525000D01*
X202475000Y-71625000D02*
X202475000Y-75525000D01*
X200475000Y-71625000D02*
X202475000Y-71625000D01*
X190050000Y-71625000D02*
X190050000Y-75525000D01*
X192050000Y-71625000D02*
X192050000Y-75525000D01*
X190050000Y-71625000D02*
X192050000Y-71625000D01*
X170975000Y-71625000D02*
X170975000Y-75525000D01*
X172975000Y-71625000D02*
X172975000Y-75525000D01*
X170975000Y-71625000D02*
X172975000Y-71625000D01*
X151950000Y-71625000D02*
X151950000Y-75525000D01*
X153950000Y-71625000D02*
X153950000Y-75525000D01*
X151950000Y-71625000D02*
X153950000Y-71625000D01*
X132900000Y-71625000D02*
X132900000Y-75525000D01*
X134900000Y-71625000D02*
X134900000Y-75525000D01*
X132900000Y-71625000D02*
X134900000Y-71625000D01*
X113825000Y-71625000D02*
X113825000Y-75525000D01*
X115825000Y-71625000D02*
X115825000Y-75525000D01*
X113825000Y-71625000D02*
X115825000Y-71625000D01*
X94800000Y-71625000D02*
X94800000Y-75525000D01*
X96800000Y-71625000D02*
X96800000Y-75525000D01*
X94800000Y-71625000D02*
X96800000Y-71625000D01*
X75725000Y-71625000D02*
X75725000Y-75525000D01*
X77725000Y-71625000D02*
X77725000Y-75525000D01*
X75725000Y-71625000D02*
X77725000Y-71625000D01*
X54325000Y-71625000D02*
X54325000Y-75525000D01*
X56325000Y-71625000D02*
X56325000Y-75525000D01*
X54325000Y-71625000D02*
X56325000Y-71625000D01*
X227850000Y-68475000D02*
X227850000Y-64575000D01*
X225850000Y-68475000D02*
X225850000Y-64575000D01*
X227850000Y-68475000D02*
X225850000Y-68475000D01*
X200975000Y-68425000D02*
X200975000Y-64525000D01*
X198975000Y-68425000D02*
X198975000Y-64525000D01*
X200975000Y-68425000D02*
X198975000Y-68425000D01*
X187350000Y-68475000D02*
X187350000Y-64575000D01*
X185350000Y-68475000D02*
X185350000Y-64575000D01*
X187350000Y-68475000D02*
X185350000Y-68475000D01*
X168294560Y-68508440D02*
X168294560Y-64608440D01*
X166294560Y-68508440D02*
X166294560Y-64608440D01*
X168294560Y-68508440D02*
X166294560Y-68508440D01*
X144149320Y-68493200D02*
X144149320Y-64593200D01*
X142149320Y-68493200D02*
X142149320Y-64593200D01*
X144149320Y-68493200D02*
X142149320Y-68493200D01*
X130204720Y-68498280D02*
X130204720Y-64598280D01*
X128204720Y-68498280D02*
X128204720Y-64598280D01*
X130204720Y-68498280D02*
X128204720Y-68498280D01*
X111149640Y-68498280D02*
X111149640Y-64598280D01*
X109149640Y-68498280D02*
X109149640Y-64598280D01*
X111149640Y-68498280D02*
X109149640Y-68498280D01*
X92094560Y-68498280D02*
X92094560Y-64598280D01*
X90094560Y-68498280D02*
X90094560Y-64598280D01*
X92094560Y-68498280D02*
X90094560Y-68498280D01*
X73069960Y-68498280D02*
X73069960Y-64598280D01*
X71069960Y-68498280D02*
X71069960Y-64598280D01*
X73069960Y-68498280D02*
X71069960Y-68498280D01*
X53975000Y-68475000D02*
X53975000Y-64575000D01*
X51975000Y-68475000D02*
X51975000Y-64575000D01*
X53975000Y-68475000D02*
X51975000Y-68475000D01*
X75118796Y-89838888D02*
X74753112Y-89473204D01*
X76122888Y-88834796D02*
X75757204Y-88469112D01*
X61656796Y-102157888D02*
X61291112Y-101792204D01*
X62660888Y-101153796D02*
X62295204Y-100788112D01*
X56564888Y-88838204D02*
X56199204Y-89203888D01*
X55560796Y-87834112D02*
X55195112Y-88199796D01*
X76654922Y-82879000D02*
X77172078Y-82879000D01*
X76654922Y-81459000D02*
X77172078Y-81459000D01*
X70628025Y-96517883D02*
X70993709Y-96152199D01*
X71632117Y-97521975D02*
X71997801Y-97156291D01*
X59374204Y-101042112D02*
X59739888Y-101407796D01*
X58370112Y-102046204D02*
X58735796Y-102411888D01*
X57072888Y-96331204D02*
X56707204Y-96696888D01*
X56068796Y-95327112D02*
X55703112Y-95692796D01*
D10*
X209242205Y-66531300D02*
X209242205Y-65531300D01*
X209004110Y-65531300D01*
X208861253Y-65578920D01*
X208766015Y-65674158D01*
X208718396Y-65769396D01*
X208670777Y-65959872D01*
X208670777Y-66102729D01*
X208718396Y-66293205D01*
X208766015Y-66388443D01*
X208861253Y-66483681D01*
X209004110Y-66531300D01*
X209242205Y-66531300D01*
X208337443Y-65531300D02*
X207718396Y-65531300D01*
X208051729Y-65912253D01*
X207908872Y-65912253D01*
X207813634Y-65959872D01*
X207766015Y-66007491D01*
X207718396Y-66102729D01*
X207718396Y-66340824D01*
X207766015Y-66436062D01*
X207813634Y-66483681D01*
X207908872Y-66531300D01*
X208194586Y-66531300D01*
X208289824Y-66483681D01*
X208337443Y-66436062D01*
X207146967Y-65959872D02*
X207242205Y-65912253D01*
X207289824Y-65864634D01*
X207337443Y-65769396D01*
X207337443Y-65721777D01*
X207289824Y-65626539D01*
X207242205Y-65578920D01*
X207146967Y-65531300D01*
X206956491Y-65531300D01*
X206861253Y-65578920D01*
X206813634Y-65626539D01*
X206766015Y-65721777D01*
X206766015Y-65769396D01*
X206813634Y-65864634D01*
X206861253Y-65912253D01*
X206956491Y-65959872D01*
X207146967Y-65959872D01*
X207242205Y-66007491D01*
X207289824Y-66055110D01*
X207337443Y-66150348D01*
X207337443Y-66340824D01*
X207289824Y-66436062D01*
X207242205Y-66483681D01*
X207146967Y-66531300D01*
X206956491Y-66531300D01*
X206861253Y-66483681D01*
X206813634Y-66436062D01*
X206766015Y-66340824D01*
X206766015Y-66150348D01*
X206813634Y-66055110D01*
X206861253Y-66007491D01*
X206956491Y-65959872D01*
X209637095Y-53300380D02*
X209637095Y-54109904D01*
X209589476Y-54205142D01*
X209541857Y-54252761D01*
X209446619Y-54300380D01*
X209256142Y-54300380D01*
X209160904Y-54252761D01*
X209113285Y-54205142D01*
X209065666Y-54109904D01*
X209065666Y-53300380D01*
X208637095Y-54252761D02*
X208494238Y-54300380D01*
X208256142Y-54300380D01*
X208160904Y-54252761D01*
X208113285Y-54205142D01*
X208065666Y-54109904D01*
X208065666Y-54014666D01*
X208113285Y-53919428D01*
X208160904Y-53871809D01*
X208256142Y-53824190D01*
X208446619Y-53776571D01*
X208541857Y-53728952D01*
X208589476Y-53681333D01*
X208637095Y-53586095D01*
X208637095Y-53490857D01*
X208589476Y-53395619D01*
X208541857Y-53348000D01*
X208446619Y-53300380D01*
X208208523Y-53300380D01*
X208065666Y-53348000D01*
X207303761Y-53776571D02*
X207160904Y-53824190D01*
X207113285Y-53871809D01*
X207065666Y-53967047D01*
X207065666Y-54109904D01*
X207113285Y-54205142D01*
X207160904Y-54252761D01*
X207256142Y-54300380D01*
X207637095Y-54300380D01*
X207637095Y-53300380D01*
X207303761Y-53300380D01*
X207208523Y-53348000D01*
X207160904Y-53395619D01*
X207113285Y-53490857D01*
X207113285Y-53586095D01*
X207160904Y-53681333D01*
X207208523Y-53728952D01*
X207303761Y-53776571D01*
X207637095Y-53776571D01*
X206113285Y-54300380D02*
X206684714Y-54300380D01*
X206399000Y-54300380D02*
X206399000Y-53300380D01*
X206494238Y-53443238D01*
X206589476Y-53538476D01*
X206684714Y-53586095D01*
X210046746Y-62184260D02*
X210380080Y-61708070D01*
X210618175Y-62184260D02*
X210618175Y-61184260D01*
X210237222Y-61184260D01*
X210141984Y-61231880D01*
X210094365Y-61279499D01*
X210046746Y-61374737D01*
X210046746Y-61517594D01*
X210094365Y-61612832D01*
X210141984Y-61660451D01*
X210237222Y-61708070D01*
X210618175Y-61708070D01*
X209141984Y-61184260D02*
X209618175Y-61184260D01*
X209665794Y-61660451D01*
X209618175Y-61612832D01*
X209522937Y-61565213D01*
X209284841Y-61565213D01*
X209189603Y-61612832D01*
X209141984Y-61660451D01*
X209094365Y-61755689D01*
X209094365Y-61993784D01*
X209141984Y-62089022D01*
X209189603Y-62136641D01*
X209284841Y-62184260D01*
X209522937Y-62184260D01*
X209618175Y-62136641D01*
X209665794Y-62089022D01*
X210744746Y-71379060D02*
X211078080Y-70902870D01*
X211316175Y-71379060D02*
X211316175Y-70379060D01*
X210935222Y-70379060D01*
X210839984Y-70426680D01*
X210792365Y-70474299D01*
X210744746Y-70569537D01*
X210744746Y-70712394D01*
X210792365Y-70807632D01*
X210839984Y-70855251D01*
X210935222Y-70902870D01*
X211316175Y-70902870D01*
X209887603Y-70712394D02*
X209887603Y-71379060D01*
X210125699Y-70331441D02*
X210363794Y-71045727D01*
X209744746Y-71045727D01*
X205558066Y-71389220D02*
X205891400Y-70913030D01*
X206129495Y-71389220D02*
X206129495Y-70389220D01*
X205748542Y-70389220D01*
X205653304Y-70436840D01*
X205605685Y-70484459D01*
X205558066Y-70579697D01*
X205558066Y-70722554D01*
X205605685Y-70817792D01*
X205653304Y-70865411D01*
X205748542Y-70913030D01*
X206129495Y-70913030D01*
X205224733Y-70389220D02*
X204605685Y-70389220D01*
X204939019Y-70770173D01*
X204796161Y-70770173D01*
X204700923Y-70817792D01*
X204653304Y-70865411D01*
X204605685Y-70960649D01*
X204605685Y-71198744D01*
X204653304Y-71293982D01*
X204700923Y-71341601D01*
X204796161Y-71389220D01*
X205081876Y-71389220D01*
X205177114Y-71341601D01*
X205224733Y-71293982D01*
X205746026Y-62229980D02*
X206079360Y-61753790D01*
X206317455Y-62229980D02*
X206317455Y-61229980D01*
X205936502Y-61229980D01*
X205841264Y-61277600D01*
X205793645Y-61325219D01*
X205746026Y-61420457D01*
X205746026Y-61563314D01*
X205793645Y-61658552D01*
X205841264Y-61706171D01*
X205936502Y-61753790D01*
X206317455Y-61753790D01*
X205365074Y-61325219D02*
X205317455Y-61277600D01*
X205222217Y-61229980D01*
X204984121Y-61229980D01*
X204888883Y-61277600D01*
X204841264Y-61325219D01*
X204793645Y-61420457D01*
X204793645Y-61515695D01*
X204841264Y-61658552D01*
X205412693Y-62229980D01*
X204793645Y-62229980D01*
X193852380Y-120485714D02*
X192852380Y-120485714D01*
X192852380Y-120723809D01*
X192900000Y-120866666D01*
X192995238Y-120961904D01*
X193090476Y-121009523D01*
X193280952Y-121057142D01*
X193423809Y-121057142D01*
X193614285Y-121009523D01*
X193709523Y-120961904D01*
X193804761Y-120866666D01*
X193852380Y-120723809D01*
X193852380Y-120485714D01*
X192852380Y-121390476D02*
X192852380Y-122009523D01*
X193233333Y-121676190D01*
X193233333Y-121819047D01*
X193280952Y-121914285D01*
X193328571Y-121961904D01*
X193423809Y-122009523D01*
X193661904Y-122009523D01*
X193757142Y-121961904D01*
X193804761Y-121914285D01*
X193852380Y-121819047D01*
X193852380Y-121533333D01*
X193804761Y-121438095D01*
X193757142Y-121390476D01*
X192852380Y-122914285D02*
X192852380Y-122438095D01*
X193328571Y-122390476D01*
X193280952Y-122438095D01*
X193233333Y-122533333D01*
X193233333Y-122771428D01*
X193280952Y-122866666D01*
X193328571Y-122914285D01*
X193423809Y-122961904D01*
X193661904Y-122961904D01*
X193757142Y-122914285D01*
X193804761Y-122866666D01*
X193852380Y-122771428D01*
X193852380Y-122533333D01*
X193804761Y-122438095D01*
X193757142Y-122390476D01*
X212677380Y-120429714D02*
X211677380Y-120429714D01*
X211677380Y-120667809D01*
X211725000Y-120810666D01*
X211820238Y-120905904D01*
X211915476Y-120953523D01*
X212105952Y-121001142D01*
X212248809Y-121001142D01*
X212439285Y-120953523D01*
X212534523Y-120905904D01*
X212629761Y-120810666D01*
X212677380Y-120667809D01*
X212677380Y-120429714D01*
X211677380Y-121334476D02*
X211677380Y-121953523D01*
X212058333Y-121620190D01*
X212058333Y-121763047D01*
X212105952Y-121858285D01*
X212153571Y-121905904D01*
X212248809Y-121953523D01*
X212486904Y-121953523D01*
X212582142Y-121905904D01*
X212629761Y-121858285D01*
X212677380Y-121763047D01*
X212677380Y-121477333D01*
X212629761Y-121382095D01*
X212582142Y-121334476D01*
X211677380Y-122810666D02*
X211677380Y-122620190D01*
X211725000Y-122524952D01*
X211772619Y-122477333D01*
X211915476Y-122382095D01*
X212105952Y-122334476D01*
X212486904Y-122334476D01*
X212582142Y-122382095D01*
X212629761Y-122429714D01*
X212677380Y-122524952D01*
X212677380Y-122715428D01*
X212629761Y-122810666D01*
X212582142Y-122858285D01*
X212486904Y-122905904D01*
X212248809Y-122905904D01*
X212153571Y-122858285D01*
X212105952Y-122810666D01*
X212058333Y-122715428D01*
X212058333Y-122524952D01*
X212105952Y-122429714D01*
X212153571Y-122382095D01*
X212248809Y-122334476D01*
X124502380Y-120385714D02*
X123502380Y-120385714D01*
X123502380Y-120623809D01*
X123550000Y-120766666D01*
X123645238Y-120861904D01*
X123740476Y-120909523D01*
X123930952Y-120957142D01*
X124073809Y-120957142D01*
X124264285Y-120909523D01*
X124359523Y-120861904D01*
X124454761Y-120766666D01*
X124502380Y-120623809D01*
X124502380Y-120385714D01*
X123502380Y-121290476D02*
X123502380Y-121909523D01*
X123883333Y-121576190D01*
X123883333Y-121719047D01*
X123930952Y-121814285D01*
X123978571Y-121861904D01*
X124073809Y-121909523D01*
X124311904Y-121909523D01*
X124407142Y-121861904D01*
X124454761Y-121814285D01*
X124502380Y-121719047D01*
X124502380Y-121433333D01*
X124454761Y-121338095D01*
X124407142Y-121290476D01*
X123502380Y-122242857D02*
X123502380Y-122861904D01*
X123883333Y-122528571D01*
X123883333Y-122671428D01*
X123930952Y-122766666D01*
X123978571Y-122814285D01*
X124073809Y-122861904D01*
X124311904Y-122861904D01*
X124407142Y-122814285D01*
X124454761Y-122766666D01*
X124502380Y-122671428D01*
X124502380Y-122385714D01*
X124454761Y-122290476D01*
X124407142Y-122242857D01*
X90527380Y-121385714D02*
X89527380Y-121385714D01*
X89527380Y-121623809D01*
X89575000Y-121766666D01*
X89670238Y-121861904D01*
X89765476Y-121909523D01*
X89955952Y-121957142D01*
X90098809Y-121957142D01*
X90289285Y-121909523D01*
X90384523Y-121861904D01*
X90479761Y-121766666D01*
X90527380Y-121623809D01*
X90527380Y-121385714D01*
X89527380Y-122290476D02*
X89527380Y-122909523D01*
X89908333Y-122576190D01*
X89908333Y-122719047D01*
X89955952Y-122814285D01*
X90003571Y-122861904D01*
X90098809Y-122909523D01*
X90336904Y-122909523D01*
X90432142Y-122861904D01*
X90479761Y-122814285D01*
X90527380Y-122719047D01*
X90527380Y-122433333D01*
X90479761Y-122338095D01*
X90432142Y-122290476D01*
X89622619Y-123290476D02*
X89575000Y-123338095D01*
X89527380Y-123433333D01*
X89527380Y-123671428D01*
X89575000Y-123766666D01*
X89622619Y-123814285D01*
X89717857Y-123861904D01*
X89813095Y-123861904D01*
X89955952Y-123814285D01*
X90527380Y-123242857D01*
X90527380Y-123861904D01*
X49382428Y-103489380D02*
X49382428Y-102489380D01*
X49049095Y-103203666D01*
X48715761Y-102489380D01*
X48715761Y-103489380D01*
X48239571Y-103489380D02*
X48239571Y-102489380D01*
X47811000Y-103441761D02*
X47668142Y-103489380D01*
X47430047Y-103489380D01*
X47334809Y-103441761D01*
X47287190Y-103394142D01*
X47239571Y-103298904D01*
X47239571Y-103203666D01*
X47287190Y-103108428D01*
X47334809Y-103060809D01*
X47430047Y-103013190D01*
X47620523Y-102965571D01*
X47715761Y-102917952D01*
X47763380Y-102870333D01*
X47811000Y-102775095D01*
X47811000Y-102679857D01*
X47763380Y-102584619D01*
X47715761Y-102537000D01*
X47620523Y-102489380D01*
X47382428Y-102489380D01*
X47239571Y-102537000D01*
X46620523Y-102489380D02*
X46430047Y-102489380D01*
X46334809Y-102537000D01*
X46239571Y-102632238D01*
X46191952Y-102822714D01*
X46191952Y-103156047D01*
X46239571Y-103346523D01*
X46334809Y-103441761D01*
X46430047Y-103489380D01*
X46620523Y-103489380D01*
X46715761Y-103441761D01*
X46811000Y-103346523D01*
X46858619Y-103156047D01*
X46858619Y-102822714D01*
X46811000Y-102632238D01*
X46715761Y-102537000D01*
X46620523Y-102489380D01*
X40894333Y-102489380D02*
X40561000Y-103489380D01*
X40227666Y-102489380D01*
X39322904Y-103394142D02*
X39370523Y-103441761D01*
X39513380Y-103489380D01*
X39608619Y-103489380D01*
X39751476Y-103441761D01*
X39846714Y-103346523D01*
X39894333Y-103251285D01*
X39941952Y-103060809D01*
X39941952Y-102917952D01*
X39894333Y-102727476D01*
X39846714Y-102632238D01*
X39751476Y-102537000D01*
X39608619Y-102489380D01*
X39513380Y-102489380D01*
X39370523Y-102537000D01*
X39322904Y-102584619D01*
X38322904Y-103394142D02*
X38370523Y-103441761D01*
X38513380Y-103489380D01*
X38608619Y-103489380D01*
X38751476Y-103441761D01*
X38846714Y-103346523D01*
X38894333Y-103251285D01*
X38941952Y-103060809D01*
X38941952Y-102917952D01*
X38894333Y-102727476D01*
X38846714Y-102632238D01*
X38751476Y-102537000D01*
X38608619Y-102489380D01*
X38513380Y-102489380D01*
X38370523Y-102537000D01*
X38322904Y-102584619D01*
X48846714Y-105941761D02*
X48703857Y-105989380D01*
X48465761Y-105989380D01*
X48370523Y-105941761D01*
X48322904Y-105894142D01*
X48275285Y-105798904D01*
X48275285Y-105703666D01*
X48322904Y-105608428D01*
X48370523Y-105560809D01*
X48465761Y-105513190D01*
X48656238Y-105465571D01*
X48751476Y-105417952D01*
X48799095Y-105370333D01*
X48846714Y-105275095D01*
X48846714Y-105179857D01*
X48799095Y-105084619D01*
X48751476Y-105037000D01*
X48656238Y-104989380D01*
X48418142Y-104989380D01*
X48275285Y-105037000D01*
X47275285Y-105894142D02*
X47322904Y-105941761D01*
X47465761Y-105989380D01*
X47561000Y-105989380D01*
X47703857Y-105941761D01*
X47799095Y-105846523D01*
X47846714Y-105751285D01*
X47894333Y-105560809D01*
X47894333Y-105417952D01*
X47846714Y-105227476D01*
X47799095Y-105132238D01*
X47703857Y-105037000D01*
X47561000Y-104989380D01*
X47465761Y-104989380D01*
X47322904Y-105037000D01*
X47275285Y-105084619D01*
X46846714Y-105989380D02*
X46846714Y-104989380D01*
X46275285Y-105989380D02*
X46703857Y-105417952D01*
X46275285Y-104989380D02*
X46846714Y-105560809D01*
X40882428Y-105989380D02*
X40882428Y-104989380D01*
X40549095Y-105703666D01*
X40215761Y-104989380D01*
X40215761Y-105989380D01*
X39549095Y-104989380D02*
X39358619Y-104989380D01*
X39263380Y-105037000D01*
X39168142Y-105132238D01*
X39120523Y-105322714D01*
X39120523Y-105656047D01*
X39168142Y-105846523D01*
X39263380Y-105941761D01*
X39358619Y-105989380D01*
X39549095Y-105989380D01*
X39644333Y-105941761D01*
X39739571Y-105846523D01*
X39787190Y-105656047D01*
X39787190Y-105322714D01*
X39739571Y-105132238D01*
X39644333Y-105037000D01*
X39549095Y-104989380D01*
X38739571Y-105941761D02*
X38596714Y-105989380D01*
X38358619Y-105989380D01*
X38263380Y-105941761D01*
X38215761Y-105894142D01*
X38168142Y-105798904D01*
X38168142Y-105703666D01*
X38215761Y-105608428D01*
X38263380Y-105560809D01*
X38358619Y-105513190D01*
X38549095Y-105465571D01*
X38644333Y-105417952D01*
X38691952Y-105370333D01*
X38739571Y-105275095D01*
X38739571Y-105179857D01*
X38691952Y-105084619D01*
X38644333Y-105037000D01*
X38549095Y-104989380D01*
X38311000Y-104989380D01*
X38168142Y-105037000D01*
X37739571Y-105989380D02*
X37739571Y-104989380D01*
X48358619Y-108489380D02*
X48691952Y-108013190D01*
X48930047Y-108489380D02*
X48930047Y-107489380D01*
X48549095Y-107489380D01*
X48453857Y-107537000D01*
X48406238Y-107584619D01*
X48358619Y-107679857D01*
X48358619Y-107822714D01*
X48406238Y-107917952D01*
X48453857Y-107965571D01*
X48549095Y-108013190D01*
X48930047Y-108013190D01*
X47977666Y-108441761D02*
X47834809Y-108489380D01*
X47596714Y-108489380D01*
X47501476Y-108441761D01*
X47453857Y-108394142D01*
X47406238Y-108298904D01*
X47406238Y-108203666D01*
X47453857Y-108108428D01*
X47501476Y-108060809D01*
X47596714Y-108013190D01*
X47787190Y-107965571D01*
X47882428Y-107917952D01*
X47930047Y-107870333D01*
X47977666Y-107775095D01*
X47977666Y-107679857D01*
X47930047Y-107584619D01*
X47882428Y-107537000D01*
X47787190Y-107489380D01*
X47549095Y-107489380D01*
X47406238Y-107537000D01*
X47120523Y-107489380D02*
X46549095Y-107489380D01*
X46834809Y-108489380D02*
X46834809Y-107489380D01*
X40072904Y-107537000D02*
X40168142Y-107489380D01*
X40311000Y-107489380D01*
X40453857Y-107537000D01*
X40549095Y-107632238D01*
X40596714Y-107727476D01*
X40644333Y-107917952D01*
X40644333Y-108060809D01*
X40596714Y-108251285D01*
X40549095Y-108346523D01*
X40453857Y-108441761D01*
X40311000Y-108489380D01*
X40215761Y-108489380D01*
X40072904Y-108441761D01*
X40025285Y-108394142D01*
X40025285Y-108060809D01*
X40215761Y-108060809D01*
X39596714Y-108489380D02*
X39596714Y-107489380D01*
X39025285Y-108489380D01*
X39025285Y-107489380D01*
X38549095Y-108489380D02*
X38549095Y-107489380D01*
X38311000Y-107489380D01*
X38168142Y-107537000D01*
X38072904Y-107632238D01*
X38025285Y-107727476D01*
X37977666Y-107917952D01*
X37977666Y-108060809D01*
X38025285Y-108251285D01*
X38072904Y-108346523D01*
X38168142Y-108441761D01*
X38311000Y-108489380D01*
X38549095Y-108489380D01*
X59408553Y-95315881D02*
X59071835Y-95652599D01*
X60014644Y-95181194D02*
X59408553Y-95315881D01*
X59543240Y-94709790D01*
X58230042Y-94810805D02*
X58634103Y-95214866D01*
X58432072Y-95012835D02*
X59139179Y-94305729D01*
X59105507Y-94474087D01*
X59105507Y-94608774D01*
X59139179Y-94709790D01*
X75093973Y-91972522D02*
X74521553Y-92544942D01*
X74420538Y-92578614D01*
X74353194Y-92578614D01*
X74252179Y-92544942D01*
X74117492Y-92410255D01*
X74083820Y-92309240D01*
X74083820Y-92241896D01*
X74117492Y-92140881D01*
X74689912Y-91568461D01*
X73275698Y-91568461D02*
X73679759Y-91972522D01*
X73477729Y-91770492D02*
X74184835Y-91063385D01*
X74151164Y-91231744D01*
X74151164Y-91366431D01*
X74184835Y-91467446D01*
X44386333Y-87272761D02*
X44243476Y-87320380D01*
X44005380Y-87320380D01*
X43910142Y-87272761D01*
X43862523Y-87225142D01*
X43814904Y-87129904D01*
X43814904Y-87034666D01*
X43862523Y-86939428D01*
X43910142Y-86891809D01*
X44005380Y-86844190D01*
X44195857Y-86796571D01*
X44291095Y-86748952D01*
X44338714Y-86701333D01*
X44386333Y-86606095D01*
X44386333Y-86510857D01*
X44338714Y-86415619D01*
X44291095Y-86368000D01*
X44195857Y-86320380D01*
X43957761Y-86320380D01*
X43814904Y-86368000D01*
X43481571Y-86320380D02*
X43243476Y-87320380D01*
X43053000Y-86606095D01*
X42862523Y-87320380D01*
X42624428Y-86320380D01*
X41719666Y-87320380D02*
X42291095Y-87320380D01*
X42005380Y-87320380D02*
X42005380Y-86320380D01*
X42100619Y-86463238D01*
X42195857Y-86558476D01*
X42291095Y-86606095D01*
X58972666Y-78405380D02*
X59306000Y-77929190D01*
X59544095Y-78405380D02*
X59544095Y-77405380D01*
X59163142Y-77405380D01*
X59067904Y-77453000D01*
X59020285Y-77500619D01*
X58972666Y-77595857D01*
X58972666Y-77738714D01*
X59020285Y-77833952D01*
X59067904Y-77881571D01*
X59163142Y-77929190D01*
X59544095Y-77929190D01*
X58115523Y-77405380D02*
X58306000Y-77405380D01*
X58401238Y-77453000D01*
X58448857Y-77500619D01*
X58544095Y-77643476D01*
X58591714Y-77833952D01*
X58591714Y-78214904D01*
X58544095Y-78310142D01*
X58496476Y-78357761D01*
X58401238Y-78405380D01*
X58210761Y-78405380D01*
X58115523Y-78357761D01*
X58067904Y-78310142D01*
X58020285Y-78214904D01*
X58020285Y-77976809D01*
X58067904Y-77881571D01*
X58115523Y-77833952D01*
X58210761Y-77786333D01*
X58401238Y-77786333D01*
X58496476Y-77833952D01*
X58544095Y-77881571D01*
X58591714Y-77976809D01*
X41060666Y-96338380D02*
X41394000Y-95862190D01*
X41632095Y-96338380D02*
X41632095Y-95338380D01*
X41251142Y-95338380D01*
X41155904Y-95386000D01*
X41108285Y-95433619D01*
X41060666Y-95528857D01*
X41060666Y-95671714D01*
X41108285Y-95766952D01*
X41155904Y-95814571D01*
X41251142Y-95862190D01*
X41632095Y-95862190D01*
X40108285Y-96338380D02*
X40679714Y-96338380D01*
X40394000Y-96338380D02*
X40394000Y-95338380D01*
X40489238Y-95481238D01*
X40584476Y-95576476D01*
X40679714Y-95624095D01*
X203528253Y-70581211D02*
X203861586Y-70581211D01*
X203861586Y-71105020D02*
X203861586Y-70105020D01*
X203385396Y-70105020D01*
X202480634Y-71105020D02*
X203052062Y-71105020D01*
X202766348Y-71105020D02*
X202766348Y-70105020D01*
X202861586Y-70247878D01*
X202956824Y-70343116D01*
X203052062Y-70390735D01*
X226877380Y-120660714D02*
X225877380Y-120660714D01*
X225877380Y-120898809D01*
X225925000Y-121041666D01*
X226020238Y-121136904D01*
X226115476Y-121184523D01*
X226305952Y-121232142D01*
X226448809Y-121232142D01*
X226639285Y-121184523D01*
X226734523Y-121136904D01*
X226829761Y-121041666D01*
X226877380Y-120898809D01*
X226877380Y-120660714D01*
X225877380Y-121565476D02*
X225877380Y-122184523D01*
X226258333Y-121851190D01*
X226258333Y-121994047D01*
X226305952Y-122089285D01*
X226353571Y-122136904D01*
X226448809Y-122184523D01*
X226686904Y-122184523D01*
X226782142Y-122136904D01*
X226829761Y-122089285D01*
X226877380Y-121994047D01*
X226877380Y-121708333D01*
X226829761Y-121613095D01*
X226782142Y-121565476D01*
X225877380Y-122517857D02*
X225877380Y-123184523D01*
X226877380Y-122755952D01*
X165052380Y-120360714D02*
X164052380Y-120360714D01*
X164052380Y-120598809D01*
X164100000Y-120741666D01*
X164195238Y-120836904D01*
X164290476Y-120884523D01*
X164480952Y-120932142D01*
X164623809Y-120932142D01*
X164814285Y-120884523D01*
X164909523Y-120836904D01*
X165004761Y-120741666D01*
X165052380Y-120598809D01*
X165052380Y-120360714D01*
X164052380Y-121265476D02*
X164052380Y-121884523D01*
X164433333Y-121551190D01*
X164433333Y-121694047D01*
X164480952Y-121789285D01*
X164528571Y-121836904D01*
X164623809Y-121884523D01*
X164861904Y-121884523D01*
X164957142Y-121836904D01*
X165004761Y-121789285D01*
X165052380Y-121694047D01*
X165052380Y-121408333D01*
X165004761Y-121313095D01*
X164957142Y-121265476D01*
X164385714Y-122741666D02*
X165052380Y-122741666D01*
X164004761Y-122503571D02*
X164719047Y-122265476D01*
X164719047Y-122884523D01*
X74432100Y-120399234D02*
X73432100Y-120399234D01*
X73432100Y-120637329D01*
X73479720Y-120780186D01*
X73574958Y-120875424D01*
X73670196Y-120923043D01*
X73860672Y-120970662D01*
X74003529Y-120970662D01*
X74194005Y-120923043D01*
X74289243Y-120875424D01*
X74384481Y-120780186D01*
X74432100Y-120637329D01*
X74432100Y-120399234D01*
X73432100Y-121303996D02*
X73432100Y-121923043D01*
X73813053Y-121589710D01*
X73813053Y-121732567D01*
X73860672Y-121827805D01*
X73908291Y-121875424D01*
X74003529Y-121923043D01*
X74241624Y-121923043D01*
X74336862Y-121875424D01*
X74384481Y-121827805D01*
X74432100Y-121732567D01*
X74432100Y-121446853D01*
X74384481Y-121351615D01*
X74336862Y-121303996D01*
X74432100Y-122875424D02*
X74432100Y-122303996D01*
X74432100Y-122589710D02*
X73432100Y-122589710D01*
X73574958Y-122494472D01*
X73670196Y-122399234D01*
X73717815Y-122303996D01*
X55405260Y-120353914D02*
X54405260Y-120353914D01*
X54405260Y-120592009D01*
X54452880Y-120734866D01*
X54548118Y-120830104D01*
X54643356Y-120877723D01*
X54833832Y-120925342D01*
X54976689Y-120925342D01*
X55167165Y-120877723D01*
X55262403Y-120830104D01*
X55357641Y-120734866D01*
X55405260Y-120592009D01*
X55405260Y-120353914D01*
X54405260Y-121258676D02*
X54405260Y-121877723D01*
X54786213Y-121544390D01*
X54786213Y-121687247D01*
X54833832Y-121782485D01*
X54881451Y-121830104D01*
X54976689Y-121877723D01*
X55214784Y-121877723D01*
X55310022Y-121830104D01*
X55357641Y-121782485D01*
X55405260Y-121687247D01*
X55405260Y-121401533D01*
X55357641Y-121306295D01*
X55310022Y-121258676D01*
X54405260Y-122496771D02*
X54405260Y-122592009D01*
X54452880Y-122687247D01*
X54500499Y-122734866D01*
X54595737Y-122782485D01*
X54786213Y-122830104D01*
X55024308Y-122830104D01*
X55214784Y-122782485D01*
X55310022Y-122734866D01*
X55357641Y-122687247D01*
X55405260Y-122592009D01*
X55405260Y-122496771D01*
X55357641Y-122401533D01*
X55310022Y-122353914D01*
X55214784Y-122306295D01*
X55024308Y-122258676D01*
X54786213Y-122258676D01*
X54595737Y-122306295D01*
X54500499Y-122353914D01*
X54452880Y-122401533D01*
X54405260Y-122496771D01*
X226952380Y-103113674D02*
X225952380Y-103113674D01*
X225952380Y-103351769D01*
X226000000Y-103494626D01*
X226095238Y-103589864D01*
X226190476Y-103637483D01*
X226380952Y-103685102D01*
X226523809Y-103685102D01*
X226714285Y-103637483D01*
X226809523Y-103589864D01*
X226904761Y-103494626D01*
X226952380Y-103351769D01*
X226952380Y-103113674D01*
X226047619Y-104066055D02*
X226000000Y-104113674D01*
X225952380Y-104208912D01*
X225952380Y-104447007D01*
X226000000Y-104542245D01*
X226047619Y-104589864D01*
X226142857Y-104637483D01*
X226238095Y-104637483D01*
X226380952Y-104589864D01*
X226952380Y-104018436D01*
X226952380Y-104637483D01*
X226952380Y-105113674D02*
X226952380Y-105304150D01*
X226904761Y-105399388D01*
X226857142Y-105447007D01*
X226714285Y-105542245D01*
X226523809Y-105589864D01*
X226142857Y-105589864D01*
X226047619Y-105542245D01*
X226000000Y-105494626D01*
X225952380Y-105399388D01*
X225952380Y-105208912D01*
X226000000Y-105113674D01*
X226047619Y-105066055D01*
X226142857Y-105018436D01*
X226380952Y-105018436D01*
X226476190Y-105066055D01*
X226523809Y-105113674D01*
X226571428Y-105208912D01*
X226571428Y-105399388D01*
X226523809Y-105494626D01*
X226476190Y-105542245D01*
X226380952Y-105589864D01*
X203071740Y-103164474D02*
X202071740Y-103164474D01*
X202071740Y-103402569D01*
X202119360Y-103545426D01*
X202214598Y-103640664D01*
X202309836Y-103688283D01*
X202500312Y-103735902D01*
X202643169Y-103735902D01*
X202833645Y-103688283D01*
X202928883Y-103640664D01*
X203024121Y-103545426D01*
X203071740Y-103402569D01*
X203071740Y-103164474D01*
X202166979Y-104116855D02*
X202119360Y-104164474D01*
X202071740Y-104259712D01*
X202071740Y-104497807D01*
X202119360Y-104593045D01*
X202166979Y-104640664D01*
X202262217Y-104688283D01*
X202357455Y-104688283D01*
X202500312Y-104640664D01*
X203071740Y-104069236D01*
X203071740Y-104688283D01*
X202500312Y-105259712D02*
X202452693Y-105164474D01*
X202405074Y-105116855D01*
X202309836Y-105069236D01*
X202262217Y-105069236D01*
X202166979Y-105116855D01*
X202119360Y-105164474D01*
X202071740Y-105259712D01*
X202071740Y-105450188D01*
X202119360Y-105545426D01*
X202166979Y-105593045D01*
X202262217Y-105640664D01*
X202309836Y-105640664D01*
X202405074Y-105593045D01*
X202452693Y-105545426D01*
X202500312Y-105450188D01*
X202500312Y-105259712D01*
X202547931Y-105164474D01*
X202595550Y-105116855D01*
X202690788Y-105069236D01*
X202881264Y-105069236D01*
X202976502Y-105116855D01*
X203024121Y-105164474D01*
X203071740Y-105259712D01*
X203071740Y-105450188D01*
X203024121Y-105545426D01*
X202976502Y-105593045D01*
X202881264Y-105640664D01*
X202690788Y-105640664D01*
X202595550Y-105593045D01*
X202547931Y-105545426D01*
X202500312Y-105450188D01*
X184027380Y-103110714D02*
X183027380Y-103110714D01*
X183027380Y-103348809D01*
X183075000Y-103491666D01*
X183170238Y-103586904D01*
X183265476Y-103634523D01*
X183455952Y-103682142D01*
X183598809Y-103682142D01*
X183789285Y-103634523D01*
X183884523Y-103586904D01*
X183979761Y-103491666D01*
X184027380Y-103348809D01*
X184027380Y-103110714D01*
X183122619Y-104063095D02*
X183075000Y-104110714D01*
X183027380Y-104205952D01*
X183027380Y-104444047D01*
X183075000Y-104539285D01*
X183122619Y-104586904D01*
X183217857Y-104634523D01*
X183313095Y-104634523D01*
X183455952Y-104586904D01*
X184027380Y-104015476D01*
X184027380Y-104634523D01*
X183027380Y-104967857D02*
X183027380Y-105634523D01*
X184027380Y-105205952D01*
X164997140Y-103103514D02*
X163997140Y-103103514D01*
X163997140Y-103341609D01*
X164044760Y-103484466D01*
X164139998Y-103579704D01*
X164235236Y-103627323D01*
X164425712Y-103674942D01*
X164568569Y-103674942D01*
X164759045Y-103627323D01*
X164854283Y-103579704D01*
X164949521Y-103484466D01*
X164997140Y-103341609D01*
X164997140Y-103103514D01*
X164092379Y-104055895D02*
X164044760Y-104103514D01*
X163997140Y-104198752D01*
X163997140Y-104436847D01*
X164044760Y-104532085D01*
X164092379Y-104579704D01*
X164187617Y-104627323D01*
X164282855Y-104627323D01*
X164425712Y-104579704D01*
X164997140Y-104008276D01*
X164997140Y-104627323D01*
X163997140Y-105484466D02*
X163997140Y-105293990D01*
X164044760Y-105198752D01*
X164092379Y-105151133D01*
X164235236Y-105055895D01*
X164425712Y-105008276D01*
X164806664Y-105008276D01*
X164901902Y-105055895D01*
X164949521Y-105103514D01*
X164997140Y-105198752D01*
X164997140Y-105389228D01*
X164949521Y-105484466D01*
X164901902Y-105532085D01*
X164806664Y-105579704D01*
X164568569Y-105579704D01*
X164473331Y-105532085D01*
X164425712Y-105484466D01*
X164378093Y-105389228D01*
X164378093Y-105198752D01*
X164425712Y-105103514D01*
X164473331Y-105055895D01*
X164568569Y-105008276D01*
X145962380Y-103128914D02*
X144962380Y-103128914D01*
X144962380Y-103367009D01*
X145010000Y-103509866D01*
X145105238Y-103605104D01*
X145200476Y-103652723D01*
X145390952Y-103700342D01*
X145533809Y-103700342D01*
X145724285Y-103652723D01*
X145819523Y-103605104D01*
X145914761Y-103509866D01*
X145962380Y-103367009D01*
X145962380Y-103128914D01*
X145057619Y-104081295D02*
X145010000Y-104128914D01*
X144962380Y-104224152D01*
X144962380Y-104462247D01*
X145010000Y-104557485D01*
X145057619Y-104605104D01*
X145152857Y-104652723D01*
X145248095Y-104652723D01*
X145390952Y-104605104D01*
X145962380Y-104033676D01*
X145962380Y-104652723D01*
X144962380Y-105557485D02*
X144962380Y-105081295D01*
X145438571Y-105033676D01*
X145390952Y-105081295D01*
X145343333Y-105176533D01*
X145343333Y-105414628D01*
X145390952Y-105509866D01*
X145438571Y-105557485D01*
X145533809Y-105605104D01*
X145771904Y-105605104D01*
X145867142Y-105557485D01*
X145914761Y-105509866D01*
X145962380Y-105414628D01*
X145962380Y-105176533D01*
X145914761Y-105081295D01*
X145867142Y-105033676D01*
X126861580Y-103083194D02*
X125861580Y-103083194D01*
X125861580Y-103321289D01*
X125909200Y-103464146D01*
X126004438Y-103559384D01*
X126099676Y-103607003D01*
X126290152Y-103654622D01*
X126433009Y-103654622D01*
X126623485Y-103607003D01*
X126718723Y-103559384D01*
X126813961Y-103464146D01*
X126861580Y-103321289D01*
X126861580Y-103083194D01*
X125956819Y-104035575D02*
X125909200Y-104083194D01*
X125861580Y-104178432D01*
X125861580Y-104416527D01*
X125909200Y-104511765D01*
X125956819Y-104559384D01*
X126052057Y-104607003D01*
X126147295Y-104607003D01*
X126290152Y-104559384D01*
X126861580Y-103987956D01*
X126861580Y-104607003D01*
X126194914Y-105464146D02*
X126861580Y-105464146D01*
X125813961Y-105226051D02*
X126528247Y-104987956D01*
X126528247Y-105607003D01*
X107857300Y-103128914D02*
X106857300Y-103128914D01*
X106857300Y-103367009D01*
X106904920Y-103509866D01*
X107000158Y-103605104D01*
X107095396Y-103652723D01*
X107285872Y-103700342D01*
X107428729Y-103700342D01*
X107619205Y-103652723D01*
X107714443Y-103605104D01*
X107809681Y-103509866D01*
X107857300Y-103367009D01*
X107857300Y-103128914D01*
X106952539Y-104081295D02*
X106904920Y-104128914D01*
X106857300Y-104224152D01*
X106857300Y-104462247D01*
X106904920Y-104557485D01*
X106952539Y-104605104D01*
X107047777Y-104652723D01*
X107143015Y-104652723D01*
X107285872Y-104605104D01*
X107857300Y-104033676D01*
X107857300Y-104652723D01*
X106857300Y-104986057D02*
X106857300Y-105605104D01*
X107238253Y-105271771D01*
X107238253Y-105414628D01*
X107285872Y-105509866D01*
X107333491Y-105557485D01*
X107428729Y-105605104D01*
X107666824Y-105605104D01*
X107762062Y-105557485D01*
X107809681Y-105509866D01*
X107857300Y-105414628D01*
X107857300Y-105128914D01*
X107809681Y-105033676D01*
X107762062Y-104986057D01*
X88726020Y-103128914D02*
X87726020Y-103128914D01*
X87726020Y-103367009D01*
X87773640Y-103509866D01*
X87868878Y-103605104D01*
X87964116Y-103652723D01*
X88154592Y-103700342D01*
X88297449Y-103700342D01*
X88487925Y-103652723D01*
X88583163Y-103605104D01*
X88678401Y-103509866D01*
X88726020Y-103367009D01*
X88726020Y-103128914D01*
X87821259Y-104081295D02*
X87773640Y-104128914D01*
X87726020Y-104224152D01*
X87726020Y-104462247D01*
X87773640Y-104557485D01*
X87821259Y-104605104D01*
X87916497Y-104652723D01*
X88011735Y-104652723D01*
X88154592Y-104605104D01*
X88726020Y-104033676D01*
X88726020Y-104652723D01*
X87821259Y-105033676D02*
X87773640Y-105081295D01*
X87726020Y-105176533D01*
X87726020Y-105414628D01*
X87773640Y-105509866D01*
X87821259Y-105557485D01*
X87916497Y-105605104D01*
X88011735Y-105605104D01*
X88154592Y-105557485D01*
X88726020Y-104986057D01*
X88726020Y-105605104D01*
X56967285Y-108815380D02*
X56967285Y-107815380D01*
X56729190Y-107815380D01*
X56586333Y-107863000D01*
X56491095Y-107958238D01*
X56443476Y-108053476D01*
X56395857Y-108243952D01*
X56395857Y-108386809D01*
X56443476Y-108577285D01*
X56491095Y-108672523D01*
X56586333Y-108767761D01*
X56729190Y-108815380D01*
X56967285Y-108815380D01*
X56014904Y-107910619D02*
X55967285Y-107863000D01*
X55872047Y-107815380D01*
X55633952Y-107815380D01*
X55538714Y-107863000D01*
X55491095Y-107910619D01*
X55443476Y-108005857D01*
X55443476Y-108101095D01*
X55491095Y-108243952D01*
X56062523Y-108815380D01*
X55443476Y-108815380D01*
X54491095Y-108815380D02*
X55062523Y-108815380D01*
X54776809Y-108815380D02*
X54776809Y-107815380D01*
X54872047Y-107958238D01*
X54967285Y-108053476D01*
X55062523Y-108101095D01*
X225527380Y-72610714D02*
X224527380Y-72610714D01*
X224527380Y-72848809D01*
X224575000Y-72991666D01*
X224670238Y-73086904D01*
X224765476Y-73134523D01*
X224955952Y-73182142D01*
X225098809Y-73182142D01*
X225289285Y-73134523D01*
X225384523Y-73086904D01*
X225479761Y-72991666D01*
X225527380Y-72848809D01*
X225527380Y-72610714D01*
X224622619Y-73563095D02*
X224575000Y-73610714D01*
X224527380Y-73705952D01*
X224527380Y-73944047D01*
X224575000Y-74039285D01*
X224622619Y-74086904D01*
X224717857Y-74134523D01*
X224813095Y-74134523D01*
X224955952Y-74086904D01*
X225527380Y-73515476D01*
X225527380Y-74134523D01*
X224527380Y-74753571D02*
X224527380Y-74848809D01*
X224575000Y-74944047D01*
X224622619Y-74991666D01*
X224717857Y-75039285D01*
X224908333Y-75086904D01*
X225146428Y-75086904D01*
X225336904Y-75039285D01*
X225432142Y-74991666D01*
X225479761Y-74944047D01*
X225527380Y-74848809D01*
X225527380Y-74753571D01*
X225479761Y-74658333D01*
X225432142Y-74610714D01*
X225336904Y-74563095D01*
X225146428Y-74515476D01*
X224908333Y-74515476D01*
X224717857Y-74563095D01*
X224622619Y-74610714D01*
X224575000Y-74658333D01*
X224527380Y-74753571D01*
X199927380Y-72660714D02*
X198927380Y-72660714D01*
X198927380Y-72898809D01*
X198975000Y-73041666D01*
X199070238Y-73136904D01*
X199165476Y-73184523D01*
X199355952Y-73232142D01*
X199498809Y-73232142D01*
X199689285Y-73184523D01*
X199784523Y-73136904D01*
X199879761Y-73041666D01*
X199927380Y-72898809D01*
X199927380Y-72660714D01*
X199927380Y-74184523D02*
X199927380Y-73613095D01*
X199927380Y-73898809D02*
X198927380Y-73898809D01*
X199070238Y-73803571D01*
X199165476Y-73708333D01*
X199213095Y-73613095D01*
X199927380Y-74660714D02*
X199927380Y-74851190D01*
X199879761Y-74946428D01*
X199832142Y-74994047D01*
X199689285Y-75089285D01*
X199498809Y-75136904D01*
X199117857Y-75136904D01*
X199022619Y-75089285D01*
X198975000Y-75041666D01*
X198927380Y-74946428D01*
X198927380Y-74755952D01*
X198975000Y-74660714D01*
X199022619Y-74613095D01*
X199117857Y-74565476D01*
X199355952Y-74565476D01*
X199451190Y-74613095D01*
X199498809Y-74660714D01*
X199546428Y-74755952D01*
X199546428Y-74946428D01*
X199498809Y-75041666D01*
X199451190Y-75089285D01*
X199355952Y-75136904D01*
X189502380Y-72660714D02*
X188502380Y-72660714D01*
X188502380Y-72898809D01*
X188550000Y-73041666D01*
X188645238Y-73136904D01*
X188740476Y-73184523D01*
X188930952Y-73232142D01*
X189073809Y-73232142D01*
X189264285Y-73184523D01*
X189359523Y-73136904D01*
X189454761Y-73041666D01*
X189502380Y-72898809D01*
X189502380Y-72660714D01*
X189502380Y-74184523D02*
X189502380Y-73613095D01*
X189502380Y-73898809D02*
X188502380Y-73898809D01*
X188645238Y-73803571D01*
X188740476Y-73708333D01*
X188788095Y-73613095D01*
X188930952Y-74755952D02*
X188883333Y-74660714D01*
X188835714Y-74613095D01*
X188740476Y-74565476D01*
X188692857Y-74565476D01*
X188597619Y-74613095D01*
X188550000Y-74660714D01*
X188502380Y-74755952D01*
X188502380Y-74946428D01*
X188550000Y-75041666D01*
X188597619Y-75089285D01*
X188692857Y-75136904D01*
X188740476Y-75136904D01*
X188835714Y-75089285D01*
X188883333Y-75041666D01*
X188930952Y-74946428D01*
X188930952Y-74755952D01*
X188978571Y-74660714D01*
X189026190Y-74613095D01*
X189121428Y-74565476D01*
X189311904Y-74565476D01*
X189407142Y-74613095D01*
X189454761Y-74660714D01*
X189502380Y-74755952D01*
X189502380Y-74946428D01*
X189454761Y-75041666D01*
X189407142Y-75089285D01*
X189311904Y-75136904D01*
X189121428Y-75136904D01*
X189026190Y-75089285D01*
X188978571Y-75041666D01*
X188930952Y-74946428D01*
X170427380Y-72660714D02*
X169427380Y-72660714D01*
X169427380Y-72898809D01*
X169475000Y-73041666D01*
X169570238Y-73136904D01*
X169665476Y-73184523D01*
X169855952Y-73232142D01*
X169998809Y-73232142D01*
X170189285Y-73184523D01*
X170284523Y-73136904D01*
X170379761Y-73041666D01*
X170427380Y-72898809D01*
X170427380Y-72660714D01*
X170427380Y-74184523D02*
X170427380Y-73613095D01*
X170427380Y-73898809D02*
X169427380Y-73898809D01*
X169570238Y-73803571D01*
X169665476Y-73708333D01*
X169713095Y-73613095D01*
X169427380Y-74517857D02*
X169427380Y-75184523D01*
X170427380Y-74755952D01*
X151402380Y-72660714D02*
X150402380Y-72660714D01*
X150402380Y-72898809D01*
X150450000Y-73041666D01*
X150545238Y-73136904D01*
X150640476Y-73184523D01*
X150830952Y-73232142D01*
X150973809Y-73232142D01*
X151164285Y-73184523D01*
X151259523Y-73136904D01*
X151354761Y-73041666D01*
X151402380Y-72898809D01*
X151402380Y-72660714D01*
X151402380Y-74184523D02*
X151402380Y-73613095D01*
X151402380Y-73898809D02*
X150402380Y-73898809D01*
X150545238Y-73803571D01*
X150640476Y-73708333D01*
X150688095Y-73613095D01*
X150402380Y-75041666D02*
X150402380Y-74851190D01*
X150450000Y-74755952D01*
X150497619Y-74708333D01*
X150640476Y-74613095D01*
X150830952Y-74565476D01*
X151211904Y-74565476D01*
X151307142Y-74613095D01*
X151354761Y-74660714D01*
X151402380Y-74755952D01*
X151402380Y-74946428D01*
X151354761Y-75041666D01*
X151307142Y-75089285D01*
X151211904Y-75136904D01*
X150973809Y-75136904D01*
X150878571Y-75089285D01*
X150830952Y-75041666D01*
X150783333Y-74946428D01*
X150783333Y-74755952D01*
X150830952Y-74660714D01*
X150878571Y-74613095D01*
X150973809Y-74565476D01*
X132352380Y-72660714D02*
X131352380Y-72660714D01*
X131352380Y-72898809D01*
X131400000Y-73041666D01*
X131495238Y-73136904D01*
X131590476Y-73184523D01*
X131780952Y-73232142D01*
X131923809Y-73232142D01*
X132114285Y-73184523D01*
X132209523Y-73136904D01*
X132304761Y-73041666D01*
X132352380Y-72898809D01*
X132352380Y-72660714D01*
X132352380Y-74184523D02*
X132352380Y-73613095D01*
X132352380Y-73898809D02*
X131352380Y-73898809D01*
X131495238Y-73803571D01*
X131590476Y-73708333D01*
X131638095Y-73613095D01*
X131352380Y-75089285D02*
X131352380Y-74613095D01*
X131828571Y-74565476D01*
X131780952Y-74613095D01*
X131733333Y-74708333D01*
X131733333Y-74946428D01*
X131780952Y-75041666D01*
X131828571Y-75089285D01*
X131923809Y-75136904D01*
X132161904Y-75136904D01*
X132257142Y-75089285D01*
X132304761Y-75041666D01*
X132352380Y-74946428D01*
X132352380Y-74708333D01*
X132304761Y-74613095D01*
X132257142Y-74565476D01*
X113277380Y-72660714D02*
X112277380Y-72660714D01*
X112277380Y-72898809D01*
X112325000Y-73041666D01*
X112420238Y-73136904D01*
X112515476Y-73184523D01*
X112705952Y-73232142D01*
X112848809Y-73232142D01*
X113039285Y-73184523D01*
X113134523Y-73136904D01*
X113229761Y-73041666D01*
X113277380Y-72898809D01*
X113277380Y-72660714D01*
X113277380Y-74184523D02*
X113277380Y-73613095D01*
X113277380Y-73898809D02*
X112277380Y-73898809D01*
X112420238Y-73803571D01*
X112515476Y-73708333D01*
X112563095Y-73613095D01*
X112610714Y-75041666D02*
X113277380Y-75041666D01*
X112229761Y-74803571D02*
X112944047Y-74565476D01*
X112944047Y-75184523D01*
X94252380Y-72660714D02*
X93252380Y-72660714D01*
X93252380Y-72898809D01*
X93300000Y-73041666D01*
X93395238Y-73136904D01*
X93490476Y-73184523D01*
X93680952Y-73232142D01*
X93823809Y-73232142D01*
X94014285Y-73184523D01*
X94109523Y-73136904D01*
X94204761Y-73041666D01*
X94252380Y-72898809D01*
X94252380Y-72660714D01*
X94252380Y-74184523D02*
X94252380Y-73613095D01*
X94252380Y-73898809D02*
X93252380Y-73898809D01*
X93395238Y-73803571D01*
X93490476Y-73708333D01*
X93538095Y-73613095D01*
X93252380Y-74517857D02*
X93252380Y-75136904D01*
X93633333Y-74803571D01*
X93633333Y-74946428D01*
X93680952Y-75041666D01*
X93728571Y-75089285D01*
X93823809Y-75136904D01*
X94061904Y-75136904D01*
X94157142Y-75089285D01*
X94204761Y-75041666D01*
X94252380Y-74946428D01*
X94252380Y-74660714D01*
X94204761Y-74565476D01*
X94157142Y-74517857D01*
X75177380Y-72660714D02*
X74177380Y-72660714D01*
X74177380Y-72898809D01*
X74225000Y-73041666D01*
X74320238Y-73136904D01*
X74415476Y-73184523D01*
X74605952Y-73232142D01*
X74748809Y-73232142D01*
X74939285Y-73184523D01*
X75034523Y-73136904D01*
X75129761Y-73041666D01*
X75177380Y-72898809D01*
X75177380Y-72660714D01*
X75177380Y-74184523D02*
X75177380Y-73613095D01*
X75177380Y-73898809D02*
X74177380Y-73898809D01*
X74320238Y-73803571D01*
X74415476Y-73708333D01*
X74463095Y-73613095D01*
X74272619Y-74565476D02*
X74225000Y-74613095D01*
X74177380Y-74708333D01*
X74177380Y-74946428D01*
X74225000Y-75041666D01*
X74272619Y-75089285D01*
X74367857Y-75136904D01*
X74463095Y-75136904D01*
X74605952Y-75089285D01*
X75177380Y-74517857D01*
X75177380Y-75136904D01*
X53777380Y-72660714D02*
X52777380Y-72660714D01*
X52777380Y-72898809D01*
X52825000Y-73041666D01*
X52920238Y-73136904D01*
X53015476Y-73184523D01*
X53205952Y-73232142D01*
X53348809Y-73232142D01*
X53539285Y-73184523D01*
X53634523Y-73136904D01*
X53729761Y-73041666D01*
X53777380Y-72898809D01*
X53777380Y-72660714D01*
X53777380Y-74184523D02*
X53777380Y-73613095D01*
X53777380Y-73898809D02*
X52777380Y-73898809D01*
X52920238Y-73803571D01*
X53015476Y-73708333D01*
X53063095Y-73613095D01*
X53777380Y-75136904D02*
X53777380Y-74565476D01*
X53777380Y-74851190D02*
X52777380Y-74851190D01*
X52920238Y-74755952D01*
X53015476Y-74660714D01*
X53063095Y-74565476D01*
X229302380Y-65010714D02*
X228302380Y-65010714D01*
X228302380Y-65248809D01*
X228350000Y-65391666D01*
X228445238Y-65486904D01*
X228540476Y-65534523D01*
X228730952Y-65582142D01*
X228873809Y-65582142D01*
X229064285Y-65534523D01*
X229159523Y-65486904D01*
X229254761Y-65391666D01*
X229302380Y-65248809D01*
X229302380Y-65010714D01*
X229302380Y-66534523D02*
X229302380Y-65963095D01*
X229302380Y-66248809D02*
X228302380Y-66248809D01*
X228445238Y-66153571D01*
X228540476Y-66058333D01*
X228588095Y-65963095D01*
X228302380Y-67153571D02*
X228302380Y-67248809D01*
X228350000Y-67344047D01*
X228397619Y-67391666D01*
X228492857Y-67439285D01*
X228683333Y-67486904D01*
X228921428Y-67486904D01*
X229111904Y-67439285D01*
X229207142Y-67391666D01*
X229254761Y-67344047D01*
X229302380Y-67248809D01*
X229302380Y-67153571D01*
X229254761Y-67058333D01*
X229207142Y-67010714D01*
X229111904Y-66963095D01*
X228921428Y-66915476D01*
X228683333Y-66915476D01*
X228492857Y-66963095D01*
X228397619Y-67010714D01*
X228350000Y-67058333D01*
X228302380Y-67153571D01*
X198699380Y-65428904D02*
X197699380Y-65428904D01*
X197699380Y-65667000D01*
X197747000Y-65809857D01*
X197842238Y-65905095D01*
X197937476Y-65952714D01*
X198127952Y-66000333D01*
X198270809Y-66000333D01*
X198461285Y-65952714D01*
X198556523Y-65905095D01*
X198651761Y-65809857D01*
X198699380Y-65667000D01*
X198699380Y-65428904D01*
X198699380Y-66476523D02*
X198699380Y-66667000D01*
X198651761Y-66762238D01*
X198604142Y-66809857D01*
X198461285Y-66905095D01*
X198270809Y-66952714D01*
X197889857Y-66952714D01*
X197794619Y-66905095D01*
X197747000Y-66857476D01*
X197699380Y-66762238D01*
X197699380Y-66571761D01*
X197747000Y-66476523D01*
X197794619Y-66428904D01*
X197889857Y-66381285D01*
X198127952Y-66381285D01*
X198223190Y-66428904D01*
X198270809Y-66476523D01*
X198318428Y-66571761D01*
X198318428Y-66762238D01*
X198270809Y-66857476D01*
X198223190Y-66905095D01*
X198127952Y-66952714D01*
X188802380Y-65486904D02*
X187802380Y-65486904D01*
X187802380Y-65725000D01*
X187850000Y-65867857D01*
X187945238Y-65963095D01*
X188040476Y-66010714D01*
X188230952Y-66058333D01*
X188373809Y-66058333D01*
X188564285Y-66010714D01*
X188659523Y-65963095D01*
X188754761Y-65867857D01*
X188802380Y-65725000D01*
X188802380Y-65486904D01*
X188230952Y-66629761D02*
X188183333Y-66534523D01*
X188135714Y-66486904D01*
X188040476Y-66439285D01*
X187992857Y-66439285D01*
X187897619Y-66486904D01*
X187850000Y-66534523D01*
X187802380Y-66629761D01*
X187802380Y-66820238D01*
X187850000Y-66915476D01*
X187897619Y-66963095D01*
X187992857Y-67010714D01*
X188040476Y-67010714D01*
X188135714Y-66963095D01*
X188183333Y-66915476D01*
X188230952Y-66820238D01*
X188230952Y-66629761D01*
X188278571Y-66534523D01*
X188326190Y-66486904D01*
X188421428Y-66439285D01*
X188611904Y-66439285D01*
X188707142Y-66486904D01*
X188754761Y-66534523D01*
X188802380Y-66629761D01*
X188802380Y-66820238D01*
X188754761Y-66915476D01*
X188707142Y-66963095D01*
X188611904Y-67010714D01*
X188421428Y-67010714D01*
X188326190Y-66963095D01*
X188278571Y-66915476D01*
X188230952Y-66820238D01*
X169746940Y-65520344D02*
X168746940Y-65520344D01*
X168746940Y-65758440D01*
X168794560Y-65901297D01*
X168889798Y-65996535D01*
X168985036Y-66044154D01*
X169175512Y-66091773D01*
X169318369Y-66091773D01*
X169508845Y-66044154D01*
X169604083Y-65996535D01*
X169699321Y-65901297D01*
X169746940Y-65758440D01*
X169746940Y-65520344D01*
X168746940Y-66425106D02*
X168746940Y-67091773D01*
X169746940Y-66663201D01*
X145486380Y-64920904D02*
X144486380Y-64920904D01*
X144486380Y-65159000D01*
X144534000Y-65301857D01*
X144629238Y-65397095D01*
X144724476Y-65444714D01*
X144914952Y-65492333D01*
X145057809Y-65492333D01*
X145248285Y-65444714D01*
X145343523Y-65397095D01*
X145438761Y-65301857D01*
X145486380Y-65159000D01*
X145486380Y-64920904D01*
X144486380Y-66349476D02*
X144486380Y-66159000D01*
X144534000Y-66063761D01*
X144581619Y-66016142D01*
X144724476Y-65920904D01*
X144914952Y-65873285D01*
X145295904Y-65873285D01*
X145391142Y-65920904D01*
X145438761Y-65968523D01*
X145486380Y-66063761D01*
X145486380Y-66254238D01*
X145438761Y-66349476D01*
X145391142Y-66397095D01*
X145295904Y-66444714D01*
X145057809Y-66444714D01*
X144962571Y-66397095D01*
X144914952Y-66349476D01*
X144867333Y-66254238D01*
X144867333Y-66063761D01*
X144914952Y-65968523D01*
X144962571Y-65920904D01*
X145057809Y-65873285D01*
X131657100Y-65510184D02*
X130657100Y-65510184D01*
X130657100Y-65748280D01*
X130704720Y-65891137D01*
X130799958Y-65986375D01*
X130895196Y-66033994D01*
X131085672Y-66081613D01*
X131228529Y-66081613D01*
X131419005Y-66033994D01*
X131514243Y-65986375D01*
X131609481Y-65891137D01*
X131657100Y-65748280D01*
X131657100Y-65510184D01*
X130657100Y-66986375D02*
X130657100Y-66510184D01*
X131133291Y-66462565D01*
X131085672Y-66510184D01*
X131038053Y-66605422D01*
X131038053Y-66843518D01*
X131085672Y-66938756D01*
X131133291Y-66986375D01*
X131228529Y-67033994D01*
X131466624Y-67033994D01*
X131561862Y-66986375D01*
X131609481Y-66938756D01*
X131657100Y-66843518D01*
X131657100Y-66605422D01*
X131609481Y-66510184D01*
X131561862Y-66462565D01*
X112602020Y-65510184D02*
X111602020Y-65510184D01*
X111602020Y-65748280D01*
X111649640Y-65891137D01*
X111744878Y-65986375D01*
X111840116Y-66033994D01*
X112030592Y-66081613D01*
X112173449Y-66081613D01*
X112363925Y-66033994D01*
X112459163Y-65986375D01*
X112554401Y-65891137D01*
X112602020Y-65748280D01*
X112602020Y-65510184D01*
X111935354Y-66938756D02*
X112602020Y-66938756D01*
X111554401Y-66700660D02*
X112268687Y-66462565D01*
X112268687Y-67081613D01*
X93546940Y-65510184D02*
X92546940Y-65510184D01*
X92546940Y-65748280D01*
X92594560Y-65891137D01*
X92689798Y-65986375D01*
X92785036Y-66033994D01*
X92975512Y-66081613D01*
X93118369Y-66081613D01*
X93308845Y-66033994D01*
X93404083Y-65986375D01*
X93499321Y-65891137D01*
X93546940Y-65748280D01*
X93546940Y-65510184D01*
X92546940Y-66414946D02*
X92546940Y-67033994D01*
X92927893Y-66700660D01*
X92927893Y-66843518D01*
X92975512Y-66938756D01*
X93023131Y-66986375D01*
X93118369Y-67033994D01*
X93356464Y-67033994D01*
X93451702Y-66986375D01*
X93499321Y-66938756D01*
X93546940Y-66843518D01*
X93546940Y-66557803D01*
X93499321Y-66462565D01*
X93451702Y-66414946D01*
X74522340Y-65510184D02*
X73522340Y-65510184D01*
X73522340Y-65748280D01*
X73569960Y-65891137D01*
X73665198Y-65986375D01*
X73760436Y-66033994D01*
X73950912Y-66081613D01*
X74093769Y-66081613D01*
X74284245Y-66033994D01*
X74379483Y-65986375D01*
X74474721Y-65891137D01*
X74522340Y-65748280D01*
X74522340Y-65510184D01*
X73617579Y-66462565D02*
X73569960Y-66510184D01*
X73522340Y-66605422D01*
X73522340Y-66843518D01*
X73569960Y-66938756D01*
X73617579Y-66986375D01*
X73712817Y-67033994D01*
X73808055Y-67033994D01*
X73950912Y-66986375D01*
X74522340Y-66414946D01*
X74522340Y-67033994D01*
X55427380Y-65486904D02*
X54427380Y-65486904D01*
X54427380Y-65725000D01*
X54475000Y-65867857D01*
X54570238Y-65963095D01*
X54665476Y-66010714D01*
X54855952Y-66058333D01*
X54998809Y-66058333D01*
X55189285Y-66010714D01*
X55284523Y-65963095D01*
X55379761Y-65867857D01*
X55427380Y-65725000D01*
X55427380Y-65486904D01*
X55427380Y-67010714D02*
X55427380Y-66439285D01*
X55427380Y-66725000D02*
X54427380Y-66725000D01*
X54570238Y-66629761D01*
X54665476Y-66534523D01*
X54713095Y-66439285D01*
X77174797Y-91395874D02*
X77174797Y-91463217D01*
X77242141Y-91597904D01*
X77309485Y-91665248D01*
X77444172Y-91732591D01*
X77578859Y-91732591D01*
X77679874Y-91698920D01*
X77848233Y-91597904D01*
X77949248Y-91496889D01*
X78050263Y-91328530D01*
X78083935Y-91227515D01*
X78083935Y-91092828D01*
X78016591Y-90958141D01*
X77949248Y-90890797D01*
X77814561Y-90823454D01*
X77747217Y-90823454D01*
X77578859Y-90520408D02*
X77107454Y-90049004D01*
X76703393Y-91059156D01*
X63689892Y-100264184D02*
X63757235Y-100264184D01*
X63891922Y-100196840D01*
X63959266Y-100129497D01*
X64026609Y-99994809D01*
X64026609Y-99860122D01*
X63992938Y-99759107D01*
X63891922Y-99590748D01*
X63790907Y-99489733D01*
X63622548Y-99388718D01*
X63521533Y-99355046D01*
X63386846Y-99355046D01*
X63252159Y-99422390D01*
X63184815Y-99489733D01*
X63117472Y-99624420D01*
X63117472Y-99691764D01*
X62444037Y-100230512D02*
X62578724Y-100095825D01*
X62679739Y-100062153D01*
X62747083Y-100062153D01*
X62915441Y-100095825D01*
X63083800Y-100196840D01*
X63353174Y-100466214D01*
X63386846Y-100567229D01*
X63386846Y-100634573D01*
X63353174Y-100735588D01*
X63218487Y-100870275D01*
X63117472Y-100903947D01*
X63050128Y-100903947D01*
X62949113Y-100870275D01*
X62780754Y-100701916D01*
X62747083Y-100600901D01*
X62747083Y-100533558D01*
X62780754Y-100432542D01*
X62915441Y-100297855D01*
X63016457Y-100264184D01*
X63083800Y-100264184D01*
X63184815Y-100297855D01*
X54366454Y-87510531D02*
X54366454Y-87577874D01*
X54433798Y-87712561D01*
X54501141Y-87779905D01*
X54635829Y-87847248D01*
X54770516Y-87847248D01*
X54871531Y-87813577D01*
X55039890Y-87712561D01*
X55140905Y-87611546D01*
X55241920Y-87443187D01*
X55275592Y-87342172D01*
X55275592Y-87207485D01*
X55208248Y-87072798D01*
X55140905Y-87005454D01*
X55006218Y-86938111D01*
X54938874Y-86938111D01*
X54366454Y-86231004D02*
X54703172Y-86567722D01*
X54400126Y-86938111D01*
X54400126Y-86870767D01*
X54366454Y-86769752D01*
X54198096Y-86601393D01*
X54097080Y-86567722D01*
X54029737Y-86567722D01*
X53928722Y-86601393D01*
X53760363Y-86769752D01*
X53726691Y-86870767D01*
X53726691Y-86938111D01*
X53760363Y-87039126D01*
X53928722Y-87207485D01*
X54029737Y-87241157D01*
X54097080Y-87241157D01*
X74438566Y-82521062D02*
X74486185Y-82568681D01*
X74629042Y-82616300D01*
X74724280Y-82616300D01*
X74867138Y-82568681D01*
X74962376Y-82473443D01*
X75009995Y-82378205D01*
X75057614Y-82187729D01*
X75057614Y-82044872D01*
X75009995Y-81854396D01*
X74962376Y-81759158D01*
X74867138Y-81663920D01*
X74724280Y-81616300D01*
X74629042Y-81616300D01*
X74486185Y-81663920D01*
X74438566Y-81711539D01*
X73581423Y-81949634D02*
X73581423Y-82616300D01*
X73819519Y-81568681D02*
X74057614Y-82282967D01*
X73438566Y-82282967D01*
X73558379Y-95103881D02*
X73625722Y-95103881D01*
X73760409Y-95036537D01*
X73827753Y-94969194D01*
X73895096Y-94834506D01*
X73895096Y-94699819D01*
X73861425Y-94598804D01*
X73760409Y-94430445D01*
X73659394Y-94329430D01*
X73491035Y-94228415D01*
X73390020Y-94194743D01*
X73255333Y-94194743D01*
X73120646Y-94262087D01*
X73053302Y-94329430D01*
X72985959Y-94464117D01*
X72985959Y-94531461D01*
X72682913Y-94699819D02*
X72245180Y-95137552D01*
X72750257Y-95171224D01*
X72649241Y-95272239D01*
X72615570Y-95373255D01*
X72615570Y-95440598D01*
X72649241Y-95541613D01*
X72817600Y-95709972D01*
X72918615Y-95743644D01*
X72985959Y-95743644D01*
X73086974Y-95709972D01*
X73289005Y-95507942D01*
X73322677Y-95406926D01*
X73322677Y-95339583D01*
X61099309Y-103535607D02*
X61166652Y-103535607D01*
X61301339Y-103468263D01*
X61368683Y-103400920D01*
X61436026Y-103266232D01*
X61436026Y-103131545D01*
X61402355Y-103030530D01*
X61301339Y-102862171D01*
X61200324Y-102761156D01*
X61031965Y-102660141D01*
X60930950Y-102626469D01*
X60796263Y-102626469D01*
X60661576Y-102693813D01*
X60594232Y-102761156D01*
X60526889Y-102895843D01*
X60526889Y-102963187D01*
X60257515Y-103232561D02*
X60190171Y-103232561D01*
X60089156Y-103266232D01*
X59920797Y-103434591D01*
X59887126Y-103535607D01*
X59887126Y-103602950D01*
X59920797Y-103703965D01*
X59988141Y-103771309D01*
X60122828Y-103838652D01*
X60930950Y-103838652D01*
X60493217Y-104276385D01*
X54602312Y-98160389D02*
X54602312Y-98227732D01*
X54669656Y-98362419D01*
X54736999Y-98429763D01*
X54871687Y-98497106D01*
X55006374Y-98497106D01*
X55107389Y-98463435D01*
X55275748Y-98362419D01*
X55376763Y-98261404D01*
X55477778Y-98093045D01*
X55511450Y-97992030D01*
X55511450Y-97857343D01*
X55444106Y-97722656D01*
X55376763Y-97655312D01*
X55242076Y-97587969D01*
X55174732Y-97587969D01*
X53861534Y-97554297D02*
X54265595Y-97958358D01*
X54063564Y-97756328D02*
X54770671Y-97049221D01*
X54737000Y-97217580D01*
X54736999Y-97352267D01*
X54770671Y-97453282D01*
M02*
