M48
; DRILL file {KiCad (5.1.4-0-10_14)} date Monday, September 21, 2020 at 01:33:57 AM
; FORMAT={-:-/ absolute / metric / decimal}
; #@! TF.CreationDate,2020-09-21T01:33:57-05:00
; #@! TF.GenerationSoftware,Kicad,Pcbnew,(5.1.4-0-10_14)
FMAT,2
METRIC
T1C0.400
T2C0.600
T3C0.750
T4C1.000
T5C1.470
T6C0.650
T7C1.750
T8C3.048
T9C3.988
%
G90
G05
T1
X39.243Y-90.932
X40.894Y-94.615
X41.275Y-86.233
X46.101Y-75.311
X47.625Y-102.108
X51.689Y-110.363
X55.499Y-81.915
X55.753Y-85.725
X62.23Y-78.867
X64.262Y-103.632
X65.913Y-96.266
X68.072Y-102.997
X73.914Y-91.186
X74.295Y-74.676
X74.612Y-93.281
X76.454Y-80.518
X77.216Y-88.646
X79.121Y-78.359
X79.756Y-88.9
X89.662Y-88.519
X94.234Y-125.857
X104.013Y-69.723
X113.538Y-125.222
X135.382Y-125.476
X154.178Y-125.857
X155.829Y-89.154
X173.482Y-125.73
X192.786Y-126.365
X201.549Y-67.825
X203.275Y-72.225
X208.026Y-70.739
X210.81Y-86.985
X213.614Y-67.818
X213.614Y-72.225
T3
X49.562Y-89.607
X49.562Y-92.607
X51.562Y-91.107
X51.562Y-94.107
T4
X42.291Y-102.997
X42.291Y-105.537
X42.291Y-108.077
X44.831Y-102.997
X44.831Y-105.537
X44.831Y-108.077
T5
X48.24Y-97.06
X54.59Y-94.52
X79.19Y-116.11
X85.54Y-113.57
X198.24Y-78.06
X204.59Y-75.52
X43.465Y-78.035
X93.49Y-97.06
X49.815Y-75.495
X99.84Y-94.52
X136.29Y-58.985
X142.64Y-56.445
X122.04Y-77.985
X128.39Y-75.445
X74.415Y-97.085
X80.765Y-94.545
X129.315Y-116.185
X135.665Y-113.645
X117.24Y-58.985
X123.59Y-56.445
X179.19Y-116.135
X64.89Y-78.035
X71.24Y-75.495
X185.54Y-113.595
X223.64Y-113.57
X176.015Y-94.52
X217.29Y-116.11
X169.665Y-97.06
X98.215Y-58.985
X104.565Y-56.445
X60.115Y-116.11
X66.465Y-113.57
X212.54Y-97.06
X218.89Y-94.52
X102.99Y-78.035
X109.34Y-75.495
X110.14Y-116.185
X116.49Y-113.645
X217.265Y-78.035
X223.615Y-75.495
X83.965Y-77.985
X90.315Y-75.445
X79.165Y-58.985
X85.515Y-56.445
X198.265Y-116.11
X185.515Y-75.495
X193.465Y-58.985
X199.815Y-56.445
X188.74Y-97.085
X204.615Y-113.57
X195.09Y-94.545
X150.64Y-97.06
X156.99Y-94.52
X60.112Y-58.985
X66.462Y-56.445
X214.89Y-58.985
X221.24Y-56.445
X131.565Y-97.06
X137.915Y-94.52
X157.04Y-113.62
X180.765Y-56.445
X150.69Y-116.16
X179.165Y-78.035
X174.415Y-58.985
X154.69Y-113.57
X166.465Y-75.495
X41.09Y-116.11
X148.34Y-116.11
X47.44Y-113.57
X160.115Y-78.035
X41.065Y-58.985
X47.415Y-56.445
X112.515Y-97.053
X155.365Y-58.985
X141.09Y-78.01
X147.44Y-75.47
X161.715Y-56.445
X118.865Y-94.513
T6
X205.01Y-57.425
X210.79Y-57.425
T7
X128.045Y-118.725
X192.195Y-61.525
X202.355Y-61.525
X58.842Y-61.525
X120.77Y-80.525
X108.87Y-118.725
X119.03Y-118.725
X77.895Y-61.525
X88.055Y-61.525
X187.47Y-99.625
X197.63Y-99.625
X130.93Y-80.525
X83.305Y-99.625
X138.205Y-118.725
X115.97Y-61.525
X216.02Y-118.65
X226.18Y-118.65
X168.395Y-99.6
X178.555Y-99.6
X111.88Y-80.575
X126.13Y-61.525
X101.72Y-80.575
X73.145Y-99.625
X215.995Y-80.575
X226.155Y-80.575
X96.945Y-61.525
X107.105Y-61.525
X63.62Y-80.575
X73.78Y-80.575
X188.08Y-118.675
X211.27Y-99.6
X221.43Y-99.6
X58.845Y-118.65
X69.005Y-118.65
X177.92Y-118.675
X46.97Y-99.6
X77.92Y-118.65
X88.08Y-118.65
X196.97Y-80.6
X207.13Y-80.6
X82.695Y-80.525
X92.855Y-80.525
X57.13Y-99.6
X69.002Y-61.525
X42.195Y-80.575
X52.355Y-80.575
X196.995Y-118.65
X207.155Y-118.65
X149.37Y-99.6
X159.53Y-99.6
X177.895Y-80.575
X188.055Y-80.575
X213.62Y-61.525
X223.78Y-61.525
X169.005Y-80.575
X183.305Y-61.525
X140.455Y-99.6
X39.795Y-61.525
X154.095Y-61.525
X164.255Y-61.525
X157.23Y-118.65
X130.295Y-99.6
X159.58Y-118.7
X147.07Y-118.65
X39.82Y-118.65
X149.42Y-118.7
X173.145Y-61.525
X49.98Y-118.65
X158.845Y-80.575
X49.955Y-61.525
X111.245Y-99.593
X121.405Y-99.593
X92.22Y-99.6
X139.82Y-80.55
X149.98Y-80.55
X102.38Y-99.6
X135.02Y-61.525
X145.18Y-61.525
T8
X142.594Y-125.685
X166.406Y-125.685
X102.15Y-125.635
X202.15Y-125.635
X83.125Y-125.71
X183.125Y-125.71
X102.044Y-125.71
X125.856Y-125.71
T9
X102.044Y-110.47
X113.95Y-118.725
X125.856Y-110.47
X68.7Y-80.575
X63.925Y-118.65
X87.775Y-80.525
X82.975Y-61.525
X52.05Y-99.6
X83.0Y-118.65
X202.05Y-80.6
X197.275Y-61.525
X154.5Y-118.7
X47.275Y-80.575
X202.075Y-118.65
X192.55Y-99.625
X182.975Y-80.575
X218.7Y-61.525
X178.225Y-61.525
X163.925Y-80.575
X102.15Y-110.395
X152.15Y-118.65
X44.9Y-118.65
X63.922Y-61.525
X142.594Y-110.445
X166.406Y-110.445
X154.45Y-99.6
X135.375Y-99.6
X202.15Y-110.395
X44.875Y-61.525
X216.35Y-99.6
X159.175Y-61.525
X116.325Y-99.593
X144.9Y-80.55
X140.1Y-61.525
X83.125Y-110.47
X183.125Y-110.47
X121.05Y-61.525
X125.85Y-80.525
X133.125Y-118.725
X102.025Y-61.525
X183.0Y-118.675
X106.8Y-80.575
X78.225Y-99.625
X221.1Y-118.65
X173.475Y-99.6
X97.3Y-99.6
X221.075Y-80.575
T2
G00X203.58Y-53.475
M15
G01X203.58Y-54.075
M16
G05
G00X203.58Y-57.405
M15
G01X203.58Y-58.505
M16
G05
G00X212.22Y-53.475
M15
G01X212.22Y-54.075
M16
G05
G00X212.22Y-57.405
M15
G01X212.22Y-58.505
M16
G05
T0
M30
