G04 #@! TF.GenerationSoftware,KiCad,Pcbnew,(5.1.4-0-10_14)*
G04 #@! TF.CreationDate,2020-09-21T01:33:54-05:00*
G04 #@! TF.ProjectId,qaz_b,71617a5f-622e-46b6-9963-61645f706362,rev?*
G04 #@! TF.SameCoordinates,Original*
G04 #@! TF.FileFunction,Paste,Bot*
G04 #@! TF.FilePolarity,Positive*
%FSLAX46Y46*%
G04 Gerber Fmt 4.6, Leading zero omitted, Abs format (unit mm)*
G04 Created by KiCad (PCBNEW (5.1.4-0-10_14)) date 2020-09-21 01:33:54*
%MOMM*%
%LPD*%
G04 APERTURE LIST*
%ADD10R,0.700000X1.000000*%
%ADD11R,0.700000X0.600000*%
%ADD12R,0.600000X2.450000*%
%ADD13R,0.300000X2.450000*%
%ADD14C,0.100000*%
%ADD15C,0.975000*%
%ADD16R,1.200000X0.900000*%
%ADD17C,1.200000*%
%ADD18C,0.550000*%
%ADD19R,1.800000X1.100000*%
%ADD20C,1.250000*%
%ADD21R,0.900000X1.200000*%
G04 APERTURE END LIST*
D10*
X207027920Y-69278920D03*
D11*
X209027920Y-69478920D03*
X207027920Y-67578920D03*
X209027920Y-67578920D03*
D12*
X211125000Y-59370000D03*
X204675000Y-59370000D03*
X210350000Y-59370000D03*
X205450000Y-59370000D03*
D13*
X206150000Y-59370000D03*
X209650000Y-59370000D03*
X206650000Y-59370000D03*
X209150000Y-59370000D03*
X207150000Y-59370000D03*
X208650000Y-59370000D03*
X208150000Y-59370000D03*
X207650000Y-59370000D03*
D14*
G36*
X210355142Y-62685494D02*
G01*
X210378803Y-62689004D01*
X210402007Y-62694816D01*
X210424529Y-62702874D01*
X210446153Y-62713102D01*
X210466670Y-62725399D01*
X210485883Y-62739649D01*
X210503607Y-62755713D01*
X210519671Y-62773437D01*
X210533921Y-62792650D01*
X210546218Y-62813167D01*
X210556446Y-62834791D01*
X210564504Y-62857313D01*
X210570316Y-62880517D01*
X210573826Y-62904178D01*
X210575000Y-62928070D01*
X210575000Y-63415570D01*
X210573826Y-63439462D01*
X210570316Y-63463123D01*
X210564504Y-63486327D01*
X210556446Y-63508849D01*
X210546218Y-63530473D01*
X210533921Y-63550990D01*
X210519671Y-63570203D01*
X210503607Y-63587927D01*
X210485883Y-63603991D01*
X210466670Y-63618241D01*
X210446153Y-63630538D01*
X210424529Y-63640766D01*
X210402007Y-63648824D01*
X210378803Y-63654636D01*
X210355142Y-63658146D01*
X210331250Y-63659320D01*
X209418750Y-63659320D01*
X209394858Y-63658146D01*
X209371197Y-63654636D01*
X209347993Y-63648824D01*
X209325471Y-63640766D01*
X209303847Y-63630538D01*
X209283330Y-63618241D01*
X209264117Y-63603991D01*
X209246393Y-63587927D01*
X209230329Y-63570203D01*
X209216079Y-63550990D01*
X209203782Y-63530473D01*
X209193554Y-63508849D01*
X209185496Y-63486327D01*
X209179684Y-63463123D01*
X209176174Y-63439462D01*
X209175000Y-63415570D01*
X209175000Y-62928070D01*
X209176174Y-62904178D01*
X209179684Y-62880517D01*
X209185496Y-62857313D01*
X209193554Y-62834791D01*
X209203782Y-62813167D01*
X209216079Y-62792650D01*
X209230329Y-62773437D01*
X209246393Y-62755713D01*
X209264117Y-62739649D01*
X209283330Y-62725399D01*
X209303847Y-62713102D01*
X209325471Y-62702874D01*
X209347993Y-62694816D01*
X209371197Y-62689004D01*
X209394858Y-62685494D01*
X209418750Y-62684320D01*
X210331250Y-62684320D01*
X210355142Y-62685494D01*
X210355142Y-62685494D01*
G37*
D15*
X209875000Y-63171820D03*
D14*
G36*
X210355142Y-64560494D02*
G01*
X210378803Y-64564004D01*
X210402007Y-64569816D01*
X210424529Y-64577874D01*
X210446153Y-64588102D01*
X210466670Y-64600399D01*
X210485883Y-64614649D01*
X210503607Y-64630713D01*
X210519671Y-64648437D01*
X210533921Y-64667650D01*
X210546218Y-64688167D01*
X210556446Y-64709791D01*
X210564504Y-64732313D01*
X210570316Y-64755517D01*
X210573826Y-64779178D01*
X210575000Y-64803070D01*
X210575000Y-65290570D01*
X210573826Y-65314462D01*
X210570316Y-65338123D01*
X210564504Y-65361327D01*
X210556446Y-65383849D01*
X210546218Y-65405473D01*
X210533921Y-65425990D01*
X210519671Y-65445203D01*
X210503607Y-65462927D01*
X210485883Y-65478991D01*
X210466670Y-65493241D01*
X210446153Y-65505538D01*
X210424529Y-65515766D01*
X210402007Y-65523824D01*
X210378803Y-65529636D01*
X210355142Y-65533146D01*
X210331250Y-65534320D01*
X209418750Y-65534320D01*
X209394858Y-65533146D01*
X209371197Y-65529636D01*
X209347993Y-65523824D01*
X209325471Y-65515766D01*
X209303847Y-65505538D01*
X209283330Y-65493241D01*
X209264117Y-65478991D01*
X209246393Y-65462927D01*
X209230329Y-65445203D01*
X209216079Y-65425990D01*
X209203782Y-65405473D01*
X209193554Y-65383849D01*
X209185496Y-65361327D01*
X209179684Y-65338123D01*
X209176174Y-65314462D01*
X209175000Y-65290570D01*
X209175000Y-64803070D01*
X209176174Y-64779178D01*
X209179684Y-64755517D01*
X209185496Y-64732313D01*
X209193554Y-64709791D01*
X209203782Y-64688167D01*
X209216079Y-64667650D01*
X209230329Y-64648437D01*
X209246393Y-64630713D01*
X209264117Y-64614649D01*
X209283330Y-64600399D01*
X209303847Y-64588102D01*
X209325471Y-64577874D01*
X209347993Y-64569816D01*
X209371197Y-64564004D01*
X209394858Y-64560494D01*
X209418750Y-64559320D01*
X210331250Y-64559320D01*
X210355142Y-64560494D01*
X210355142Y-64560494D01*
G37*
D15*
X209875000Y-65046820D03*
D14*
G36*
X211058222Y-67105094D02*
G01*
X211081883Y-67108604D01*
X211105087Y-67114416D01*
X211127609Y-67122474D01*
X211149233Y-67132702D01*
X211169750Y-67144999D01*
X211188963Y-67159249D01*
X211206687Y-67175313D01*
X211222751Y-67193037D01*
X211237001Y-67212250D01*
X211249298Y-67232767D01*
X211259526Y-67254391D01*
X211267584Y-67276913D01*
X211273396Y-67300117D01*
X211276906Y-67323778D01*
X211278080Y-67347670D01*
X211278080Y-67835170D01*
X211276906Y-67859062D01*
X211273396Y-67882723D01*
X211267584Y-67905927D01*
X211259526Y-67928449D01*
X211249298Y-67950073D01*
X211237001Y-67970590D01*
X211222751Y-67989803D01*
X211206687Y-68007527D01*
X211188963Y-68023591D01*
X211169750Y-68037841D01*
X211149233Y-68050138D01*
X211127609Y-68060366D01*
X211105087Y-68068424D01*
X211081883Y-68074236D01*
X211058222Y-68077746D01*
X211034330Y-68078920D01*
X210121830Y-68078920D01*
X210097938Y-68077746D01*
X210074277Y-68074236D01*
X210051073Y-68068424D01*
X210028551Y-68060366D01*
X210006927Y-68050138D01*
X209986410Y-68037841D01*
X209967197Y-68023591D01*
X209949473Y-68007527D01*
X209933409Y-67989803D01*
X209919159Y-67970590D01*
X209906862Y-67950073D01*
X209896634Y-67928449D01*
X209888576Y-67905927D01*
X209882764Y-67882723D01*
X209879254Y-67859062D01*
X209878080Y-67835170D01*
X209878080Y-67347670D01*
X209879254Y-67323778D01*
X209882764Y-67300117D01*
X209888576Y-67276913D01*
X209896634Y-67254391D01*
X209906862Y-67232767D01*
X209919159Y-67212250D01*
X209933409Y-67193037D01*
X209949473Y-67175313D01*
X209967197Y-67159249D01*
X209986410Y-67144999D01*
X210006927Y-67132702D01*
X210028551Y-67122474D01*
X210051073Y-67114416D01*
X210074277Y-67108604D01*
X210097938Y-67105094D01*
X210121830Y-67103920D01*
X211034330Y-67103920D01*
X211058222Y-67105094D01*
X211058222Y-67105094D01*
G37*
D15*
X210578080Y-67591420D03*
D14*
G36*
X211058222Y-68980094D02*
G01*
X211081883Y-68983604D01*
X211105087Y-68989416D01*
X211127609Y-68997474D01*
X211149233Y-69007702D01*
X211169750Y-69019999D01*
X211188963Y-69034249D01*
X211206687Y-69050313D01*
X211222751Y-69068037D01*
X211237001Y-69087250D01*
X211249298Y-69107767D01*
X211259526Y-69129391D01*
X211267584Y-69151913D01*
X211273396Y-69175117D01*
X211276906Y-69198778D01*
X211278080Y-69222670D01*
X211278080Y-69710170D01*
X211276906Y-69734062D01*
X211273396Y-69757723D01*
X211267584Y-69780927D01*
X211259526Y-69803449D01*
X211249298Y-69825073D01*
X211237001Y-69845590D01*
X211222751Y-69864803D01*
X211206687Y-69882527D01*
X211188963Y-69898591D01*
X211169750Y-69912841D01*
X211149233Y-69925138D01*
X211127609Y-69935366D01*
X211105087Y-69943424D01*
X211081883Y-69949236D01*
X211058222Y-69952746D01*
X211034330Y-69953920D01*
X210121830Y-69953920D01*
X210097938Y-69952746D01*
X210074277Y-69949236D01*
X210051073Y-69943424D01*
X210028551Y-69935366D01*
X210006927Y-69925138D01*
X209986410Y-69912841D01*
X209967197Y-69898591D01*
X209949473Y-69882527D01*
X209933409Y-69864803D01*
X209919159Y-69845590D01*
X209906862Y-69825073D01*
X209896634Y-69803449D01*
X209888576Y-69780927D01*
X209882764Y-69757723D01*
X209879254Y-69734062D01*
X209878080Y-69710170D01*
X209878080Y-69222670D01*
X209879254Y-69198778D01*
X209882764Y-69175117D01*
X209888576Y-69151913D01*
X209896634Y-69129391D01*
X209906862Y-69107767D01*
X209919159Y-69087250D01*
X209933409Y-69068037D01*
X209949473Y-69050313D01*
X209967197Y-69034249D01*
X209986410Y-69019999D01*
X210006927Y-69007702D01*
X210028551Y-68997474D01*
X210051073Y-68989416D01*
X210074277Y-68983604D01*
X210097938Y-68980094D01*
X210121830Y-68978920D01*
X211034330Y-68978920D01*
X211058222Y-68980094D01*
X211058222Y-68980094D01*
G37*
D15*
X210578080Y-69466420D03*
D14*
G36*
X205861382Y-67094934D02*
G01*
X205885043Y-67098444D01*
X205908247Y-67104256D01*
X205930769Y-67112314D01*
X205952393Y-67122542D01*
X205972910Y-67134839D01*
X205992123Y-67149089D01*
X206009847Y-67165153D01*
X206025911Y-67182877D01*
X206040161Y-67202090D01*
X206052458Y-67222607D01*
X206062686Y-67244231D01*
X206070744Y-67266753D01*
X206076556Y-67289957D01*
X206080066Y-67313618D01*
X206081240Y-67337510D01*
X206081240Y-67825010D01*
X206080066Y-67848902D01*
X206076556Y-67872563D01*
X206070744Y-67895767D01*
X206062686Y-67918289D01*
X206052458Y-67939913D01*
X206040161Y-67960430D01*
X206025911Y-67979643D01*
X206009847Y-67997367D01*
X205992123Y-68013431D01*
X205972910Y-68027681D01*
X205952393Y-68039978D01*
X205930769Y-68050206D01*
X205908247Y-68058264D01*
X205885043Y-68064076D01*
X205861382Y-68067586D01*
X205837490Y-68068760D01*
X204924990Y-68068760D01*
X204901098Y-68067586D01*
X204877437Y-68064076D01*
X204854233Y-68058264D01*
X204831711Y-68050206D01*
X204810087Y-68039978D01*
X204789570Y-68027681D01*
X204770357Y-68013431D01*
X204752633Y-67997367D01*
X204736569Y-67979643D01*
X204722319Y-67960430D01*
X204710022Y-67939913D01*
X204699794Y-67918289D01*
X204691736Y-67895767D01*
X204685924Y-67872563D01*
X204682414Y-67848902D01*
X204681240Y-67825010D01*
X204681240Y-67337510D01*
X204682414Y-67313618D01*
X204685924Y-67289957D01*
X204691736Y-67266753D01*
X204699794Y-67244231D01*
X204710022Y-67222607D01*
X204722319Y-67202090D01*
X204736569Y-67182877D01*
X204752633Y-67165153D01*
X204770357Y-67149089D01*
X204789570Y-67134839D01*
X204810087Y-67122542D01*
X204831711Y-67112314D01*
X204854233Y-67104256D01*
X204877437Y-67098444D01*
X204901098Y-67094934D01*
X204924990Y-67093760D01*
X205837490Y-67093760D01*
X205861382Y-67094934D01*
X205861382Y-67094934D01*
G37*
D15*
X205381240Y-67581260D03*
D14*
G36*
X205861382Y-68969934D02*
G01*
X205885043Y-68973444D01*
X205908247Y-68979256D01*
X205930769Y-68987314D01*
X205952393Y-68997542D01*
X205972910Y-69009839D01*
X205992123Y-69024089D01*
X206009847Y-69040153D01*
X206025911Y-69057877D01*
X206040161Y-69077090D01*
X206052458Y-69097607D01*
X206062686Y-69119231D01*
X206070744Y-69141753D01*
X206076556Y-69164957D01*
X206080066Y-69188618D01*
X206081240Y-69212510D01*
X206081240Y-69700010D01*
X206080066Y-69723902D01*
X206076556Y-69747563D01*
X206070744Y-69770767D01*
X206062686Y-69793289D01*
X206052458Y-69814913D01*
X206040161Y-69835430D01*
X206025911Y-69854643D01*
X206009847Y-69872367D01*
X205992123Y-69888431D01*
X205972910Y-69902681D01*
X205952393Y-69914978D01*
X205930769Y-69925206D01*
X205908247Y-69933264D01*
X205885043Y-69939076D01*
X205861382Y-69942586D01*
X205837490Y-69943760D01*
X204924990Y-69943760D01*
X204901098Y-69942586D01*
X204877437Y-69939076D01*
X204854233Y-69933264D01*
X204831711Y-69925206D01*
X204810087Y-69914978D01*
X204789570Y-69902681D01*
X204770357Y-69888431D01*
X204752633Y-69872367D01*
X204736569Y-69854643D01*
X204722319Y-69835430D01*
X204710022Y-69814913D01*
X204699794Y-69793289D01*
X204691736Y-69770767D01*
X204685924Y-69747563D01*
X204682414Y-69723902D01*
X204681240Y-69700010D01*
X204681240Y-69212510D01*
X204682414Y-69188618D01*
X204685924Y-69164957D01*
X204691736Y-69141753D01*
X204699794Y-69119231D01*
X204710022Y-69097607D01*
X204722319Y-69077090D01*
X204736569Y-69057877D01*
X204752633Y-69040153D01*
X204770357Y-69024089D01*
X204789570Y-69009839D01*
X204810087Y-68997542D01*
X204831711Y-68987314D01*
X204854233Y-68979256D01*
X204877437Y-68973444D01*
X204901098Y-68969934D01*
X204924990Y-68968760D01*
X205837490Y-68968760D01*
X205861382Y-68969934D01*
X205861382Y-68969934D01*
G37*
D15*
X205381240Y-69456260D03*
D14*
G36*
X206084902Y-62685494D02*
G01*
X206108563Y-62689004D01*
X206131767Y-62694816D01*
X206154289Y-62702874D01*
X206175913Y-62713102D01*
X206196430Y-62725399D01*
X206215643Y-62739649D01*
X206233367Y-62755713D01*
X206249431Y-62773437D01*
X206263681Y-62792650D01*
X206275978Y-62813167D01*
X206286206Y-62834791D01*
X206294264Y-62857313D01*
X206300076Y-62880517D01*
X206303586Y-62904178D01*
X206304760Y-62928070D01*
X206304760Y-63415570D01*
X206303586Y-63439462D01*
X206300076Y-63463123D01*
X206294264Y-63486327D01*
X206286206Y-63508849D01*
X206275978Y-63530473D01*
X206263681Y-63550990D01*
X206249431Y-63570203D01*
X206233367Y-63587927D01*
X206215643Y-63603991D01*
X206196430Y-63618241D01*
X206175913Y-63630538D01*
X206154289Y-63640766D01*
X206131767Y-63648824D01*
X206108563Y-63654636D01*
X206084902Y-63658146D01*
X206061010Y-63659320D01*
X205148510Y-63659320D01*
X205124618Y-63658146D01*
X205100957Y-63654636D01*
X205077753Y-63648824D01*
X205055231Y-63640766D01*
X205033607Y-63630538D01*
X205013090Y-63618241D01*
X204993877Y-63603991D01*
X204976153Y-63587927D01*
X204960089Y-63570203D01*
X204945839Y-63550990D01*
X204933542Y-63530473D01*
X204923314Y-63508849D01*
X204915256Y-63486327D01*
X204909444Y-63463123D01*
X204905934Y-63439462D01*
X204904760Y-63415570D01*
X204904760Y-62928070D01*
X204905934Y-62904178D01*
X204909444Y-62880517D01*
X204915256Y-62857313D01*
X204923314Y-62834791D01*
X204933542Y-62813167D01*
X204945839Y-62792650D01*
X204960089Y-62773437D01*
X204976153Y-62755713D01*
X204993877Y-62739649D01*
X205013090Y-62725399D01*
X205033607Y-62713102D01*
X205055231Y-62702874D01*
X205077753Y-62694816D01*
X205100957Y-62689004D01*
X205124618Y-62685494D01*
X205148510Y-62684320D01*
X206061010Y-62684320D01*
X206084902Y-62685494D01*
X206084902Y-62685494D01*
G37*
D15*
X205604760Y-63171820D03*
D14*
G36*
X206084902Y-64560494D02*
G01*
X206108563Y-64564004D01*
X206131767Y-64569816D01*
X206154289Y-64577874D01*
X206175913Y-64588102D01*
X206196430Y-64600399D01*
X206215643Y-64614649D01*
X206233367Y-64630713D01*
X206249431Y-64648437D01*
X206263681Y-64667650D01*
X206275978Y-64688167D01*
X206286206Y-64709791D01*
X206294264Y-64732313D01*
X206300076Y-64755517D01*
X206303586Y-64779178D01*
X206304760Y-64803070D01*
X206304760Y-65290570D01*
X206303586Y-65314462D01*
X206300076Y-65338123D01*
X206294264Y-65361327D01*
X206286206Y-65383849D01*
X206275978Y-65405473D01*
X206263681Y-65425990D01*
X206249431Y-65445203D01*
X206233367Y-65462927D01*
X206215643Y-65478991D01*
X206196430Y-65493241D01*
X206175913Y-65505538D01*
X206154289Y-65515766D01*
X206131767Y-65523824D01*
X206108563Y-65529636D01*
X206084902Y-65533146D01*
X206061010Y-65534320D01*
X205148510Y-65534320D01*
X205124618Y-65533146D01*
X205100957Y-65529636D01*
X205077753Y-65523824D01*
X205055231Y-65515766D01*
X205033607Y-65505538D01*
X205013090Y-65493241D01*
X204993877Y-65478991D01*
X204976153Y-65462927D01*
X204960089Y-65445203D01*
X204945839Y-65425990D01*
X204933542Y-65405473D01*
X204923314Y-65383849D01*
X204915256Y-65361327D01*
X204909444Y-65338123D01*
X204905934Y-65314462D01*
X204904760Y-65290570D01*
X204904760Y-64803070D01*
X204905934Y-64779178D01*
X204909444Y-64755517D01*
X204915256Y-64732313D01*
X204923314Y-64709791D01*
X204933542Y-64688167D01*
X204945839Y-64667650D01*
X204960089Y-64648437D01*
X204976153Y-64630713D01*
X204993877Y-64614649D01*
X205013090Y-64600399D01*
X205033607Y-64588102D01*
X205055231Y-64577874D01*
X205077753Y-64569816D01*
X205100957Y-64564004D01*
X205124618Y-64560494D01*
X205148510Y-64559320D01*
X206061010Y-64559320D01*
X206084902Y-64560494D01*
X206084902Y-64560494D01*
G37*
D15*
X205604760Y-65046820D03*
D16*
X191400000Y-120050000D03*
X191400000Y-123350000D03*
X210225000Y-119994000D03*
X210225000Y-123294000D03*
X122050000Y-119950000D03*
X122050000Y-123250000D03*
X88075000Y-120950000D03*
X88075000Y-124250000D03*
D17*
X58311142Y-97994223D03*
D14*
G36*
X57391903Y-97923512D02*
G01*
X58240431Y-97074984D01*
X59230381Y-98064934D01*
X58381853Y-98913462D01*
X57391903Y-97923512D01*
X57391903Y-97923512D01*
G37*
D17*
X59866777Y-99549858D03*
D14*
G36*
X58947538Y-99479147D02*
G01*
X59796066Y-98630619D01*
X60786016Y-99620569D01*
X59937488Y-100469097D01*
X58947538Y-99479147D01*
X58947538Y-99479147D01*
G37*
D17*
X61068858Y-98347777D03*
D14*
G36*
X60149619Y-98277066D02*
G01*
X60998147Y-97428538D01*
X61988097Y-98418488D01*
X61139569Y-99267016D01*
X60149619Y-98277066D01*
X60149619Y-98277066D01*
G37*
D17*
X59513223Y-96792142D03*
D14*
G36*
X58593984Y-96721431D02*
G01*
X59442512Y-95872903D01*
X60432462Y-96862853D01*
X59583934Y-97711381D01*
X58593984Y-96721431D01*
X58593984Y-96721431D01*
G37*
D18*
X72708936Y-89972918D03*
D14*
G36*
X72373060Y-90697702D02*
G01*
X71984152Y-90308794D01*
X73044812Y-89248134D01*
X73433720Y-89637042D01*
X72373060Y-90697702D01*
X72373060Y-90697702D01*
G37*
D18*
X72143250Y-89407233D03*
D14*
G36*
X71807374Y-90132017D02*
G01*
X71418466Y-89743109D01*
X72479126Y-88682449D01*
X72868034Y-89071357D01*
X71807374Y-90132017D01*
X71807374Y-90132017D01*
G37*
D18*
X71577565Y-88841548D03*
D14*
G36*
X71241689Y-89566332D02*
G01*
X70852781Y-89177424D01*
X71913441Y-88116764D01*
X72302349Y-88505672D01*
X71241689Y-89566332D01*
X71241689Y-89566332D01*
G37*
D18*
X71011880Y-88275862D03*
D14*
G36*
X70676004Y-89000646D02*
G01*
X70287096Y-88611738D01*
X71347756Y-87551078D01*
X71736664Y-87939986D01*
X70676004Y-89000646D01*
X70676004Y-89000646D01*
G37*
D18*
X70446194Y-87710177D03*
D14*
G36*
X70110318Y-88434961D02*
G01*
X69721410Y-88046053D01*
X70782070Y-86985393D01*
X71170978Y-87374301D01*
X70110318Y-88434961D01*
X70110318Y-88434961D01*
G37*
D18*
X69880509Y-87144491D03*
D14*
G36*
X69544633Y-87869275D02*
G01*
X69155725Y-87480367D01*
X70216385Y-86419707D01*
X70605293Y-86808615D01*
X69544633Y-87869275D01*
X69544633Y-87869275D01*
G37*
D18*
X69314823Y-86578806D03*
D14*
G36*
X68978947Y-87303590D02*
G01*
X68590039Y-86914682D01*
X69650699Y-85854022D01*
X70039607Y-86242930D01*
X68978947Y-87303590D01*
X68978947Y-87303590D01*
G37*
D18*
X68749138Y-86013120D03*
D14*
G36*
X68413262Y-86737904D02*
G01*
X68024354Y-86348996D01*
X69085014Y-85288336D01*
X69473922Y-85677244D01*
X68413262Y-86737904D01*
X68413262Y-86737904D01*
G37*
D18*
X68183452Y-85447435D03*
D14*
G36*
X67847576Y-86172219D02*
G01*
X67458668Y-85783311D01*
X68519328Y-84722651D01*
X68908236Y-85111559D01*
X67847576Y-86172219D01*
X67847576Y-86172219D01*
G37*
D18*
X67617767Y-84881750D03*
D14*
G36*
X67281891Y-85606534D02*
G01*
X66892983Y-85217626D01*
X67953643Y-84156966D01*
X68342551Y-84545874D01*
X67281891Y-85606534D01*
X67281891Y-85606534D01*
G37*
D18*
X67052082Y-84316064D03*
D14*
G36*
X66716206Y-85040848D02*
G01*
X66327298Y-84651940D01*
X67387958Y-83591280D01*
X67776866Y-83980188D01*
X66716206Y-85040848D01*
X66716206Y-85040848D01*
G37*
D18*
X64647918Y-84316064D03*
D14*
G36*
X65372702Y-84651940D02*
G01*
X64983794Y-85040848D01*
X63923134Y-83980188D01*
X64312042Y-83591280D01*
X65372702Y-84651940D01*
X65372702Y-84651940D01*
G37*
D18*
X64082233Y-84881750D03*
D14*
G36*
X64807017Y-85217626D02*
G01*
X64418109Y-85606534D01*
X63357449Y-84545874D01*
X63746357Y-84156966D01*
X64807017Y-85217626D01*
X64807017Y-85217626D01*
G37*
D18*
X63516548Y-85447435D03*
D14*
G36*
X64241332Y-85783311D02*
G01*
X63852424Y-86172219D01*
X62791764Y-85111559D01*
X63180672Y-84722651D01*
X64241332Y-85783311D01*
X64241332Y-85783311D01*
G37*
D18*
X62950862Y-86013120D03*
D14*
G36*
X63675646Y-86348996D02*
G01*
X63286738Y-86737904D01*
X62226078Y-85677244D01*
X62614986Y-85288336D01*
X63675646Y-86348996D01*
X63675646Y-86348996D01*
G37*
D18*
X62385177Y-86578806D03*
D14*
G36*
X63109961Y-86914682D02*
G01*
X62721053Y-87303590D01*
X61660393Y-86242930D01*
X62049301Y-85854022D01*
X63109961Y-86914682D01*
X63109961Y-86914682D01*
G37*
D18*
X61819491Y-87144491D03*
D14*
G36*
X62544275Y-87480367D02*
G01*
X62155367Y-87869275D01*
X61094707Y-86808615D01*
X61483615Y-86419707D01*
X62544275Y-87480367D01*
X62544275Y-87480367D01*
G37*
D18*
X61253806Y-87710177D03*
D14*
G36*
X61978590Y-88046053D02*
G01*
X61589682Y-88434961D01*
X60529022Y-87374301D01*
X60917930Y-86985393D01*
X61978590Y-88046053D01*
X61978590Y-88046053D01*
G37*
D18*
X60688120Y-88275862D03*
D14*
G36*
X61412904Y-88611738D02*
G01*
X61023996Y-89000646D01*
X59963336Y-87939986D01*
X60352244Y-87551078D01*
X61412904Y-88611738D01*
X61412904Y-88611738D01*
G37*
D18*
X60122435Y-88841548D03*
D14*
G36*
X60847219Y-89177424D02*
G01*
X60458311Y-89566332D01*
X59397651Y-88505672D01*
X59786559Y-88116764D01*
X60847219Y-89177424D01*
X60847219Y-89177424D01*
G37*
D18*
X59556750Y-89407233D03*
D14*
G36*
X60281534Y-89743109D02*
G01*
X59892626Y-90132017D01*
X58831966Y-89071357D01*
X59220874Y-88682449D01*
X60281534Y-89743109D01*
X60281534Y-89743109D01*
G37*
D18*
X58991064Y-89972918D03*
D14*
G36*
X59715848Y-90308794D02*
G01*
X59326940Y-90697702D01*
X58266280Y-89637042D01*
X58655188Y-89248134D01*
X59715848Y-90308794D01*
X59715848Y-90308794D01*
G37*
D18*
X58991064Y-92377082D03*
D14*
G36*
X58655188Y-93101866D02*
G01*
X58266280Y-92712958D01*
X59326940Y-91652298D01*
X59715848Y-92041206D01*
X58655188Y-93101866D01*
X58655188Y-93101866D01*
G37*
D18*
X59556750Y-92942767D03*
D14*
G36*
X59220874Y-93667551D02*
G01*
X58831966Y-93278643D01*
X59892626Y-92217983D01*
X60281534Y-92606891D01*
X59220874Y-93667551D01*
X59220874Y-93667551D01*
G37*
D18*
X60122435Y-93508452D03*
D14*
G36*
X59786559Y-94233236D02*
G01*
X59397651Y-93844328D01*
X60458311Y-92783668D01*
X60847219Y-93172576D01*
X59786559Y-94233236D01*
X59786559Y-94233236D01*
G37*
D18*
X60688120Y-94074138D03*
D14*
G36*
X60352244Y-94798922D02*
G01*
X59963336Y-94410014D01*
X61023996Y-93349354D01*
X61412904Y-93738262D01*
X60352244Y-94798922D01*
X60352244Y-94798922D01*
G37*
D18*
X61253806Y-94639823D03*
D14*
G36*
X60917930Y-95364607D02*
G01*
X60529022Y-94975699D01*
X61589682Y-93915039D01*
X61978590Y-94303947D01*
X60917930Y-95364607D01*
X60917930Y-95364607D01*
G37*
D18*
X61819491Y-95205509D03*
D14*
G36*
X61483615Y-95930293D02*
G01*
X61094707Y-95541385D01*
X62155367Y-94480725D01*
X62544275Y-94869633D01*
X61483615Y-95930293D01*
X61483615Y-95930293D01*
G37*
D18*
X62385177Y-95771194D03*
D14*
G36*
X62049301Y-96495978D02*
G01*
X61660393Y-96107070D01*
X62721053Y-95046410D01*
X63109961Y-95435318D01*
X62049301Y-96495978D01*
X62049301Y-96495978D01*
G37*
D18*
X62950862Y-96336880D03*
D14*
G36*
X62614986Y-97061664D02*
G01*
X62226078Y-96672756D01*
X63286738Y-95612096D01*
X63675646Y-96001004D01*
X62614986Y-97061664D01*
X62614986Y-97061664D01*
G37*
D18*
X63516548Y-96902565D03*
D14*
G36*
X63180672Y-97627349D02*
G01*
X62791764Y-97238441D01*
X63852424Y-96177781D01*
X64241332Y-96566689D01*
X63180672Y-97627349D01*
X63180672Y-97627349D01*
G37*
D18*
X64082233Y-97468250D03*
D14*
G36*
X63746357Y-98193034D02*
G01*
X63357449Y-97804126D01*
X64418109Y-96743466D01*
X64807017Y-97132374D01*
X63746357Y-98193034D01*
X63746357Y-98193034D01*
G37*
D18*
X64647918Y-98033936D03*
D14*
G36*
X64312042Y-98758720D02*
G01*
X63923134Y-98369812D01*
X64983794Y-97309152D01*
X65372702Y-97698060D01*
X64312042Y-98758720D01*
X64312042Y-98758720D01*
G37*
D18*
X67052082Y-98033936D03*
D14*
G36*
X67776866Y-98369812D02*
G01*
X67387958Y-98758720D01*
X66327298Y-97698060D01*
X66716206Y-97309152D01*
X67776866Y-98369812D01*
X67776866Y-98369812D01*
G37*
D18*
X67617767Y-97468250D03*
D14*
G36*
X68342551Y-97804126D02*
G01*
X67953643Y-98193034D01*
X66892983Y-97132374D01*
X67281891Y-96743466D01*
X68342551Y-97804126D01*
X68342551Y-97804126D01*
G37*
D18*
X68183452Y-96902565D03*
D14*
G36*
X68908236Y-97238441D02*
G01*
X68519328Y-97627349D01*
X67458668Y-96566689D01*
X67847576Y-96177781D01*
X68908236Y-97238441D01*
X68908236Y-97238441D01*
G37*
D18*
X68749138Y-96336880D03*
D14*
G36*
X69473922Y-96672756D02*
G01*
X69085014Y-97061664D01*
X68024354Y-96001004D01*
X68413262Y-95612096D01*
X69473922Y-96672756D01*
X69473922Y-96672756D01*
G37*
D18*
X69314823Y-95771194D03*
D14*
G36*
X70039607Y-96107070D02*
G01*
X69650699Y-96495978D01*
X68590039Y-95435318D01*
X68978947Y-95046410D01*
X70039607Y-96107070D01*
X70039607Y-96107070D01*
G37*
D18*
X69880509Y-95205509D03*
D14*
G36*
X70605293Y-95541385D02*
G01*
X70216385Y-95930293D01*
X69155725Y-94869633D01*
X69544633Y-94480725D01*
X70605293Y-95541385D01*
X70605293Y-95541385D01*
G37*
D18*
X70446194Y-94639823D03*
D14*
G36*
X71170978Y-94975699D02*
G01*
X70782070Y-95364607D01*
X69721410Y-94303947D01*
X70110318Y-93915039D01*
X71170978Y-94975699D01*
X71170978Y-94975699D01*
G37*
D18*
X71011880Y-94074138D03*
D14*
G36*
X71736664Y-94410014D02*
G01*
X71347756Y-94798922D01*
X70287096Y-93738262D01*
X70676004Y-93349354D01*
X71736664Y-94410014D01*
X71736664Y-94410014D01*
G37*
D18*
X71577565Y-93508452D03*
D14*
G36*
X72302349Y-93844328D02*
G01*
X71913441Y-94233236D01*
X70852781Y-93172576D01*
X71241689Y-92783668D01*
X72302349Y-93844328D01*
X72302349Y-93844328D01*
G37*
D18*
X72143250Y-92942767D03*
D14*
G36*
X72868034Y-93278643D02*
G01*
X72479126Y-93667551D01*
X71418466Y-92606891D01*
X71807374Y-92217983D01*
X72868034Y-93278643D01*
X72868034Y-93278643D01*
G37*
D18*
X72708936Y-92377082D03*
D14*
G36*
X73433720Y-92712958D02*
G01*
X73044812Y-93101866D01*
X71984152Y-92041206D01*
X72373060Y-91652298D01*
X73433720Y-92712958D01*
X73433720Y-92712958D01*
G37*
D19*
X39953000Y-89082000D03*
X46153000Y-92782000D03*
X39953000Y-92782000D03*
X46153000Y-89082000D03*
D14*
G36*
X61186142Y-76554174D02*
G01*
X61209803Y-76557684D01*
X61233007Y-76563496D01*
X61255529Y-76571554D01*
X61277153Y-76581782D01*
X61297670Y-76594079D01*
X61316883Y-76608329D01*
X61334607Y-76624393D01*
X61350671Y-76642117D01*
X61364921Y-76661330D01*
X61377218Y-76681847D01*
X61387446Y-76703471D01*
X61395504Y-76725993D01*
X61401316Y-76749197D01*
X61404826Y-76772858D01*
X61406000Y-76796750D01*
X61406000Y-77284250D01*
X61404826Y-77308142D01*
X61401316Y-77331803D01*
X61395504Y-77355007D01*
X61387446Y-77377529D01*
X61377218Y-77399153D01*
X61364921Y-77419670D01*
X61350671Y-77438883D01*
X61334607Y-77456607D01*
X61316883Y-77472671D01*
X61297670Y-77486921D01*
X61277153Y-77499218D01*
X61255529Y-77509446D01*
X61233007Y-77517504D01*
X61209803Y-77523316D01*
X61186142Y-77526826D01*
X61162250Y-77528000D01*
X60249750Y-77528000D01*
X60225858Y-77526826D01*
X60202197Y-77523316D01*
X60178993Y-77517504D01*
X60156471Y-77509446D01*
X60134847Y-77499218D01*
X60114330Y-77486921D01*
X60095117Y-77472671D01*
X60077393Y-77456607D01*
X60061329Y-77438883D01*
X60047079Y-77419670D01*
X60034782Y-77399153D01*
X60024554Y-77377529D01*
X60016496Y-77355007D01*
X60010684Y-77331803D01*
X60007174Y-77308142D01*
X60006000Y-77284250D01*
X60006000Y-76796750D01*
X60007174Y-76772858D01*
X60010684Y-76749197D01*
X60016496Y-76725993D01*
X60024554Y-76703471D01*
X60034782Y-76681847D01*
X60047079Y-76661330D01*
X60061329Y-76642117D01*
X60077393Y-76624393D01*
X60095117Y-76608329D01*
X60114330Y-76594079D01*
X60134847Y-76581782D01*
X60156471Y-76571554D01*
X60178993Y-76563496D01*
X60202197Y-76557684D01*
X60225858Y-76554174D01*
X60249750Y-76553000D01*
X61162250Y-76553000D01*
X61186142Y-76554174D01*
X61186142Y-76554174D01*
G37*
D15*
X60706000Y-77040500D03*
D14*
G36*
X61186142Y-78429174D02*
G01*
X61209803Y-78432684D01*
X61233007Y-78438496D01*
X61255529Y-78446554D01*
X61277153Y-78456782D01*
X61297670Y-78469079D01*
X61316883Y-78483329D01*
X61334607Y-78499393D01*
X61350671Y-78517117D01*
X61364921Y-78536330D01*
X61377218Y-78556847D01*
X61387446Y-78578471D01*
X61395504Y-78600993D01*
X61401316Y-78624197D01*
X61404826Y-78647858D01*
X61406000Y-78671750D01*
X61406000Y-79159250D01*
X61404826Y-79183142D01*
X61401316Y-79206803D01*
X61395504Y-79230007D01*
X61387446Y-79252529D01*
X61377218Y-79274153D01*
X61364921Y-79294670D01*
X61350671Y-79313883D01*
X61334607Y-79331607D01*
X61316883Y-79347671D01*
X61297670Y-79361921D01*
X61277153Y-79374218D01*
X61255529Y-79384446D01*
X61233007Y-79392504D01*
X61209803Y-79398316D01*
X61186142Y-79401826D01*
X61162250Y-79403000D01*
X60249750Y-79403000D01*
X60225858Y-79401826D01*
X60202197Y-79398316D01*
X60178993Y-79392504D01*
X60156471Y-79384446D01*
X60134847Y-79374218D01*
X60114330Y-79361921D01*
X60095117Y-79347671D01*
X60077393Y-79331607D01*
X60061329Y-79313883D01*
X60047079Y-79294670D01*
X60034782Y-79274153D01*
X60024554Y-79252529D01*
X60016496Y-79230007D01*
X60010684Y-79206803D01*
X60007174Y-79183142D01*
X60006000Y-79159250D01*
X60006000Y-78671750D01*
X60007174Y-78647858D01*
X60010684Y-78624197D01*
X60016496Y-78600993D01*
X60024554Y-78578471D01*
X60034782Y-78556847D01*
X60047079Y-78536330D01*
X60061329Y-78517117D01*
X60077393Y-78499393D01*
X60095117Y-78483329D01*
X60114330Y-78469079D01*
X60134847Y-78456782D01*
X60156471Y-78446554D01*
X60178993Y-78438496D01*
X60202197Y-78432684D01*
X60225858Y-78429174D01*
X60249750Y-78428000D01*
X61162250Y-78428000D01*
X61186142Y-78429174D01*
X61186142Y-78429174D01*
G37*
D15*
X60706000Y-78915500D03*
D14*
G36*
X40224142Y-96837174D02*
G01*
X40247803Y-96840684D01*
X40271007Y-96846496D01*
X40293529Y-96854554D01*
X40315153Y-96864782D01*
X40335670Y-96877079D01*
X40354883Y-96891329D01*
X40372607Y-96907393D01*
X40388671Y-96925117D01*
X40402921Y-96944330D01*
X40415218Y-96964847D01*
X40425446Y-96986471D01*
X40433504Y-97008993D01*
X40439316Y-97032197D01*
X40442826Y-97055858D01*
X40444000Y-97079750D01*
X40444000Y-97992250D01*
X40442826Y-98016142D01*
X40439316Y-98039803D01*
X40433504Y-98063007D01*
X40425446Y-98085529D01*
X40415218Y-98107153D01*
X40402921Y-98127670D01*
X40388671Y-98146883D01*
X40372607Y-98164607D01*
X40354883Y-98180671D01*
X40335670Y-98194921D01*
X40315153Y-98207218D01*
X40293529Y-98217446D01*
X40271007Y-98225504D01*
X40247803Y-98231316D01*
X40224142Y-98234826D01*
X40200250Y-98236000D01*
X39712750Y-98236000D01*
X39688858Y-98234826D01*
X39665197Y-98231316D01*
X39641993Y-98225504D01*
X39619471Y-98217446D01*
X39597847Y-98207218D01*
X39577330Y-98194921D01*
X39558117Y-98180671D01*
X39540393Y-98164607D01*
X39524329Y-98146883D01*
X39510079Y-98127670D01*
X39497782Y-98107153D01*
X39487554Y-98085529D01*
X39479496Y-98063007D01*
X39473684Y-98039803D01*
X39470174Y-98016142D01*
X39469000Y-97992250D01*
X39469000Y-97079750D01*
X39470174Y-97055858D01*
X39473684Y-97032197D01*
X39479496Y-97008993D01*
X39487554Y-96986471D01*
X39497782Y-96964847D01*
X39510079Y-96944330D01*
X39524329Y-96925117D01*
X39540393Y-96907393D01*
X39558117Y-96891329D01*
X39577330Y-96877079D01*
X39597847Y-96864782D01*
X39619471Y-96854554D01*
X39641993Y-96846496D01*
X39665197Y-96840684D01*
X39688858Y-96837174D01*
X39712750Y-96836000D01*
X40200250Y-96836000D01*
X40224142Y-96837174D01*
X40224142Y-96837174D01*
G37*
D15*
X39956500Y-97536000D03*
D14*
G36*
X42099142Y-96837174D02*
G01*
X42122803Y-96840684D01*
X42146007Y-96846496D01*
X42168529Y-96854554D01*
X42190153Y-96864782D01*
X42210670Y-96877079D01*
X42229883Y-96891329D01*
X42247607Y-96907393D01*
X42263671Y-96925117D01*
X42277921Y-96944330D01*
X42290218Y-96964847D01*
X42300446Y-96986471D01*
X42308504Y-97008993D01*
X42314316Y-97032197D01*
X42317826Y-97055858D01*
X42319000Y-97079750D01*
X42319000Y-97992250D01*
X42317826Y-98016142D01*
X42314316Y-98039803D01*
X42308504Y-98063007D01*
X42300446Y-98085529D01*
X42290218Y-98107153D01*
X42277921Y-98127670D01*
X42263671Y-98146883D01*
X42247607Y-98164607D01*
X42229883Y-98180671D01*
X42210670Y-98194921D01*
X42190153Y-98207218D01*
X42168529Y-98217446D01*
X42146007Y-98225504D01*
X42122803Y-98231316D01*
X42099142Y-98234826D01*
X42075250Y-98236000D01*
X41587750Y-98236000D01*
X41563858Y-98234826D01*
X41540197Y-98231316D01*
X41516993Y-98225504D01*
X41494471Y-98217446D01*
X41472847Y-98207218D01*
X41452330Y-98194921D01*
X41433117Y-98180671D01*
X41415393Y-98164607D01*
X41399329Y-98146883D01*
X41385079Y-98127670D01*
X41372782Y-98107153D01*
X41362554Y-98085529D01*
X41354496Y-98063007D01*
X41348684Y-98039803D01*
X41345174Y-98016142D01*
X41344000Y-97992250D01*
X41344000Y-97079750D01*
X41345174Y-97055858D01*
X41348684Y-97032197D01*
X41354496Y-97008993D01*
X41362554Y-96986471D01*
X41372782Y-96964847D01*
X41385079Y-96944330D01*
X41399329Y-96925117D01*
X41415393Y-96907393D01*
X41433117Y-96891329D01*
X41452330Y-96877079D01*
X41472847Y-96864782D01*
X41494471Y-96854554D01*
X41516993Y-96846496D01*
X41540197Y-96840684D01*
X41563858Y-96837174D01*
X41587750Y-96836000D01*
X42075250Y-96836000D01*
X42099142Y-96837174D01*
X42099142Y-96837174D01*
G37*
D15*
X41831500Y-97536000D03*
D14*
G36*
X203849504Y-65667204D02*
G01*
X203873773Y-65670804D01*
X203897571Y-65676765D01*
X203920671Y-65685030D01*
X203942849Y-65695520D01*
X203963893Y-65708133D01*
X203983598Y-65722747D01*
X204001777Y-65739223D01*
X204018253Y-65757402D01*
X204032867Y-65777107D01*
X204045480Y-65798151D01*
X204055970Y-65820329D01*
X204064235Y-65843429D01*
X204070196Y-65867227D01*
X204073796Y-65891496D01*
X204075000Y-65916000D01*
X204075000Y-66666000D01*
X204073796Y-66690504D01*
X204070196Y-66714773D01*
X204064235Y-66738571D01*
X204055970Y-66761671D01*
X204045480Y-66783849D01*
X204032867Y-66804893D01*
X204018253Y-66824598D01*
X204001777Y-66842777D01*
X203983598Y-66859253D01*
X203963893Y-66873867D01*
X203942849Y-66886480D01*
X203920671Y-66896970D01*
X203897571Y-66905235D01*
X203873773Y-66911196D01*
X203849504Y-66914796D01*
X203825000Y-66916000D01*
X202575000Y-66916000D01*
X202550496Y-66914796D01*
X202526227Y-66911196D01*
X202502429Y-66905235D01*
X202479329Y-66896970D01*
X202457151Y-66886480D01*
X202436107Y-66873867D01*
X202416402Y-66859253D01*
X202398223Y-66842777D01*
X202381747Y-66824598D01*
X202367133Y-66804893D01*
X202354520Y-66783849D01*
X202344030Y-66761671D01*
X202335765Y-66738571D01*
X202329804Y-66714773D01*
X202326204Y-66690504D01*
X202325000Y-66666000D01*
X202325000Y-65916000D01*
X202326204Y-65891496D01*
X202329804Y-65867227D01*
X202335765Y-65843429D01*
X202344030Y-65820329D01*
X202354520Y-65798151D01*
X202367133Y-65777107D01*
X202381747Y-65757402D01*
X202398223Y-65739223D01*
X202416402Y-65722747D01*
X202436107Y-65708133D01*
X202457151Y-65695520D01*
X202479329Y-65685030D01*
X202502429Y-65676765D01*
X202526227Y-65670804D01*
X202550496Y-65667204D01*
X202575000Y-65666000D01*
X203825000Y-65666000D01*
X203849504Y-65667204D01*
X203849504Y-65667204D01*
G37*
D20*
X203200000Y-66291000D03*
D14*
G36*
X203849504Y-68467204D02*
G01*
X203873773Y-68470804D01*
X203897571Y-68476765D01*
X203920671Y-68485030D01*
X203942849Y-68495520D01*
X203963893Y-68508133D01*
X203983598Y-68522747D01*
X204001777Y-68539223D01*
X204018253Y-68557402D01*
X204032867Y-68577107D01*
X204045480Y-68598151D01*
X204055970Y-68620329D01*
X204064235Y-68643429D01*
X204070196Y-68667227D01*
X204073796Y-68691496D01*
X204075000Y-68716000D01*
X204075000Y-69466000D01*
X204073796Y-69490504D01*
X204070196Y-69514773D01*
X204064235Y-69538571D01*
X204055970Y-69561671D01*
X204045480Y-69583849D01*
X204032867Y-69604893D01*
X204018253Y-69624598D01*
X204001777Y-69642777D01*
X203983598Y-69659253D01*
X203963893Y-69673867D01*
X203942849Y-69686480D01*
X203920671Y-69696970D01*
X203897571Y-69705235D01*
X203873773Y-69711196D01*
X203849504Y-69714796D01*
X203825000Y-69716000D01*
X202575000Y-69716000D01*
X202550496Y-69714796D01*
X202526227Y-69711196D01*
X202502429Y-69705235D01*
X202479329Y-69696970D01*
X202457151Y-69686480D01*
X202436107Y-69673867D01*
X202416402Y-69659253D01*
X202398223Y-69642777D01*
X202381747Y-69624598D01*
X202367133Y-69604893D01*
X202354520Y-69583849D01*
X202344030Y-69561671D01*
X202335765Y-69538571D01*
X202329804Y-69514773D01*
X202326204Y-69490504D01*
X202325000Y-69466000D01*
X202325000Y-68716000D01*
X202326204Y-68691496D01*
X202329804Y-68667227D01*
X202335765Y-68643429D01*
X202344030Y-68620329D01*
X202354520Y-68598151D01*
X202367133Y-68577107D01*
X202381747Y-68557402D01*
X202398223Y-68539223D01*
X202416402Y-68522747D01*
X202436107Y-68508133D01*
X202457151Y-68495520D01*
X202479329Y-68485030D01*
X202502429Y-68476765D01*
X202526227Y-68470804D01*
X202550496Y-68467204D01*
X202575000Y-68466000D01*
X203825000Y-68466000D01*
X203849504Y-68467204D01*
X203849504Y-68467204D01*
G37*
D20*
X203200000Y-69091000D03*
D16*
X228375000Y-120000000D03*
X228375000Y-123300000D03*
X162600000Y-119925000D03*
X162600000Y-123225000D03*
X71979720Y-119963520D03*
X71979720Y-123263520D03*
X52952880Y-119918200D03*
X52952880Y-123218200D03*
X224500000Y-102677960D03*
X224500000Y-105977960D03*
X200619360Y-102728760D03*
X200619360Y-106028760D03*
X181575000Y-102675000D03*
X181575000Y-105975000D03*
X162544760Y-102667800D03*
X162544760Y-105967800D03*
X143510000Y-102693200D03*
X143510000Y-105993200D03*
X124409200Y-102647480D03*
X124409200Y-105947480D03*
X105404920Y-102693200D03*
X105404920Y-105993200D03*
X86273640Y-102693200D03*
X86273640Y-105993200D03*
D21*
X54103000Y-110363000D03*
X57403000Y-110363000D03*
D16*
X227075000Y-75475000D03*
X227075000Y-72175000D03*
X201475000Y-75525000D03*
X201475000Y-72225000D03*
X191050000Y-75525000D03*
X191050000Y-72225000D03*
X171975000Y-75525000D03*
X171975000Y-72225000D03*
X152950000Y-75525000D03*
X152950000Y-72225000D03*
X133900000Y-75525000D03*
X133900000Y-72225000D03*
X114825000Y-75525000D03*
X114825000Y-72225000D03*
X95800000Y-75525000D03*
X95800000Y-72225000D03*
X76725000Y-75525000D03*
X76725000Y-72225000D03*
X55325000Y-75525000D03*
X55325000Y-72225000D03*
X226850000Y-64575000D03*
X226850000Y-67875000D03*
X199975000Y-64525000D03*
X199975000Y-67825000D03*
X186350000Y-64575000D03*
X186350000Y-67875000D03*
X167294560Y-64608440D03*
X167294560Y-67908440D03*
X143149320Y-64593200D03*
X143149320Y-67893200D03*
X129204720Y-64598280D03*
X129204720Y-67898280D03*
X110149640Y-64598280D03*
X110149640Y-67898280D03*
X91094560Y-64598280D03*
X91094560Y-67898280D03*
X72069960Y-64598280D03*
X72069960Y-67898280D03*
X52975000Y-64575000D03*
X52975000Y-67875000D03*
D14*
G36*
X74949239Y-87753536D02*
G01*
X74972900Y-87757046D01*
X74996104Y-87762858D01*
X75018626Y-87770916D01*
X75040250Y-87781144D01*
X75060767Y-87793441D01*
X75079980Y-87807691D01*
X75097704Y-87823755D01*
X75442419Y-88168470D01*
X75458483Y-88186194D01*
X75472733Y-88205407D01*
X75485030Y-88225924D01*
X75495258Y-88247548D01*
X75503316Y-88270070D01*
X75509128Y-88293274D01*
X75512638Y-88316935D01*
X75513812Y-88340827D01*
X75512638Y-88364719D01*
X75509128Y-88388380D01*
X75503316Y-88411584D01*
X75495258Y-88434106D01*
X75485030Y-88455730D01*
X75472733Y-88476247D01*
X75458483Y-88495460D01*
X75442419Y-88513184D01*
X74797184Y-89158419D01*
X74779460Y-89174483D01*
X74760247Y-89188733D01*
X74739730Y-89201030D01*
X74718106Y-89211258D01*
X74695584Y-89219316D01*
X74672380Y-89225128D01*
X74648719Y-89228638D01*
X74624827Y-89229812D01*
X74600935Y-89228638D01*
X74577274Y-89225128D01*
X74554070Y-89219316D01*
X74531548Y-89211258D01*
X74509924Y-89201030D01*
X74489407Y-89188733D01*
X74470194Y-89174483D01*
X74452470Y-89158419D01*
X74107755Y-88813704D01*
X74091691Y-88795980D01*
X74077441Y-88776767D01*
X74065144Y-88756250D01*
X74054916Y-88734626D01*
X74046858Y-88712104D01*
X74041046Y-88688900D01*
X74037536Y-88665239D01*
X74036362Y-88641347D01*
X74037536Y-88617455D01*
X74041046Y-88593794D01*
X74046858Y-88570590D01*
X74054916Y-88548068D01*
X74065144Y-88526444D01*
X74077441Y-88505927D01*
X74091691Y-88486714D01*
X74107755Y-88468990D01*
X74752990Y-87823755D01*
X74770714Y-87807691D01*
X74789927Y-87793441D01*
X74810444Y-87781144D01*
X74832068Y-87770916D01*
X74854590Y-87762858D01*
X74877794Y-87757046D01*
X74901455Y-87753536D01*
X74925347Y-87752362D01*
X74949239Y-87753536D01*
X74949239Y-87753536D01*
G37*
D15*
X74775087Y-88491087D03*
D14*
G36*
X76275065Y-89079362D02*
G01*
X76298726Y-89082872D01*
X76321930Y-89088684D01*
X76344452Y-89096742D01*
X76366076Y-89106970D01*
X76386593Y-89119267D01*
X76405806Y-89133517D01*
X76423530Y-89149581D01*
X76768245Y-89494296D01*
X76784309Y-89512020D01*
X76798559Y-89531233D01*
X76810856Y-89551750D01*
X76821084Y-89573374D01*
X76829142Y-89595896D01*
X76834954Y-89619100D01*
X76838464Y-89642761D01*
X76839638Y-89666653D01*
X76838464Y-89690545D01*
X76834954Y-89714206D01*
X76829142Y-89737410D01*
X76821084Y-89759932D01*
X76810856Y-89781556D01*
X76798559Y-89802073D01*
X76784309Y-89821286D01*
X76768245Y-89839010D01*
X76123010Y-90484245D01*
X76105286Y-90500309D01*
X76086073Y-90514559D01*
X76065556Y-90526856D01*
X76043932Y-90537084D01*
X76021410Y-90545142D01*
X75998206Y-90550954D01*
X75974545Y-90554464D01*
X75950653Y-90555638D01*
X75926761Y-90554464D01*
X75903100Y-90550954D01*
X75879896Y-90545142D01*
X75857374Y-90537084D01*
X75835750Y-90526856D01*
X75815233Y-90514559D01*
X75796020Y-90500309D01*
X75778296Y-90484245D01*
X75433581Y-90139530D01*
X75417517Y-90121806D01*
X75403267Y-90102593D01*
X75390970Y-90082076D01*
X75380742Y-90060452D01*
X75372684Y-90037930D01*
X75366872Y-90014726D01*
X75363362Y-89991065D01*
X75362188Y-89967173D01*
X75363362Y-89943281D01*
X75366872Y-89919620D01*
X75372684Y-89896416D01*
X75380742Y-89873894D01*
X75390970Y-89852270D01*
X75403267Y-89831753D01*
X75417517Y-89812540D01*
X75433581Y-89794816D01*
X76078816Y-89149581D01*
X76096540Y-89133517D01*
X76115753Y-89119267D01*
X76136270Y-89106970D01*
X76157894Y-89096742D01*
X76180416Y-89088684D01*
X76203620Y-89082872D01*
X76227281Y-89079362D01*
X76251173Y-89078188D01*
X76275065Y-89079362D01*
X76275065Y-89079362D01*
G37*
D15*
X76100913Y-89816913D03*
D14*
G36*
X61487239Y-100072536D02*
G01*
X61510900Y-100076046D01*
X61534104Y-100081858D01*
X61556626Y-100089916D01*
X61578250Y-100100144D01*
X61598767Y-100112441D01*
X61617980Y-100126691D01*
X61635704Y-100142755D01*
X61980419Y-100487470D01*
X61996483Y-100505194D01*
X62010733Y-100524407D01*
X62023030Y-100544924D01*
X62033258Y-100566548D01*
X62041316Y-100589070D01*
X62047128Y-100612274D01*
X62050638Y-100635935D01*
X62051812Y-100659827D01*
X62050638Y-100683719D01*
X62047128Y-100707380D01*
X62041316Y-100730584D01*
X62033258Y-100753106D01*
X62023030Y-100774730D01*
X62010733Y-100795247D01*
X61996483Y-100814460D01*
X61980419Y-100832184D01*
X61335184Y-101477419D01*
X61317460Y-101493483D01*
X61298247Y-101507733D01*
X61277730Y-101520030D01*
X61256106Y-101530258D01*
X61233584Y-101538316D01*
X61210380Y-101544128D01*
X61186719Y-101547638D01*
X61162827Y-101548812D01*
X61138935Y-101547638D01*
X61115274Y-101544128D01*
X61092070Y-101538316D01*
X61069548Y-101530258D01*
X61047924Y-101520030D01*
X61027407Y-101507733D01*
X61008194Y-101493483D01*
X60990470Y-101477419D01*
X60645755Y-101132704D01*
X60629691Y-101114980D01*
X60615441Y-101095767D01*
X60603144Y-101075250D01*
X60592916Y-101053626D01*
X60584858Y-101031104D01*
X60579046Y-101007900D01*
X60575536Y-100984239D01*
X60574362Y-100960347D01*
X60575536Y-100936455D01*
X60579046Y-100912794D01*
X60584858Y-100889590D01*
X60592916Y-100867068D01*
X60603144Y-100845444D01*
X60615441Y-100824927D01*
X60629691Y-100805714D01*
X60645755Y-100787990D01*
X61290990Y-100142755D01*
X61308714Y-100126691D01*
X61327927Y-100112441D01*
X61348444Y-100100144D01*
X61370068Y-100089916D01*
X61392590Y-100081858D01*
X61415794Y-100076046D01*
X61439455Y-100072536D01*
X61463347Y-100071362D01*
X61487239Y-100072536D01*
X61487239Y-100072536D01*
G37*
D15*
X61313087Y-100810087D03*
D14*
G36*
X62813065Y-101398362D02*
G01*
X62836726Y-101401872D01*
X62859930Y-101407684D01*
X62882452Y-101415742D01*
X62904076Y-101425970D01*
X62924593Y-101438267D01*
X62943806Y-101452517D01*
X62961530Y-101468581D01*
X63306245Y-101813296D01*
X63322309Y-101831020D01*
X63336559Y-101850233D01*
X63348856Y-101870750D01*
X63359084Y-101892374D01*
X63367142Y-101914896D01*
X63372954Y-101938100D01*
X63376464Y-101961761D01*
X63377638Y-101985653D01*
X63376464Y-102009545D01*
X63372954Y-102033206D01*
X63367142Y-102056410D01*
X63359084Y-102078932D01*
X63348856Y-102100556D01*
X63336559Y-102121073D01*
X63322309Y-102140286D01*
X63306245Y-102158010D01*
X62661010Y-102803245D01*
X62643286Y-102819309D01*
X62624073Y-102833559D01*
X62603556Y-102845856D01*
X62581932Y-102856084D01*
X62559410Y-102864142D01*
X62536206Y-102869954D01*
X62512545Y-102873464D01*
X62488653Y-102874638D01*
X62464761Y-102873464D01*
X62441100Y-102869954D01*
X62417896Y-102864142D01*
X62395374Y-102856084D01*
X62373750Y-102845856D01*
X62353233Y-102833559D01*
X62334020Y-102819309D01*
X62316296Y-102803245D01*
X61971581Y-102458530D01*
X61955517Y-102440806D01*
X61941267Y-102421593D01*
X61928970Y-102401076D01*
X61918742Y-102379452D01*
X61910684Y-102356930D01*
X61904872Y-102333726D01*
X61901362Y-102310065D01*
X61900188Y-102286173D01*
X61901362Y-102262281D01*
X61904872Y-102238620D01*
X61910684Y-102215416D01*
X61918742Y-102192894D01*
X61928970Y-102171270D01*
X61941267Y-102150753D01*
X61955517Y-102131540D01*
X61971581Y-102113816D01*
X62616816Y-101468581D01*
X62634540Y-101452517D01*
X62653753Y-101438267D01*
X62674270Y-101425970D01*
X62695894Y-101415742D01*
X62718416Y-101407684D01*
X62741620Y-101401872D01*
X62765281Y-101398362D01*
X62789173Y-101397188D01*
X62813065Y-101398362D01*
X62813065Y-101398362D01*
G37*
D15*
X62638913Y-102135913D03*
D14*
G36*
X55090719Y-88444362D02*
G01*
X55114380Y-88447872D01*
X55137584Y-88453684D01*
X55160106Y-88461742D01*
X55181730Y-88471970D01*
X55202247Y-88484267D01*
X55221460Y-88498517D01*
X55239184Y-88514581D01*
X55884419Y-89159816D01*
X55900483Y-89177540D01*
X55914733Y-89196753D01*
X55927030Y-89217270D01*
X55937258Y-89238894D01*
X55945316Y-89261416D01*
X55951128Y-89284620D01*
X55954638Y-89308281D01*
X55955812Y-89332173D01*
X55954638Y-89356065D01*
X55951128Y-89379726D01*
X55945316Y-89402930D01*
X55937258Y-89425452D01*
X55927030Y-89447076D01*
X55914733Y-89467593D01*
X55900483Y-89486806D01*
X55884419Y-89504530D01*
X55539704Y-89849245D01*
X55521980Y-89865309D01*
X55502767Y-89879559D01*
X55482250Y-89891856D01*
X55460626Y-89902084D01*
X55438104Y-89910142D01*
X55414900Y-89915954D01*
X55391239Y-89919464D01*
X55367347Y-89920638D01*
X55343455Y-89919464D01*
X55319794Y-89915954D01*
X55296590Y-89910142D01*
X55274068Y-89902084D01*
X55252444Y-89891856D01*
X55231927Y-89879559D01*
X55212714Y-89865309D01*
X55194990Y-89849245D01*
X54549755Y-89204010D01*
X54533691Y-89186286D01*
X54519441Y-89167073D01*
X54507144Y-89146556D01*
X54496916Y-89124932D01*
X54488858Y-89102410D01*
X54483046Y-89079206D01*
X54479536Y-89055545D01*
X54478362Y-89031653D01*
X54479536Y-89007761D01*
X54483046Y-88984100D01*
X54488858Y-88960896D01*
X54496916Y-88938374D01*
X54507144Y-88916750D01*
X54519441Y-88896233D01*
X54533691Y-88877020D01*
X54549755Y-88859296D01*
X54894470Y-88514581D01*
X54912194Y-88498517D01*
X54931407Y-88484267D01*
X54951924Y-88471970D01*
X54973548Y-88461742D01*
X54996070Y-88453684D01*
X55019274Y-88447872D01*
X55042935Y-88444362D01*
X55066827Y-88443188D01*
X55090719Y-88444362D01*
X55090719Y-88444362D01*
G37*
D15*
X55217087Y-89181913D03*
D14*
G36*
X56416545Y-87118536D02*
G01*
X56440206Y-87122046D01*
X56463410Y-87127858D01*
X56485932Y-87135916D01*
X56507556Y-87146144D01*
X56528073Y-87158441D01*
X56547286Y-87172691D01*
X56565010Y-87188755D01*
X57210245Y-87833990D01*
X57226309Y-87851714D01*
X57240559Y-87870927D01*
X57252856Y-87891444D01*
X57263084Y-87913068D01*
X57271142Y-87935590D01*
X57276954Y-87958794D01*
X57280464Y-87982455D01*
X57281638Y-88006347D01*
X57280464Y-88030239D01*
X57276954Y-88053900D01*
X57271142Y-88077104D01*
X57263084Y-88099626D01*
X57252856Y-88121250D01*
X57240559Y-88141767D01*
X57226309Y-88160980D01*
X57210245Y-88178704D01*
X56865530Y-88523419D01*
X56847806Y-88539483D01*
X56828593Y-88553733D01*
X56808076Y-88566030D01*
X56786452Y-88576258D01*
X56763930Y-88584316D01*
X56740726Y-88590128D01*
X56717065Y-88593638D01*
X56693173Y-88594812D01*
X56669281Y-88593638D01*
X56645620Y-88590128D01*
X56622416Y-88584316D01*
X56599894Y-88576258D01*
X56578270Y-88566030D01*
X56557753Y-88553733D01*
X56538540Y-88539483D01*
X56520816Y-88523419D01*
X55875581Y-87878184D01*
X55859517Y-87860460D01*
X55845267Y-87841247D01*
X55832970Y-87820730D01*
X55822742Y-87799106D01*
X55814684Y-87776584D01*
X55808872Y-87753380D01*
X55805362Y-87729719D01*
X55804188Y-87705827D01*
X55805362Y-87681935D01*
X55808872Y-87658274D01*
X55814684Y-87635070D01*
X55822742Y-87612548D01*
X55832970Y-87590924D01*
X55845267Y-87570407D01*
X55859517Y-87551194D01*
X55875581Y-87533470D01*
X56220296Y-87188755D01*
X56238020Y-87172691D01*
X56257233Y-87158441D01*
X56277750Y-87146144D01*
X56299374Y-87135916D01*
X56321896Y-87127858D01*
X56345100Y-87122046D01*
X56368761Y-87118536D01*
X56392653Y-87117362D01*
X56416545Y-87118536D01*
X56416545Y-87118536D01*
G37*
D15*
X56542913Y-87856087D03*
D14*
G36*
X76243642Y-81470174D02*
G01*
X76267303Y-81473684D01*
X76290507Y-81479496D01*
X76313029Y-81487554D01*
X76334653Y-81497782D01*
X76355170Y-81510079D01*
X76374383Y-81524329D01*
X76392107Y-81540393D01*
X76408171Y-81558117D01*
X76422421Y-81577330D01*
X76434718Y-81597847D01*
X76444946Y-81619471D01*
X76453004Y-81641993D01*
X76458816Y-81665197D01*
X76462326Y-81688858D01*
X76463500Y-81712750D01*
X76463500Y-82625250D01*
X76462326Y-82649142D01*
X76458816Y-82672803D01*
X76453004Y-82696007D01*
X76444946Y-82718529D01*
X76434718Y-82740153D01*
X76422421Y-82760670D01*
X76408171Y-82779883D01*
X76392107Y-82797607D01*
X76374383Y-82813671D01*
X76355170Y-82827921D01*
X76334653Y-82840218D01*
X76313029Y-82850446D01*
X76290507Y-82858504D01*
X76267303Y-82864316D01*
X76243642Y-82867826D01*
X76219750Y-82869000D01*
X75732250Y-82869000D01*
X75708358Y-82867826D01*
X75684697Y-82864316D01*
X75661493Y-82858504D01*
X75638971Y-82850446D01*
X75617347Y-82840218D01*
X75596830Y-82827921D01*
X75577617Y-82813671D01*
X75559893Y-82797607D01*
X75543829Y-82779883D01*
X75529579Y-82760670D01*
X75517282Y-82740153D01*
X75507054Y-82718529D01*
X75498996Y-82696007D01*
X75493184Y-82672803D01*
X75489674Y-82649142D01*
X75488500Y-82625250D01*
X75488500Y-81712750D01*
X75489674Y-81688858D01*
X75493184Y-81665197D01*
X75498996Y-81641993D01*
X75507054Y-81619471D01*
X75517282Y-81597847D01*
X75529579Y-81577330D01*
X75543829Y-81558117D01*
X75559893Y-81540393D01*
X75577617Y-81524329D01*
X75596830Y-81510079D01*
X75617347Y-81497782D01*
X75638971Y-81487554D01*
X75661493Y-81479496D01*
X75684697Y-81473684D01*
X75708358Y-81470174D01*
X75732250Y-81469000D01*
X76219750Y-81469000D01*
X76243642Y-81470174D01*
X76243642Y-81470174D01*
G37*
D15*
X75976000Y-82169000D03*
D14*
G36*
X78118642Y-81470174D02*
G01*
X78142303Y-81473684D01*
X78165507Y-81479496D01*
X78188029Y-81487554D01*
X78209653Y-81497782D01*
X78230170Y-81510079D01*
X78249383Y-81524329D01*
X78267107Y-81540393D01*
X78283171Y-81558117D01*
X78297421Y-81577330D01*
X78309718Y-81597847D01*
X78319946Y-81619471D01*
X78328004Y-81641993D01*
X78333816Y-81665197D01*
X78337326Y-81688858D01*
X78338500Y-81712750D01*
X78338500Y-82625250D01*
X78337326Y-82649142D01*
X78333816Y-82672803D01*
X78328004Y-82696007D01*
X78319946Y-82718529D01*
X78309718Y-82740153D01*
X78297421Y-82760670D01*
X78283171Y-82779883D01*
X78267107Y-82797607D01*
X78249383Y-82813671D01*
X78230170Y-82827921D01*
X78209653Y-82840218D01*
X78188029Y-82850446D01*
X78165507Y-82858504D01*
X78142303Y-82864316D01*
X78118642Y-82867826D01*
X78094750Y-82869000D01*
X77607250Y-82869000D01*
X77583358Y-82867826D01*
X77559697Y-82864316D01*
X77536493Y-82858504D01*
X77513971Y-82850446D01*
X77492347Y-82840218D01*
X77471830Y-82827921D01*
X77452617Y-82813671D01*
X77434893Y-82797607D01*
X77418829Y-82779883D01*
X77404579Y-82760670D01*
X77392282Y-82740153D01*
X77382054Y-82718529D01*
X77373996Y-82696007D01*
X77368184Y-82672803D01*
X77364674Y-82649142D01*
X77363500Y-82625250D01*
X77363500Y-81712750D01*
X77364674Y-81688858D01*
X77368184Y-81665197D01*
X77373996Y-81641993D01*
X77382054Y-81619471D01*
X77392282Y-81597847D01*
X77404579Y-81577330D01*
X77418829Y-81558117D01*
X77434893Y-81540393D01*
X77452617Y-81524329D01*
X77471830Y-81510079D01*
X77492347Y-81497782D01*
X77513971Y-81487554D01*
X77536493Y-81479496D01*
X77559697Y-81473684D01*
X77583358Y-81470174D01*
X77607250Y-81469000D01*
X78094750Y-81469000D01*
X78118642Y-81470174D01*
X78118642Y-81470174D01*
G37*
D15*
X77851000Y-82169000D03*
D14*
G36*
X71849458Y-95436623D02*
G01*
X71873119Y-95440133D01*
X71896323Y-95445945D01*
X71918845Y-95454003D01*
X71940469Y-95464231D01*
X71960986Y-95476528D01*
X71980199Y-95490778D01*
X71997923Y-95506842D01*
X72643158Y-96152077D01*
X72659222Y-96169801D01*
X72673472Y-96189014D01*
X72685769Y-96209531D01*
X72695997Y-96231155D01*
X72704055Y-96253677D01*
X72709867Y-96276881D01*
X72713377Y-96300542D01*
X72714551Y-96324434D01*
X72713377Y-96348326D01*
X72709867Y-96371987D01*
X72704055Y-96395191D01*
X72695997Y-96417713D01*
X72685769Y-96439337D01*
X72673472Y-96459854D01*
X72659222Y-96479067D01*
X72643158Y-96496791D01*
X72298443Y-96841506D01*
X72280719Y-96857570D01*
X72261506Y-96871820D01*
X72240989Y-96884117D01*
X72219365Y-96894345D01*
X72196843Y-96902403D01*
X72173639Y-96908215D01*
X72149978Y-96911725D01*
X72126086Y-96912899D01*
X72102194Y-96911725D01*
X72078533Y-96908215D01*
X72055329Y-96902403D01*
X72032807Y-96894345D01*
X72011183Y-96884117D01*
X71990666Y-96871820D01*
X71971453Y-96857570D01*
X71953729Y-96841506D01*
X71308494Y-96196271D01*
X71292430Y-96178547D01*
X71278180Y-96159334D01*
X71265883Y-96138817D01*
X71255655Y-96117193D01*
X71247597Y-96094671D01*
X71241785Y-96071467D01*
X71238275Y-96047806D01*
X71237101Y-96023914D01*
X71238275Y-96000022D01*
X71241785Y-95976361D01*
X71247597Y-95953157D01*
X71255655Y-95930635D01*
X71265883Y-95909011D01*
X71278180Y-95888494D01*
X71292430Y-95869281D01*
X71308494Y-95851557D01*
X71653209Y-95506842D01*
X71670933Y-95490778D01*
X71690146Y-95476528D01*
X71710663Y-95464231D01*
X71732287Y-95454003D01*
X71754809Y-95445945D01*
X71778013Y-95440133D01*
X71801674Y-95436623D01*
X71825566Y-95435449D01*
X71849458Y-95436623D01*
X71849458Y-95436623D01*
G37*
D15*
X71975826Y-96174174D03*
D14*
G36*
X70523632Y-96762449D02*
G01*
X70547293Y-96765959D01*
X70570497Y-96771771D01*
X70593019Y-96779829D01*
X70614643Y-96790057D01*
X70635160Y-96802354D01*
X70654373Y-96816604D01*
X70672097Y-96832668D01*
X71317332Y-97477903D01*
X71333396Y-97495627D01*
X71347646Y-97514840D01*
X71359943Y-97535357D01*
X71370171Y-97556981D01*
X71378229Y-97579503D01*
X71384041Y-97602707D01*
X71387551Y-97626368D01*
X71388725Y-97650260D01*
X71387551Y-97674152D01*
X71384041Y-97697813D01*
X71378229Y-97721017D01*
X71370171Y-97743539D01*
X71359943Y-97765163D01*
X71347646Y-97785680D01*
X71333396Y-97804893D01*
X71317332Y-97822617D01*
X70972617Y-98167332D01*
X70954893Y-98183396D01*
X70935680Y-98197646D01*
X70915163Y-98209943D01*
X70893539Y-98220171D01*
X70871017Y-98228229D01*
X70847813Y-98234041D01*
X70824152Y-98237551D01*
X70800260Y-98238725D01*
X70776368Y-98237551D01*
X70752707Y-98234041D01*
X70729503Y-98228229D01*
X70706981Y-98220171D01*
X70685357Y-98209943D01*
X70664840Y-98197646D01*
X70645627Y-98183396D01*
X70627903Y-98167332D01*
X69982668Y-97522097D01*
X69966604Y-97504373D01*
X69952354Y-97485160D01*
X69940057Y-97464643D01*
X69929829Y-97443019D01*
X69921771Y-97420497D01*
X69915959Y-97397293D01*
X69912449Y-97373632D01*
X69911275Y-97349740D01*
X69912449Y-97325848D01*
X69915959Y-97302187D01*
X69921771Y-97278983D01*
X69929829Y-97256461D01*
X69940057Y-97234837D01*
X69952354Y-97214320D01*
X69966604Y-97195107D01*
X69982668Y-97177383D01*
X70327383Y-96832668D01*
X70345107Y-96816604D01*
X70364320Y-96802354D01*
X70384837Y-96790057D01*
X70406461Y-96779829D01*
X70428983Y-96771771D01*
X70452187Y-96765959D01*
X70475848Y-96762449D01*
X70499740Y-96761275D01*
X70523632Y-96762449D01*
X70523632Y-96762449D01*
G37*
D15*
X70650000Y-97500000D03*
D14*
G36*
X59892065Y-101652362D02*
G01*
X59915726Y-101655872D01*
X59938930Y-101661684D01*
X59961452Y-101669742D01*
X59983076Y-101679970D01*
X60003593Y-101692267D01*
X60022806Y-101706517D01*
X60040530Y-101722581D01*
X60385245Y-102067296D01*
X60401309Y-102085020D01*
X60415559Y-102104233D01*
X60427856Y-102124750D01*
X60438084Y-102146374D01*
X60446142Y-102168896D01*
X60451954Y-102192100D01*
X60455464Y-102215761D01*
X60456638Y-102239653D01*
X60455464Y-102263545D01*
X60451954Y-102287206D01*
X60446142Y-102310410D01*
X60438084Y-102332932D01*
X60427856Y-102354556D01*
X60415559Y-102375073D01*
X60401309Y-102394286D01*
X60385245Y-102412010D01*
X59740010Y-103057245D01*
X59722286Y-103073309D01*
X59703073Y-103087559D01*
X59682556Y-103099856D01*
X59660932Y-103110084D01*
X59638410Y-103118142D01*
X59615206Y-103123954D01*
X59591545Y-103127464D01*
X59567653Y-103128638D01*
X59543761Y-103127464D01*
X59520100Y-103123954D01*
X59496896Y-103118142D01*
X59474374Y-103110084D01*
X59452750Y-103099856D01*
X59432233Y-103087559D01*
X59413020Y-103073309D01*
X59395296Y-103057245D01*
X59050581Y-102712530D01*
X59034517Y-102694806D01*
X59020267Y-102675593D01*
X59007970Y-102655076D01*
X58997742Y-102633452D01*
X58989684Y-102610930D01*
X58983872Y-102587726D01*
X58980362Y-102564065D01*
X58979188Y-102540173D01*
X58980362Y-102516281D01*
X58983872Y-102492620D01*
X58989684Y-102469416D01*
X58997742Y-102446894D01*
X59007970Y-102425270D01*
X59020267Y-102404753D01*
X59034517Y-102385540D01*
X59050581Y-102367816D01*
X59695816Y-101722581D01*
X59713540Y-101706517D01*
X59732753Y-101692267D01*
X59753270Y-101679970D01*
X59774894Y-101669742D01*
X59797416Y-101661684D01*
X59820620Y-101655872D01*
X59844281Y-101652362D01*
X59868173Y-101651188D01*
X59892065Y-101652362D01*
X59892065Y-101652362D01*
G37*
D15*
X59717913Y-102389913D03*
D14*
G36*
X58566239Y-100326536D02*
G01*
X58589900Y-100330046D01*
X58613104Y-100335858D01*
X58635626Y-100343916D01*
X58657250Y-100354144D01*
X58677767Y-100366441D01*
X58696980Y-100380691D01*
X58714704Y-100396755D01*
X59059419Y-100741470D01*
X59075483Y-100759194D01*
X59089733Y-100778407D01*
X59102030Y-100798924D01*
X59112258Y-100820548D01*
X59120316Y-100843070D01*
X59126128Y-100866274D01*
X59129638Y-100889935D01*
X59130812Y-100913827D01*
X59129638Y-100937719D01*
X59126128Y-100961380D01*
X59120316Y-100984584D01*
X59112258Y-101007106D01*
X59102030Y-101028730D01*
X59089733Y-101049247D01*
X59075483Y-101068460D01*
X59059419Y-101086184D01*
X58414184Y-101731419D01*
X58396460Y-101747483D01*
X58377247Y-101761733D01*
X58356730Y-101774030D01*
X58335106Y-101784258D01*
X58312584Y-101792316D01*
X58289380Y-101798128D01*
X58265719Y-101801638D01*
X58241827Y-101802812D01*
X58217935Y-101801638D01*
X58194274Y-101798128D01*
X58171070Y-101792316D01*
X58148548Y-101784258D01*
X58126924Y-101774030D01*
X58106407Y-101761733D01*
X58087194Y-101747483D01*
X58069470Y-101731419D01*
X57724755Y-101386704D01*
X57708691Y-101368980D01*
X57694441Y-101349767D01*
X57682144Y-101329250D01*
X57671916Y-101307626D01*
X57663858Y-101285104D01*
X57658046Y-101261900D01*
X57654536Y-101238239D01*
X57653362Y-101214347D01*
X57654536Y-101190455D01*
X57658046Y-101166794D01*
X57663858Y-101143590D01*
X57671916Y-101121068D01*
X57682144Y-101099444D01*
X57694441Y-101078927D01*
X57708691Y-101059714D01*
X57724755Y-101041990D01*
X58369990Y-100396755D01*
X58387714Y-100380691D01*
X58406927Y-100366441D01*
X58427444Y-100354144D01*
X58449068Y-100343916D01*
X58471590Y-100335858D01*
X58494794Y-100330046D01*
X58518455Y-100326536D01*
X58542347Y-100325362D01*
X58566239Y-100326536D01*
X58566239Y-100326536D01*
G37*
D15*
X58392087Y-101064087D03*
D14*
G36*
X55598719Y-95937362D02*
G01*
X55622380Y-95940872D01*
X55645584Y-95946684D01*
X55668106Y-95954742D01*
X55689730Y-95964970D01*
X55710247Y-95977267D01*
X55729460Y-95991517D01*
X55747184Y-96007581D01*
X56392419Y-96652816D01*
X56408483Y-96670540D01*
X56422733Y-96689753D01*
X56435030Y-96710270D01*
X56445258Y-96731894D01*
X56453316Y-96754416D01*
X56459128Y-96777620D01*
X56462638Y-96801281D01*
X56463812Y-96825173D01*
X56462638Y-96849065D01*
X56459128Y-96872726D01*
X56453316Y-96895930D01*
X56445258Y-96918452D01*
X56435030Y-96940076D01*
X56422733Y-96960593D01*
X56408483Y-96979806D01*
X56392419Y-96997530D01*
X56047704Y-97342245D01*
X56029980Y-97358309D01*
X56010767Y-97372559D01*
X55990250Y-97384856D01*
X55968626Y-97395084D01*
X55946104Y-97403142D01*
X55922900Y-97408954D01*
X55899239Y-97412464D01*
X55875347Y-97413638D01*
X55851455Y-97412464D01*
X55827794Y-97408954D01*
X55804590Y-97403142D01*
X55782068Y-97395084D01*
X55760444Y-97384856D01*
X55739927Y-97372559D01*
X55720714Y-97358309D01*
X55702990Y-97342245D01*
X55057755Y-96697010D01*
X55041691Y-96679286D01*
X55027441Y-96660073D01*
X55015144Y-96639556D01*
X55004916Y-96617932D01*
X54996858Y-96595410D01*
X54991046Y-96572206D01*
X54987536Y-96548545D01*
X54986362Y-96524653D01*
X54987536Y-96500761D01*
X54991046Y-96477100D01*
X54996858Y-96453896D01*
X55004916Y-96431374D01*
X55015144Y-96409750D01*
X55027441Y-96389233D01*
X55041691Y-96370020D01*
X55057755Y-96352296D01*
X55402470Y-96007581D01*
X55420194Y-95991517D01*
X55439407Y-95977267D01*
X55459924Y-95964970D01*
X55481548Y-95954742D01*
X55504070Y-95946684D01*
X55527274Y-95940872D01*
X55550935Y-95937362D01*
X55574827Y-95936188D01*
X55598719Y-95937362D01*
X55598719Y-95937362D01*
G37*
D15*
X55725087Y-96674913D03*
D14*
G36*
X56924545Y-94611536D02*
G01*
X56948206Y-94615046D01*
X56971410Y-94620858D01*
X56993932Y-94628916D01*
X57015556Y-94639144D01*
X57036073Y-94651441D01*
X57055286Y-94665691D01*
X57073010Y-94681755D01*
X57718245Y-95326990D01*
X57734309Y-95344714D01*
X57748559Y-95363927D01*
X57760856Y-95384444D01*
X57771084Y-95406068D01*
X57779142Y-95428590D01*
X57784954Y-95451794D01*
X57788464Y-95475455D01*
X57789638Y-95499347D01*
X57788464Y-95523239D01*
X57784954Y-95546900D01*
X57779142Y-95570104D01*
X57771084Y-95592626D01*
X57760856Y-95614250D01*
X57748559Y-95634767D01*
X57734309Y-95653980D01*
X57718245Y-95671704D01*
X57373530Y-96016419D01*
X57355806Y-96032483D01*
X57336593Y-96046733D01*
X57316076Y-96059030D01*
X57294452Y-96069258D01*
X57271930Y-96077316D01*
X57248726Y-96083128D01*
X57225065Y-96086638D01*
X57201173Y-96087812D01*
X57177281Y-96086638D01*
X57153620Y-96083128D01*
X57130416Y-96077316D01*
X57107894Y-96069258D01*
X57086270Y-96059030D01*
X57065753Y-96046733D01*
X57046540Y-96032483D01*
X57028816Y-96016419D01*
X56383581Y-95371184D01*
X56367517Y-95353460D01*
X56353267Y-95334247D01*
X56340970Y-95313730D01*
X56330742Y-95292106D01*
X56322684Y-95269584D01*
X56316872Y-95246380D01*
X56313362Y-95222719D01*
X56312188Y-95198827D01*
X56313362Y-95174935D01*
X56316872Y-95151274D01*
X56322684Y-95128070D01*
X56330742Y-95105548D01*
X56340970Y-95083924D01*
X56353267Y-95063407D01*
X56367517Y-95044194D01*
X56383581Y-95026470D01*
X56728296Y-94681755D01*
X56746020Y-94665691D01*
X56765233Y-94651441D01*
X56785750Y-94639144D01*
X56807374Y-94628916D01*
X56829896Y-94620858D01*
X56853100Y-94615046D01*
X56876761Y-94611536D01*
X56900653Y-94610362D01*
X56924545Y-94611536D01*
X56924545Y-94611536D01*
G37*
D15*
X57050913Y-95349087D03*
M02*
